%TF.GenerationSoftware,KiCad,Pcbnew,8.0.7*%
%TF.CreationDate,2025-04-01T17:38:45+03:00*%
%TF.ProjectId,RibbonRiser,52696262-6f6e-4526-9973-65722e6b6963,rev?*%
%TF.SameCoordinates,Original*%
%TF.FileFunction,Soldermask,Bot*%
%TF.FilePolarity,Negative*%
%FSLAX46Y46*%
G04 Gerber Fmt 4.6, Leading zero omitted, Abs format (unit mm)*
G04 Created by KiCad (PCBNEW 8.0.7) date 2025-04-01 17:38:45*
%MOMM*%
%LPD*%
G01*
G04 APERTURE LIST*
G04 Aperture macros list*
%AMRoundRect*
0 Rectangle with rounded corners*
0 $1 Rounding radius*
0 $2 $3 $4 $5 $6 $7 $8 $9 X,Y pos of 4 corners*
0 Add a 4 corners polygon primitive as box body*
4,1,4,$2,$3,$4,$5,$6,$7,$8,$9,$2,$3,0*
0 Add four circle primitives for the rounded corners*
1,1,$1+$1,$2,$3*
1,1,$1+$1,$4,$5*
1,1,$1+$1,$6,$7*
1,1,$1+$1,$8,$9*
0 Add four rect primitives between the rounded corners*
20,1,$1+$1,$2,$3,$4,$5,0*
20,1,$1+$1,$4,$5,$6,$7,0*
20,1,$1+$1,$6,$7,$8,$9,0*
20,1,$1+$1,$8,$9,$2,$3,0*%
G04 Aperture macros list end*
%ADD10C,1.550013*%
%ADD11R,1.700000X1.700000*%
%ADD12O,1.700000X1.700000*%
%ADD13C,2.300000*%
%ADD14C,1.000000*%
%ADD15C,4.700000*%
%ADD16C,7.600000*%
%ADD17RoundRect,0.237500X-0.250000X-0.237500X0.250000X-0.237500X0.250000X0.237500X-0.250000X0.237500X0*%
%ADD18RoundRect,0.187500X0.187500X1.062500X-0.187500X1.062500X-0.187500X-1.062500X0.187500X-1.062500X0*%
%ADD19RoundRect,0.237500X0.250000X0.237500X-0.250000X0.237500X-0.250000X-0.237500X0.250000X-0.237500X0*%
G04 APERTURE END LIST*
D10*
%TO.C,3P_FAN1*%
X150100000Y-126840005D03*
X150100000Y-124300000D03*
X150100000Y-121759995D03*
%TD*%
D11*
%TO.C,AUX1*%
X122780000Y-123050000D03*
D12*
X120240000Y-123050000D03*
X117700000Y-123050000D03*
X115160000Y-123050000D03*
X112620000Y-123050000D03*
X110080000Y-123050000D03*
%TD*%
D13*
%TO.C,J1*%
X136850013Y-134449809D03*
X96699898Y-134449809D03*
D14*
X148500000Y-135700000D03*
X147500000Y-137700000D03*
X146500000Y-135700000D03*
X145500000Y-137700000D03*
X144500000Y-135700000D03*
X143500000Y-137700000D03*
X142500000Y-135700000D03*
X141500000Y-137700000D03*
X140500000Y-135700000D03*
X139500000Y-137700000D03*
X138500000Y-135700000D03*
X135500000Y-137700000D03*
X134500000Y-135700000D03*
X133500000Y-137700000D03*
X132500000Y-135700000D03*
X131500000Y-137700000D03*
X130500000Y-135700000D03*
X129500000Y-137700000D03*
X128500000Y-135700000D03*
X127500000Y-137700000D03*
X126500000Y-135700000D03*
X125500000Y-137700000D03*
X124500000Y-135700000D03*
X123500000Y-137700000D03*
X122500000Y-135700000D03*
X121500000Y-137700000D03*
X120500000Y-135700000D03*
X119500000Y-137700000D03*
X118500000Y-135700000D03*
X117500000Y-137700000D03*
X116500000Y-135700000D03*
X115500000Y-137700000D03*
X114500000Y-135700000D03*
X113500000Y-137700000D03*
X112500000Y-135700000D03*
X111500000Y-137700000D03*
X110500000Y-135700000D03*
X109500000Y-137700000D03*
X108500000Y-135700000D03*
X107500000Y-137700000D03*
X106500000Y-135700000D03*
X105500000Y-137700000D03*
X104500000Y-135700000D03*
X103500000Y-137700000D03*
X102500000Y-135700000D03*
X101500000Y-137700000D03*
X100500000Y-135700000D03*
X99500000Y-137700000D03*
X98500000Y-135700000D03*
X148500000Y-133199872D03*
X147500000Y-131199872D03*
X146500000Y-133199872D03*
X145500000Y-131199872D03*
X144500000Y-133199872D03*
X143500000Y-131199872D03*
X142500000Y-133199872D03*
X141499746Y-131199872D03*
X140500000Y-133199872D03*
X139499746Y-131199872D03*
X138500000Y-133199872D03*
X135499746Y-131199872D03*
X134500000Y-133199872D03*
X133499746Y-131199872D03*
X132500000Y-133199872D03*
X131499746Y-131199872D03*
X130500000Y-133199872D03*
X129499746Y-131199872D03*
X128500000Y-133199872D03*
X127499746Y-131199872D03*
X126500000Y-133199872D03*
X125499746Y-131199872D03*
X124500000Y-133199872D03*
X123499746Y-131199872D03*
X122500000Y-133199872D03*
X121499746Y-131199872D03*
X120500000Y-133199872D03*
X119499746Y-131199872D03*
X118500000Y-133199872D03*
X117499746Y-131199872D03*
X116500000Y-133199872D03*
X115499746Y-131199872D03*
X114500000Y-133199872D03*
X113499746Y-131199872D03*
X112500000Y-133199872D03*
X111499746Y-131199872D03*
X110500000Y-133199872D03*
X109499746Y-131199872D03*
X108500000Y-133199872D03*
X107499746Y-131199872D03*
X106500000Y-133199872D03*
X105499746Y-131199872D03*
X104499746Y-133199872D03*
X103499746Y-131199872D03*
X102499746Y-133199872D03*
X101499746Y-131199872D03*
X100500000Y-133199872D03*
X99499746Y-131199872D03*
X98499746Y-133199872D03*
%TD*%
D15*
%TO.C,H1*%
X78500000Y-123800000D03*
D16*
X78500000Y-123800000D03*
%TD*%
D17*
%TO.C,R8*%
X128700000Y-128600000D03*
X130525000Y-128600000D03*
%TD*%
D14*
%TO.C,TP2*%
X80400000Y-137000000D03*
%TD*%
D17*
%TO.C,R7*%
X114575000Y-128600000D03*
X116400000Y-128600000D03*
%TD*%
D18*
%TO.C,J4*%
X85150000Y-140750000D03*
X86150000Y-140750000D03*
X87150000Y-140750000D03*
X88150000Y-140750000D03*
X89150000Y-140750000D03*
X90150000Y-140750000D03*
X91150000Y-140750000D03*
X92150000Y-140750000D03*
X93150000Y-140750000D03*
X94150000Y-140750000D03*
X95150000Y-140750000D03*
X96150000Y-140750000D03*
X97150000Y-140750000D03*
X98150000Y-140750000D03*
X99150000Y-140750000D03*
X100150000Y-140750000D03*
X101150000Y-140750000D03*
X102150000Y-140750000D03*
X103150000Y-140750000D03*
X104150000Y-140750000D03*
X105150000Y-140750000D03*
X106150000Y-140750000D03*
X107150000Y-140750000D03*
X108150000Y-140750000D03*
X109150000Y-140750000D03*
X110150000Y-140750000D03*
X111150000Y-140750000D03*
X112150000Y-140750000D03*
X113150000Y-140750000D03*
X114150000Y-140750000D03*
X115150000Y-140750000D03*
X116150000Y-140750000D03*
X117150000Y-140750000D03*
X118150000Y-140750000D03*
X119150000Y-140750000D03*
X120150000Y-140750000D03*
X125150000Y-140750000D03*
X126150000Y-140750000D03*
X127150000Y-140750000D03*
X128150000Y-140750000D03*
X129150000Y-140750000D03*
X130150000Y-140750000D03*
X131150000Y-140750000D03*
X132150000Y-140750000D03*
X133150000Y-140750000D03*
X134150000Y-140750000D03*
X135150000Y-140750000D03*
X136150000Y-140750000D03*
X137150000Y-140750000D03*
X138150000Y-140750000D03*
X139150000Y-140750000D03*
X140150000Y-140750000D03*
X141150000Y-140750000D03*
X142150000Y-140750000D03*
X143150000Y-140750000D03*
X144150000Y-140750000D03*
X145150000Y-140750000D03*
X146150000Y-140750000D03*
X147150000Y-140750000D03*
X148150000Y-140750000D03*
%TD*%
D14*
%TO.C,TP3*%
X82900000Y-137000000D03*
%TD*%
D19*
%TO.C,R2*%
X101300000Y-128600000D03*
X99475000Y-128600000D03*
%TD*%
D14*
%TO.C,TP1*%
X150500000Y-130800000D03*
%TD*%
M02*
