M48
; DRILL file {KiCad 8.0.7} date 2025-04-01T17:38:48+0300
; FORMAT={-:-/ absolute / inch / decimal}
; #@! TF.CreationDate,2025-04-01T17:38:48+03:00
; #@! TF.GenerationSoftware,Kicad,Pcbnew,8.0.7
; #@! TF.FileFunction,Plated,1,4,PTH
FMAT,2
INCH
; #@! TA.AperFunction,Plated,PTH,ViaDrill
T1C0.0118
; #@! TA.AperFunction,Plated,PTH,ViaDrill
T2C0.0157
; #@! TA.AperFunction,Plated,PTH,ComponentDrill
T3C0.0276
; #@! TA.AperFunction,Plated,PTH,ComponentDrill
T4C0.0394
; #@! TA.AperFunction,Plated,PTH,ComponentDrill
T5C0.0413
; #@! TA.AperFunction,Plated,PTH,ComponentDrill
T6C0.1693
%
G90
G05
T1
X2.4882Y-5.2874
X2.5394Y-5.0945
X2.5669Y-5.0472
X2.6181Y-4.9921
X2.622Y-5.1063
X2.6378Y-5.0787
X2.6614Y-5.0787
X2.6693Y-4.9449
X2.6772Y-5.1063
X2.7362Y-5.0984
X2.7402Y-4.9213
X2.752Y-4.9764
X2.815Y-5.0276
X2.815Y-5.0984
X2.8189Y-4.9213
X2.8268Y-4.9764
X2.8394Y-5.0984
X2.8733Y-5.1363
X2.8937Y-5.0276
X2.8978Y-5.1362
X2.9016Y-4.9213
X2.9094Y-4.9764
X2.9534Y-5.1442
X2.9685Y-4.874
X2.9701Y-5.1609
X2.9843Y-5.0787
X2.9961Y-4.7992
X3.0669Y-5.0787
X3.0787Y-5.2874
X3.1378Y-5.0787
X3.1654Y-5.2087
X3.185Y-4.7992
X3.2126Y-4.874
X3.2126Y-5.0787
X3.2152Y-5.185
X3.2152Y-5.2087
X3.2638Y-5.1693
X3.2953Y-5.0433
X3.3638Y-5.0799
X3.3898Y-4.9961
X3.4088Y-5.0707
X3.4325Y-5.0707
X3.4331Y-5.1378
X3.4701Y-5.0141
X3.4701Y-5.0378
X3.4862Y-5.0665
X3.4882Y-5.1563
X3.4882Y-5.18
X3.5079Y-4.9272
X3.5098Y-4.811
X3.5575Y-5.2433
X3.5591Y-5.0079
X3.5709Y-4.9272
X3.5812Y-4.9847
X3.5827Y-5.3864
X3.5827Y-5.4101
X3.598Y-4.9679
X4.8819Y-4.9764
X4.9213Y-5.0197
X5.4114Y-5.4665
X5.4961Y-5.4744
X5.6063Y-5.4685
X5.9193Y-5.4114
T2
X2.126Y-4.7835
X2.126Y-4.8622
X2.126Y-4.9409
X2.126Y-5.0197
X2.126Y-5.0984
X2.126Y-5.1772
X2.126Y-5.2559
X2.126Y-5.3346
X2.126Y-5.4134
X2.185Y-4.7441
X2.2047Y-4.8228
X2.2047Y-4.9016
X2.2047Y-4.9803
X2.2047Y-5.0591
X2.2047Y-5.1378
X2.2047Y-5.2165
X2.2244Y-5.4134
X2.2638Y-4.7441
X2.2835Y-4.8228
X2.2835Y-4.9016
X2.2835Y-4.9803
X2.2835Y-5.1772
X2.3031Y-5.4134
X2.3425Y-4.7441
X2.3622Y-4.8228
X2.3622Y-4.9016
X2.3642Y-5.1693
X2.3642Y-5.2874
X2.3819Y-5.3504
X2.3819Y-5.4134
X2.3957Y-5.1693
X2.3957Y-5.2874
X2.4213Y-4.7441
X2.4409Y-4.8228
X2.4606Y-5.4134
X2.4862Y-5.1673
X2.5Y-4.7441
X2.5197Y-4.9803
X2.5394Y-5.1673
X2.5394Y-5.4134
X2.5413Y-5.2874
X2.5787Y-4.9213
X2.5807Y-5.2874
X2.6181Y-5.4134
X2.6201Y-5.2874
X2.622Y-5.1673
X2.6378Y-4.8622
X2.6791Y-5.1654
X2.6791Y-5.2874
X2.6969Y-5.4134
X2.7165Y-4.8228
X2.7382Y-5.1654
X2.7382Y-5.2874
X2.7756Y-5.4134
X2.7972Y-5.1654
X2.7972Y-5.2874
X2.815Y-4.8228
X2.8543Y-5.4134
X2.8563Y-5.1654
X2.8563Y-5.2874
X2.9134Y-4.8228
X2.9154Y-5.2874
X2.9315Y-5.122
X2.9331Y-5.4134
X2.9744Y-5.2854
X3.0118Y-5.4134
X3.0335Y-5.2854
X3.0354Y-5.1732
X3.0906Y-5.4134
X3.215Y-5.4331
X3.2402Y-4.9409
X3.2874Y-4.8031
X3.2953Y-4.8898
X3.2992Y-5.311
X3.3465Y-5.2402
X3.3465Y-5.3819
X3.3543Y-5.1614
X3.3583Y-5.3307
X3.3661Y-4.8031
X3.374Y-4.8898
X3.378Y-5.4213
X3.437Y-5.2441
X3.4409Y-5.3701
X3.4449Y-4.8031
X3.4528Y-4.8898
X3.4567Y-5.4685
X3.5Y-5.2165
X3.5Y-5.315
X3.5Y-5.3937
X3.563Y-5.3543
X3.5681Y-5.1146
X3.5866Y-5.4724
X3.6024Y-4.8228
X3.6142Y-4.8976
X3.6362Y-5.3256
X3.6457Y-4.9882
X3.6457Y-5.0787
X3.6654Y-5.189
X3.6811Y-4.8228
X3.685Y-5.2874
X3.7087Y-5.4764
X3.7402Y-4.9213
X3.7402Y-5.0
X3.7402Y-5.0787
X3.7402Y-5.1575
X3.7402Y-5.2362
X3.7598Y-4.8228
X3.7677Y-5.4173
X3.8268Y-5.4764
X3.8386Y-4.8228
X3.8583Y-5.3937
X3.9173Y-4.8228
X3.9252Y-5.4646
X3.9961Y-4.8228
X4.0315Y-5.4685
X4.0728Y-5.2913
X4.0748Y-4.8228
X4.1535Y-4.8228
X4.1575Y-5.4685
X4.2Y-5.2906
X4.2323Y-4.8228
X4.2913Y-5.4685
X4.3539Y-5.2898
X4.3858Y-5.4685
X4.4567Y-5.4685
X4.5669Y-5.4646
X4.5866Y-5.2898
X4.6142Y-5.4646
X4.6535Y-4.7461
X4.6929Y-4.7461
X4.7323Y-4.7461
X4.7449Y-5.2898
X4.7598Y-5.4764
X4.7717Y-4.7461
X4.811Y-4.7461
X4.9252Y-5.4724
X4.9406Y-5.2929
X5.0394Y-5.4685
X5.1142Y-5.4685
X5.1748Y-5.2937
X5.2362Y-5.4685
T3
X3.8779Y-5.2441
X3.878Y-5.3425
X3.9173Y-5.1653
X3.9173Y-5.4213
X3.9567Y-5.2441
X3.9567Y-5.3425
X3.9961Y-5.1653
X3.9961Y-5.4213
X4.0354Y-5.2441
X4.0354Y-5.3425
X4.0748Y-5.1653
X4.0748Y-5.4213
X4.1142Y-5.2441
X4.1142Y-5.3425
X4.1535Y-5.1653
X4.1535Y-5.4213
X4.1929Y-5.2441
X4.1929Y-5.3425
X4.2323Y-5.1653
X4.2323Y-5.4213
X4.2717Y-5.2441
X4.2717Y-5.3425
X4.311Y-5.1653
X4.311Y-5.4213
X4.3504Y-5.2441
X4.3504Y-5.3425
X4.3898Y-5.1653
X4.3898Y-5.4213
X4.4291Y-5.2441
X4.4291Y-5.3425
X4.4685Y-5.1653
X4.4685Y-5.4213
X4.5079Y-5.2441
X4.5079Y-5.3425
X4.5472Y-5.1653
X4.5472Y-5.4213
X4.5866Y-5.2441
X4.5866Y-5.3425
X4.626Y-5.1653
X4.626Y-5.4213
X4.6654Y-5.2441
X4.6654Y-5.3425
X4.7047Y-5.1653
X4.7047Y-5.4213
X4.7441Y-5.2441
X4.7441Y-5.3425
X4.7835Y-5.1653
X4.7835Y-5.4213
X4.8228Y-5.2441
X4.8228Y-5.3425
X4.8622Y-5.1653
X4.8622Y-5.4213
X4.9016Y-5.2441
X4.9016Y-5.3425
X4.9409Y-5.1653
X4.9409Y-5.4213
X4.9803Y-5.2441
X4.9803Y-5.3425
X5.0197Y-5.1653
X5.0197Y-5.4213
X5.0591Y-5.2441
X5.0591Y-5.3425
X5.0984Y-5.1653
X5.0984Y-5.4213
X5.1378Y-5.2441
X5.1378Y-5.3425
X5.1772Y-5.1653
X5.1772Y-5.4213
X5.2165Y-5.2441
X5.2165Y-5.3425
X5.2559Y-5.1653
X5.2559Y-5.4213
X5.2953Y-5.2441
X5.2953Y-5.3425
X5.3346Y-5.1653
X5.3346Y-5.4213
X5.4528Y-5.2441
X5.4528Y-5.3425
X5.4921Y-5.1653
X5.4921Y-5.4213
X5.5315Y-5.2441
X5.5315Y-5.3425
X5.5709Y-5.1653
X5.5709Y-5.4213
X5.6102Y-5.2441
X5.6102Y-5.3425
X5.6496Y-5.1653
X5.6496Y-5.4213
X5.689Y-5.2441
X5.689Y-5.3425
X5.7283Y-5.1653
X5.7283Y-5.4213
X5.7677Y-5.2441
X5.7677Y-5.3425
X5.8071Y-5.1653
X5.8071Y-5.4213
X5.8465Y-5.2441
X5.8465Y-5.3425
T4
X4.3339Y-4.8445
X4.4339Y-4.8445
X4.5339Y-4.8445
X4.6339Y-4.8445
X4.7339Y-4.8445
X4.8339Y-4.8445
T5
X5.9094Y-4.7937
X5.9094Y-4.8937
X5.9094Y-4.9937
T6
X3.0906Y-4.874
M30
