%TF.GenerationSoftware,KiCad,Pcbnew,8.0.7*%
%TF.CreationDate,2025-04-01T17:38:45+03:00*%
%TF.ProjectId,RibbonRiser,52696262-6f6e-4526-9973-65722e6b6963,rev?*%
%TF.SameCoordinates,Original*%
%TF.FileFunction,Copper,L2,Inr*%
%TF.FilePolarity,Positive*%
%FSLAX46Y46*%
G04 Gerber Fmt 4.6, Leading zero omitted, Abs format (unit mm)*
G04 Created by KiCad (PCBNEW 8.0.7) date 2025-04-01 17:38:45*
%MOMM*%
%LPD*%
G01*
G04 APERTURE LIST*
%TA.AperFunction,ComponentPad*%
%ADD10C,1.550013*%
%TD*%
%TA.AperFunction,ComponentPad*%
%ADD11R,1.700000X1.700000*%
%TD*%
%TA.AperFunction,ComponentPad*%
%ADD12O,1.700000X1.700000*%
%TD*%
%TA.AperFunction,ComponentPad*%
%ADD13C,1.000000*%
%TD*%
%TA.AperFunction,ComponentPad*%
%ADD14C,4.700000*%
%TD*%
%TA.AperFunction,ViaPad*%
%ADD15C,0.800000*%
%TD*%
%TA.AperFunction,ViaPad*%
%ADD16C,0.600000*%
%TD*%
%TA.AperFunction,ViaPad*%
%ADD17C,0.500000*%
%TD*%
G04 APERTURE END LIST*
D10*
%TO.N,GND*%
%TO.C,3P_FAN1*%
X150100000Y-126840005D03*
%TO.N,+12V*%
X150100000Y-124300000D03*
%TO.N,unconnected-(3P_FAN1-Pad3)*%
X150100000Y-121759995D03*
%TD*%
D11*
%TO.N,+12V*%
%TO.C,AUX1*%
X122780000Y-123050000D03*
D12*
%TO.N,+3V3*%
X120240000Y-123050000D03*
%TO.N,GND*%
X117700000Y-123050000D03*
X115160000Y-123050000D03*
%TO.N,SMBCLK*%
X112620000Y-123050000D03*
%TO.N,SMBDATA*%
X110080000Y-123050000D03*
%TD*%
D13*
%TO.N,GND*%
%TO.C,J1*%
X148500000Y-135700000D03*
%TO.N,+12V*%
X147500000Y-137700000D03*
X146500000Y-135700000D03*
%TO.N,GND*%
X145500000Y-137700000D03*
%TO.N,unconnected-(J1-JTAG2-PadA5)*%
X144500000Y-135700000D03*
%TO.N,unconnected-(J1-JTAG3-PadA6)*%
X143500000Y-137700000D03*
%TO.N,unconnected-(J1-JTAG4-PadA7)*%
X142500000Y-135700000D03*
%TO.N,unconnected-(J1-JTAG5-PadA8)*%
X141500000Y-137700000D03*
%TO.N,+3V3*%
X140500000Y-135700000D03*
X139500000Y-137700000D03*
%TO.N,PERST#*%
X138500000Y-135700000D03*
%TO.N,GND*%
X135500000Y-137700000D03*
%TO.N,PCIe_CPU_REFCLK+*%
X134500000Y-135700000D03*
%TO.N,PCIe_CPU_REFCLK-*%
X133500000Y-137700000D03*
%TO.N,GND*%
X132500000Y-135700000D03*
%TO.N,PCIe_CPU_Rx0+*%
X131500000Y-137700000D03*
%TO.N,PCIe_CPU_Rx0-*%
X130500000Y-135700000D03*
%TO.N,GND*%
X129500000Y-137700000D03*
%TO.N,unconnected-(J1-RSVD-PadA19)*%
X128500000Y-135700000D03*
%TO.N,GND*%
X127500000Y-137700000D03*
%TO.N,PCIe_CPU_Rx1+*%
X126500000Y-135700000D03*
%TO.N,PCIe_CPU_Rx1-*%
X125500000Y-137700000D03*
%TO.N,GND*%
X124500000Y-135700000D03*
X123500000Y-137700000D03*
%TO.N,PCIe_CPU_Rx2+*%
X122500000Y-135700000D03*
%TO.N,PCIe_CPU_Rx2-*%
X121500000Y-137700000D03*
%TO.N,GND*%
X120500000Y-135700000D03*
X119500000Y-137700000D03*
%TO.N,PCIe_CPU_Rx3+*%
X118500000Y-135700000D03*
%TO.N,PCIe_CPU_Rx3-*%
X117500000Y-137700000D03*
%TO.N,GND*%
X116500000Y-135700000D03*
%TO.N,unconnected-(J1-RSVD-PadA32)*%
X115500000Y-137700000D03*
%TO.N,unconnected-(J1-RSVD-PadA33)*%
X114500000Y-135700000D03*
%TO.N,GND*%
X113500000Y-137700000D03*
%TO.N,PCIe_CPU_Rx4+*%
X112500000Y-135700000D03*
%TO.N,PCIe_CPU_Rx4-*%
X111500000Y-137700000D03*
%TO.N,GND*%
X110500000Y-135700000D03*
X109500000Y-137700000D03*
%TO.N,PCIe_CPU_Rx5+*%
X108500000Y-135700000D03*
%TO.N,PCIe_CPU_Rx5-*%
X107500000Y-137700000D03*
%TO.N,GND*%
X106500000Y-135700000D03*
X105500000Y-137700000D03*
%TO.N,PCIe_CPU_Rx6+*%
X104500000Y-135700000D03*
%TO.N,PCIe_CPU_Rx6-*%
X103500000Y-137700000D03*
%TO.N,GND*%
X102500000Y-135700000D03*
X101500000Y-137700000D03*
%TO.N,PCIe_CPU_Rx7+*%
X100500000Y-135700000D03*
%TO.N,PCIe_CPU_Rx7-*%
X99500000Y-137700000D03*
%TO.N,GND*%
X98500000Y-135700000D03*
%TO.N,+12V*%
X148500000Y-133199872D03*
X147500000Y-131199872D03*
X146500000Y-133199872D03*
%TO.N,GND*%
X145500000Y-131199872D03*
%TO.N,SMBCLK*%
X144500000Y-133199872D03*
%TO.N,SMBDATA*%
X143500000Y-131199872D03*
%TO.N,GND*%
X142500000Y-133199872D03*
%TO.N,+3V3*%
X141499746Y-131199872D03*
%TO.N,unconnected-(J1-JTAG1-PadB9)*%
X140500000Y-133199872D03*
%TO.N,+3V3_S5*%
X139499746Y-131199872D03*
%TO.N,WAKE#*%
X138500000Y-133199872D03*
%TO.N,unconnected-(J1-RSVD-PadB12)*%
X135499746Y-131199872D03*
%TO.N,GND*%
X134500000Y-133199872D03*
%TO.N,PCIe_CPU_Tx0+*%
X133499746Y-131199872D03*
%TO.N,PCIe_CPU_Tx0-*%
X132500000Y-133199872D03*
%TO.N,GND*%
X131499746Y-131199872D03*
%TO.N,PCIe_CPU_CLKREQ#*%
X130500000Y-133199872D03*
%TO.N,GND*%
X129499746Y-131199872D03*
%TO.N,PCIe_CPU_Tx1+*%
X128500000Y-133199872D03*
%TO.N,PCIe_CPU_Tx1-*%
X127499746Y-131199872D03*
%TO.N,GND*%
X126500000Y-133199872D03*
X125499746Y-131199872D03*
%TO.N,PCIe_CPU_Tx2+*%
X124500000Y-133199872D03*
%TO.N,PCIe_CPU_Tx2-*%
X123499746Y-131199872D03*
%TO.N,GND*%
X122500000Y-133199872D03*
X121499746Y-131199872D03*
%TO.N,PCIe_CPU_Tx3+*%
X120500000Y-133199872D03*
%TO.N,PCIe_CPU_Tx3-*%
X119499746Y-131199872D03*
%TO.N,GND*%
X118500000Y-133199872D03*
%TO.N,unconnected-(J1-RSVD-PadB30)*%
X117499746Y-131199872D03*
%TO.N,PCIe_CPU_CLKREQ#*%
X116500000Y-133199872D03*
%TO.N,GND*%
X115499746Y-131199872D03*
%TO.N,PCIe_CPU_Tx4+*%
X114500000Y-133199872D03*
%TO.N,PCIe_CPU_Tx4-*%
X113499746Y-131199872D03*
%TO.N,GND*%
X112500000Y-133199872D03*
X111499746Y-131199872D03*
%TO.N,PCIe_CPU_Tx5+*%
X110500000Y-133199872D03*
%TO.N,PCIe_CPU_Tx5-*%
X109499746Y-131199872D03*
%TO.N,GND*%
X108500000Y-133199872D03*
X107499746Y-131199872D03*
%TO.N,PCIe_CPU_Tx6+*%
X106500000Y-133199872D03*
%TO.N,PCIe_CPU_Tx6-*%
X105499746Y-131199872D03*
%TO.N,GND*%
X104499746Y-133199872D03*
X103499746Y-131199872D03*
%TO.N,PCIe_CPU_Tx7+*%
X102499746Y-133199872D03*
%TO.N,PCIe_CPU_Tx7-*%
X101499746Y-131199872D03*
%TO.N,GND*%
X100500000Y-133199872D03*
%TO.N,PCIe_CPU_CLKREQ#*%
X99499746Y-131199872D03*
%TO.N,GND*%
X98499746Y-133199872D03*
%TD*%
D14*
%TO.N,GND*%
%TO.C,H1*%
X78500000Y-123800000D03*
%TD*%
D15*
%TO.N,+3V3*%
X122200000Y-120550000D03*
X121200000Y-120550000D03*
X120200000Y-120550000D03*
X119200000Y-120550000D03*
X118200000Y-120550000D03*
D16*
%TO.N,GND*%
X85800000Y-137700000D03*
X63150000Y-131250000D03*
X71500000Y-122500000D03*
X54000000Y-123500000D03*
D17*
X82900000Y-131300000D03*
D16*
X97500000Y-122500000D03*
X91100000Y-139000000D03*
X65500000Y-125000000D03*
X65550000Y-134300000D03*
X69000000Y-122500000D03*
X57500000Y-120500000D03*
X95700000Y-137600000D03*
X64500000Y-137500000D03*
X60500000Y-137500000D03*
D17*
X69900000Y-126400000D03*
D16*
X88900000Y-135000000D03*
X74460000Y-130100000D03*
X85500000Y-122000000D03*
X54000000Y-133500000D03*
D17*
X78200000Y-134300000D03*
X86100000Y-126900000D03*
D16*
X105500000Y-122500000D03*
D17*
X87200000Y-130500000D03*
X81600000Y-123800000D03*
D16*
X58000000Y-131500000D03*
X54000000Y-131500000D03*
X85300000Y-135400000D03*
X67000000Y-123500000D03*
D17*
X80400000Y-132300000D03*
X73500000Y-127700000D03*
D16*
X109000000Y-138900000D03*
D17*
X63200000Y-134300000D03*
D16*
X111400000Y-138900000D03*
X62000000Y-122500000D03*
X88900000Y-137000000D03*
X63500000Y-120500000D03*
D17*
X71500000Y-127700000D03*
X90400000Y-127200000D03*
D16*
X56500000Y-137500000D03*
X75550000Y-134250000D03*
X128000000Y-138900000D03*
X72500000Y-137500000D03*
D17*
X79700000Y-129000000D03*
D16*
X58000000Y-122500000D03*
X54000000Y-129500000D03*
X68050000Y-134300000D03*
X66600000Y-131250000D03*
X116000000Y-138800000D03*
X99700000Y-138800000D03*
D17*
X71800000Y-126400000D03*
D16*
X74050000Y-134300000D03*
X60000000Y-124500000D03*
X64500000Y-131250000D03*
X85000000Y-133100000D03*
X77100000Y-131400000D03*
X72550000Y-131200000D03*
X74000000Y-122500000D03*
D17*
X90360000Y-133180000D03*
D16*
X55500000Y-120500000D03*
X56000000Y-126500000D03*
X56000000Y-130500000D03*
X116500000Y-134360000D03*
X87500000Y-122000000D03*
X95000000Y-129000000D03*
D17*
X139600000Y-139050000D03*
D16*
X120520000Y-134360000D03*
X71050000Y-134300000D03*
D17*
X73700000Y-125000000D03*
D16*
X85700000Y-124200000D03*
D17*
X73900000Y-126400000D03*
D16*
X68050000Y-131200000D03*
X58000000Y-126500000D03*
X92600000Y-129000000D03*
X56000000Y-124500000D03*
X64550000Y-134300000D03*
X110590000Y-134360000D03*
X90500000Y-136000000D03*
D17*
X69500000Y-129500000D03*
D16*
X120900000Y-139100000D03*
X88900000Y-132500000D03*
X78500000Y-137500000D03*
X92600000Y-126700000D03*
X60850000Y-131300000D03*
X76500000Y-137500000D03*
X85200000Y-131100000D03*
D17*
X83700000Y-128100000D03*
D16*
X107500000Y-122500000D03*
X60000000Y-122500000D03*
D17*
X88550000Y-128690000D03*
D16*
X54000000Y-135500000D03*
X93600000Y-134300000D03*
X72550000Y-134300000D03*
X87400000Y-136400000D03*
X74500000Y-137500000D03*
D17*
X76100000Y-121900000D03*
D16*
X54000000Y-127500000D03*
X66550000Y-134300000D03*
D17*
X69600000Y-125000000D03*
D16*
X56000000Y-122500000D03*
X58000000Y-124500000D03*
X91500000Y-122500000D03*
X101500000Y-122500000D03*
X64000000Y-126500000D03*
X56000000Y-128500000D03*
X87800000Y-138900000D03*
X129900000Y-138900000D03*
X68500000Y-137500000D03*
X131440000Y-134460000D03*
X92360000Y-135270000D03*
D17*
X142400000Y-138900000D03*
D16*
X93500000Y-122500000D03*
D17*
X66500000Y-126800000D03*
D16*
X69550000Y-134300000D03*
X66500000Y-137500000D03*
X106680000Y-134380000D03*
X62500000Y-137500000D03*
X117200000Y-138800000D03*
X61500000Y-120500000D03*
D17*
X67800000Y-125600000D03*
D16*
X60050000Y-134300000D03*
X103500000Y-122500000D03*
X93100000Y-131800000D03*
X94200000Y-139100000D03*
X103450000Y-134400000D03*
D17*
X65200000Y-128200000D03*
X137450000Y-138850000D03*
D16*
X91800000Y-124400000D03*
X82300000Y-125500000D03*
X59500000Y-120500000D03*
X81660000Y-138000000D03*
X83500000Y-122000000D03*
X95000000Y-125000000D03*
D17*
X81600000Y-129000000D03*
X66600000Y-129700000D03*
D16*
X102400000Y-138900000D03*
D17*
X75400000Y-123800000D03*
D16*
X98000000Y-137000000D03*
D17*
X85440000Y-129030000D03*
D16*
X95000000Y-131000000D03*
X60500000Y-135900000D03*
X77050000Y-134250000D03*
X71050000Y-131200000D03*
D17*
X68000000Y-129700000D03*
X80900000Y-121900000D03*
D16*
X56000000Y-132500000D03*
X54000000Y-121500000D03*
D17*
X71600000Y-125000000D03*
D16*
X125490000Y-134440000D03*
X83800000Y-134900000D03*
X113200000Y-138900000D03*
D17*
X64500000Y-129400000D03*
D16*
X105600000Y-138900000D03*
X58500000Y-137500000D03*
X83700000Y-124200000D03*
X87300000Y-133200000D03*
X60850000Y-134300000D03*
X70500000Y-137500000D03*
X125100000Y-139000000D03*
D17*
X75800000Y-129000000D03*
D16*
X90630000Y-129910000D03*
X133000000Y-138900000D03*
X97200000Y-139100000D03*
X54000000Y-125500000D03*
X87700000Y-124200000D03*
X99500000Y-122500000D03*
D17*
X77900000Y-129000000D03*
D16*
X69550000Y-131200000D03*
X95000000Y-133000000D03*
X60050000Y-131300000D03*
X95000000Y-127000000D03*
X54000000Y-137500000D03*
X95500000Y-122500000D03*
D17*
%TO.N,PERST#*%
X89100000Y-125150000D03*
X89150000Y-122200000D03*
%TO.N,PCIe_PCH_CLKREQ#*%
X90700000Y-125150000D03*
D15*
%TO.N,Net-(J4-GPU_MACO_EN)*%
X85000000Y-136700000D03*
D17*
%TO.N,Net-(J4-PCIE_SOLT_A60)*%
X150350000Y-137450000D03*
%TO.N,SMBCLK*%
X124000000Y-126400000D03*
%TO.N,PCIe_PCH_Rx2+*%
X86584694Y-128796356D03*
X75015433Y-130662127D03*
%TO.N,PCIe_PCH_Rx2-*%
X87186294Y-128796356D03*
X75440829Y-131087523D03*
%TO.N,PCIe_PCH_Rx1-*%
X72120003Y-129500000D03*
X88140000Y-127960800D03*
%TO.N,PCIe_PCH_Rx1+*%
X71500000Y-129500000D03*
X88140000Y-127359200D03*
%TO.N,PCIe_PCH_Tx2-*%
X73603074Y-130459905D03*
%TO.N,PCIe_PCH_Tx2+*%
X72983074Y-130461693D03*
%TO.N,PCIe_PCH_Tx0-*%
X67600800Y-129000089D03*
%TO.N,PCIe_PCH_Tx0+*%
X66999200Y-129000089D03*
%TO.N,PCIe_PCH_Rx3-*%
X81665152Y-132300800D03*
X88600000Y-131571000D03*
X91000000Y-137416100D03*
%TO.N,PCIe_PCH_Rx3+*%
X88600000Y-130969400D03*
X91000000Y-136814500D03*
X81665152Y-131699200D03*
%TO.N,PCIe_PCH_Rx0-*%
X90963497Y-126611146D03*
%TO.N,PCIe_PCH_Rx0+*%
X91388893Y-126185750D03*
%TO.N,SMBDATA*%
X125000000Y-127500000D03*
%TD*%
%TA.AperFunction,Conductor*%
%TO.N,GND*%
G36*
X118030359Y-119911923D02*
G01*
X118041782Y-119939500D01*
X118030359Y-119967077D01*
X118017707Y-119975531D01*
X117897160Y-120025463D01*
X117897158Y-120025464D01*
X117771717Y-120121717D01*
X117675464Y-120247158D01*
X117675463Y-120247160D01*
X117614955Y-120393238D01*
X117594318Y-120549996D01*
X117594318Y-120550003D01*
X117614955Y-120706761D01*
X117675463Y-120852839D01*
X117675464Y-120852841D01*
X117771717Y-120978282D01*
X117867971Y-121052139D01*
X117897159Y-121074536D01*
X118043238Y-121135044D01*
X118199997Y-121155682D01*
X118200000Y-121155682D01*
X118200003Y-121155682D01*
X118317571Y-121140203D01*
X118356762Y-121135044D01*
X118502841Y-121074536D01*
X118628282Y-120978282D01*
X118669059Y-120925139D01*
X118694909Y-120910216D01*
X118723742Y-120917941D01*
X118730941Y-120925140D01*
X118771717Y-120978282D01*
X118867971Y-121052139D01*
X118897159Y-121074536D01*
X119043238Y-121135044D01*
X119199997Y-121155682D01*
X119200000Y-121155682D01*
X119200003Y-121155682D01*
X119317571Y-121140203D01*
X119356762Y-121135044D01*
X119502841Y-121074536D01*
X119628282Y-120978282D01*
X119669059Y-120925139D01*
X119694909Y-120910216D01*
X119723742Y-120917941D01*
X119730941Y-120925140D01*
X119771717Y-120978282D01*
X119867971Y-121052139D01*
X119897159Y-121074536D01*
X120043238Y-121135044D01*
X120199997Y-121155682D01*
X120200000Y-121155682D01*
X120200003Y-121155682D01*
X120317571Y-121140203D01*
X120356762Y-121135044D01*
X120502841Y-121074536D01*
X120628282Y-120978282D01*
X120669059Y-120925139D01*
X120694909Y-120910216D01*
X120723742Y-120917941D01*
X120730941Y-120925140D01*
X120771717Y-120978282D01*
X120867971Y-121052139D01*
X120897159Y-121074536D01*
X121043238Y-121135044D01*
X121199997Y-121155682D01*
X121200000Y-121155682D01*
X121200003Y-121155682D01*
X121317571Y-121140203D01*
X121356762Y-121135044D01*
X121502841Y-121074536D01*
X121628282Y-120978282D01*
X121669059Y-120925139D01*
X121694909Y-120910216D01*
X121723742Y-120917941D01*
X121730941Y-120925140D01*
X121771717Y-120978282D01*
X121867971Y-121052139D01*
X121897159Y-121074536D01*
X122043238Y-121135044D01*
X122199997Y-121155682D01*
X122200000Y-121155682D01*
X122200003Y-121155682D01*
X122317571Y-121140203D01*
X122356762Y-121135044D01*
X122502841Y-121074536D01*
X122628282Y-120978282D01*
X122724536Y-120852841D01*
X122785044Y-120706762D01*
X122805682Y-120550000D01*
X122805682Y-120549996D01*
X122785044Y-120393238D01*
X122724536Y-120247159D01*
X122680510Y-120189783D01*
X122628282Y-120121717D01*
X122502841Y-120025464D01*
X122502839Y-120025463D01*
X122382293Y-119975531D01*
X122361187Y-119954425D01*
X122361187Y-119924575D01*
X122382293Y-119903469D01*
X122397218Y-119900500D01*
X151442417Y-119900500D01*
X151497446Y-119900500D01*
X151502536Y-119900834D01*
X151516555Y-119902679D01*
X151585369Y-119911739D01*
X151595195Y-119914371D01*
X151670008Y-119945360D01*
X151678819Y-119950446D01*
X151734912Y-119993488D01*
X151743060Y-119999740D01*
X151750259Y-120006939D01*
X151799551Y-120071177D01*
X151804641Y-120079994D01*
X151835626Y-120154799D01*
X151838261Y-120164633D01*
X151849166Y-120247463D01*
X151849500Y-120252554D01*
X151849500Y-138060500D01*
X151838077Y-138088077D01*
X151810500Y-138099500D01*
X149272268Y-138099500D01*
X149170415Y-138126791D01*
X149079085Y-138179520D01*
X149079085Y-138179521D01*
X149004521Y-138254085D01*
X149004520Y-138254085D01*
X148951791Y-138345415D01*
X148924500Y-138447268D01*
X148924500Y-139663125D01*
X148913077Y-139690702D01*
X148885540Y-139702125D01*
X124114540Y-139727768D01*
X124086951Y-139716374D01*
X124075500Y-139688808D01*
X124075500Y-138447274D01*
X124075499Y-138447268D01*
X124048208Y-138345415D01*
X123995479Y-138254085D01*
X123920914Y-138179520D01*
X123829584Y-138126791D01*
X123727731Y-138099500D01*
X123727727Y-138099500D01*
X123562100Y-138099500D01*
X123534523Y-138088077D01*
X123496446Y-138050000D01*
X123546078Y-138050000D01*
X123635095Y-138026148D01*
X123714905Y-137980070D01*
X123780070Y-137914905D01*
X123826148Y-137835095D01*
X123850000Y-137746078D01*
X123850000Y-137699999D01*
X123853553Y-137699999D01*
X123853553Y-137700000D01*
X124147764Y-137994211D01*
X124194431Y-137871161D01*
X124215214Y-137700000D01*
X124794355Y-137700000D01*
X124814860Y-137868873D01*
X124857031Y-137980070D01*
X124875182Y-138027930D01*
X124943421Y-138126791D01*
X124971818Y-138167930D01*
X124984902Y-138179521D01*
X125099148Y-138280734D01*
X125249775Y-138359790D01*
X125414944Y-138400500D01*
X125414946Y-138400500D01*
X125585054Y-138400500D01*
X125585056Y-138400500D01*
X125750225Y-138359790D01*
X125773554Y-138347546D01*
X127206004Y-138347546D01*
X127246381Y-138368737D01*
X127413792Y-138410000D01*
X127586208Y-138410000D01*
X127753620Y-138368737D01*
X127793994Y-138347547D01*
X127793994Y-138347546D01*
X129206005Y-138347546D01*
X129246381Y-138368737D01*
X129413792Y-138410000D01*
X129586208Y-138410000D01*
X129753620Y-138368737D01*
X129793994Y-138347547D01*
X129793994Y-138347546D01*
X129500000Y-138053553D01*
X129206005Y-138347546D01*
X127793994Y-138347546D01*
X127500000Y-138053553D01*
X127206004Y-138347546D01*
X125773554Y-138347546D01*
X125900852Y-138280734D01*
X126028183Y-138167929D01*
X126124818Y-138027930D01*
X126185140Y-137868872D01*
X126205645Y-137700000D01*
X126784785Y-137700000D01*
X126805568Y-137871163D01*
X126852234Y-137994211D01*
X127146446Y-137700000D01*
X127146446Y-137699999D01*
X127100369Y-137653922D01*
X127150000Y-137653922D01*
X127150000Y-137746078D01*
X127173852Y-137835095D01*
X127219930Y-137914905D01*
X127285095Y-137980070D01*
X127364905Y-138026148D01*
X127453922Y-138050000D01*
X127546078Y-138050000D01*
X127635095Y-138026148D01*
X127714905Y-137980070D01*
X127780070Y-137914905D01*
X127826148Y-137835095D01*
X127850000Y-137746078D01*
X127850000Y-137699999D01*
X127853553Y-137699999D01*
X127853553Y-137700000D01*
X128147764Y-137994211D01*
X128194431Y-137871161D01*
X128215214Y-137700000D01*
X128784785Y-137700000D01*
X128805568Y-137871163D01*
X128852234Y-137994211D01*
X129146446Y-137700000D01*
X129146446Y-137699999D01*
X129100369Y-137653922D01*
X129150000Y-137653922D01*
X129150000Y-137746078D01*
X129173852Y-137835095D01*
X129219930Y-137914905D01*
X129285095Y-137980070D01*
X129364905Y-138026148D01*
X129453922Y-138050000D01*
X129546078Y-138050000D01*
X129635095Y-138026148D01*
X129714905Y-137980070D01*
X129780070Y-137914905D01*
X129826148Y-137835095D01*
X129850000Y-137746078D01*
X129850000Y-137699999D01*
X129853553Y-137699999D01*
X129853553Y-137700000D01*
X130147764Y-137994211D01*
X130194431Y-137871161D01*
X130215214Y-137700000D01*
X130794355Y-137700000D01*
X130814860Y-137868873D01*
X130857031Y-137980070D01*
X130875182Y-138027930D01*
X130943421Y-138126791D01*
X130971818Y-138167930D01*
X130984902Y-138179521D01*
X131099148Y-138280734D01*
X131249775Y-138359790D01*
X131414944Y-138400500D01*
X131414946Y-138400500D01*
X131585054Y-138400500D01*
X131585056Y-138400500D01*
X131750225Y-138359790D01*
X131900852Y-138280734D01*
X132028183Y-138167929D01*
X132124818Y-138027930D01*
X132185140Y-137868872D01*
X132205645Y-137700000D01*
X132794355Y-137700000D01*
X132814860Y-137868873D01*
X132857031Y-137980070D01*
X132875182Y-138027930D01*
X132943421Y-138126791D01*
X132971818Y-138167930D01*
X132984902Y-138179521D01*
X133099148Y-138280734D01*
X133249775Y-138359790D01*
X133414944Y-138400500D01*
X133414946Y-138400500D01*
X133585054Y-138400500D01*
X133585056Y-138400500D01*
X133750225Y-138359790D01*
X133773554Y-138347546D01*
X135206005Y-138347546D01*
X135246381Y-138368737D01*
X135413792Y-138410000D01*
X135586208Y-138410000D01*
X135753620Y-138368737D01*
X135793994Y-138347547D01*
X135793994Y-138347546D01*
X135500000Y-138053553D01*
X135206005Y-138347546D01*
X133773554Y-138347546D01*
X133900852Y-138280734D01*
X134028183Y-138167929D01*
X134124818Y-138027930D01*
X134185140Y-137868872D01*
X134205645Y-137700000D01*
X134784785Y-137700000D01*
X134805568Y-137871163D01*
X134852234Y-137994211D01*
X135146446Y-137700000D01*
X135146446Y-137699999D01*
X135100369Y-137653922D01*
X135150000Y-137653922D01*
X135150000Y-137746078D01*
X135173852Y-137835095D01*
X135219930Y-137914905D01*
X135285095Y-137980070D01*
X135364905Y-138026148D01*
X135453922Y-138050000D01*
X135546078Y-138050000D01*
X135635095Y-138026148D01*
X135714905Y-137980070D01*
X135780070Y-137914905D01*
X135826148Y-137835095D01*
X135850000Y-137746078D01*
X135850000Y-137699999D01*
X135853553Y-137699999D01*
X135853553Y-137700000D01*
X136147764Y-137994211D01*
X136194431Y-137871161D01*
X136215214Y-137700000D01*
X138794355Y-137700000D01*
X138814860Y-137868873D01*
X138857031Y-137980070D01*
X138875182Y-138027930D01*
X138943421Y-138126791D01*
X138971818Y-138167930D01*
X138984902Y-138179521D01*
X139099148Y-138280734D01*
X139249775Y-138359790D01*
X139414944Y-138400500D01*
X139414946Y-138400500D01*
X139585054Y-138400500D01*
X139585056Y-138400500D01*
X139750225Y-138359790D01*
X139900852Y-138280734D01*
X140028183Y-138167929D01*
X140124818Y-138027930D01*
X140185140Y-137868872D01*
X140205645Y-137700000D01*
X140794355Y-137700000D01*
X140814860Y-137868873D01*
X140857031Y-137980070D01*
X140875182Y-138027930D01*
X140943421Y-138126791D01*
X140971818Y-138167930D01*
X140984902Y-138179521D01*
X141099148Y-138280734D01*
X141249775Y-138359790D01*
X141414944Y-138400500D01*
X141414946Y-138400500D01*
X141585054Y-138400500D01*
X141585056Y-138400500D01*
X141750225Y-138359790D01*
X141900852Y-138280734D01*
X142028183Y-138167929D01*
X142124818Y-138027930D01*
X142185140Y-137868872D01*
X142205645Y-137700000D01*
X142794355Y-137700000D01*
X142814860Y-137868873D01*
X142857031Y-137980070D01*
X142875182Y-138027930D01*
X142943421Y-138126791D01*
X142971818Y-138167930D01*
X142984902Y-138179521D01*
X143099148Y-138280734D01*
X143249775Y-138359790D01*
X143414944Y-138400500D01*
X143414946Y-138400500D01*
X143585054Y-138400500D01*
X143585056Y-138400500D01*
X143750225Y-138359790D01*
X143773554Y-138347546D01*
X145206005Y-138347546D01*
X145246381Y-138368737D01*
X145413792Y-138410000D01*
X145586208Y-138410000D01*
X145753620Y-138368737D01*
X145793994Y-138347547D01*
X145793994Y-138347546D01*
X145500000Y-138053553D01*
X145206005Y-138347546D01*
X143773554Y-138347546D01*
X143900852Y-138280734D01*
X144028183Y-138167929D01*
X144124818Y-138027930D01*
X144185140Y-137868872D01*
X144205645Y-137700000D01*
X144784785Y-137700000D01*
X144805568Y-137871163D01*
X144852234Y-137994211D01*
X145146446Y-137700000D01*
X145146446Y-137699999D01*
X145100369Y-137653922D01*
X145150000Y-137653922D01*
X145150000Y-137746078D01*
X145173852Y-137835095D01*
X145219930Y-137914905D01*
X145285095Y-137980070D01*
X145364905Y-138026148D01*
X145453922Y-138050000D01*
X145546078Y-138050000D01*
X145635095Y-138026148D01*
X145714905Y-137980070D01*
X145780070Y-137914905D01*
X145826148Y-137835095D01*
X145850000Y-137746078D01*
X145850000Y-137699999D01*
X145853553Y-137699999D01*
X145853553Y-137700000D01*
X146147764Y-137994211D01*
X146194431Y-137871161D01*
X146215214Y-137700000D01*
X146794355Y-137700000D01*
X146814860Y-137868873D01*
X146857031Y-137980070D01*
X146875182Y-138027930D01*
X146943421Y-138126791D01*
X146971818Y-138167930D01*
X146984902Y-138179521D01*
X147099148Y-138280734D01*
X147249775Y-138359790D01*
X147414944Y-138400500D01*
X147414946Y-138400500D01*
X147585054Y-138400500D01*
X147585056Y-138400500D01*
X147750225Y-138359790D01*
X147900852Y-138280734D01*
X148028183Y-138167929D01*
X148124818Y-138027930D01*
X148185140Y-137868872D01*
X148205645Y-137700000D01*
X148185140Y-137531128D01*
X148154372Y-137449999D01*
X149894867Y-137449999D01*
X149894867Y-137450000D01*
X149913302Y-137578223D01*
X149913303Y-137578226D01*
X149938991Y-137634476D01*
X149967117Y-137696063D01*
X149967118Y-137696064D01*
X150051950Y-137793966D01*
X150051950Y-137793967D01*
X150106441Y-137828985D01*
X150160931Y-137864004D01*
X150285228Y-137900500D01*
X150285229Y-137900500D01*
X150414771Y-137900500D01*
X150414772Y-137900500D01*
X150539069Y-137864004D01*
X150648049Y-137793967D01*
X150732882Y-137696063D01*
X150786697Y-137578226D01*
X150805133Y-137450000D01*
X150786697Y-137321774D01*
X150732882Y-137203937D01*
X150732882Y-137203936D01*
X150732881Y-137203935D01*
X150648049Y-137106033D01*
X150648049Y-137106032D01*
X150539067Y-137035995D01*
X150539068Y-137035995D01*
X150414774Y-136999500D01*
X150414772Y-136999500D01*
X150285228Y-136999500D01*
X150285225Y-136999500D01*
X150160931Y-137035995D01*
X150051950Y-137106032D01*
X150051950Y-137106033D01*
X149967118Y-137203935D01*
X149967117Y-137203936D01*
X149913303Y-137321775D01*
X149913302Y-137321776D01*
X149894867Y-137449999D01*
X148154372Y-137449999D01*
X148124818Y-137372070D01*
X148028183Y-137232071D01*
X147900852Y-137119266D01*
X147750225Y-137040210D01*
X147585056Y-136999500D01*
X147414944Y-136999500D01*
X147286079Y-137031262D01*
X147249775Y-137040210D01*
X147099147Y-137119266D01*
X146971818Y-137232069D01*
X146875182Y-137372069D01*
X146875181Y-137372071D01*
X146814860Y-137531126D01*
X146794355Y-137700000D01*
X146215214Y-137700000D01*
X146194431Y-137528836D01*
X146147764Y-137405787D01*
X145853553Y-137699999D01*
X145850000Y-137699999D01*
X145850000Y-137653922D01*
X145826148Y-137564905D01*
X145780070Y-137485095D01*
X145714905Y-137419930D01*
X145635095Y-137373852D01*
X145546078Y-137350000D01*
X145453922Y-137350000D01*
X145364905Y-137373852D01*
X145285095Y-137419930D01*
X145219930Y-137485095D01*
X145173852Y-137564905D01*
X145150000Y-137653922D01*
X145100369Y-137653922D01*
X144852234Y-137405787D01*
X144805568Y-137528836D01*
X144784785Y-137700000D01*
X144205645Y-137700000D01*
X144185140Y-137531128D01*
X144124818Y-137372070D01*
X144028183Y-137232071D01*
X143900852Y-137119266D01*
X143773550Y-137052452D01*
X145206005Y-137052452D01*
X145499999Y-137346446D01*
X145793993Y-137052452D01*
X145753618Y-137031262D01*
X145586208Y-136990000D01*
X145413792Y-136990000D01*
X145246381Y-137031262D01*
X145206005Y-137052452D01*
X143773550Y-137052452D01*
X143750225Y-137040210D01*
X143585056Y-136999500D01*
X143414944Y-136999500D01*
X143286079Y-137031262D01*
X143249775Y-137040210D01*
X143099147Y-137119266D01*
X142971818Y-137232069D01*
X142875182Y-137372069D01*
X142875181Y-137372071D01*
X142814860Y-137531126D01*
X142794355Y-137700000D01*
X142205645Y-137700000D01*
X142185140Y-137531128D01*
X142124818Y-137372070D01*
X142028183Y-137232071D01*
X141900852Y-137119266D01*
X141750225Y-137040210D01*
X141585056Y-136999500D01*
X141414944Y-136999500D01*
X141286079Y-137031262D01*
X141249775Y-137040210D01*
X141099147Y-137119266D01*
X140971818Y-137232069D01*
X140875182Y-137372069D01*
X140875181Y-137372071D01*
X140814860Y-137531126D01*
X140794355Y-137700000D01*
X140205645Y-137700000D01*
X140185140Y-137531128D01*
X140124818Y-137372070D01*
X140028183Y-137232071D01*
X139900852Y-137119266D01*
X139750225Y-137040210D01*
X139585056Y-136999500D01*
X139414944Y-136999500D01*
X139286079Y-137031262D01*
X139249775Y-137040210D01*
X139099147Y-137119266D01*
X138971818Y-137232069D01*
X138875182Y-137372069D01*
X138875181Y-137372071D01*
X138814860Y-137531126D01*
X138794355Y-137700000D01*
X136215214Y-137700000D01*
X136194431Y-137528836D01*
X136147764Y-137405787D01*
X135853553Y-137699999D01*
X135850000Y-137699999D01*
X135850000Y-137653922D01*
X135826148Y-137564905D01*
X135780070Y-137485095D01*
X135714905Y-137419930D01*
X135635095Y-137373852D01*
X135546078Y-137350000D01*
X135453922Y-137350000D01*
X135364905Y-137373852D01*
X135285095Y-137419930D01*
X135219930Y-137485095D01*
X135173852Y-137564905D01*
X135150000Y-137653922D01*
X135100369Y-137653922D01*
X134852234Y-137405787D01*
X134805568Y-137528836D01*
X134784785Y-137700000D01*
X134205645Y-137700000D01*
X134185140Y-137531128D01*
X134124818Y-137372070D01*
X134028183Y-137232071D01*
X133900852Y-137119266D01*
X133773550Y-137052452D01*
X135206004Y-137052452D01*
X135499999Y-137346446D01*
X135793993Y-137052452D01*
X135753618Y-137031262D01*
X135586208Y-136990000D01*
X135413792Y-136990000D01*
X135246381Y-137031262D01*
X135206004Y-137052452D01*
X133773550Y-137052452D01*
X133750225Y-137040210D01*
X133585056Y-136999500D01*
X133414944Y-136999500D01*
X133286079Y-137031262D01*
X133249775Y-137040210D01*
X133099147Y-137119266D01*
X132971818Y-137232069D01*
X132875182Y-137372069D01*
X132875181Y-137372071D01*
X132814860Y-137531126D01*
X132794355Y-137700000D01*
X132205645Y-137700000D01*
X132185140Y-137531128D01*
X132124818Y-137372070D01*
X132028183Y-137232071D01*
X131900852Y-137119266D01*
X131750225Y-137040210D01*
X131585056Y-136999500D01*
X131414944Y-136999500D01*
X131286079Y-137031262D01*
X131249775Y-137040210D01*
X131099147Y-137119266D01*
X130971818Y-137232069D01*
X130875182Y-137372069D01*
X130875181Y-137372071D01*
X130814860Y-137531126D01*
X130794355Y-137700000D01*
X130215214Y-137700000D01*
X130194431Y-137528836D01*
X130147764Y-137405787D01*
X129853553Y-137699999D01*
X129850000Y-137699999D01*
X129850000Y-137653922D01*
X129826148Y-137564905D01*
X129780070Y-137485095D01*
X129714905Y-137419930D01*
X129635095Y-137373852D01*
X129546078Y-137350000D01*
X129453922Y-137350000D01*
X129364905Y-137373852D01*
X129285095Y-137419930D01*
X129219930Y-137485095D01*
X129173852Y-137564905D01*
X129150000Y-137653922D01*
X129100369Y-137653922D01*
X128852234Y-137405787D01*
X128805568Y-137528836D01*
X128784785Y-137700000D01*
X128215214Y-137700000D01*
X128194431Y-137528836D01*
X128147764Y-137405787D01*
X127853553Y-137699999D01*
X127850000Y-137699999D01*
X127850000Y-137653922D01*
X127826148Y-137564905D01*
X127780070Y-137485095D01*
X127714905Y-137419930D01*
X127635095Y-137373852D01*
X127546078Y-137350000D01*
X127453922Y-137350000D01*
X127364905Y-137373852D01*
X127285095Y-137419930D01*
X127219930Y-137485095D01*
X127173852Y-137564905D01*
X127150000Y-137653922D01*
X127100369Y-137653922D01*
X126852234Y-137405787D01*
X126805568Y-137528836D01*
X126784785Y-137700000D01*
X126205645Y-137700000D01*
X126185140Y-137531128D01*
X126124818Y-137372070D01*
X126028183Y-137232071D01*
X125900852Y-137119266D01*
X125773550Y-137052452D01*
X127206005Y-137052452D01*
X127499999Y-137346446D01*
X127793993Y-137052452D01*
X129206005Y-137052452D01*
X129499999Y-137346446D01*
X129793994Y-137052452D01*
X129753618Y-137031262D01*
X129586208Y-136990000D01*
X129413792Y-136990000D01*
X129246381Y-137031262D01*
X129206005Y-137052452D01*
X127793993Y-137052452D01*
X127753618Y-137031262D01*
X127586208Y-136990000D01*
X127413792Y-136990000D01*
X127246381Y-137031262D01*
X127206005Y-137052452D01*
X125773550Y-137052452D01*
X125750225Y-137040210D01*
X125585056Y-136999500D01*
X125414944Y-136999500D01*
X125286079Y-137031262D01*
X125249775Y-137040210D01*
X125099147Y-137119266D01*
X124971818Y-137232069D01*
X124875182Y-137372069D01*
X124875181Y-137372071D01*
X124814860Y-137531126D01*
X124794355Y-137700000D01*
X124215214Y-137700000D01*
X124194431Y-137528836D01*
X124147764Y-137405787D01*
X123853553Y-137699999D01*
X123850000Y-137699999D01*
X123850000Y-137653922D01*
X123826148Y-137564905D01*
X123780070Y-137485095D01*
X123714905Y-137419930D01*
X123635095Y-137373852D01*
X123546078Y-137350000D01*
X123453922Y-137350000D01*
X123364905Y-137373852D01*
X123285095Y-137419930D01*
X123219930Y-137485095D01*
X123173852Y-137564905D01*
X123150000Y-137653922D01*
X123150000Y-137703553D01*
X122852234Y-137405787D01*
X122805568Y-137528836D01*
X122784785Y-137700000D01*
X122805568Y-137871161D01*
X122866710Y-138032377D01*
X122870829Y-138038345D01*
X122877094Y-138067530D01*
X122860888Y-138092596D01*
X122838733Y-138099500D01*
X122149725Y-138099500D01*
X122122148Y-138088077D01*
X122110725Y-138060500D01*
X122117628Y-138038346D01*
X122117629Y-138038345D01*
X122124818Y-138027930D01*
X122185140Y-137868872D01*
X122205645Y-137700000D01*
X122185140Y-137531128D01*
X122124818Y-137372070D01*
X122028183Y-137232071D01*
X121900852Y-137119266D01*
X121773550Y-137052452D01*
X123206005Y-137052452D01*
X123499999Y-137346446D01*
X123793993Y-137052452D01*
X123753618Y-137031262D01*
X123586208Y-136990000D01*
X123413792Y-136990000D01*
X123246381Y-137031262D01*
X123206005Y-137052452D01*
X121773550Y-137052452D01*
X121750225Y-137040210D01*
X121585056Y-136999500D01*
X121414944Y-136999500D01*
X121286079Y-137031262D01*
X121249775Y-137040210D01*
X121099147Y-137119266D01*
X120971818Y-137232069D01*
X120875182Y-137372069D01*
X120875181Y-137372071D01*
X120814860Y-137531126D01*
X120794355Y-137700000D01*
X120814860Y-137868873D01*
X120857031Y-137980070D01*
X120875182Y-138027930D01*
X120943421Y-138126791D01*
X120971818Y-138167930D01*
X120984902Y-138179521D01*
X121099148Y-138280734D01*
X121220547Y-138344449D01*
X121239656Y-138367378D01*
X121240093Y-138389074D01*
X121224501Y-138447266D01*
X121224500Y-138447275D01*
X121224500Y-139691800D01*
X121213077Y-139719377D01*
X121185540Y-139730800D01*
X84399540Y-139768881D01*
X84371951Y-139757487D01*
X84360500Y-139729921D01*
X84360500Y-138447274D01*
X84360499Y-138447268D01*
X84333208Y-138345415D01*
X84280479Y-138254085D01*
X84205914Y-138179520D01*
X84114584Y-138126791D01*
X84012731Y-138099500D01*
X84012727Y-138099500D01*
X56407583Y-138099500D01*
X56350000Y-138099500D01*
X56249344Y-138099500D01*
X56051091Y-138134457D01*
X55861925Y-138203307D01*
X55861923Y-138203308D01*
X55687585Y-138303960D01*
X55533366Y-138433366D01*
X55403960Y-138587585D01*
X55303308Y-138761923D01*
X55303307Y-138761925D01*
X55248536Y-138912409D01*
X55234457Y-138951091D01*
X55199500Y-139149344D01*
X55199500Y-139149347D01*
X55199500Y-142247445D01*
X55199166Y-142252536D01*
X55188261Y-142335366D01*
X55185626Y-142345200D01*
X55154641Y-142420005D01*
X55149551Y-142428822D01*
X55100259Y-142493060D01*
X55093060Y-142500259D01*
X55028822Y-142549551D01*
X55020005Y-142554641D01*
X54945200Y-142585626D01*
X54935366Y-142588261D01*
X54852537Y-142599166D01*
X54847446Y-142599500D01*
X53302554Y-142599500D01*
X53297463Y-142599166D01*
X53214633Y-142588261D01*
X53204799Y-142585626D01*
X53129994Y-142554641D01*
X53121177Y-142549551D01*
X53120340Y-142548909D01*
X53056939Y-142500259D01*
X53049740Y-142493060D01*
X53043488Y-142484912D01*
X53000446Y-142428819D01*
X52995360Y-142420008D01*
X52964371Y-142345195D01*
X52961739Y-142335369D01*
X52950834Y-142252535D01*
X52950500Y-142247445D01*
X52950500Y-136699996D01*
X84394318Y-136699996D01*
X84394318Y-136700003D01*
X84414955Y-136856761D01*
X84475463Y-137002839D01*
X84475464Y-137002841D01*
X84571717Y-137128282D01*
X84626133Y-137170036D01*
X84697159Y-137224536D01*
X84843238Y-137285044D01*
X84999997Y-137305682D01*
X85000000Y-137305682D01*
X85000003Y-137305682D01*
X85117571Y-137290203D01*
X85156762Y-137285044D01*
X85302841Y-137224536D01*
X85428282Y-137128282D01*
X85524536Y-137002841D01*
X85585044Y-136856762D01*
X85590608Y-136814499D01*
X90544867Y-136814499D01*
X90544867Y-136814500D01*
X90563302Y-136942723D01*
X90563303Y-136942726D01*
X90617118Y-137060563D01*
X90642417Y-137089760D01*
X90642418Y-137089761D01*
X90651844Y-137118083D01*
X90642418Y-137140838D01*
X90617118Y-137170037D01*
X90564596Y-137285044D01*
X90563303Y-137287875D01*
X90563302Y-137287876D01*
X90544867Y-137416099D01*
X90544867Y-137416100D01*
X90563302Y-137544323D01*
X90563303Y-137544326D01*
X90578784Y-137578224D01*
X90617117Y-137662163D01*
X90617118Y-137662164D01*
X90701950Y-137760066D01*
X90701950Y-137760067D01*
X90754699Y-137793966D01*
X90810931Y-137830104D01*
X90935228Y-137866600D01*
X90935229Y-137866600D01*
X91064771Y-137866600D01*
X91064772Y-137866600D01*
X91189069Y-137830104D01*
X91298049Y-137760067D01*
X91350097Y-137700000D01*
X98794355Y-137700000D01*
X98814860Y-137868873D01*
X98857031Y-137980070D01*
X98875182Y-138027930D01*
X98943421Y-138126791D01*
X98971818Y-138167930D01*
X98984902Y-138179521D01*
X99099148Y-138280734D01*
X99249775Y-138359790D01*
X99414944Y-138400500D01*
X99414946Y-138400500D01*
X99585054Y-138400500D01*
X99585056Y-138400500D01*
X99750225Y-138359790D01*
X99773554Y-138347546D01*
X101206005Y-138347546D01*
X101246381Y-138368737D01*
X101413792Y-138410000D01*
X101586208Y-138410000D01*
X101753620Y-138368737D01*
X101793994Y-138347547D01*
X101793994Y-138347546D01*
X101500000Y-138053553D01*
X101206005Y-138347546D01*
X99773554Y-138347546D01*
X99900852Y-138280734D01*
X100028183Y-138167929D01*
X100124818Y-138027930D01*
X100185140Y-137868872D01*
X100205645Y-137700000D01*
X100784785Y-137700000D01*
X100805568Y-137871163D01*
X100852234Y-137994211D01*
X101146446Y-137700000D01*
X101146446Y-137699999D01*
X101100369Y-137653922D01*
X101150000Y-137653922D01*
X101150000Y-137746078D01*
X101173852Y-137835095D01*
X101219930Y-137914905D01*
X101285095Y-137980070D01*
X101364905Y-138026148D01*
X101453922Y-138050000D01*
X101546078Y-138050000D01*
X101635095Y-138026148D01*
X101714905Y-137980070D01*
X101780070Y-137914905D01*
X101826148Y-137835095D01*
X101850000Y-137746078D01*
X101850000Y-137699999D01*
X101853553Y-137699999D01*
X101853553Y-137700000D01*
X102147764Y-137994211D01*
X102194431Y-137871161D01*
X102215214Y-137700000D01*
X102794355Y-137700000D01*
X102814860Y-137868873D01*
X102857031Y-137980070D01*
X102875182Y-138027930D01*
X102943421Y-138126791D01*
X102971818Y-138167930D01*
X102984902Y-138179521D01*
X103099148Y-138280734D01*
X103249775Y-138359790D01*
X103414944Y-138400500D01*
X103414946Y-138400500D01*
X103585054Y-138400500D01*
X103585056Y-138400500D01*
X103750225Y-138359790D01*
X103773554Y-138347546D01*
X105206005Y-138347546D01*
X105246381Y-138368737D01*
X105413792Y-138410000D01*
X105586208Y-138410000D01*
X105753620Y-138368737D01*
X105793994Y-138347547D01*
X105793994Y-138347546D01*
X105500000Y-138053553D01*
X105206005Y-138347546D01*
X103773554Y-138347546D01*
X103900852Y-138280734D01*
X104028183Y-138167929D01*
X104124818Y-138027930D01*
X104185140Y-137868872D01*
X104205645Y-137700000D01*
X104784785Y-137700000D01*
X104805568Y-137871163D01*
X104852234Y-137994211D01*
X105146446Y-137700000D01*
X105146446Y-137699999D01*
X105100369Y-137653922D01*
X105150000Y-137653922D01*
X105150000Y-137746078D01*
X105173852Y-137835095D01*
X105219930Y-137914905D01*
X105285095Y-137980070D01*
X105364905Y-138026148D01*
X105453922Y-138050000D01*
X105546078Y-138050000D01*
X105635095Y-138026148D01*
X105714905Y-137980070D01*
X105780070Y-137914905D01*
X105826148Y-137835095D01*
X105850000Y-137746078D01*
X105850000Y-137699999D01*
X105853553Y-137699999D01*
X105853553Y-137700000D01*
X106147764Y-137994211D01*
X106194431Y-137871161D01*
X106215214Y-137700000D01*
X106794355Y-137700000D01*
X106814860Y-137868873D01*
X106857031Y-137980070D01*
X106875182Y-138027930D01*
X106943421Y-138126791D01*
X106971818Y-138167930D01*
X106984902Y-138179521D01*
X107099148Y-138280734D01*
X107249775Y-138359790D01*
X107414944Y-138400500D01*
X107414946Y-138400500D01*
X107585054Y-138400500D01*
X107585056Y-138400500D01*
X107750225Y-138359790D01*
X107773554Y-138347546D01*
X109206005Y-138347546D01*
X109246381Y-138368737D01*
X109413792Y-138410000D01*
X109586208Y-138410000D01*
X109753620Y-138368737D01*
X109793994Y-138347547D01*
X109793994Y-138347546D01*
X109500000Y-138053553D01*
X109206005Y-138347546D01*
X107773554Y-138347546D01*
X107900852Y-138280734D01*
X108028183Y-138167929D01*
X108124818Y-138027930D01*
X108185140Y-137868872D01*
X108205645Y-137700000D01*
X108784785Y-137700000D01*
X108805568Y-137871163D01*
X108852234Y-137994211D01*
X109146446Y-137700000D01*
X109146446Y-137699999D01*
X109100369Y-137653922D01*
X109150000Y-137653922D01*
X109150000Y-137746078D01*
X109173852Y-137835095D01*
X109219930Y-137914905D01*
X109285095Y-137980070D01*
X109364905Y-138026148D01*
X109453922Y-138050000D01*
X109546078Y-138050000D01*
X109635095Y-138026148D01*
X109714905Y-137980070D01*
X109780070Y-137914905D01*
X109826148Y-137835095D01*
X109850000Y-137746078D01*
X109850000Y-137699999D01*
X109853553Y-137699999D01*
X109853553Y-137700000D01*
X110147764Y-137994211D01*
X110194431Y-137871161D01*
X110215214Y-137700000D01*
X110794355Y-137700000D01*
X110814860Y-137868873D01*
X110857031Y-137980070D01*
X110875182Y-138027930D01*
X110943421Y-138126791D01*
X110971818Y-138167930D01*
X110984902Y-138179521D01*
X111099148Y-138280734D01*
X111249775Y-138359790D01*
X111414944Y-138400500D01*
X111414946Y-138400500D01*
X111585054Y-138400500D01*
X111585056Y-138400500D01*
X111750225Y-138359790D01*
X111773554Y-138347546D01*
X113206005Y-138347546D01*
X113246381Y-138368737D01*
X113413792Y-138410000D01*
X113586208Y-138410000D01*
X113753620Y-138368737D01*
X113793994Y-138347547D01*
X113793994Y-138347546D01*
X113500000Y-138053553D01*
X113206005Y-138347546D01*
X111773554Y-138347546D01*
X111900852Y-138280734D01*
X112028183Y-138167929D01*
X112124818Y-138027930D01*
X112185140Y-137868872D01*
X112205645Y-137700000D01*
X112784785Y-137700000D01*
X112805568Y-137871163D01*
X112852234Y-137994211D01*
X113146446Y-137700000D01*
X113146446Y-137699999D01*
X113100369Y-137653922D01*
X113150000Y-137653922D01*
X113150000Y-137746078D01*
X113173852Y-137835095D01*
X113219930Y-137914905D01*
X113285095Y-137980070D01*
X113364905Y-138026148D01*
X113453922Y-138050000D01*
X113546078Y-138050000D01*
X113635095Y-138026148D01*
X113714905Y-137980070D01*
X113780070Y-137914905D01*
X113826148Y-137835095D01*
X113850000Y-137746078D01*
X113850000Y-137699999D01*
X113853553Y-137699999D01*
X113853553Y-137700000D01*
X114147764Y-137994211D01*
X114194431Y-137871161D01*
X114215214Y-137700000D01*
X114794355Y-137700000D01*
X114814860Y-137868873D01*
X114857031Y-137980070D01*
X114875182Y-138027930D01*
X114943421Y-138126791D01*
X114971818Y-138167930D01*
X114984902Y-138179521D01*
X115099148Y-138280734D01*
X115249775Y-138359790D01*
X115414944Y-138400500D01*
X115414946Y-138400500D01*
X115585054Y-138400500D01*
X115585056Y-138400500D01*
X115750225Y-138359790D01*
X115900852Y-138280734D01*
X116028183Y-138167929D01*
X116124818Y-138027930D01*
X116185140Y-137868872D01*
X116205645Y-137700000D01*
X116794355Y-137700000D01*
X116814860Y-137868873D01*
X116857031Y-137980070D01*
X116875182Y-138027930D01*
X116943421Y-138126791D01*
X116971818Y-138167930D01*
X116984902Y-138179521D01*
X117099148Y-138280734D01*
X117249775Y-138359790D01*
X117414944Y-138400500D01*
X117414946Y-138400500D01*
X117585054Y-138400500D01*
X117585056Y-138400500D01*
X117750225Y-138359790D01*
X117773554Y-138347546D01*
X119206004Y-138347546D01*
X119246381Y-138368737D01*
X119413792Y-138410000D01*
X119586208Y-138410000D01*
X119753620Y-138368737D01*
X119793994Y-138347547D01*
X119793994Y-138347546D01*
X119500000Y-138053553D01*
X119206004Y-138347546D01*
X117773554Y-138347546D01*
X117900852Y-138280734D01*
X118028183Y-138167929D01*
X118124818Y-138027930D01*
X118185140Y-137868872D01*
X118205645Y-137700000D01*
X118784785Y-137700000D01*
X118805568Y-137871163D01*
X118852234Y-137994211D01*
X119146446Y-137700000D01*
X119146446Y-137699999D01*
X119100369Y-137653922D01*
X119150000Y-137653922D01*
X119150000Y-137746078D01*
X119173852Y-137835095D01*
X119219930Y-137914905D01*
X119285095Y-137980070D01*
X119364905Y-138026148D01*
X119453922Y-138050000D01*
X119546078Y-138050000D01*
X119635095Y-138026148D01*
X119714905Y-137980070D01*
X119780070Y-137914905D01*
X119826148Y-137835095D01*
X119850000Y-137746078D01*
X119850000Y-137699999D01*
X119853553Y-137699999D01*
X119853553Y-137700000D01*
X120147764Y-137994211D01*
X120194431Y-137871161D01*
X120215214Y-137700000D01*
X120194431Y-137528836D01*
X120147764Y-137405787D01*
X119853553Y-137699999D01*
X119850000Y-137699999D01*
X119850000Y-137653922D01*
X119826148Y-137564905D01*
X119780070Y-137485095D01*
X119714905Y-137419930D01*
X119635095Y-137373852D01*
X119546078Y-137350000D01*
X119453922Y-137350000D01*
X119364905Y-137373852D01*
X119285095Y-137419930D01*
X119219930Y-137485095D01*
X119173852Y-137564905D01*
X119150000Y-137653922D01*
X119100369Y-137653922D01*
X118852234Y-137405787D01*
X118805568Y-137528836D01*
X118784785Y-137700000D01*
X118205645Y-137700000D01*
X118185140Y-137531128D01*
X118124818Y-137372070D01*
X118028183Y-137232071D01*
X117900852Y-137119266D01*
X117773550Y-137052452D01*
X119206005Y-137052452D01*
X119499999Y-137346446D01*
X119793993Y-137052452D01*
X119753618Y-137031262D01*
X119586208Y-136990000D01*
X119413792Y-136990000D01*
X119246381Y-137031262D01*
X119206005Y-137052452D01*
X117773550Y-137052452D01*
X117750225Y-137040210D01*
X117585056Y-136999500D01*
X117414944Y-136999500D01*
X117286079Y-137031262D01*
X117249775Y-137040210D01*
X117099147Y-137119266D01*
X116971818Y-137232069D01*
X116875182Y-137372069D01*
X116875181Y-137372071D01*
X116814860Y-137531126D01*
X116794355Y-137700000D01*
X116205645Y-137700000D01*
X116185140Y-137531128D01*
X116124818Y-137372070D01*
X116028183Y-137232071D01*
X115900852Y-137119266D01*
X115750225Y-137040210D01*
X115585056Y-136999500D01*
X115414944Y-136999500D01*
X115286079Y-137031262D01*
X115249775Y-137040210D01*
X115099147Y-137119266D01*
X114971818Y-137232069D01*
X114875182Y-137372069D01*
X114875181Y-137372071D01*
X114814860Y-137531126D01*
X114794355Y-137700000D01*
X114215214Y-137700000D01*
X114194431Y-137528836D01*
X114147764Y-137405787D01*
X113853553Y-137699999D01*
X113850000Y-137699999D01*
X113850000Y-137653922D01*
X113826148Y-137564905D01*
X113780070Y-137485095D01*
X113714905Y-137419930D01*
X113635095Y-137373852D01*
X113546078Y-137350000D01*
X113453922Y-137350000D01*
X113364905Y-137373852D01*
X113285095Y-137419930D01*
X113219930Y-137485095D01*
X113173852Y-137564905D01*
X113150000Y-137653922D01*
X113100369Y-137653922D01*
X112852234Y-137405787D01*
X112805568Y-137528836D01*
X112784785Y-137700000D01*
X112205645Y-137700000D01*
X112185140Y-137531128D01*
X112124818Y-137372070D01*
X112028183Y-137232071D01*
X111900852Y-137119266D01*
X111773550Y-137052452D01*
X113206005Y-137052452D01*
X113499999Y-137346446D01*
X113793993Y-137052452D01*
X113753618Y-137031262D01*
X113586208Y-136990000D01*
X113413792Y-136990000D01*
X113246381Y-137031262D01*
X113206005Y-137052452D01*
X111773550Y-137052452D01*
X111750225Y-137040210D01*
X111585056Y-136999500D01*
X111414944Y-136999500D01*
X111286079Y-137031262D01*
X111249775Y-137040210D01*
X111099147Y-137119266D01*
X110971818Y-137232069D01*
X110875182Y-137372069D01*
X110875181Y-137372071D01*
X110814860Y-137531126D01*
X110794355Y-137700000D01*
X110215214Y-137700000D01*
X110194431Y-137528836D01*
X110147764Y-137405787D01*
X109853553Y-137699999D01*
X109850000Y-137699999D01*
X109850000Y-137653922D01*
X109826148Y-137564905D01*
X109780070Y-137485095D01*
X109714905Y-137419930D01*
X109635095Y-137373852D01*
X109546078Y-137350000D01*
X109453922Y-137350000D01*
X109364905Y-137373852D01*
X109285095Y-137419930D01*
X109219930Y-137485095D01*
X109173852Y-137564905D01*
X109150000Y-137653922D01*
X109100369Y-137653922D01*
X108852234Y-137405787D01*
X108805568Y-137528836D01*
X108784785Y-137700000D01*
X108205645Y-137700000D01*
X108185140Y-137531128D01*
X108124818Y-137372070D01*
X108028183Y-137232071D01*
X107900852Y-137119266D01*
X107773550Y-137052452D01*
X109206005Y-137052452D01*
X109499999Y-137346446D01*
X109793993Y-137052452D01*
X109753618Y-137031262D01*
X109586208Y-136990000D01*
X109413792Y-136990000D01*
X109246381Y-137031262D01*
X109206005Y-137052452D01*
X107773550Y-137052452D01*
X107750225Y-137040210D01*
X107585056Y-136999500D01*
X107414944Y-136999500D01*
X107286079Y-137031262D01*
X107249775Y-137040210D01*
X107099147Y-137119266D01*
X106971818Y-137232069D01*
X106875182Y-137372069D01*
X106875181Y-137372071D01*
X106814860Y-137531126D01*
X106794355Y-137700000D01*
X106215214Y-137700000D01*
X106194431Y-137528836D01*
X106147764Y-137405787D01*
X105853553Y-137699999D01*
X105850000Y-137699999D01*
X105850000Y-137653922D01*
X105826148Y-137564905D01*
X105780070Y-137485095D01*
X105714905Y-137419930D01*
X105635095Y-137373852D01*
X105546078Y-137350000D01*
X105453922Y-137350000D01*
X105364905Y-137373852D01*
X105285095Y-137419930D01*
X105219930Y-137485095D01*
X105173852Y-137564905D01*
X105150000Y-137653922D01*
X105100369Y-137653922D01*
X104852234Y-137405787D01*
X104805568Y-137528836D01*
X104784785Y-137700000D01*
X104205645Y-137700000D01*
X104185140Y-137531128D01*
X104124818Y-137372070D01*
X104028183Y-137232071D01*
X103900852Y-137119266D01*
X103773550Y-137052452D01*
X105206005Y-137052452D01*
X105499999Y-137346446D01*
X105793993Y-137052452D01*
X105753618Y-137031262D01*
X105586208Y-136990000D01*
X105413792Y-136990000D01*
X105246381Y-137031262D01*
X105206005Y-137052452D01*
X103773550Y-137052452D01*
X103750225Y-137040210D01*
X103585056Y-136999500D01*
X103414944Y-136999500D01*
X103286079Y-137031262D01*
X103249775Y-137040210D01*
X103099147Y-137119266D01*
X102971818Y-137232069D01*
X102875182Y-137372069D01*
X102875181Y-137372071D01*
X102814860Y-137531126D01*
X102794355Y-137700000D01*
X102215214Y-137700000D01*
X102194431Y-137528836D01*
X102147764Y-137405787D01*
X101853553Y-137699999D01*
X101850000Y-137699999D01*
X101850000Y-137653922D01*
X101826148Y-137564905D01*
X101780070Y-137485095D01*
X101714905Y-137419930D01*
X101635095Y-137373852D01*
X101546078Y-137350000D01*
X101453922Y-137350000D01*
X101364905Y-137373852D01*
X101285095Y-137419930D01*
X101219930Y-137485095D01*
X101173852Y-137564905D01*
X101150000Y-137653922D01*
X101100369Y-137653922D01*
X100852234Y-137405787D01*
X100805568Y-137528836D01*
X100784785Y-137700000D01*
X100205645Y-137700000D01*
X100185140Y-137531128D01*
X100124818Y-137372070D01*
X100028183Y-137232071D01*
X99900852Y-137119266D01*
X99773550Y-137052452D01*
X101206005Y-137052452D01*
X101499999Y-137346446D01*
X101793993Y-137052452D01*
X101753618Y-137031262D01*
X101586208Y-136990000D01*
X101413792Y-136990000D01*
X101246381Y-137031262D01*
X101206005Y-137052452D01*
X99773550Y-137052452D01*
X99750225Y-137040210D01*
X99585056Y-136999500D01*
X99414944Y-136999500D01*
X99286079Y-137031262D01*
X99249775Y-137040210D01*
X99099147Y-137119266D01*
X98971818Y-137232069D01*
X98875182Y-137372069D01*
X98875181Y-137372071D01*
X98814860Y-137531126D01*
X98794355Y-137700000D01*
X91350097Y-137700000D01*
X91382882Y-137662163D01*
X91436697Y-137544326D01*
X91455133Y-137416100D01*
X91436697Y-137287874D01*
X91382882Y-137170037D01*
X91357581Y-137140838D01*
X91348155Y-137112519D01*
X91357581Y-137089761D01*
X91382882Y-137060563D01*
X91436697Y-136942726D01*
X91455133Y-136814500D01*
X91436697Y-136686274D01*
X91382882Y-136568437D01*
X91382882Y-136568436D01*
X91382881Y-136568435D01*
X91298049Y-136470533D01*
X91298049Y-136470532D01*
X91213259Y-136416042D01*
X91189069Y-136400496D01*
X91189068Y-136400495D01*
X91064774Y-136364000D01*
X91064772Y-136364000D01*
X90935228Y-136364000D01*
X90935225Y-136364000D01*
X90810931Y-136400495D01*
X90701950Y-136470532D01*
X90701950Y-136470533D01*
X90617118Y-136568435D01*
X90617117Y-136568436D01*
X90563303Y-136686275D01*
X90563302Y-136686276D01*
X90544867Y-136814499D01*
X85590608Y-136814499D01*
X85605682Y-136700000D01*
X85605682Y-136699996D01*
X85585044Y-136543238D01*
X85524536Y-136397159D01*
X85495861Y-136359789D01*
X85486467Y-136347546D01*
X98206005Y-136347546D01*
X98246381Y-136368737D01*
X98413792Y-136410000D01*
X98586208Y-136410000D01*
X98753620Y-136368737D01*
X98793994Y-136347547D01*
X98793994Y-136347546D01*
X98500000Y-136053553D01*
X98206005Y-136347546D01*
X85486467Y-136347546D01*
X85428282Y-136271717D01*
X85302841Y-136175464D01*
X85302839Y-136175463D01*
X85156761Y-136114955D01*
X85000003Y-136094318D01*
X84999997Y-136094318D01*
X84843238Y-136114955D01*
X84697160Y-136175463D01*
X84697158Y-136175464D01*
X84571717Y-136271717D01*
X84475464Y-136397158D01*
X84475463Y-136397160D01*
X84414955Y-136543238D01*
X84394318Y-136699996D01*
X52950500Y-136699996D01*
X52950500Y-134343519D01*
X95349398Y-134343519D01*
X95349398Y-134556098D01*
X95382652Y-134766052D01*
X95382653Y-134766058D01*
X95448337Y-134968212D01*
X95448342Y-134968224D01*
X95524871Y-135118420D01*
X95544847Y-135157625D01*
X95669794Y-135329601D01*
X95669796Y-135329603D01*
X95669799Y-135329607D01*
X95820099Y-135479907D01*
X95820102Y-135479909D01*
X95820106Y-135479913D01*
X95992082Y-135604860D01*
X96181486Y-135701366D01*
X96181489Y-135701367D01*
X96181494Y-135701369D01*
X96383648Y-135767053D01*
X96383649Y-135767053D01*
X96383655Y-135767055D01*
X96536194Y-135791215D01*
X96593609Y-135800309D01*
X96593611Y-135800309D01*
X96806187Y-135800309D01*
X96856694Y-135792308D01*
X97016141Y-135767055D01*
X97218310Y-135701366D01*
X97220991Y-135700000D01*
X97784785Y-135700000D01*
X97805568Y-135871163D01*
X97852234Y-135994211D01*
X98146446Y-135700000D01*
X98146446Y-135699999D01*
X98100369Y-135653922D01*
X98150000Y-135653922D01*
X98150000Y-135746078D01*
X98173852Y-135835095D01*
X98219930Y-135914905D01*
X98285095Y-135980070D01*
X98364905Y-136026148D01*
X98453922Y-136050000D01*
X98546078Y-136050000D01*
X98635095Y-136026148D01*
X98714905Y-135980070D01*
X98780070Y-135914905D01*
X98826148Y-135835095D01*
X98850000Y-135746078D01*
X98850000Y-135699999D01*
X98853553Y-135699999D01*
X98853553Y-135700000D01*
X99147764Y-135994211D01*
X99194431Y-135871161D01*
X99215214Y-135700000D01*
X99794355Y-135700000D01*
X99814860Y-135868873D01*
X99857031Y-135980070D01*
X99875182Y-136027930D01*
X99971817Y-136167929D01*
X100099148Y-136280734D01*
X100249775Y-136359790D01*
X100414944Y-136400500D01*
X100414946Y-136400500D01*
X100585054Y-136400500D01*
X100585056Y-136400500D01*
X100750225Y-136359790D01*
X100773554Y-136347546D01*
X102206005Y-136347546D01*
X102246381Y-136368737D01*
X102413792Y-136410000D01*
X102586208Y-136410000D01*
X102753620Y-136368737D01*
X102793994Y-136347547D01*
X102793994Y-136347546D01*
X102500000Y-136053553D01*
X102206005Y-136347546D01*
X100773554Y-136347546D01*
X100900852Y-136280734D01*
X101028183Y-136167929D01*
X101124818Y-136027930D01*
X101185140Y-135868872D01*
X101205645Y-135700000D01*
X101784785Y-135700000D01*
X101805568Y-135871163D01*
X101852234Y-135994211D01*
X102146446Y-135700000D01*
X102146446Y-135699999D01*
X102100369Y-135653922D01*
X102150000Y-135653922D01*
X102150000Y-135746078D01*
X102173852Y-135835095D01*
X102219930Y-135914905D01*
X102285095Y-135980070D01*
X102364905Y-136026148D01*
X102453922Y-136050000D01*
X102546078Y-136050000D01*
X102635095Y-136026148D01*
X102714905Y-135980070D01*
X102780070Y-135914905D01*
X102826148Y-135835095D01*
X102850000Y-135746078D01*
X102850000Y-135699999D01*
X102853553Y-135699999D01*
X102853553Y-135700000D01*
X103147764Y-135994211D01*
X103194431Y-135871161D01*
X103215214Y-135700000D01*
X103794355Y-135700000D01*
X103814860Y-135868873D01*
X103857031Y-135980070D01*
X103875182Y-136027930D01*
X103971817Y-136167929D01*
X104099148Y-136280734D01*
X104249775Y-136359790D01*
X104414944Y-136400500D01*
X104414946Y-136400500D01*
X104585054Y-136400500D01*
X104585056Y-136400500D01*
X104750225Y-136359790D01*
X104773554Y-136347546D01*
X106206004Y-136347546D01*
X106246381Y-136368737D01*
X106413792Y-136410000D01*
X106586208Y-136410000D01*
X106753620Y-136368737D01*
X106793994Y-136347547D01*
X106793994Y-136347546D01*
X106500000Y-136053553D01*
X106206004Y-136347546D01*
X104773554Y-136347546D01*
X104900852Y-136280734D01*
X105028183Y-136167929D01*
X105124818Y-136027930D01*
X105185140Y-135868872D01*
X105205645Y-135700000D01*
X105784785Y-135700000D01*
X105805568Y-135871163D01*
X105852234Y-135994211D01*
X106146446Y-135700000D01*
X106146446Y-135699999D01*
X106100369Y-135653922D01*
X106150000Y-135653922D01*
X106150000Y-135746078D01*
X106173852Y-135835095D01*
X106219930Y-135914905D01*
X106285095Y-135980070D01*
X106364905Y-136026148D01*
X106453922Y-136050000D01*
X106546078Y-136050000D01*
X106635095Y-136026148D01*
X106714905Y-135980070D01*
X106780070Y-135914905D01*
X106826148Y-135835095D01*
X106850000Y-135746078D01*
X106850000Y-135699999D01*
X106853553Y-135699999D01*
X106853553Y-135700000D01*
X107147764Y-135994211D01*
X107194431Y-135871161D01*
X107215214Y-135700000D01*
X107794355Y-135700000D01*
X107814860Y-135868873D01*
X107857031Y-135980070D01*
X107875182Y-136027930D01*
X107971817Y-136167929D01*
X108099148Y-136280734D01*
X108249775Y-136359790D01*
X108414944Y-136400500D01*
X108414946Y-136400500D01*
X108585054Y-136400500D01*
X108585056Y-136400500D01*
X108750225Y-136359790D01*
X108773554Y-136347546D01*
X110206005Y-136347546D01*
X110246381Y-136368737D01*
X110413792Y-136410000D01*
X110586208Y-136410000D01*
X110753620Y-136368737D01*
X110793994Y-136347547D01*
X110793994Y-136347546D01*
X110500000Y-136053553D01*
X110206005Y-136347546D01*
X108773554Y-136347546D01*
X108900852Y-136280734D01*
X109028183Y-136167929D01*
X109124818Y-136027930D01*
X109185140Y-135868872D01*
X109205645Y-135700000D01*
X109784785Y-135700000D01*
X109805568Y-135871163D01*
X109852234Y-135994211D01*
X110146446Y-135700000D01*
X110146446Y-135699999D01*
X110100369Y-135653922D01*
X110150000Y-135653922D01*
X110150000Y-135746078D01*
X110173852Y-135835095D01*
X110219930Y-135914905D01*
X110285095Y-135980070D01*
X110364905Y-136026148D01*
X110453922Y-136050000D01*
X110546078Y-136050000D01*
X110635095Y-136026148D01*
X110714905Y-135980070D01*
X110780070Y-135914905D01*
X110826148Y-135835095D01*
X110850000Y-135746078D01*
X110850000Y-135699999D01*
X110853553Y-135699999D01*
X110853553Y-135700000D01*
X111147764Y-135994211D01*
X111194431Y-135871161D01*
X111215214Y-135700000D01*
X111794355Y-135700000D01*
X111814860Y-135868873D01*
X111857031Y-135980070D01*
X111875182Y-136027930D01*
X111971817Y-136167929D01*
X112099148Y-136280734D01*
X112249775Y-136359790D01*
X112414944Y-136400500D01*
X112414946Y-136400500D01*
X112585054Y-136400500D01*
X112585056Y-136400500D01*
X112750225Y-136359790D01*
X112900852Y-136280734D01*
X113028183Y-136167929D01*
X113124818Y-136027930D01*
X113185140Y-135868872D01*
X113205645Y-135700000D01*
X113794355Y-135700000D01*
X113814860Y-135868873D01*
X113857031Y-135980070D01*
X113875182Y-136027930D01*
X113971817Y-136167929D01*
X114099148Y-136280734D01*
X114249775Y-136359790D01*
X114414944Y-136400500D01*
X114414946Y-136400500D01*
X114585054Y-136400500D01*
X114585056Y-136400500D01*
X114750225Y-136359790D01*
X114773554Y-136347546D01*
X116206005Y-136347546D01*
X116246381Y-136368737D01*
X116413792Y-136410000D01*
X116586208Y-136410000D01*
X116753620Y-136368737D01*
X116793994Y-136347547D01*
X116793994Y-136347546D01*
X116500000Y-136053553D01*
X116206005Y-136347546D01*
X114773554Y-136347546D01*
X114900852Y-136280734D01*
X115028183Y-136167929D01*
X115124818Y-136027930D01*
X115185140Y-135868872D01*
X115205645Y-135700000D01*
X115784785Y-135700000D01*
X115805568Y-135871163D01*
X115852234Y-135994211D01*
X116146446Y-135700000D01*
X116146446Y-135699999D01*
X116100369Y-135653922D01*
X116150000Y-135653922D01*
X116150000Y-135746078D01*
X116173852Y-135835095D01*
X116219930Y-135914905D01*
X116285095Y-135980070D01*
X116364905Y-136026148D01*
X116453922Y-136050000D01*
X116546078Y-136050000D01*
X116635095Y-136026148D01*
X116714905Y-135980070D01*
X116780070Y-135914905D01*
X116826148Y-135835095D01*
X116850000Y-135746078D01*
X116850000Y-135699999D01*
X116853553Y-135699999D01*
X116853553Y-135700000D01*
X117147764Y-135994211D01*
X117194431Y-135871161D01*
X117215214Y-135700000D01*
X117794355Y-135700000D01*
X117814860Y-135868873D01*
X117857031Y-135980070D01*
X117875182Y-136027930D01*
X117971817Y-136167929D01*
X118099148Y-136280734D01*
X118249775Y-136359790D01*
X118414944Y-136400500D01*
X118414946Y-136400500D01*
X118585054Y-136400500D01*
X118585056Y-136400500D01*
X118750225Y-136359790D01*
X118773554Y-136347546D01*
X120206004Y-136347546D01*
X120246381Y-136368737D01*
X120413792Y-136410000D01*
X120586208Y-136410000D01*
X120753620Y-136368737D01*
X120793994Y-136347547D01*
X120793994Y-136347546D01*
X120500000Y-136053553D01*
X120206004Y-136347546D01*
X118773554Y-136347546D01*
X118900852Y-136280734D01*
X119028183Y-136167929D01*
X119124818Y-136027930D01*
X119185140Y-135868872D01*
X119205645Y-135700000D01*
X119784785Y-135700000D01*
X119805568Y-135871163D01*
X119852234Y-135994211D01*
X120146446Y-135700000D01*
X120146446Y-135699999D01*
X120100369Y-135653922D01*
X120150000Y-135653922D01*
X120150000Y-135746078D01*
X120173852Y-135835095D01*
X120219930Y-135914905D01*
X120285095Y-135980070D01*
X120364905Y-136026148D01*
X120453922Y-136050000D01*
X120546078Y-136050000D01*
X120635095Y-136026148D01*
X120714905Y-135980070D01*
X120780070Y-135914905D01*
X120826148Y-135835095D01*
X120850000Y-135746078D01*
X120850000Y-135699999D01*
X120853553Y-135699999D01*
X120853553Y-135700000D01*
X121147764Y-135994211D01*
X121194431Y-135871161D01*
X121215214Y-135700000D01*
X121794355Y-135700000D01*
X121814860Y-135868873D01*
X121857031Y-135980070D01*
X121875182Y-136027930D01*
X121971817Y-136167929D01*
X122099148Y-136280734D01*
X122249775Y-136359790D01*
X122414944Y-136400500D01*
X122414946Y-136400500D01*
X122585054Y-136400500D01*
X122585056Y-136400500D01*
X122750225Y-136359790D01*
X122773554Y-136347546D01*
X124206005Y-136347546D01*
X124246381Y-136368737D01*
X124413792Y-136410000D01*
X124586208Y-136410000D01*
X124753620Y-136368737D01*
X124793994Y-136347547D01*
X124793994Y-136347546D01*
X124500000Y-136053553D01*
X124206005Y-136347546D01*
X122773554Y-136347546D01*
X122900852Y-136280734D01*
X123028183Y-136167929D01*
X123124818Y-136027930D01*
X123185140Y-135868872D01*
X123205645Y-135700000D01*
X123784785Y-135700000D01*
X123805568Y-135871163D01*
X123852234Y-135994211D01*
X124146446Y-135700000D01*
X124146446Y-135699999D01*
X124100369Y-135653922D01*
X124150000Y-135653922D01*
X124150000Y-135746078D01*
X124173852Y-135835095D01*
X124219930Y-135914905D01*
X124285095Y-135980070D01*
X124364905Y-136026148D01*
X124453922Y-136050000D01*
X124546078Y-136050000D01*
X124635095Y-136026148D01*
X124714905Y-135980070D01*
X124780070Y-135914905D01*
X124826148Y-135835095D01*
X124850000Y-135746078D01*
X124850000Y-135699999D01*
X124853553Y-135699999D01*
X124853553Y-135700000D01*
X125147764Y-135994211D01*
X125194431Y-135871161D01*
X125215214Y-135700000D01*
X125794355Y-135700000D01*
X125814860Y-135868873D01*
X125857031Y-135980070D01*
X125875182Y-136027930D01*
X125971817Y-136167929D01*
X126099148Y-136280734D01*
X126249775Y-136359790D01*
X126414944Y-136400500D01*
X126414946Y-136400500D01*
X126585054Y-136400500D01*
X126585056Y-136400500D01*
X126750225Y-136359790D01*
X126900852Y-136280734D01*
X127028183Y-136167929D01*
X127124818Y-136027930D01*
X127185140Y-135868872D01*
X127205645Y-135700000D01*
X127794355Y-135700000D01*
X127814860Y-135868873D01*
X127857031Y-135980070D01*
X127875182Y-136027930D01*
X127971817Y-136167929D01*
X128099148Y-136280734D01*
X128249775Y-136359790D01*
X128414944Y-136400500D01*
X128414946Y-136400500D01*
X128585054Y-136400500D01*
X128585056Y-136400500D01*
X128750225Y-136359790D01*
X128900852Y-136280734D01*
X129028183Y-136167929D01*
X129124818Y-136027930D01*
X129185140Y-135868872D01*
X129205645Y-135700000D01*
X129794355Y-135700000D01*
X129814860Y-135868873D01*
X129857031Y-135980070D01*
X129875182Y-136027930D01*
X129971817Y-136167929D01*
X130099148Y-136280734D01*
X130249775Y-136359790D01*
X130414944Y-136400500D01*
X130414946Y-136400500D01*
X130585054Y-136400500D01*
X130585056Y-136400500D01*
X130750225Y-136359790D01*
X130773554Y-136347546D01*
X132206005Y-136347546D01*
X132246381Y-136368737D01*
X132413792Y-136410000D01*
X132586208Y-136410000D01*
X132753620Y-136368737D01*
X132793994Y-136347547D01*
X132793994Y-136347546D01*
X132500000Y-136053553D01*
X132206005Y-136347546D01*
X130773554Y-136347546D01*
X130900852Y-136280734D01*
X131028183Y-136167929D01*
X131124818Y-136027930D01*
X131185140Y-135868872D01*
X131205645Y-135700000D01*
X131784785Y-135700000D01*
X131805568Y-135871163D01*
X131852234Y-135994211D01*
X132146446Y-135700000D01*
X132146446Y-135699999D01*
X132100369Y-135653922D01*
X132150000Y-135653922D01*
X132150000Y-135746078D01*
X132173852Y-135835095D01*
X132219930Y-135914905D01*
X132285095Y-135980070D01*
X132364905Y-136026148D01*
X132453922Y-136050000D01*
X132546078Y-136050000D01*
X132635095Y-136026148D01*
X132714905Y-135980070D01*
X132780070Y-135914905D01*
X132826148Y-135835095D01*
X132850000Y-135746078D01*
X132850000Y-135699999D01*
X132853553Y-135699999D01*
X132853553Y-135700000D01*
X133147764Y-135994211D01*
X133194431Y-135871161D01*
X133215214Y-135700000D01*
X133794355Y-135700000D01*
X133814860Y-135868873D01*
X133857031Y-135980070D01*
X133875182Y-136027930D01*
X133971817Y-136167929D01*
X134099148Y-136280734D01*
X134249775Y-136359790D01*
X134414944Y-136400500D01*
X134414946Y-136400500D01*
X134585054Y-136400500D01*
X134585056Y-136400500D01*
X134750225Y-136359790D01*
X134900852Y-136280734D01*
X135028183Y-136167929D01*
X135124818Y-136027930D01*
X135185140Y-135868872D01*
X135205645Y-135700000D01*
X135185140Y-135531128D01*
X135124818Y-135372070D01*
X135028183Y-135232071D01*
X134900852Y-135119266D01*
X134750225Y-135040210D01*
X134585056Y-134999500D01*
X134414944Y-134999500D01*
X134286079Y-135031262D01*
X134249775Y-135040210D01*
X134099147Y-135119266D01*
X133971818Y-135232069D01*
X133875182Y-135372069D01*
X133875181Y-135372071D01*
X133814860Y-135531126D01*
X133794355Y-135700000D01*
X133215214Y-135700000D01*
X133194431Y-135528836D01*
X133147764Y-135405787D01*
X132853553Y-135699999D01*
X132850000Y-135699999D01*
X132850000Y-135653922D01*
X132826148Y-135564905D01*
X132780070Y-135485095D01*
X132714905Y-135419930D01*
X132635095Y-135373852D01*
X132546078Y-135350000D01*
X132453922Y-135350000D01*
X132364905Y-135373852D01*
X132285095Y-135419930D01*
X132219930Y-135485095D01*
X132173852Y-135564905D01*
X132150000Y-135653922D01*
X132100369Y-135653922D01*
X131852234Y-135405787D01*
X131805568Y-135528836D01*
X131784785Y-135700000D01*
X131205645Y-135700000D01*
X131185140Y-135531128D01*
X131124818Y-135372070D01*
X131028183Y-135232071D01*
X130900852Y-135119266D01*
X130773550Y-135052452D01*
X132206005Y-135052452D01*
X132499999Y-135346446D01*
X132793993Y-135052452D01*
X132753618Y-135031262D01*
X132586208Y-134990000D01*
X132413792Y-134990000D01*
X132246381Y-135031262D01*
X132206005Y-135052452D01*
X130773550Y-135052452D01*
X130750225Y-135040210D01*
X130585056Y-134999500D01*
X130414944Y-134999500D01*
X130286079Y-135031262D01*
X130249775Y-135040210D01*
X130099147Y-135119266D01*
X129971818Y-135232069D01*
X129875182Y-135372069D01*
X129875181Y-135372071D01*
X129814860Y-135531126D01*
X129794355Y-135700000D01*
X129205645Y-135700000D01*
X129185140Y-135531128D01*
X129124818Y-135372070D01*
X129028183Y-135232071D01*
X128900852Y-135119266D01*
X128750225Y-135040210D01*
X128585056Y-134999500D01*
X128414944Y-134999500D01*
X128286079Y-135031262D01*
X128249775Y-135040210D01*
X128099147Y-135119266D01*
X127971818Y-135232069D01*
X127875182Y-135372069D01*
X127875181Y-135372071D01*
X127814860Y-135531126D01*
X127794355Y-135700000D01*
X127205645Y-135700000D01*
X127185140Y-135531128D01*
X127124818Y-135372070D01*
X127028183Y-135232071D01*
X126900852Y-135119266D01*
X126750225Y-135040210D01*
X126585056Y-134999500D01*
X126414944Y-134999500D01*
X126286079Y-135031262D01*
X126249775Y-135040210D01*
X126099147Y-135119266D01*
X125971818Y-135232069D01*
X125875182Y-135372069D01*
X125875181Y-135372071D01*
X125814860Y-135531126D01*
X125794355Y-135700000D01*
X125215214Y-135700000D01*
X125194431Y-135528836D01*
X125147764Y-135405787D01*
X124853553Y-135699999D01*
X124850000Y-135699999D01*
X124850000Y-135653922D01*
X124826148Y-135564905D01*
X124780070Y-135485095D01*
X124714905Y-135419930D01*
X124635095Y-135373852D01*
X124546078Y-135350000D01*
X124453922Y-135350000D01*
X124364905Y-135373852D01*
X124285095Y-135419930D01*
X124219930Y-135485095D01*
X124173852Y-135564905D01*
X124150000Y-135653922D01*
X124100369Y-135653922D01*
X123852234Y-135405787D01*
X123805568Y-135528836D01*
X123784785Y-135700000D01*
X123205645Y-135700000D01*
X123185140Y-135531128D01*
X123124818Y-135372070D01*
X123028183Y-135232071D01*
X122900852Y-135119266D01*
X122773550Y-135052452D01*
X124206005Y-135052452D01*
X124499999Y-135346446D01*
X124793993Y-135052452D01*
X124753618Y-135031262D01*
X124586208Y-134990000D01*
X124413792Y-134990000D01*
X124246381Y-135031262D01*
X124206005Y-135052452D01*
X122773550Y-135052452D01*
X122750225Y-135040210D01*
X122585056Y-134999500D01*
X122414944Y-134999500D01*
X122286079Y-135031262D01*
X122249775Y-135040210D01*
X122099147Y-135119266D01*
X121971818Y-135232069D01*
X121875182Y-135372069D01*
X121875181Y-135372071D01*
X121814860Y-135531126D01*
X121794355Y-135700000D01*
X121215214Y-135700000D01*
X121194431Y-135528836D01*
X121147764Y-135405787D01*
X120853553Y-135699999D01*
X120850000Y-135699999D01*
X120850000Y-135653922D01*
X120826148Y-135564905D01*
X120780070Y-135485095D01*
X120714905Y-135419930D01*
X120635095Y-135373852D01*
X120546078Y-135350000D01*
X120453922Y-135350000D01*
X120364905Y-135373852D01*
X120285095Y-135419930D01*
X120219930Y-135485095D01*
X120173852Y-135564905D01*
X120150000Y-135653922D01*
X120100369Y-135653922D01*
X119852234Y-135405787D01*
X119805568Y-135528836D01*
X119784785Y-135700000D01*
X119205645Y-135700000D01*
X119185140Y-135531128D01*
X119124818Y-135372070D01*
X119028183Y-135232071D01*
X118900852Y-135119266D01*
X118773550Y-135052452D01*
X120206005Y-135052452D01*
X120499999Y-135346446D01*
X120793993Y-135052452D01*
X120753618Y-135031262D01*
X120586208Y-134990000D01*
X120413792Y-134990000D01*
X120246381Y-135031262D01*
X120206005Y-135052452D01*
X118773550Y-135052452D01*
X118750225Y-135040210D01*
X118585056Y-134999500D01*
X118414944Y-134999500D01*
X118286079Y-135031262D01*
X118249775Y-135040210D01*
X118099147Y-135119266D01*
X117971818Y-135232069D01*
X117875182Y-135372069D01*
X117875181Y-135372071D01*
X117814860Y-135531126D01*
X117794355Y-135700000D01*
X117215214Y-135700000D01*
X117194431Y-135528836D01*
X117147764Y-135405787D01*
X116853553Y-135699999D01*
X116850000Y-135699999D01*
X116850000Y-135653922D01*
X116826148Y-135564905D01*
X116780070Y-135485095D01*
X116714905Y-135419930D01*
X116635095Y-135373852D01*
X116546078Y-135350000D01*
X116453922Y-135350000D01*
X116364905Y-135373852D01*
X116285095Y-135419930D01*
X116219930Y-135485095D01*
X116173852Y-135564905D01*
X116150000Y-135653922D01*
X116100369Y-135653922D01*
X115852234Y-135405787D01*
X115805568Y-135528836D01*
X115784785Y-135700000D01*
X115205645Y-135700000D01*
X115185140Y-135531128D01*
X115124818Y-135372070D01*
X115028183Y-135232071D01*
X114900852Y-135119266D01*
X114773550Y-135052452D01*
X116206005Y-135052452D01*
X116499999Y-135346446D01*
X116793993Y-135052452D01*
X116753618Y-135031262D01*
X116586208Y-134990000D01*
X116413792Y-134990000D01*
X116246381Y-135031262D01*
X116206005Y-135052452D01*
X114773550Y-135052452D01*
X114750225Y-135040210D01*
X114585056Y-134999500D01*
X114414944Y-134999500D01*
X114286079Y-135031262D01*
X114249775Y-135040210D01*
X114099147Y-135119266D01*
X113971818Y-135232069D01*
X113875182Y-135372069D01*
X113875181Y-135372071D01*
X113814860Y-135531126D01*
X113794355Y-135700000D01*
X113205645Y-135700000D01*
X113185140Y-135531128D01*
X113124818Y-135372070D01*
X113028183Y-135232071D01*
X112900852Y-135119266D01*
X112750225Y-135040210D01*
X112585056Y-134999500D01*
X112414944Y-134999500D01*
X112286079Y-135031262D01*
X112249775Y-135040210D01*
X112099147Y-135119266D01*
X111971818Y-135232069D01*
X111875182Y-135372069D01*
X111875181Y-135372071D01*
X111814860Y-135531126D01*
X111794355Y-135700000D01*
X111215214Y-135700000D01*
X111194431Y-135528836D01*
X111147764Y-135405787D01*
X110853553Y-135699999D01*
X110850000Y-135699999D01*
X110850000Y-135653922D01*
X110826148Y-135564905D01*
X110780070Y-135485095D01*
X110714905Y-135419930D01*
X110635095Y-135373852D01*
X110546078Y-135350000D01*
X110453922Y-135350000D01*
X110364905Y-135373852D01*
X110285095Y-135419930D01*
X110219930Y-135485095D01*
X110173852Y-135564905D01*
X110150000Y-135653922D01*
X110100369Y-135653922D01*
X109852234Y-135405787D01*
X109805568Y-135528836D01*
X109784785Y-135700000D01*
X109205645Y-135700000D01*
X109185140Y-135531128D01*
X109124818Y-135372070D01*
X109028183Y-135232071D01*
X108900852Y-135119266D01*
X108773550Y-135052452D01*
X110206005Y-135052452D01*
X110499999Y-135346446D01*
X110793993Y-135052452D01*
X110753618Y-135031262D01*
X110586208Y-134990000D01*
X110413792Y-134990000D01*
X110246381Y-135031262D01*
X110206005Y-135052452D01*
X108773550Y-135052452D01*
X108750225Y-135040210D01*
X108585056Y-134999500D01*
X108414944Y-134999500D01*
X108286079Y-135031262D01*
X108249775Y-135040210D01*
X108099147Y-135119266D01*
X107971818Y-135232069D01*
X107875182Y-135372069D01*
X107875181Y-135372071D01*
X107814860Y-135531126D01*
X107794355Y-135700000D01*
X107215214Y-135700000D01*
X107194431Y-135528836D01*
X107147764Y-135405787D01*
X106853553Y-135699999D01*
X106850000Y-135699999D01*
X106850000Y-135653922D01*
X106826148Y-135564905D01*
X106780070Y-135485095D01*
X106714905Y-135419930D01*
X106635095Y-135373852D01*
X106546078Y-135350000D01*
X106453922Y-135350000D01*
X106364905Y-135373852D01*
X106285095Y-135419930D01*
X106219930Y-135485095D01*
X106173852Y-135564905D01*
X106150000Y-135653922D01*
X106100369Y-135653922D01*
X105852234Y-135405787D01*
X105805568Y-135528836D01*
X105784785Y-135700000D01*
X105205645Y-135700000D01*
X105185140Y-135531128D01*
X105124818Y-135372070D01*
X105028183Y-135232071D01*
X104900852Y-135119266D01*
X104773550Y-135052452D01*
X106206005Y-135052452D01*
X106499999Y-135346446D01*
X106793993Y-135052452D01*
X106753618Y-135031262D01*
X106586208Y-134990000D01*
X106413792Y-134990000D01*
X106246381Y-135031262D01*
X106206005Y-135052452D01*
X104773550Y-135052452D01*
X104750225Y-135040210D01*
X104585056Y-134999500D01*
X104414944Y-134999500D01*
X104286079Y-135031262D01*
X104249775Y-135040210D01*
X104099147Y-135119266D01*
X103971818Y-135232069D01*
X103875182Y-135372069D01*
X103875181Y-135372071D01*
X103814860Y-135531126D01*
X103794355Y-135700000D01*
X103215214Y-135700000D01*
X103194431Y-135528836D01*
X103147764Y-135405787D01*
X102853553Y-135699999D01*
X102850000Y-135699999D01*
X102850000Y-135653922D01*
X102826148Y-135564905D01*
X102780070Y-135485095D01*
X102714905Y-135419930D01*
X102635095Y-135373852D01*
X102546078Y-135350000D01*
X102453922Y-135350000D01*
X102364905Y-135373852D01*
X102285095Y-135419930D01*
X102219930Y-135485095D01*
X102173852Y-135564905D01*
X102150000Y-135653922D01*
X102100369Y-135653922D01*
X101852234Y-135405787D01*
X101805568Y-135528836D01*
X101784785Y-135700000D01*
X101205645Y-135700000D01*
X101185140Y-135531128D01*
X101124818Y-135372070D01*
X101028183Y-135232071D01*
X100900852Y-135119266D01*
X100773550Y-135052452D01*
X102206004Y-135052452D01*
X102499999Y-135346446D01*
X102793993Y-135052452D01*
X102753618Y-135031262D01*
X102586208Y-134990000D01*
X102413792Y-134990000D01*
X102246381Y-135031262D01*
X102206004Y-135052452D01*
X100773550Y-135052452D01*
X100750225Y-135040210D01*
X100585056Y-134999500D01*
X100414944Y-134999500D01*
X100286079Y-135031262D01*
X100249775Y-135040210D01*
X100099147Y-135119266D01*
X99971818Y-135232069D01*
X99875182Y-135372069D01*
X99875181Y-135372071D01*
X99814860Y-135531126D01*
X99794355Y-135700000D01*
X99215214Y-135700000D01*
X99194431Y-135528836D01*
X99147764Y-135405787D01*
X98853553Y-135699999D01*
X98850000Y-135699999D01*
X98850000Y-135653922D01*
X98826148Y-135564905D01*
X98780070Y-135485095D01*
X98714905Y-135419930D01*
X98635095Y-135373852D01*
X98546078Y-135350000D01*
X98453922Y-135350000D01*
X98364905Y-135373852D01*
X98285095Y-135419930D01*
X98219930Y-135485095D01*
X98173852Y-135564905D01*
X98150000Y-135653922D01*
X98100369Y-135653922D01*
X97852234Y-135405787D01*
X97805568Y-135528836D01*
X97784785Y-135700000D01*
X97220991Y-135700000D01*
X97407714Y-135604860D01*
X97579690Y-135479913D01*
X97730002Y-135329601D01*
X97854949Y-135157625D01*
X97908537Y-135052452D01*
X98206005Y-135052452D01*
X98499999Y-135346446D01*
X98793993Y-135052452D01*
X98753618Y-135031262D01*
X98586208Y-134990000D01*
X98413792Y-134990000D01*
X98246381Y-135031262D01*
X98206005Y-135052452D01*
X97908537Y-135052452D01*
X97951455Y-134968221D01*
X98017144Y-134766052D01*
X98050398Y-134556096D01*
X98050398Y-134343522D01*
X98050398Y-134343519D01*
X135499513Y-134343519D01*
X135499513Y-134556098D01*
X135532767Y-134766052D01*
X135532768Y-134766058D01*
X135598452Y-134968212D01*
X135598457Y-134968224D01*
X135674986Y-135118420D01*
X135694962Y-135157625D01*
X135819909Y-135329601D01*
X135819911Y-135329603D01*
X135819914Y-135329607D01*
X135970214Y-135479907D01*
X135970217Y-135479909D01*
X135970221Y-135479913D01*
X136142197Y-135604860D01*
X136331601Y-135701366D01*
X136331604Y-135701367D01*
X136331609Y-135701369D01*
X136533763Y-135767053D01*
X136533764Y-135767053D01*
X136533770Y-135767055D01*
X136686309Y-135791215D01*
X136743724Y-135800309D01*
X136743726Y-135800309D01*
X136956302Y-135800309D01*
X137006809Y-135792308D01*
X137166256Y-135767055D01*
X137368425Y-135701366D01*
X137557829Y-135604860D01*
X137729805Y-135479913D01*
X137769646Y-135440071D01*
X137797223Y-135428649D01*
X137824800Y-135440071D01*
X137836223Y-135467649D01*
X137833689Y-135481478D01*
X137814860Y-135531126D01*
X137794355Y-135700000D01*
X137814860Y-135868873D01*
X137857031Y-135980070D01*
X137875182Y-136027930D01*
X137971817Y-136167929D01*
X138099148Y-136280734D01*
X138249775Y-136359790D01*
X138414944Y-136400500D01*
X138414946Y-136400500D01*
X138585054Y-136400500D01*
X138585056Y-136400500D01*
X138750225Y-136359790D01*
X138900852Y-136280734D01*
X139028183Y-136167929D01*
X139124818Y-136027930D01*
X139185140Y-135868872D01*
X139205645Y-135700000D01*
X139794355Y-135700000D01*
X139814860Y-135868873D01*
X139857031Y-135980070D01*
X139875182Y-136027930D01*
X139971817Y-136167929D01*
X140099148Y-136280734D01*
X140249775Y-136359790D01*
X140414944Y-136400500D01*
X140414946Y-136400500D01*
X140585054Y-136400500D01*
X140585056Y-136400500D01*
X140750225Y-136359790D01*
X140900852Y-136280734D01*
X141028183Y-136167929D01*
X141124818Y-136027930D01*
X141185140Y-135868872D01*
X141205645Y-135700000D01*
X141794355Y-135700000D01*
X141814860Y-135868873D01*
X141857031Y-135980070D01*
X141875182Y-136027930D01*
X141971817Y-136167929D01*
X142099148Y-136280734D01*
X142249775Y-136359790D01*
X142414944Y-136400500D01*
X142414946Y-136400500D01*
X142585054Y-136400500D01*
X142585056Y-136400500D01*
X142750225Y-136359790D01*
X142900852Y-136280734D01*
X143028183Y-136167929D01*
X143124818Y-136027930D01*
X143185140Y-135868872D01*
X143205645Y-135700000D01*
X143794355Y-135700000D01*
X143814860Y-135868873D01*
X143857031Y-135980070D01*
X143875182Y-136027930D01*
X143971817Y-136167929D01*
X144099148Y-136280734D01*
X144249775Y-136359790D01*
X144414944Y-136400500D01*
X144414946Y-136400500D01*
X144585054Y-136400500D01*
X144585056Y-136400500D01*
X144750225Y-136359790D01*
X144900852Y-136280734D01*
X145028183Y-136167929D01*
X145124818Y-136027930D01*
X145185140Y-135868872D01*
X145205645Y-135700000D01*
X145794355Y-135700000D01*
X145814860Y-135868873D01*
X145857031Y-135980070D01*
X145875182Y-136027930D01*
X145971817Y-136167929D01*
X146099148Y-136280734D01*
X146249775Y-136359790D01*
X146414944Y-136400500D01*
X146414946Y-136400500D01*
X146585054Y-136400500D01*
X146585056Y-136400500D01*
X146750225Y-136359790D01*
X146773554Y-136347546D01*
X148206005Y-136347546D01*
X148246381Y-136368737D01*
X148413792Y-136410000D01*
X148586208Y-136410000D01*
X148753620Y-136368737D01*
X148793994Y-136347547D01*
X148793994Y-136347546D01*
X148500000Y-136053553D01*
X148206005Y-136347546D01*
X146773554Y-136347546D01*
X146900852Y-136280734D01*
X147028183Y-136167929D01*
X147124818Y-136027930D01*
X147185140Y-135868872D01*
X147205645Y-135700000D01*
X147784785Y-135700000D01*
X147805568Y-135871163D01*
X147852234Y-135994211D01*
X148146446Y-135700000D01*
X148146446Y-135699999D01*
X148100369Y-135653922D01*
X148150000Y-135653922D01*
X148150000Y-135746078D01*
X148173852Y-135835095D01*
X148219930Y-135914905D01*
X148285095Y-135980070D01*
X148364905Y-136026148D01*
X148453922Y-136050000D01*
X148546078Y-136050000D01*
X148635095Y-136026148D01*
X148714905Y-135980070D01*
X148780070Y-135914905D01*
X148826148Y-135835095D01*
X148850000Y-135746078D01*
X148850000Y-135699999D01*
X148853553Y-135699999D01*
X148853553Y-135700000D01*
X149147764Y-135994211D01*
X149194431Y-135871161D01*
X149215214Y-135700000D01*
X149194431Y-135528836D01*
X149147764Y-135405787D01*
X148853553Y-135699999D01*
X148850000Y-135699999D01*
X148850000Y-135653922D01*
X148826148Y-135564905D01*
X148780070Y-135485095D01*
X148714905Y-135419930D01*
X148635095Y-135373852D01*
X148546078Y-135350000D01*
X148453922Y-135350000D01*
X148364905Y-135373852D01*
X148285095Y-135419930D01*
X148219930Y-135485095D01*
X148173852Y-135564905D01*
X148150000Y-135653922D01*
X148100369Y-135653922D01*
X147852234Y-135405787D01*
X147805568Y-135528836D01*
X147784785Y-135700000D01*
X147205645Y-135700000D01*
X147185140Y-135531128D01*
X147124818Y-135372070D01*
X147028183Y-135232071D01*
X146900852Y-135119266D01*
X146773550Y-135052452D01*
X148206005Y-135052452D01*
X148499999Y-135346446D01*
X148793993Y-135052452D01*
X148753618Y-135031262D01*
X148586208Y-134990000D01*
X148413792Y-134990000D01*
X148246381Y-135031262D01*
X148206005Y-135052452D01*
X146773550Y-135052452D01*
X146750225Y-135040210D01*
X146585056Y-134999500D01*
X146414944Y-134999500D01*
X146286079Y-135031262D01*
X146249775Y-135040210D01*
X146099147Y-135119266D01*
X145971818Y-135232069D01*
X145875182Y-135372069D01*
X145875181Y-135372071D01*
X145814860Y-135531126D01*
X145794355Y-135700000D01*
X145205645Y-135700000D01*
X145185140Y-135531128D01*
X145124818Y-135372070D01*
X145028183Y-135232071D01*
X144900852Y-135119266D01*
X144750225Y-135040210D01*
X144585056Y-134999500D01*
X144414944Y-134999500D01*
X144286079Y-135031262D01*
X144249775Y-135040210D01*
X144099147Y-135119266D01*
X143971818Y-135232069D01*
X143875182Y-135372069D01*
X143875181Y-135372071D01*
X143814860Y-135531126D01*
X143794355Y-135700000D01*
X143205645Y-135700000D01*
X143185140Y-135531128D01*
X143124818Y-135372070D01*
X143028183Y-135232071D01*
X142900852Y-135119266D01*
X142750225Y-135040210D01*
X142585056Y-134999500D01*
X142414944Y-134999500D01*
X142286079Y-135031262D01*
X142249775Y-135040210D01*
X142099147Y-135119266D01*
X141971818Y-135232069D01*
X141875182Y-135372069D01*
X141875181Y-135372071D01*
X141814860Y-135531126D01*
X141794355Y-135700000D01*
X141205645Y-135700000D01*
X141185140Y-135531128D01*
X141124818Y-135372070D01*
X141028183Y-135232071D01*
X140900852Y-135119266D01*
X140750225Y-135040210D01*
X140585056Y-134999500D01*
X140414944Y-134999500D01*
X140286079Y-135031262D01*
X140249775Y-135040210D01*
X140099147Y-135119266D01*
X139971818Y-135232069D01*
X139875182Y-135372069D01*
X139875181Y-135372071D01*
X139814860Y-135531126D01*
X139794355Y-135700000D01*
X139205645Y-135700000D01*
X139185140Y-135531128D01*
X139124818Y-135372070D01*
X139028183Y-135232071D01*
X138900852Y-135119266D01*
X138750225Y-135040210D01*
X138585056Y-134999500D01*
X138414944Y-134999500D01*
X138286079Y-135031262D01*
X138249775Y-135040210D01*
X138105906Y-135115719D01*
X138076179Y-135118420D01*
X138053249Y-135099310D01*
X138050548Y-135069583D01*
X138053033Y-135063480D01*
X138069449Y-135031262D01*
X138101570Y-134968221D01*
X138167259Y-134766052D01*
X138200513Y-134556096D01*
X138200513Y-134343522D01*
X138167259Y-134133566D01*
X138101570Y-133931397D01*
X138053208Y-133836482D01*
X138050867Y-133806726D01*
X138070252Y-133784029D01*
X138100010Y-133781687D01*
X138106079Y-133784243D01*
X138249775Y-133859662D01*
X138414944Y-133900372D01*
X138414946Y-133900372D01*
X138585054Y-133900372D01*
X138585056Y-133900372D01*
X138750225Y-133859662D01*
X138900852Y-133780606D01*
X139028183Y-133667801D01*
X139124818Y-133527802D01*
X139185140Y-133368744D01*
X139205645Y-133199872D01*
X139794355Y-133199872D01*
X139814860Y-133368745D01*
X139844849Y-133447819D01*
X139875182Y-133527802D01*
X139971817Y-133667801D01*
X140099148Y-133780606D01*
X140249775Y-133859662D01*
X140414944Y-133900372D01*
X140414946Y-133900372D01*
X140585054Y-133900372D01*
X140585056Y-133900372D01*
X140750225Y-133859662D01*
X140773554Y-133847418D01*
X142206005Y-133847418D01*
X142246381Y-133868609D01*
X142413792Y-133909872D01*
X142586208Y-133909872D01*
X142753620Y-133868609D01*
X142793994Y-133847419D01*
X142793994Y-133847418D01*
X142500000Y-133553425D01*
X142206005Y-133847418D01*
X140773554Y-133847418D01*
X140900852Y-133780606D01*
X141028183Y-133667801D01*
X141124818Y-133527802D01*
X141185140Y-133368744D01*
X141205645Y-133199872D01*
X141784785Y-133199872D01*
X141805568Y-133371035D01*
X141852234Y-133494083D01*
X142146446Y-133199872D01*
X142146446Y-133199871D01*
X142100369Y-133153794D01*
X142150000Y-133153794D01*
X142150000Y-133245950D01*
X142173852Y-133334967D01*
X142219930Y-133414777D01*
X142285095Y-133479942D01*
X142364905Y-133526020D01*
X142453922Y-133549872D01*
X142546078Y-133549872D01*
X142635095Y-133526020D01*
X142714905Y-133479942D01*
X142780070Y-133414777D01*
X142826148Y-133334967D01*
X142850000Y-133245950D01*
X142850000Y-133199871D01*
X142853553Y-133199871D01*
X142853553Y-133199872D01*
X143147764Y-133494083D01*
X143194431Y-133371033D01*
X143215214Y-133199872D01*
X143794355Y-133199872D01*
X143814860Y-133368745D01*
X143844849Y-133447819D01*
X143875182Y-133527802D01*
X143971817Y-133667801D01*
X144099148Y-133780606D01*
X144249775Y-133859662D01*
X144414944Y-133900372D01*
X144414946Y-133900372D01*
X144585054Y-133900372D01*
X144585056Y-133900372D01*
X144750225Y-133859662D01*
X144900852Y-133780606D01*
X145028183Y-133667801D01*
X145124818Y-133527802D01*
X145185140Y-133368744D01*
X145205645Y-133199872D01*
X145794355Y-133199872D01*
X145814860Y-133368745D01*
X145844849Y-133447819D01*
X145875182Y-133527802D01*
X145971817Y-133667801D01*
X146099148Y-133780606D01*
X146249775Y-133859662D01*
X146414944Y-133900372D01*
X146414946Y-133900372D01*
X146585054Y-133900372D01*
X146585056Y-133900372D01*
X146750225Y-133859662D01*
X146900852Y-133780606D01*
X147028183Y-133667801D01*
X147124818Y-133527802D01*
X147185140Y-133368744D01*
X147205645Y-133199872D01*
X147794355Y-133199872D01*
X147814860Y-133368745D01*
X147844849Y-133447819D01*
X147875182Y-133527802D01*
X147971817Y-133667801D01*
X148099148Y-133780606D01*
X148249775Y-133859662D01*
X148414944Y-133900372D01*
X148414946Y-133900372D01*
X148585054Y-133900372D01*
X148585056Y-133900372D01*
X148750225Y-133859662D01*
X148900852Y-133780606D01*
X149028183Y-133667801D01*
X149124818Y-133527802D01*
X149185140Y-133368744D01*
X149205645Y-133199872D01*
X149185140Y-133031000D01*
X149124818Y-132871942D01*
X149028183Y-132731943D01*
X148900852Y-132619138D01*
X148750225Y-132540082D01*
X148585056Y-132499372D01*
X148414944Y-132499372D01*
X148286079Y-132531134D01*
X148249775Y-132540082D01*
X148099147Y-132619138D01*
X147971818Y-132731941D01*
X147875182Y-132871941D01*
X147875181Y-132871943D01*
X147814860Y-133030998D01*
X147794355Y-133199872D01*
X147205645Y-133199872D01*
X147185140Y-133031000D01*
X147124818Y-132871942D01*
X147028183Y-132731943D01*
X146900852Y-132619138D01*
X146750225Y-132540082D01*
X146585056Y-132499372D01*
X146414944Y-132499372D01*
X146286079Y-132531134D01*
X146249775Y-132540082D01*
X146099147Y-132619138D01*
X145971818Y-132731941D01*
X145875182Y-132871941D01*
X145875181Y-132871943D01*
X145814860Y-133030998D01*
X145794355Y-133199872D01*
X145205645Y-133199872D01*
X145185140Y-133031000D01*
X145124818Y-132871942D01*
X145028183Y-132731943D01*
X144900852Y-132619138D01*
X144750225Y-132540082D01*
X144585056Y-132499372D01*
X144414944Y-132499372D01*
X144286079Y-132531134D01*
X144249775Y-132540082D01*
X144099147Y-132619138D01*
X143971818Y-132731941D01*
X143875182Y-132871941D01*
X143875181Y-132871943D01*
X143814860Y-133030998D01*
X143794355Y-133199872D01*
X143215214Y-133199872D01*
X143194431Y-133028708D01*
X143147764Y-132905659D01*
X142853553Y-133199871D01*
X142850000Y-133199871D01*
X142850000Y-133153794D01*
X142826148Y-133064777D01*
X142780070Y-132984967D01*
X142714905Y-132919802D01*
X142635095Y-132873724D01*
X142546078Y-132849872D01*
X142453922Y-132849872D01*
X142364905Y-132873724D01*
X142285095Y-132919802D01*
X142219930Y-132984967D01*
X142173852Y-133064777D01*
X142150000Y-133153794D01*
X142100369Y-133153794D01*
X141852234Y-132905659D01*
X141805568Y-133028708D01*
X141784785Y-133199872D01*
X141205645Y-133199872D01*
X141185140Y-133031000D01*
X141124818Y-132871942D01*
X141028183Y-132731943D01*
X140900852Y-132619138D01*
X140773550Y-132552324D01*
X142206005Y-132552324D01*
X142499999Y-132846318D01*
X142793994Y-132552324D01*
X142753618Y-132531134D01*
X142586208Y-132489872D01*
X142413792Y-132489872D01*
X142246381Y-132531134D01*
X142206005Y-132552324D01*
X140773550Y-132552324D01*
X140750225Y-132540082D01*
X140585056Y-132499372D01*
X140414944Y-132499372D01*
X140286079Y-132531134D01*
X140249775Y-132540082D01*
X140099147Y-132619138D01*
X139971818Y-132731941D01*
X139875182Y-132871941D01*
X139875181Y-132871943D01*
X139814860Y-133030998D01*
X139794355Y-133199872D01*
X139205645Y-133199872D01*
X139185140Y-133031000D01*
X139124818Y-132871942D01*
X139028183Y-132731943D01*
X138900852Y-132619138D01*
X138750225Y-132540082D01*
X138585056Y-132499372D01*
X138414944Y-132499372D01*
X138286079Y-132531134D01*
X138249775Y-132540082D01*
X138099147Y-132619138D01*
X137971818Y-132731941D01*
X137875182Y-132871941D01*
X137875181Y-132871943D01*
X137814860Y-133030998D01*
X137794355Y-133199872D01*
X137814860Y-133368745D01*
X137833534Y-133417984D01*
X137832632Y-133447819D01*
X137810897Y-133468279D01*
X137781062Y-133467377D01*
X137769491Y-133459390D01*
X137729811Y-133419710D01*
X137729807Y-133419707D01*
X137729805Y-133419705D01*
X137557829Y-133294758D01*
X137557823Y-133294755D01*
X137557822Y-133294754D01*
X137368428Y-133198253D01*
X137368416Y-133198248D01*
X137166262Y-133132564D01*
X137166256Y-133132563D01*
X136956302Y-133099309D01*
X136956300Y-133099309D01*
X136743726Y-133099309D01*
X136743724Y-133099309D01*
X136533769Y-133132563D01*
X136533763Y-133132564D01*
X136331609Y-133198248D01*
X136331597Y-133198253D01*
X136142203Y-133294754D01*
X135970214Y-133419710D01*
X135819914Y-133570010D01*
X135694958Y-133741999D01*
X135598457Y-133931393D01*
X135598452Y-133931405D01*
X135532768Y-134133559D01*
X135532767Y-134133565D01*
X135499513Y-134343519D01*
X98050398Y-134343519D01*
X98017144Y-134133566D01*
X97951455Y-133931397D01*
X97940487Y-133909872D01*
X97908665Y-133847418D01*
X98205750Y-133847418D01*
X98246127Y-133868609D01*
X98413538Y-133909872D01*
X98585954Y-133909872D01*
X98753366Y-133868609D01*
X98793740Y-133847419D01*
X98793740Y-133847418D01*
X100206005Y-133847418D01*
X100246381Y-133868609D01*
X100413792Y-133909872D01*
X100586208Y-133909872D01*
X100753620Y-133868609D01*
X100793994Y-133847419D01*
X100793994Y-133847418D01*
X100500000Y-133553425D01*
X100206005Y-133847418D01*
X98793740Y-133847418D01*
X98499746Y-133553425D01*
X98205750Y-133847418D01*
X97908665Y-133847418D01*
X97854952Y-133741999D01*
X97854949Y-133741993D01*
X97730002Y-133570017D01*
X97729998Y-133570013D01*
X97729996Y-133570010D01*
X97579696Y-133419710D01*
X97579692Y-133419707D01*
X97579690Y-133419705D01*
X97407714Y-133294758D01*
X97407708Y-133294755D01*
X97407707Y-133294754D01*
X97221490Y-133199872D01*
X97784531Y-133199872D01*
X97805314Y-133371035D01*
X97851980Y-133494083D01*
X98146192Y-133199872D01*
X98146192Y-133199871D01*
X98100115Y-133153794D01*
X98149746Y-133153794D01*
X98149746Y-133245950D01*
X98173598Y-133334967D01*
X98219676Y-133414777D01*
X98284841Y-133479942D01*
X98364651Y-133526020D01*
X98453668Y-133549872D01*
X98545824Y-133549872D01*
X98634841Y-133526020D01*
X98714651Y-133479942D01*
X98779816Y-133414777D01*
X98825894Y-133334967D01*
X98849746Y-133245950D01*
X98849746Y-133199871D01*
X98853299Y-133199871D01*
X98853299Y-133199872D01*
X99147510Y-133494083D01*
X99194177Y-133371033D01*
X99214960Y-133199872D01*
X99784785Y-133199872D01*
X99805568Y-133371035D01*
X99852234Y-133494083D01*
X100146446Y-133199872D01*
X100146446Y-133199871D01*
X100100369Y-133153794D01*
X100150000Y-133153794D01*
X100150000Y-133245950D01*
X100173852Y-133334967D01*
X100219930Y-133414777D01*
X100285095Y-133479942D01*
X100364905Y-133526020D01*
X100453922Y-133549872D01*
X100546078Y-133549872D01*
X100635095Y-133526020D01*
X100714905Y-133479942D01*
X100780070Y-133414777D01*
X100826148Y-133334967D01*
X100850000Y-133245950D01*
X100850000Y-133199871D01*
X100853553Y-133199871D01*
X100853553Y-133199872D01*
X101147764Y-133494083D01*
X101194431Y-133371033D01*
X101215214Y-133199872D01*
X101794101Y-133199872D01*
X101814606Y-133368745D01*
X101844595Y-133447819D01*
X101874928Y-133527802D01*
X101971563Y-133667801D01*
X102098894Y-133780606D01*
X102249521Y-133859662D01*
X102414690Y-133900372D01*
X102414692Y-133900372D01*
X102584800Y-133900372D01*
X102584802Y-133900372D01*
X102749971Y-133859662D01*
X102773300Y-133847418D01*
X104205751Y-133847418D01*
X104246127Y-133868609D01*
X104413538Y-133909872D01*
X104585954Y-133909872D01*
X104753366Y-133868609D01*
X104793740Y-133847419D01*
X104793740Y-133847418D01*
X104499746Y-133553425D01*
X104205751Y-133847418D01*
X102773300Y-133847418D01*
X102900598Y-133780606D01*
X103027929Y-133667801D01*
X103124564Y-133527802D01*
X103184886Y-133368744D01*
X103205391Y-133199872D01*
X103784531Y-133199872D01*
X103805314Y-133371035D01*
X103851980Y-133494083D01*
X104146192Y-133199872D01*
X104146192Y-133199871D01*
X104100115Y-133153794D01*
X104149746Y-133153794D01*
X104149746Y-133245950D01*
X104173598Y-133334967D01*
X104219676Y-133414777D01*
X104284841Y-133479942D01*
X104364651Y-133526020D01*
X104453668Y-133549872D01*
X104545824Y-133549872D01*
X104634841Y-133526020D01*
X104714651Y-133479942D01*
X104779816Y-133414777D01*
X104825894Y-133334967D01*
X104849746Y-133245950D01*
X104849746Y-133199871D01*
X104853299Y-133199871D01*
X104853299Y-133199872D01*
X105147510Y-133494083D01*
X105194177Y-133371033D01*
X105214960Y-133199872D01*
X105794355Y-133199872D01*
X105814860Y-133368745D01*
X105844849Y-133447819D01*
X105875182Y-133527802D01*
X105971817Y-133667801D01*
X106099148Y-133780606D01*
X106249775Y-133859662D01*
X106414944Y-133900372D01*
X106414946Y-133900372D01*
X106585054Y-133900372D01*
X106585056Y-133900372D01*
X106750225Y-133859662D01*
X106773554Y-133847418D01*
X108206005Y-133847418D01*
X108246381Y-133868609D01*
X108413792Y-133909872D01*
X108586208Y-133909872D01*
X108753620Y-133868609D01*
X108793994Y-133847419D01*
X108793994Y-133847418D01*
X108500000Y-133553425D01*
X108206005Y-133847418D01*
X106773554Y-133847418D01*
X106900852Y-133780606D01*
X107028183Y-133667801D01*
X107124818Y-133527802D01*
X107185140Y-133368744D01*
X107205645Y-133199872D01*
X107784785Y-133199872D01*
X107805568Y-133371035D01*
X107852234Y-133494083D01*
X108146446Y-133199872D01*
X108146446Y-133199871D01*
X108100369Y-133153794D01*
X108150000Y-133153794D01*
X108150000Y-133245950D01*
X108173852Y-133334967D01*
X108219930Y-133414777D01*
X108285095Y-133479942D01*
X108364905Y-133526020D01*
X108453922Y-133549872D01*
X108546078Y-133549872D01*
X108635095Y-133526020D01*
X108714905Y-133479942D01*
X108780070Y-133414777D01*
X108826148Y-133334967D01*
X108850000Y-133245950D01*
X108850000Y-133199871D01*
X108853553Y-133199871D01*
X108853553Y-133199872D01*
X109147764Y-133494083D01*
X109194431Y-133371033D01*
X109215214Y-133199872D01*
X109794355Y-133199872D01*
X109814860Y-133368745D01*
X109844849Y-133447819D01*
X109875182Y-133527802D01*
X109971817Y-133667801D01*
X110099148Y-133780606D01*
X110249775Y-133859662D01*
X110414944Y-133900372D01*
X110414946Y-133900372D01*
X110585054Y-133900372D01*
X110585056Y-133900372D01*
X110750225Y-133859662D01*
X110773554Y-133847418D01*
X112206005Y-133847418D01*
X112246381Y-133868609D01*
X112413792Y-133909872D01*
X112586208Y-133909872D01*
X112753620Y-133868609D01*
X112793994Y-133847419D01*
X112793994Y-133847418D01*
X112500000Y-133553425D01*
X112206005Y-133847418D01*
X110773554Y-133847418D01*
X110900852Y-133780606D01*
X111028183Y-133667801D01*
X111124818Y-133527802D01*
X111185140Y-133368744D01*
X111205645Y-133199872D01*
X111784785Y-133199872D01*
X111805568Y-133371035D01*
X111852234Y-133494083D01*
X112146446Y-133199872D01*
X112146446Y-133199871D01*
X112100369Y-133153794D01*
X112150000Y-133153794D01*
X112150000Y-133245950D01*
X112173852Y-133334967D01*
X112219930Y-133414777D01*
X112285095Y-133479942D01*
X112364905Y-133526020D01*
X112453922Y-133549872D01*
X112546078Y-133549872D01*
X112635095Y-133526020D01*
X112714905Y-133479942D01*
X112780070Y-133414777D01*
X112826148Y-133334967D01*
X112850000Y-133245950D01*
X112850000Y-133199871D01*
X112853553Y-133199871D01*
X112853553Y-133199872D01*
X113147764Y-133494083D01*
X113194431Y-133371033D01*
X113215214Y-133199872D01*
X113794355Y-133199872D01*
X113814860Y-133368745D01*
X113844849Y-133447819D01*
X113875182Y-133527802D01*
X113971817Y-133667801D01*
X114099148Y-133780606D01*
X114249775Y-133859662D01*
X114414944Y-133900372D01*
X114414946Y-133900372D01*
X114585054Y-133900372D01*
X114585056Y-133900372D01*
X114750225Y-133859662D01*
X114900852Y-133780606D01*
X115028183Y-133667801D01*
X115124818Y-133527802D01*
X115185140Y-133368744D01*
X115205645Y-133199872D01*
X115794355Y-133199872D01*
X115814860Y-133368745D01*
X115844849Y-133447819D01*
X115875182Y-133527802D01*
X115971817Y-133667801D01*
X116099148Y-133780606D01*
X116249775Y-133859662D01*
X116414944Y-133900372D01*
X116414946Y-133900372D01*
X116585054Y-133900372D01*
X116585056Y-133900372D01*
X116750225Y-133859662D01*
X116773554Y-133847418D01*
X118206004Y-133847418D01*
X118246381Y-133868609D01*
X118413792Y-133909872D01*
X118586208Y-133909872D01*
X118753620Y-133868609D01*
X118793994Y-133847419D01*
X118793994Y-133847418D01*
X118500000Y-133553425D01*
X118206004Y-133847418D01*
X116773554Y-133847418D01*
X116900852Y-133780606D01*
X117028183Y-133667801D01*
X117124818Y-133527802D01*
X117185140Y-133368744D01*
X117205645Y-133199872D01*
X117784785Y-133199872D01*
X117805568Y-133371035D01*
X117852234Y-133494083D01*
X118146446Y-133199872D01*
X118146446Y-133199871D01*
X118100369Y-133153794D01*
X118150000Y-133153794D01*
X118150000Y-133245950D01*
X118173852Y-133334967D01*
X118219930Y-133414777D01*
X118285095Y-133479942D01*
X118364905Y-133526020D01*
X118453922Y-133549872D01*
X118546078Y-133549872D01*
X118635095Y-133526020D01*
X118714905Y-133479942D01*
X118780070Y-133414777D01*
X118826148Y-133334967D01*
X118850000Y-133245950D01*
X118850000Y-133199871D01*
X118853553Y-133199871D01*
X118853553Y-133199872D01*
X119147764Y-133494083D01*
X119194431Y-133371033D01*
X119215214Y-133199872D01*
X119794355Y-133199872D01*
X119814860Y-133368745D01*
X119844849Y-133447819D01*
X119875182Y-133527802D01*
X119971817Y-133667801D01*
X120099148Y-133780606D01*
X120249775Y-133859662D01*
X120414944Y-133900372D01*
X120414946Y-133900372D01*
X120585054Y-133900372D01*
X120585056Y-133900372D01*
X120750225Y-133859662D01*
X120773554Y-133847418D01*
X122206005Y-133847418D01*
X122246381Y-133868609D01*
X122413792Y-133909872D01*
X122586208Y-133909872D01*
X122753620Y-133868609D01*
X122793994Y-133847419D01*
X122793994Y-133847418D01*
X122500000Y-133553425D01*
X122206005Y-133847418D01*
X120773554Y-133847418D01*
X120900852Y-133780606D01*
X121028183Y-133667801D01*
X121124818Y-133527802D01*
X121185140Y-133368744D01*
X121205645Y-133199872D01*
X121784785Y-133199872D01*
X121805568Y-133371035D01*
X121852234Y-133494083D01*
X122146446Y-133199872D01*
X122146446Y-133199871D01*
X122100369Y-133153794D01*
X122150000Y-133153794D01*
X122150000Y-133245950D01*
X122173852Y-133334967D01*
X122219930Y-133414777D01*
X122285095Y-133479942D01*
X122364905Y-133526020D01*
X122453922Y-133549872D01*
X122546078Y-133549872D01*
X122635095Y-133526020D01*
X122714905Y-133479942D01*
X122780070Y-133414777D01*
X122826148Y-133334967D01*
X122850000Y-133245950D01*
X122850000Y-133199871D01*
X122853553Y-133199871D01*
X122853553Y-133199872D01*
X123147764Y-133494083D01*
X123194431Y-133371033D01*
X123215214Y-133199872D01*
X123794355Y-133199872D01*
X123814860Y-133368745D01*
X123844849Y-133447819D01*
X123875182Y-133527802D01*
X123971817Y-133667801D01*
X124099148Y-133780606D01*
X124249775Y-133859662D01*
X124414944Y-133900372D01*
X124414946Y-133900372D01*
X124585054Y-133900372D01*
X124585056Y-133900372D01*
X124750225Y-133859662D01*
X124773554Y-133847418D01*
X126206004Y-133847418D01*
X126246381Y-133868609D01*
X126413792Y-133909872D01*
X126586208Y-133909872D01*
X126753620Y-133868609D01*
X126793994Y-133847419D01*
X126793994Y-133847418D01*
X126500000Y-133553425D01*
X126206004Y-133847418D01*
X124773554Y-133847418D01*
X124900852Y-133780606D01*
X125028183Y-133667801D01*
X125124818Y-133527802D01*
X125185140Y-133368744D01*
X125205645Y-133199872D01*
X125784785Y-133199872D01*
X125805568Y-133371035D01*
X125852234Y-133494083D01*
X126146446Y-133199872D01*
X126146446Y-133199871D01*
X126100369Y-133153794D01*
X126150000Y-133153794D01*
X126150000Y-133245950D01*
X126173852Y-133334967D01*
X126219930Y-133414777D01*
X126285095Y-133479942D01*
X126364905Y-133526020D01*
X126453922Y-133549872D01*
X126546078Y-133549872D01*
X126635095Y-133526020D01*
X126714905Y-133479942D01*
X126780070Y-133414777D01*
X126826148Y-133334967D01*
X126850000Y-133245950D01*
X126850000Y-133199871D01*
X126853553Y-133199871D01*
X126853553Y-133199872D01*
X127147764Y-133494083D01*
X127194431Y-133371033D01*
X127215214Y-133199872D01*
X127794355Y-133199872D01*
X127814860Y-133368745D01*
X127844849Y-133447819D01*
X127875182Y-133527802D01*
X127971817Y-133667801D01*
X128099148Y-133780606D01*
X128249775Y-133859662D01*
X128414944Y-133900372D01*
X128414946Y-133900372D01*
X128585054Y-133900372D01*
X128585056Y-133900372D01*
X128750225Y-133859662D01*
X128900852Y-133780606D01*
X129028183Y-133667801D01*
X129124818Y-133527802D01*
X129185140Y-133368744D01*
X129205645Y-133199872D01*
X129794355Y-133199872D01*
X129814860Y-133368745D01*
X129844849Y-133447819D01*
X129875182Y-133527802D01*
X129971817Y-133667801D01*
X130099148Y-133780606D01*
X130249775Y-133859662D01*
X130414944Y-133900372D01*
X130414946Y-133900372D01*
X130585054Y-133900372D01*
X130585056Y-133900372D01*
X130750225Y-133859662D01*
X130900852Y-133780606D01*
X131028183Y-133667801D01*
X131124818Y-133527802D01*
X131185140Y-133368744D01*
X131205645Y-133199872D01*
X131794355Y-133199872D01*
X131814860Y-133368745D01*
X131844849Y-133447819D01*
X131875182Y-133527802D01*
X131971817Y-133667801D01*
X132099148Y-133780606D01*
X132249775Y-133859662D01*
X132414944Y-133900372D01*
X132414946Y-133900372D01*
X132585054Y-133900372D01*
X132585056Y-133900372D01*
X132750225Y-133859662D01*
X132773554Y-133847418D01*
X134206005Y-133847418D01*
X134246381Y-133868609D01*
X134413792Y-133909872D01*
X134586208Y-133909872D01*
X134753620Y-133868609D01*
X134793994Y-133847419D01*
X134793994Y-133847418D01*
X134500000Y-133553425D01*
X134206005Y-133847418D01*
X132773554Y-133847418D01*
X132900852Y-133780606D01*
X133028183Y-133667801D01*
X133124818Y-133527802D01*
X133185140Y-133368744D01*
X133205645Y-133199872D01*
X133784785Y-133199872D01*
X133805568Y-133371035D01*
X133852234Y-133494083D01*
X134146446Y-133199872D01*
X134146446Y-133199871D01*
X134100369Y-133153794D01*
X134150000Y-133153794D01*
X134150000Y-133245950D01*
X134173852Y-133334967D01*
X134219930Y-133414777D01*
X134285095Y-133479942D01*
X134364905Y-133526020D01*
X134453922Y-133549872D01*
X134546078Y-133549872D01*
X134635095Y-133526020D01*
X134714905Y-133479942D01*
X134780070Y-133414777D01*
X134826148Y-133334967D01*
X134850000Y-133245950D01*
X134850000Y-133199871D01*
X134853553Y-133199871D01*
X134853553Y-133199872D01*
X135147764Y-133494083D01*
X135194431Y-133371033D01*
X135215214Y-133199872D01*
X135194431Y-133028708D01*
X135147764Y-132905659D01*
X134853553Y-133199871D01*
X134850000Y-133199871D01*
X134850000Y-133153794D01*
X134826148Y-133064777D01*
X134780070Y-132984967D01*
X134714905Y-132919802D01*
X134635095Y-132873724D01*
X134546078Y-132849872D01*
X134453922Y-132849872D01*
X134364905Y-132873724D01*
X134285095Y-132919802D01*
X134219930Y-132984967D01*
X134173852Y-133064777D01*
X134150000Y-133153794D01*
X134100369Y-133153794D01*
X133852234Y-132905659D01*
X133805568Y-133028708D01*
X133784785Y-133199872D01*
X133205645Y-133199872D01*
X133185140Y-133031000D01*
X133124818Y-132871942D01*
X133028183Y-132731943D01*
X132900852Y-132619138D01*
X132773550Y-132552324D01*
X134206004Y-132552324D01*
X134499999Y-132846318D01*
X134793994Y-132552324D01*
X134753618Y-132531134D01*
X134586208Y-132489872D01*
X134413792Y-132489872D01*
X134246381Y-132531134D01*
X134206004Y-132552324D01*
X132773550Y-132552324D01*
X132750225Y-132540082D01*
X132585056Y-132499372D01*
X132414944Y-132499372D01*
X132286079Y-132531134D01*
X132249775Y-132540082D01*
X132099147Y-132619138D01*
X131971818Y-132731941D01*
X131875182Y-132871941D01*
X131875181Y-132871943D01*
X131814860Y-133030998D01*
X131794355Y-133199872D01*
X131205645Y-133199872D01*
X131185140Y-133031000D01*
X131124818Y-132871942D01*
X131028183Y-132731943D01*
X130900852Y-132619138D01*
X130750225Y-132540082D01*
X130585056Y-132499372D01*
X130414944Y-132499372D01*
X130286079Y-132531134D01*
X130249775Y-132540082D01*
X130099147Y-132619138D01*
X129971818Y-132731941D01*
X129875182Y-132871941D01*
X129875181Y-132871943D01*
X129814860Y-133030998D01*
X129794355Y-133199872D01*
X129205645Y-133199872D01*
X129185140Y-133031000D01*
X129124818Y-132871942D01*
X129028183Y-132731943D01*
X128900852Y-132619138D01*
X128750225Y-132540082D01*
X128585056Y-132499372D01*
X128414944Y-132499372D01*
X128286079Y-132531134D01*
X128249775Y-132540082D01*
X128099147Y-132619138D01*
X127971818Y-132731941D01*
X127875182Y-132871941D01*
X127875181Y-132871943D01*
X127814860Y-133030998D01*
X127794355Y-133199872D01*
X127215214Y-133199872D01*
X127194431Y-133028708D01*
X127147764Y-132905659D01*
X126853553Y-133199871D01*
X126850000Y-133199871D01*
X126850000Y-133153794D01*
X126826148Y-133064777D01*
X126780070Y-132984967D01*
X126714905Y-132919802D01*
X126635095Y-132873724D01*
X126546078Y-132849872D01*
X126453922Y-132849872D01*
X126364905Y-132873724D01*
X126285095Y-132919802D01*
X126219930Y-132984967D01*
X126173852Y-133064777D01*
X126150000Y-133153794D01*
X126100369Y-133153794D01*
X125852234Y-132905659D01*
X125805568Y-133028708D01*
X125784785Y-133199872D01*
X125205645Y-133199872D01*
X125185140Y-133031000D01*
X125124818Y-132871942D01*
X125028183Y-132731943D01*
X124900852Y-132619138D01*
X124773550Y-132552324D01*
X126206005Y-132552324D01*
X126499999Y-132846318D01*
X126793993Y-132552324D01*
X126753618Y-132531134D01*
X126586208Y-132489872D01*
X126413792Y-132489872D01*
X126246381Y-132531134D01*
X126206005Y-132552324D01*
X124773550Y-132552324D01*
X124750225Y-132540082D01*
X124585056Y-132499372D01*
X124414944Y-132499372D01*
X124286079Y-132531134D01*
X124249775Y-132540082D01*
X124099147Y-132619138D01*
X123971818Y-132731941D01*
X123875182Y-132871941D01*
X123875181Y-132871943D01*
X123814860Y-133030998D01*
X123794355Y-133199872D01*
X123215214Y-133199872D01*
X123194431Y-133028708D01*
X123147764Y-132905659D01*
X122853553Y-133199871D01*
X122850000Y-133199871D01*
X122850000Y-133153794D01*
X122826148Y-133064777D01*
X122780070Y-132984967D01*
X122714905Y-132919802D01*
X122635095Y-132873724D01*
X122546078Y-132849872D01*
X122453922Y-132849872D01*
X122364905Y-132873724D01*
X122285095Y-132919802D01*
X122219930Y-132984967D01*
X122173852Y-133064777D01*
X122150000Y-133153794D01*
X122100369Y-133153794D01*
X121852234Y-132905659D01*
X121805568Y-133028708D01*
X121784785Y-133199872D01*
X121205645Y-133199872D01*
X121185140Y-133031000D01*
X121124818Y-132871942D01*
X121028183Y-132731943D01*
X120900852Y-132619138D01*
X120773550Y-132552324D01*
X122206005Y-132552324D01*
X122499999Y-132846318D01*
X122793993Y-132552324D01*
X122753618Y-132531134D01*
X122586208Y-132489872D01*
X122413792Y-132489872D01*
X122246381Y-132531134D01*
X122206005Y-132552324D01*
X120773550Y-132552324D01*
X120750225Y-132540082D01*
X120585056Y-132499372D01*
X120414944Y-132499372D01*
X120286079Y-132531134D01*
X120249775Y-132540082D01*
X120099147Y-132619138D01*
X119971818Y-132731941D01*
X119875182Y-132871941D01*
X119875181Y-132871943D01*
X119814860Y-133030998D01*
X119794355Y-133199872D01*
X119215214Y-133199872D01*
X119194431Y-133028708D01*
X119147764Y-132905659D01*
X118853553Y-133199871D01*
X118850000Y-133199871D01*
X118850000Y-133153794D01*
X118826148Y-133064777D01*
X118780070Y-132984967D01*
X118714905Y-132919802D01*
X118635095Y-132873724D01*
X118546078Y-132849872D01*
X118453922Y-132849872D01*
X118364905Y-132873724D01*
X118285095Y-132919802D01*
X118219930Y-132984967D01*
X118173852Y-133064777D01*
X118150000Y-133153794D01*
X118100369Y-133153794D01*
X117852234Y-132905659D01*
X117805568Y-133028708D01*
X117784785Y-133199872D01*
X117205645Y-133199872D01*
X117185140Y-133031000D01*
X117124818Y-132871942D01*
X117028183Y-132731943D01*
X116900852Y-132619138D01*
X116773550Y-132552324D01*
X118206005Y-132552324D01*
X118499999Y-132846318D01*
X118793993Y-132552324D01*
X118753618Y-132531134D01*
X118586208Y-132489872D01*
X118413792Y-132489872D01*
X118246381Y-132531134D01*
X118206005Y-132552324D01*
X116773550Y-132552324D01*
X116750225Y-132540082D01*
X116585056Y-132499372D01*
X116414944Y-132499372D01*
X116286079Y-132531134D01*
X116249775Y-132540082D01*
X116099147Y-132619138D01*
X115971818Y-132731941D01*
X115875182Y-132871941D01*
X115875181Y-132871943D01*
X115814860Y-133030998D01*
X115794355Y-133199872D01*
X115205645Y-133199872D01*
X115185140Y-133031000D01*
X115124818Y-132871942D01*
X115028183Y-132731943D01*
X114900852Y-132619138D01*
X114750225Y-132540082D01*
X114585056Y-132499372D01*
X114414944Y-132499372D01*
X114286079Y-132531134D01*
X114249775Y-132540082D01*
X114099147Y-132619138D01*
X113971818Y-132731941D01*
X113875182Y-132871941D01*
X113875181Y-132871943D01*
X113814860Y-133030998D01*
X113794355Y-133199872D01*
X113215214Y-133199872D01*
X113194431Y-133028708D01*
X113147764Y-132905659D01*
X112853553Y-133199871D01*
X112850000Y-133199871D01*
X112850000Y-133153794D01*
X112826148Y-133064777D01*
X112780070Y-132984967D01*
X112714905Y-132919802D01*
X112635095Y-132873724D01*
X112546078Y-132849872D01*
X112453922Y-132849872D01*
X112364905Y-132873724D01*
X112285095Y-132919802D01*
X112219930Y-132984967D01*
X112173852Y-133064777D01*
X112150000Y-133153794D01*
X112100369Y-133153794D01*
X111852234Y-132905659D01*
X111805568Y-133028708D01*
X111784785Y-133199872D01*
X111205645Y-133199872D01*
X111185140Y-133031000D01*
X111124818Y-132871942D01*
X111028183Y-132731943D01*
X110900852Y-132619138D01*
X110773550Y-132552324D01*
X112206005Y-132552324D01*
X112499999Y-132846318D01*
X112793993Y-132552324D01*
X112753618Y-132531134D01*
X112586208Y-132489872D01*
X112413792Y-132489872D01*
X112246381Y-132531134D01*
X112206005Y-132552324D01*
X110773550Y-132552324D01*
X110750225Y-132540082D01*
X110585056Y-132499372D01*
X110414944Y-132499372D01*
X110286079Y-132531134D01*
X110249775Y-132540082D01*
X110099147Y-132619138D01*
X109971818Y-132731941D01*
X109875182Y-132871941D01*
X109875181Y-132871943D01*
X109814860Y-133030998D01*
X109794355Y-133199872D01*
X109215214Y-133199872D01*
X109194431Y-133028708D01*
X109147764Y-132905659D01*
X108853553Y-133199871D01*
X108850000Y-133199871D01*
X108850000Y-133153794D01*
X108826148Y-133064777D01*
X108780070Y-132984967D01*
X108714905Y-132919802D01*
X108635095Y-132873724D01*
X108546078Y-132849872D01*
X108453922Y-132849872D01*
X108364905Y-132873724D01*
X108285095Y-132919802D01*
X108219930Y-132984967D01*
X108173852Y-133064777D01*
X108150000Y-133153794D01*
X108100369Y-133153794D01*
X107852234Y-132905659D01*
X107805568Y-133028708D01*
X107784785Y-133199872D01*
X107205645Y-133199872D01*
X107185140Y-133031000D01*
X107124818Y-132871942D01*
X107028183Y-132731943D01*
X106900852Y-132619138D01*
X106773550Y-132552324D01*
X108206005Y-132552324D01*
X108499999Y-132846318D01*
X108793993Y-132552324D01*
X108753618Y-132531134D01*
X108586208Y-132489872D01*
X108413792Y-132489872D01*
X108246381Y-132531134D01*
X108206005Y-132552324D01*
X106773550Y-132552324D01*
X106750225Y-132540082D01*
X106585056Y-132499372D01*
X106414944Y-132499372D01*
X106286079Y-132531134D01*
X106249775Y-132540082D01*
X106099147Y-132619138D01*
X105971818Y-132731941D01*
X105875182Y-132871941D01*
X105875181Y-132871943D01*
X105814860Y-133030998D01*
X105794355Y-133199872D01*
X105214960Y-133199872D01*
X105194177Y-133028708D01*
X105147510Y-132905659D01*
X104853299Y-133199871D01*
X104849746Y-133199871D01*
X104849746Y-133153794D01*
X104825894Y-133064777D01*
X104779816Y-132984967D01*
X104714651Y-132919802D01*
X104634841Y-132873724D01*
X104545824Y-132849872D01*
X104453668Y-132849872D01*
X104364651Y-132873724D01*
X104284841Y-132919802D01*
X104219676Y-132984967D01*
X104173598Y-133064777D01*
X104149746Y-133153794D01*
X104100115Y-133153794D01*
X103851980Y-132905659D01*
X103805314Y-133028708D01*
X103784531Y-133199872D01*
X103205391Y-133199872D01*
X103184886Y-133031000D01*
X103124564Y-132871942D01*
X103027929Y-132731943D01*
X102900598Y-132619138D01*
X102773296Y-132552324D01*
X104205751Y-132552324D01*
X104499745Y-132846318D01*
X104793739Y-132552324D01*
X104753364Y-132531134D01*
X104585954Y-132489872D01*
X104413538Y-132489872D01*
X104246127Y-132531134D01*
X104205751Y-132552324D01*
X102773296Y-132552324D01*
X102749971Y-132540082D01*
X102584802Y-132499372D01*
X102414690Y-132499372D01*
X102285825Y-132531134D01*
X102249521Y-132540082D01*
X102098893Y-132619138D01*
X101971564Y-132731941D01*
X101874928Y-132871941D01*
X101874927Y-132871943D01*
X101814606Y-133030998D01*
X101794101Y-133199872D01*
X101215214Y-133199872D01*
X101194431Y-133028708D01*
X101147764Y-132905659D01*
X100853553Y-133199871D01*
X100850000Y-133199871D01*
X100850000Y-133153794D01*
X100826148Y-133064777D01*
X100780070Y-132984967D01*
X100714905Y-132919802D01*
X100635095Y-132873724D01*
X100546078Y-132849872D01*
X100453922Y-132849872D01*
X100364905Y-132873724D01*
X100285095Y-132919802D01*
X100219930Y-132984967D01*
X100173852Y-133064777D01*
X100150000Y-133153794D01*
X100100369Y-133153794D01*
X99852234Y-132905659D01*
X99805568Y-133028708D01*
X99784785Y-133199872D01*
X99214960Y-133199872D01*
X99194177Y-133028708D01*
X99147510Y-132905659D01*
X98853299Y-133199871D01*
X98849746Y-133199871D01*
X98849746Y-133153794D01*
X98825894Y-133064777D01*
X98779816Y-132984967D01*
X98714651Y-132919802D01*
X98634841Y-132873724D01*
X98545824Y-132849872D01*
X98453668Y-132849872D01*
X98364651Y-132873724D01*
X98284841Y-132919802D01*
X98219676Y-132984967D01*
X98173598Y-133064777D01*
X98149746Y-133153794D01*
X98100115Y-133153794D01*
X97851980Y-132905659D01*
X97805314Y-133028708D01*
X97784531Y-133199872D01*
X97221490Y-133199872D01*
X97218313Y-133198253D01*
X97218301Y-133198248D01*
X97016147Y-133132564D01*
X97016141Y-133132563D01*
X96806187Y-133099309D01*
X96806185Y-133099309D01*
X96593611Y-133099309D01*
X96593609Y-133099309D01*
X96383654Y-133132563D01*
X96383648Y-133132564D01*
X96181494Y-133198248D01*
X96181482Y-133198253D01*
X95992088Y-133294754D01*
X95820099Y-133419710D01*
X95669799Y-133570010D01*
X95544843Y-133741999D01*
X95448342Y-133931393D01*
X95448337Y-133931405D01*
X95382653Y-134133559D01*
X95382652Y-134133565D01*
X95349398Y-134343519D01*
X52950500Y-134343519D01*
X52950500Y-131699199D01*
X81210019Y-131699199D01*
X81210019Y-131699200D01*
X81228454Y-131827423D01*
X81228455Y-131827426D01*
X81282270Y-131945263D01*
X81307569Y-131974460D01*
X81307570Y-131974461D01*
X81316996Y-132002783D01*
X81307570Y-132025539D01*
X81282270Y-132054737D01*
X81228455Y-132172575D01*
X81228454Y-132172576D01*
X81210019Y-132300799D01*
X81210019Y-132300800D01*
X81228454Y-132429023D01*
X81228455Y-132429026D01*
X81254143Y-132485276D01*
X81282269Y-132546863D01*
X81282270Y-132546864D01*
X81367102Y-132644766D01*
X81367102Y-132644767D01*
X81421593Y-132679785D01*
X81476083Y-132714804D01*
X81600380Y-132751300D01*
X81600381Y-132751300D01*
X81729923Y-132751300D01*
X81729924Y-132751300D01*
X81854221Y-132714804D01*
X81963201Y-132644767D01*
X82043302Y-132552324D01*
X98205751Y-132552324D01*
X98499745Y-132846318D01*
X98793739Y-132552324D01*
X100206005Y-132552324D01*
X100499999Y-132846318D01*
X100793993Y-132552324D01*
X100753618Y-132531134D01*
X100586208Y-132489872D01*
X100413792Y-132489872D01*
X100246381Y-132531134D01*
X100206005Y-132552324D01*
X98793739Y-132552324D01*
X98753364Y-132531134D01*
X98585954Y-132489872D01*
X98413538Y-132489872D01*
X98246127Y-132531134D01*
X98205751Y-132552324D01*
X82043302Y-132552324D01*
X82048034Y-132546863D01*
X82101849Y-132429026D01*
X82120285Y-132300800D01*
X82101849Y-132172574D01*
X82048034Y-132054737D01*
X82022733Y-132025538D01*
X82013307Y-131997219D01*
X82022733Y-131974461D01*
X82048034Y-131945263D01*
X82101849Y-131827426D01*
X82120285Y-131699200D01*
X82101849Y-131570974D01*
X82048034Y-131453137D01*
X82048034Y-131453136D01*
X82048033Y-131453135D01*
X81963201Y-131355233D01*
X81963201Y-131355232D01*
X81854219Y-131285195D01*
X81854220Y-131285195D01*
X81729926Y-131248700D01*
X81729924Y-131248700D01*
X81600380Y-131248700D01*
X81600377Y-131248700D01*
X81476083Y-131285195D01*
X81367102Y-131355232D01*
X81367102Y-131355233D01*
X81282270Y-131453135D01*
X81282269Y-131453136D01*
X81248985Y-131526020D01*
X81236470Y-131553425D01*
X81228455Y-131570975D01*
X81228454Y-131570976D01*
X81210019Y-131699199D01*
X52950500Y-131699199D01*
X52950500Y-130461692D01*
X72527941Y-130461692D01*
X72527941Y-130461693D01*
X72546376Y-130589916D01*
X72546377Y-130589919D01*
X72562596Y-130625433D01*
X72600191Y-130707756D01*
X72600192Y-130707757D01*
X72685024Y-130805659D01*
X72685024Y-130805660D01*
X72739515Y-130840678D01*
X72794005Y-130875697D01*
X72918302Y-130912193D01*
X72918303Y-130912193D01*
X73047845Y-130912193D01*
X73047846Y-130912193D01*
X73172143Y-130875697D01*
X73273380Y-130810635D01*
X73302755Y-130805336D01*
X73315550Y-130810636D01*
X73414005Y-130873909D01*
X73538302Y-130910405D01*
X73538303Y-130910405D01*
X73667845Y-130910405D01*
X73667846Y-130910405D01*
X73792143Y-130873909D01*
X73901123Y-130803872D01*
X73985956Y-130705968D01*
X74005978Y-130662126D01*
X74560300Y-130662126D01*
X74560300Y-130662127D01*
X74578735Y-130790350D01*
X74578736Y-130790353D01*
X74601946Y-130841175D01*
X74632550Y-130908190D01*
X74632551Y-130908191D01*
X74717383Y-131006093D01*
X74717383Y-131006094D01*
X74771874Y-131041112D01*
X74826364Y-131076131D01*
X74950661Y-131112627D01*
X74955511Y-131112627D01*
X74983088Y-131124050D01*
X74994114Y-131146076D01*
X75004131Y-131215747D01*
X75057946Y-131333586D01*
X75057947Y-131333587D01*
X75142779Y-131431489D01*
X75142779Y-131431490D01*
X75160341Y-131442776D01*
X75251760Y-131501527D01*
X75376057Y-131538023D01*
X75376058Y-131538023D01*
X75505600Y-131538023D01*
X75505601Y-131538023D01*
X75629898Y-131501527D01*
X75738878Y-131431490D01*
X75823711Y-131333586D01*
X75877526Y-131215749D01*
X75895962Y-131087523D01*
X75878978Y-130969399D01*
X88144867Y-130969399D01*
X88144867Y-130969400D01*
X88163302Y-131097623D01*
X88163303Y-131097626D01*
X88217118Y-131215463D01*
X88242417Y-131244660D01*
X88242418Y-131244661D01*
X88251844Y-131272983D01*
X88242418Y-131295738D01*
X88217118Y-131324937D01*
X88168457Y-131431490D01*
X88163303Y-131442775D01*
X88163302Y-131442776D01*
X88144867Y-131570999D01*
X88144867Y-131571000D01*
X88163302Y-131699223D01*
X88163303Y-131699226D01*
X88188991Y-131755476D01*
X88217117Y-131817063D01*
X88217118Y-131817064D01*
X88301950Y-131914966D01*
X88301950Y-131914967D01*
X88356441Y-131949985D01*
X88410931Y-131985004D01*
X88535228Y-132021500D01*
X88535229Y-132021500D01*
X88664771Y-132021500D01*
X88664772Y-132021500D01*
X88789069Y-131985004D01*
X88898049Y-131914967D01*
X88982882Y-131817063D01*
X89036697Y-131699226D01*
X89055133Y-131571000D01*
X89055129Y-131570975D01*
X89038187Y-131453136D01*
X89036697Y-131442774D01*
X88982882Y-131324937D01*
X88957581Y-131295738D01*
X88948155Y-131267419D01*
X88957581Y-131244661D01*
X88982882Y-131215463D01*
X88990002Y-131199872D01*
X98794101Y-131199872D01*
X98814606Y-131368745D01*
X98856777Y-131479942D01*
X98874928Y-131527802D01*
X98971563Y-131667801D01*
X99098894Y-131780606D01*
X99249521Y-131859662D01*
X99414690Y-131900372D01*
X99414692Y-131900372D01*
X99584800Y-131900372D01*
X99584802Y-131900372D01*
X99749971Y-131859662D01*
X99900598Y-131780606D01*
X100027929Y-131667801D01*
X100124564Y-131527802D01*
X100184886Y-131368744D01*
X100205391Y-131199872D01*
X100794101Y-131199872D01*
X100814606Y-131368745D01*
X100856777Y-131479942D01*
X100874928Y-131527802D01*
X100971563Y-131667801D01*
X101098894Y-131780606D01*
X101249521Y-131859662D01*
X101414690Y-131900372D01*
X101414692Y-131900372D01*
X101584800Y-131900372D01*
X101584802Y-131900372D01*
X101749971Y-131859662D01*
X101773300Y-131847418D01*
X103205751Y-131847418D01*
X103246127Y-131868609D01*
X103413538Y-131909872D01*
X103585954Y-131909872D01*
X103753366Y-131868609D01*
X103793740Y-131847419D01*
X103793740Y-131847418D01*
X103499746Y-131553425D01*
X103205751Y-131847418D01*
X101773300Y-131847418D01*
X101900598Y-131780606D01*
X102027929Y-131667801D01*
X102124564Y-131527802D01*
X102184886Y-131368744D01*
X102205391Y-131199872D01*
X102784531Y-131199872D01*
X102805314Y-131371035D01*
X102851980Y-131494083D01*
X103146192Y-131199872D01*
X103146192Y-131199871D01*
X103100115Y-131153794D01*
X103149746Y-131153794D01*
X103149746Y-131245950D01*
X103173598Y-131334967D01*
X103219676Y-131414777D01*
X103284841Y-131479942D01*
X103364651Y-131526020D01*
X103453668Y-131549872D01*
X103545824Y-131549872D01*
X103634841Y-131526020D01*
X103714651Y-131479942D01*
X103779816Y-131414777D01*
X103825894Y-131334967D01*
X103849746Y-131245950D01*
X103849746Y-131199871D01*
X103853299Y-131199871D01*
X103853299Y-131199872D01*
X104147510Y-131494083D01*
X104194177Y-131371033D01*
X104214960Y-131199872D01*
X104794101Y-131199872D01*
X104814606Y-131368745D01*
X104856777Y-131479942D01*
X104874928Y-131527802D01*
X104971563Y-131667801D01*
X105098894Y-131780606D01*
X105249521Y-131859662D01*
X105414690Y-131900372D01*
X105414692Y-131900372D01*
X105584800Y-131900372D01*
X105584802Y-131900372D01*
X105749971Y-131859662D01*
X105773300Y-131847418D01*
X107205751Y-131847418D01*
X107246127Y-131868609D01*
X107413538Y-131909872D01*
X107585954Y-131909872D01*
X107753366Y-131868609D01*
X107793740Y-131847419D01*
X107793740Y-131847418D01*
X107499746Y-131553425D01*
X107205751Y-131847418D01*
X105773300Y-131847418D01*
X105900598Y-131780606D01*
X106027929Y-131667801D01*
X106124564Y-131527802D01*
X106184886Y-131368744D01*
X106205391Y-131199872D01*
X106784531Y-131199872D01*
X106805314Y-131371035D01*
X106851980Y-131494083D01*
X107146192Y-131199872D01*
X107146192Y-131199871D01*
X107100115Y-131153794D01*
X107149746Y-131153794D01*
X107149746Y-131245950D01*
X107173598Y-131334967D01*
X107219676Y-131414777D01*
X107284841Y-131479942D01*
X107364651Y-131526020D01*
X107453668Y-131549872D01*
X107545824Y-131549872D01*
X107634841Y-131526020D01*
X107714651Y-131479942D01*
X107779816Y-131414777D01*
X107825894Y-131334967D01*
X107849746Y-131245950D01*
X107849746Y-131199871D01*
X107853299Y-131199871D01*
X107853299Y-131199872D01*
X108147510Y-131494083D01*
X108194177Y-131371033D01*
X108214960Y-131199872D01*
X108794101Y-131199872D01*
X108814606Y-131368745D01*
X108856777Y-131479942D01*
X108874928Y-131527802D01*
X108971563Y-131667801D01*
X109098894Y-131780606D01*
X109249521Y-131859662D01*
X109414690Y-131900372D01*
X109414692Y-131900372D01*
X109584800Y-131900372D01*
X109584802Y-131900372D01*
X109749971Y-131859662D01*
X109773300Y-131847418D01*
X111205751Y-131847418D01*
X111246127Y-131868609D01*
X111413538Y-131909872D01*
X111585954Y-131909872D01*
X111753366Y-131868609D01*
X111793740Y-131847419D01*
X111793740Y-131847418D01*
X111499746Y-131553425D01*
X111205751Y-131847418D01*
X109773300Y-131847418D01*
X109900598Y-131780606D01*
X110027929Y-131667801D01*
X110124564Y-131527802D01*
X110184886Y-131368744D01*
X110205391Y-131199872D01*
X110784531Y-131199872D01*
X110805314Y-131371035D01*
X110851980Y-131494083D01*
X111146192Y-131199872D01*
X111146192Y-131199871D01*
X111100115Y-131153794D01*
X111149746Y-131153794D01*
X111149746Y-131245950D01*
X111173598Y-131334967D01*
X111219676Y-131414777D01*
X111284841Y-131479942D01*
X111364651Y-131526020D01*
X111453668Y-131549872D01*
X111545824Y-131549872D01*
X111634841Y-131526020D01*
X111714651Y-131479942D01*
X111779816Y-131414777D01*
X111825894Y-131334967D01*
X111849746Y-131245950D01*
X111849746Y-131199871D01*
X111853299Y-131199871D01*
X111853299Y-131199872D01*
X112147510Y-131494083D01*
X112194177Y-131371033D01*
X112214960Y-131199872D01*
X112794101Y-131199872D01*
X112814606Y-131368745D01*
X112856777Y-131479942D01*
X112874928Y-131527802D01*
X112971563Y-131667801D01*
X113098894Y-131780606D01*
X113249521Y-131859662D01*
X113414690Y-131900372D01*
X113414692Y-131900372D01*
X113584800Y-131900372D01*
X113584802Y-131900372D01*
X113749971Y-131859662D01*
X113773300Y-131847418D01*
X115205751Y-131847418D01*
X115246127Y-131868609D01*
X115413538Y-131909872D01*
X115585954Y-131909872D01*
X115753366Y-131868609D01*
X115793740Y-131847419D01*
X115793740Y-131847418D01*
X115499746Y-131553425D01*
X115205751Y-131847418D01*
X113773300Y-131847418D01*
X113900598Y-131780606D01*
X114027929Y-131667801D01*
X114124564Y-131527802D01*
X114184886Y-131368744D01*
X114205391Y-131199872D01*
X114784531Y-131199872D01*
X114805314Y-131371035D01*
X114851980Y-131494083D01*
X115146192Y-131199872D01*
X115146192Y-131199871D01*
X115100115Y-131153794D01*
X115149746Y-131153794D01*
X115149746Y-131245950D01*
X115173598Y-131334967D01*
X115219676Y-131414777D01*
X115284841Y-131479942D01*
X115364651Y-131526020D01*
X115453668Y-131549872D01*
X115545824Y-131549872D01*
X115634841Y-131526020D01*
X115714651Y-131479942D01*
X115779816Y-131414777D01*
X115825894Y-131334967D01*
X115849746Y-131245950D01*
X115849746Y-131199871D01*
X115853299Y-131199871D01*
X115853299Y-131199872D01*
X116147510Y-131494083D01*
X116194177Y-131371033D01*
X116214960Y-131199872D01*
X116794101Y-131199872D01*
X116814606Y-131368745D01*
X116856777Y-131479942D01*
X116874928Y-131527802D01*
X116971563Y-131667801D01*
X117098894Y-131780606D01*
X117249521Y-131859662D01*
X117414690Y-131900372D01*
X117414692Y-131900372D01*
X117584800Y-131900372D01*
X117584802Y-131900372D01*
X117749971Y-131859662D01*
X117900598Y-131780606D01*
X118027929Y-131667801D01*
X118124564Y-131527802D01*
X118184886Y-131368744D01*
X118205391Y-131199872D01*
X118794101Y-131199872D01*
X118814606Y-131368745D01*
X118856777Y-131479942D01*
X118874928Y-131527802D01*
X118971563Y-131667801D01*
X119098894Y-131780606D01*
X119249521Y-131859662D01*
X119414690Y-131900372D01*
X119414692Y-131900372D01*
X119584800Y-131900372D01*
X119584802Y-131900372D01*
X119749971Y-131859662D01*
X119773300Y-131847418D01*
X121205751Y-131847418D01*
X121246127Y-131868609D01*
X121413538Y-131909872D01*
X121585954Y-131909872D01*
X121753366Y-131868609D01*
X121793740Y-131847419D01*
X121793740Y-131847418D01*
X121499746Y-131553425D01*
X121205751Y-131847418D01*
X119773300Y-131847418D01*
X119900598Y-131780606D01*
X120027929Y-131667801D01*
X120124564Y-131527802D01*
X120184886Y-131368744D01*
X120205391Y-131199872D01*
X120784531Y-131199872D01*
X120805314Y-131371035D01*
X120851980Y-131494083D01*
X121146192Y-131199872D01*
X121146192Y-131199871D01*
X121100115Y-131153794D01*
X121149746Y-131153794D01*
X121149746Y-131245950D01*
X121173598Y-131334967D01*
X121219676Y-131414777D01*
X121284841Y-131479942D01*
X121364651Y-131526020D01*
X121453668Y-131549872D01*
X121545824Y-131549872D01*
X121634841Y-131526020D01*
X121714651Y-131479942D01*
X121779816Y-131414777D01*
X121825894Y-131334967D01*
X121849746Y-131245950D01*
X121849746Y-131199871D01*
X121853299Y-131199871D01*
X121853299Y-131199872D01*
X122147510Y-131494083D01*
X122194177Y-131371033D01*
X122214960Y-131199872D01*
X122794101Y-131199872D01*
X122814606Y-131368745D01*
X122856777Y-131479942D01*
X122874928Y-131527802D01*
X122971563Y-131667801D01*
X123098894Y-131780606D01*
X123249521Y-131859662D01*
X123414690Y-131900372D01*
X123414692Y-131900372D01*
X123584800Y-131900372D01*
X123584802Y-131900372D01*
X123749971Y-131859662D01*
X123773300Y-131847418D01*
X125205751Y-131847418D01*
X125246127Y-131868609D01*
X125413538Y-131909872D01*
X125585954Y-131909872D01*
X125753366Y-131868609D01*
X125793740Y-131847419D01*
X125793740Y-131847418D01*
X125499746Y-131553425D01*
X125205751Y-131847418D01*
X123773300Y-131847418D01*
X123900598Y-131780606D01*
X124027929Y-131667801D01*
X124124564Y-131527802D01*
X124184886Y-131368744D01*
X124205391Y-131199872D01*
X124784531Y-131199872D01*
X124805314Y-131371035D01*
X124851980Y-131494083D01*
X125146192Y-131199872D01*
X125146192Y-131199871D01*
X125100115Y-131153794D01*
X125149746Y-131153794D01*
X125149746Y-131245950D01*
X125173598Y-131334967D01*
X125219676Y-131414777D01*
X125284841Y-131479942D01*
X125364651Y-131526020D01*
X125453668Y-131549872D01*
X125545824Y-131549872D01*
X125634841Y-131526020D01*
X125714651Y-131479942D01*
X125779816Y-131414777D01*
X125825894Y-131334967D01*
X125849746Y-131245950D01*
X125849746Y-131199871D01*
X125853299Y-131199871D01*
X125853299Y-131199872D01*
X126147510Y-131494083D01*
X126194177Y-131371033D01*
X126214960Y-131199872D01*
X126794101Y-131199872D01*
X126814606Y-131368745D01*
X126856777Y-131479942D01*
X126874928Y-131527802D01*
X126971563Y-131667801D01*
X127098894Y-131780606D01*
X127249521Y-131859662D01*
X127414690Y-131900372D01*
X127414692Y-131900372D01*
X127584800Y-131900372D01*
X127584802Y-131900372D01*
X127749971Y-131859662D01*
X127773300Y-131847418D01*
X129205750Y-131847418D01*
X129246127Y-131868609D01*
X129413538Y-131909872D01*
X129585954Y-131909872D01*
X129753366Y-131868609D01*
X129793740Y-131847419D01*
X129793740Y-131847418D01*
X131205751Y-131847418D01*
X131246127Y-131868609D01*
X131413538Y-131909872D01*
X131585954Y-131909872D01*
X131753366Y-131868609D01*
X131793740Y-131847419D01*
X131793740Y-131847418D01*
X131499746Y-131553425D01*
X131205751Y-131847418D01*
X129793740Y-131847418D01*
X129499746Y-131553425D01*
X129205750Y-131847418D01*
X127773300Y-131847418D01*
X127900598Y-131780606D01*
X128027929Y-131667801D01*
X128124564Y-131527802D01*
X128184886Y-131368744D01*
X128205391Y-131199872D01*
X128784531Y-131199872D01*
X128805314Y-131371035D01*
X128851980Y-131494083D01*
X129146192Y-131199872D01*
X129146192Y-131199871D01*
X129100115Y-131153794D01*
X129149746Y-131153794D01*
X129149746Y-131245950D01*
X129173598Y-131334967D01*
X129219676Y-131414777D01*
X129284841Y-131479942D01*
X129364651Y-131526020D01*
X129453668Y-131549872D01*
X129545824Y-131549872D01*
X129634841Y-131526020D01*
X129714651Y-131479942D01*
X129779816Y-131414777D01*
X129825894Y-131334967D01*
X129849746Y-131245950D01*
X129849746Y-131199871D01*
X129853299Y-131199871D01*
X129853299Y-131199872D01*
X130147510Y-131494083D01*
X130194177Y-131371033D01*
X130214960Y-131199872D01*
X130784531Y-131199872D01*
X130805314Y-131371035D01*
X130851980Y-131494083D01*
X131146192Y-131199872D01*
X131146192Y-131199871D01*
X131100115Y-131153794D01*
X131149746Y-131153794D01*
X131149746Y-131245950D01*
X131173598Y-131334967D01*
X131219676Y-131414777D01*
X131284841Y-131479942D01*
X131364651Y-131526020D01*
X131453668Y-131549872D01*
X131545824Y-131549872D01*
X131634841Y-131526020D01*
X131714651Y-131479942D01*
X131779816Y-131414777D01*
X131825894Y-131334967D01*
X131849746Y-131245950D01*
X131849746Y-131199871D01*
X131853299Y-131199871D01*
X131853299Y-131199872D01*
X132147510Y-131494083D01*
X132194177Y-131371033D01*
X132214960Y-131199872D01*
X132794101Y-131199872D01*
X132814606Y-131368745D01*
X132856777Y-131479942D01*
X132874928Y-131527802D01*
X132971563Y-131667801D01*
X133098894Y-131780606D01*
X133249521Y-131859662D01*
X133414690Y-131900372D01*
X133414692Y-131900372D01*
X133584800Y-131900372D01*
X133584802Y-131900372D01*
X133749971Y-131859662D01*
X133900598Y-131780606D01*
X134027929Y-131667801D01*
X134124564Y-131527802D01*
X134184886Y-131368744D01*
X134205391Y-131199872D01*
X134794101Y-131199872D01*
X134814606Y-131368745D01*
X134856777Y-131479942D01*
X134874928Y-131527802D01*
X134971563Y-131667801D01*
X135098894Y-131780606D01*
X135249521Y-131859662D01*
X135414690Y-131900372D01*
X135414692Y-131900372D01*
X135584800Y-131900372D01*
X135584802Y-131900372D01*
X135749971Y-131859662D01*
X135900598Y-131780606D01*
X136027929Y-131667801D01*
X136124564Y-131527802D01*
X136184886Y-131368744D01*
X136205391Y-131199872D01*
X138794101Y-131199872D01*
X138814606Y-131368745D01*
X138856777Y-131479942D01*
X138874928Y-131527802D01*
X138971563Y-131667801D01*
X139098894Y-131780606D01*
X139249521Y-131859662D01*
X139414690Y-131900372D01*
X139414692Y-131900372D01*
X139584800Y-131900372D01*
X139584802Y-131900372D01*
X139749971Y-131859662D01*
X139900598Y-131780606D01*
X140027929Y-131667801D01*
X140124564Y-131527802D01*
X140184886Y-131368744D01*
X140205391Y-131199872D01*
X140794101Y-131199872D01*
X140814606Y-131368745D01*
X140856777Y-131479942D01*
X140874928Y-131527802D01*
X140971563Y-131667801D01*
X141098894Y-131780606D01*
X141249521Y-131859662D01*
X141414690Y-131900372D01*
X141414692Y-131900372D01*
X141584800Y-131900372D01*
X141584802Y-131900372D01*
X141749971Y-131859662D01*
X141900598Y-131780606D01*
X142027929Y-131667801D01*
X142124564Y-131527802D01*
X142184886Y-131368744D01*
X142205391Y-131199872D01*
X142794355Y-131199872D01*
X142814860Y-131368745D01*
X142857031Y-131479942D01*
X142875182Y-131527802D01*
X142971817Y-131667801D01*
X143099148Y-131780606D01*
X143249775Y-131859662D01*
X143414944Y-131900372D01*
X143414946Y-131900372D01*
X143585054Y-131900372D01*
X143585056Y-131900372D01*
X143750225Y-131859662D01*
X143773554Y-131847418D01*
X145206004Y-131847418D01*
X145246381Y-131868609D01*
X145413792Y-131909872D01*
X145586208Y-131909872D01*
X145753620Y-131868609D01*
X145793994Y-131847419D01*
X145793994Y-131847418D01*
X145500000Y-131553425D01*
X145206004Y-131847418D01*
X143773554Y-131847418D01*
X143900852Y-131780606D01*
X144028183Y-131667801D01*
X144124818Y-131527802D01*
X144185140Y-131368744D01*
X144205645Y-131199872D01*
X144784785Y-131199872D01*
X144805568Y-131371035D01*
X144852234Y-131494083D01*
X145146446Y-131199872D01*
X145146446Y-131199871D01*
X145100369Y-131153794D01*
X145150000Y-131153794D01*
X145150000Y-131245950D01*
X145173852Y-131334967D01*
X145219930Y-131414777D01*
X145285095Y-131479942D01*
X145364905Y-131526020D01*
X145453922Y-131549872D01*
X145546078Y-131549872D01*
X145635095Y-131526020D01*
X145714905Y-131479942D01*
X145780070Y-131414777D01*
X145826148Y-131334967D01*
X145850000Y-131245950D01*
X145850000Y-131199871D01*
X145853553Y-131199871D01*
X145853553Y-131199872D01*
X146147764Y-131494083D01*
X146194431Y-131371033D01*
X146215214Y-131199872D01*
X146794355Y-131199872D01*
X146814860Y-131368745D01*
X146857031Y-131479942D01*
X146875182Y-131527802D01*
X146971817Y-131667801D01*
X147099148Y-131780606D01*
X147249775Y-131859662D01*
X147414944Y-131900372D01*
X147414946Y-131900372D01*
X147585054Y-131900372D01*
X147585056Y-131900372D01*
X147750225Y-131859662D01*
X147900852Y-131780606D01*
X148028183Y-131667801D01*
X148124818Y-131527802D01*
X148185140Y-131368744D01*
X148205645Y-131199872D01*
X148185140Y-131031000D01*
X148124818Y-130871942D01*
X148028183Y-130731943D01*
X148000881Y-130707756D01*
X147900852Y-130619138D01*
X147750225Y-130540082D01*
X147585056Y-130499372D01*
X147414944Y-130499372D01*
X147249775Y-130540082D01*
X147099147Y-130619138D01*
X146971818Y-130731941D01*
X146875182Y-130871941D01*
X146875181Y-130871943D01*
X146814860Y-131030998D01*
X146794355Y-131199872D01*
X146215214Y-131199872D01*
X146194431Y-131028708D01*
X146147764Y-130905659D01*
X145853553Y-131199871D01*
X145850000Y-131199871D01*
X145850000Y-131153794D01*
X145826148Y-131064777D01*
X145780070Y-130984967D01*
X145714905Y-130919802D01*
X145635095Y-130873724D01*
X145546078Y-130849872D01*
X145453922Y-130849872D01*
X145364905Y-130873724D01*
X145285095Y-130919802D01*
X145219930Y-130984967D01*
X145173852Y-131064777D01*
X145150000Y-131153794D01*
X145100369Y-131153794D01*
X144852234Y-130905659D01*
X144805568Y-131028708D01*
X144784785Y-131199872D01*
X144205645Y-131199872D01*
X144185140Y-131031000D01*
X144124818Y-130871942D01*
X144028183Y-130731943D01*
X144000881Y-130707756D01*
X143900852Y-130619138D01*
X143773550Y-130552324D01*
X145206005Y-130552324D01*
X145499999Y-130846318D01*
X145793993Y-130552324D01*
X145753618Y-130531134D01*
X145586208Y-130489872D01*
X145413792Y-130489872D01*
X145246381Y-130531134D01*
X145206005Y-130552324D01*
X143773550Y-130552324D01*
X143750225Y-130540082D01*
X143585056Y-130499372D01*
X143414944Y-130499372D01*
X143249775Y-130540082D01*
X143099147Y-130619138D01*
X142971818Y-130731941D01*
X142875182Y-130871941D01*
X142875181Y-130871943D01*
X142814860Y-131030998D01*
X142794355Y-131199872D01*
X142205391Y-131199872D01*
X142184886Y-131031000D01*
X142124564Y-130871942D01*
X142027929Y-130731943D01*
X142000627Y-130707756D01*
X141900598Y-130619138D01*
X141749971Y-130540082D01*
X141584802Y-130499372D01*
X141414690Y-130499372D01*
X141249521Y-130540082D01*
X141098893Y-130619138D01*
X140971564Y-130731941D01*
X140874928Y-130871941D01*
X140874927Y-130871943D01*
X140814606Y-131030998D01*
X140794101Y-131199872D01*
X140205391Y-131199872D01*
X140184886Y-131031000D01*
X140124564Y-130871942D01*
X140027929Y-130731943D01*
X140000627Y-130707756D01*
X139900598Y-130619138D01*
X139749971Y-130540082D01*
X139584802Y-130499372D01*
X139414690Y-130499372D01*
X139249521Y-130540082D01*
X139098893Y-130619138D01*
X138971564Y-130731941D01*
X138874928Y-130871941D01*
X138874927Y-130871943D01*
X138814606Y-131030998D01*
X138794101Y-131199872D01*
X136205391Y-131199872D01*
X136184886Y-131031000D01*
X136124564Y-130871942D01*
X136027929Y-130731943D01*
X136000627Y-130707756D01*
X135900598Y-130619138D01*
X135749971Y-130540082D01*
X135584802Y-130499372D01*
X135414690Y-130499372D01*
X135249521Y-130540082D01*
X135098893Y-130619138D01*
X134971564Y-130731941D01*
X134874928Y-130871941D01*
X134874927Y-130871943D01*
X134814606Y-131030998D01*
X134794101Y-131199872D01*
X134205391Y-131199872D01*
X134184886Y-131031000D01*
X134124564Y-130871942D01*
X134027929Y-130731943D01*
X134000627Y-130707756D01*
X133900598Y-130619138D01*
X133749971Y-130540082D01*
X133584802Y-130499372D01*
X133414690Y-130499372D01*
X133249521Y-130540082D01*
X133098893Y-130619138D01*
X132971564Y-130731941D01*
X132874928Y-130871941D01*
X132874927Y-130871943D01*
X132814606Y-131030998D01*
X132794101Y-131199872D01*
X132214960Y-131199872D01*
X132194177Y-131028708D01*
X132147510Y-130905659D01*
X131853299Y-131199871D01*
X131849746Y-131199871D01*
X131849746Y-131153794D01*
X131825894Y-131064777D01*
X131779816Y-130984967D01*
X131714651Y-130919802D01*
X131634841Y-130873724D01*
X131545824Y-130849872D01*
X131453668Y-130849872D01*
X131364651Y-130873724D01*
X131284841Y-130919802D01*
X131219676Y-130984967D01*
X131173598Y-131064777D01*
X131149746Y-131153794D01*
X131100115Y-131153794D01*
X130851980Y-130905659D01*
X130805314Y-131028708D01*
X130784531Y-131199872D01*
X130214960Y-131199872D01*
X130194177Y-131028708D01*
X130147510Y-130905659D01*
X129853299Y-131199871D01*
X129849746Y-131199871D01*
X129849746Y-131153794D01*
X129825894Y-131064777D01*
X129779816Y-130984967D01*
X129714651Y-130919802D01*
X129634841Y-130873724D01*
X129545824Y-130849872D01*
X129453668Y-130849872D01*
X129364651Y-130873724D01*
X129284841Y-130919802D01*
X129219676Y-130984967D01*
X129173598Y-131064777D01*
X129149746Y-131153794D01*
X129100115Y-131153794D01*
X128851980Y-130905659D01*
X128805314Y-131028708D01*
X128784531Y-131199872D01*
X128205391Y-131199872D01*
X128184886Y-131031000D01*
X128124564Y-130871942D01*
X128027929Y-130731943D01*
X128000627Y-130707756D01*
X127900598Y-130619138D01*
X127773296Y-130552324D01*
X129205751Y-130552324D01*
X129499745Y-130846318D01*
X129793739Y-130552324D01*
X131205751Y-130552324D01*
X131499745Y-130846318D01*
X131793739Y-130552324D01*
X131753364Y-130531134D01*
X131585954Y-130489872D01*
X131413538Y-130489872D01*
X131246127Y-130531134D01*
X131205751Y-130552324D01*
X129793739Y-130552324D01*
X129753364Y-130531134D01*
X129585954Y-130489872D01*
X129413538Y-130489872D01*
X129246127Y-130531134D01*
X129205751Y-130552324D01*
X127773296Y-130552324D01*
X127749971Y-130540082D01*
X127584802Y-130499372D01*
X127414690Y-130499372D01*
X127249521Y-130540082D01*
X127098893Y-130619138D01*
X126971564Y-130731941D01*
X126874928Y-130871941D01*
X126874927Y-130871943D01*
X126814606Y-131030998D01*
X126794101Y-131199872D01*
X126214960Y-131199872D01*
X126194177Y-131028708D01*
X126147510Y-130905659D01*
X125853299Y-131199871D01*
X125849746Y-131199871D01*
X125849746Y-131153794D01*
X125825894Y-131064777D01*
X125779816Y-130984967D01*
X125714651Y-130919802D01*
X125634841Y-130873724D01*
X125545824Y-130849872D01*
X125453668Y-130849872D01*
X125364651Y-130873724D01*
X125284841Y-130919802D01*
X125219676Y-130984967D01*
X125173598Y-131064777D01*
X125149746Y-131153794D01*
X125100115Y-131153794D01*
X124851980Y-130905659D01*
X124805314Y-131028708D01*
X124784531Y-131199872D01*
X124205391Y-131199872D01*
X124184886Y-131031000D01*
X124124564Y-130871942D01*
X124027929Y-130731943D01*
X124000627Y-130707756D01*
X123900598Y-130619138D01*
X123773296Y-130552324D01*
X125205751Y-130552324D01*
X125499745Y-130846318D01*
X125793739Y-130552324D01*
X125753364Y-130531134D01*
X125585954Y-130489872D01*
X125413538Y-130489872D01*
X125246127Y-130531134D01*
X125205751Y-130552324D01*
X123773296Y-130552324D01*
X123749971Y-130540082D01*
X123584802Y-130499372D01*
X123414690Y-130499372D01*
X123249521Y-130540082D01*
X123098893Y-130619138D01*
X122971564Y-130731941D01*
X122874928Y-130871941D01*
X122874927Y-130871943D01*
X122814606Y-131030998D01*
X122794101Y-131199872D01*
X122214960Y-131199872D01*
X122194177Y-131028708D01*
X122147510Y-130905659D01*
X121853299Y-131199871D01*
X121849746Y-131199871D01*
X121849746Y-131153794D01*
X121825894Y-131064777D01*
X121779816Y-130984967D01*
X121714651Y-130919802D01*
X121634841Y-130873724D01*
X121545824Y-130849872D01*
X121453668Y-130849872D01*
X121364651Y-130873724D01*
X121284841Y-130919802D01*
X121219676Y-130984967D01*
X121173598Y-131064777D01*
X121149746Y-131153794D01*
X121100115Y-131153794D01*
X120851980Y-130905659D01*
X120805314Y-131028708D01*
X120784531Y-131199872D01*
X120205391Y-131199872D01*
X120184886Y-131031000D01*
X120124564Y-130871942D01*
X120027929Y-130731943D01*
X120000627Y-130707756D01*
X119900598Y-130619138D01*
X119773296Y-130552324D01*
X121205751Y-130552324D01*
X121499745Y-130846318D01*
X121793739Y-130552324D01*
X121753364Y-130531134D01*
X121585954Y-130489872D01*
X121413538Y-130489872D01*
X121246127Y-130531134D01*
X121205751Y-130552324D01*
X119773296Y-130552324D01*
X119749971Y-130540082D01*
X119584802Y-130499372D01*
X119414690Y-130499372D01*
X119249521Y-130540082D01*
X119098893Y-130619138D01*
X118971564Y-130731941D01*
X118874928Y-130871941D01*
X118874927Y-130871943D01*
X118814606Y-131030998D01*
X118794101Y-131199872D01*
X118205391Y-131199872D01*
X118184886Y-131031000D01*
X118124564Y-130871942D01*
X118027929Y-130731943D01*
X118000627Y-130707756D01*
X117900598Y-130619138D01*
X117749971Y-130540082D01*
X117584802Y-130499372D01*
X117414690Y-130499372D01*
X117249521Y-130540082D01*
X117098893Y-130619138D01*
X116971564Y-130731941D01*
X116874928Y-130871941D01*
X116874927Y-130871943D01*
X116814606Y-131030998D01*
X116794101Y-131199872D01*
X116214960Y-131199872D01*
X116194177Y-131028708D01*
X116147510Y-130905659D01*
X115853299Y-131199871D01*
X115849746Y-131199871D01*
X115849746Y-131153794D01*
X115825894Y-131064777D01*
X115779816Y-130984967D01*
X115714651Y-130919802D01*
X115634841Y-130873724D01*
X115545824Y-130849872D01*
X115453668Y-130849872D01*
X115364651Y-130873724D01*
X115284841Y-130919802D01*
X115219676Y-130984967D01*
X115173598Y-131064777D01*
X115149746Y-131153794D01*
X115100115Y-131153794D01*
X114851980Y-130905659D01*
X114805314Y-131028708D01*
X114784531Y-131199872D01*
X114205391Y-131199872D01*
X114184886Y-131031000D01*
X114124564Y-130871942D01*
X114027929Y-130731943D01*
X114000627Y-130707756D01*
X113900598Y-130619138D01*
X113773296Y-130552324D01*
X115205751Y-130552324D01*
X115499745Y-130846318D01*
X115793739Y-130552324D01*
X115753364Y-130531134D01*
X115585954Y-130489872D01*
X115413538Y-130489872D01*
X115246127Y-130531134D01*
X115205751Y-130552324D01*
X113773296Y-130552324D01*
X113749971Y-130540082D01*
X113584802Y-130499372D01*
X113414690Y-130499372D01*
X113249521Y-130540082D01*
X113098893Y-130619138D01*
X112971564Y-130731941D01*
X112874928Y-130871941D01*
X112874927Y-130871943D01*
X112814606Y-131030998D01*
X112794101Y-131199872D01*
X112214960Y-131199872D01*
X112194177Y-131028708D01*
X112147510Y-130905659D01*
X111853299Y-131199871D01*
X111849746Y-131199871D01*
X111849746Y-131153794D01*
X111825894Y-131064777D01*
X111779816Y-130984967D01*
X111714651Y-130919802D01*
X111634841Y-130873724D01*
X111545824Y-130849872D01*
X111453668Y-130849872D01*
X111364651Y-130873724D01*
X111284841Y-130919802D01*
X111219676Y-130984967D01*
X111173598Y-131064777D01*
X111149746Y-131153794D01*
X111100115Y-131153794D01*
X110851980Y-130905659D01*
X110805314Y-131028708D01*
X110784531Y-131199872D01*
X110205391Y-131199872D01*
X110184886Y-131031000D01*
X110124564Y-130871942D01*
X110027929Y-130731943D01*
X110000627Y-130707756D01*
X109900598Y-130619138D01*
X109773296Y-130552324D01*
X111205751Y-130552324D01*
X111499745Y-130846318D01*
X111793739Y-130552324D01*
X111753364Y-130531134D01*
X111585954Y-130489872D01*
X111413538Y-130489872D01*
X111246127Y-130531134D01*
X111205751Y-130552324D01*
X109773296Y-130552324D01*
X109749971Y-130540082D01*
X109584802Y-130499372D01*
X109414690Y-130499372D01*
X109249521Y-130540082D01*
X109098893Y-130619138D01*
X108971564Y-130731941D01*
X108874928Y-130871941D01*
X108874927Y-130871943D01*
X108814606Y-131030998D01*
X108794101Y-131199872D01*
X108214960Y-131199872D01*
X108194177Y-131028708D01*
X108147510Y-130905659D01*
X107853299Y-131199871D01*
X107849746Y-131199871D01*
X107849746Y-131153794D01*
X107825894Y-131064777D01*
X107779816Y-130984967D01*
X107714651Y-130919802D01*
X107634841Y-130873724D01*
X107545824Y-130849872D01*
X107453668Y-130849872D01*
X107364651Y-130873724D01*
X107284841Y-130919802D01*
X107219676Y-130984967D01*
X107173598Y-131064777D01*
X107149746Y-131153794D01*
X107100115Y-131153794D01*
X106851980Y-130905659D01*
X106805314Y-131028708D01*
X106784531Y-131199872D01*
X106205391Y-131199872D01*
X106184886Y-131031000D01*
X106124564Y-130871942D01*
X106027929Y-130731943D01*
X106000627Y-130707756D01*
X105900598Y-130619138D01*
X105773296Y-130552324D01*
X107205751Y-130552324D01*
X107499745Y-130846318D01*
X107793739Y-130552324D01*
X107753364Y-130531134D01*
X107585954Y-130489872D01*
X107413538Y-130489872D01*
X107246127Y-130531134D01*
X107205751Y-130552324D01*
X105773296Y-130552324D01*
X105749971Y-130540082D01*
X105584802Y-130499372D01*
X105414690Y-130499372D01*
X105249521Y-130540082D01*
X105098893Y-130619138D01*
X104971564Y-130731941D01*
X104874928Y-130871941D01*
X104874927Y-130871943D01*
X104814606Y-131030998D01*
X104794101Y-131199872D01*
X104214960Y-131199872D01*
X104194177Y-131028708D01*
X104147510Y-130905659D01*
X103853299Y-131199871D01*
X103849746Y-131199871D01*
X103849746Y-131153794D01*
X103825894Y-131064777D01*
X103779816Y-130984967D01*
X103714651Y-130919802D01*
X103634841Y-130873724D01*
X103545824Y-130849872D01*
X103453668Y-130849872D01*
X103364651Y-130873724D01*
X103284841Y-130919802D01*
X103219676Y-130984967D01*
X103173598Y-131064777D01*
X103149746Y-131153794D01*
X103100115Y-131153794D01*
X102851980Y-130905659D01*
X102805314Y-131028708D01*
X102784531Y-131199872D01*
X102205391Y-131199872D01*
X102184886Y-131031000D01*
X102124564Y-130871942D01*
X102027929Y-130731943D01*
X102000627Y-130707756D01*
X101900598Y-130619138D01*
X101773296Y-130552324D01*
X103205751Y-130552324D01*
X103499745Y-130846318D01*
X103793739Y-130552324D01*
X103753364Y-130531134D01*
X103585954Y-130489872D01*
X103413538Y-130489872D01*
X103246127Y-130531134D01*
X103205751Y-130552324D01*
X101773296Y-130552324D01*
X101749971Y-130540082D01*
X101584802Y-130499372D01*
X101414690Y-130499372D01*
X101249521Y-130540082D01*
X101098893Y-130619138D01*
X100971564Y-130731941D01*
X100874928Y-130871941D01*
X100874927Y-130871943D01*
X100814606Y-131030998D01*
X100794101Y-131199872D01*
X100205391Y-131199872D01*
X100184886Y-131031000D01*
X100124564Y-130871942D01*
X100027929Y-130731943D01*
X100000627Y-130707756D01*
X99900598Y-130619138D01*
X99749971Y-130540082D01*
X99584802Y-130499372D01*
X99414690Y-130499372D01*
X99249521Y-130540082D01*
X99098893Y-130619138D01*
X98971564Y-130731941D01*
X98874928Y-130871941D01*
X98874927Y-130871943D01*
X98814606Y-131030998D01*
X98794101Y-131199872D01*
X88990002Y-131199872D01*
X89036697Y-131097626D01*
X89055133Y-130969400D01*
X89053680Y-130959297D01*
X89046651Y-130910404D01*
X89036697Y-130841174D01*
X88992115Y-130743555D01*
X88982882Y-130723336D01*
X88982881Y-130723335D01*
X88898049Y-130625433D01*
X88898049Y-130625432D01*
X88789067Y-130555395D01*
X88789068Y-130555395D01*
X88664774Y-130518900D01*
X88664772Y-130518900D01*
X88535228Y-130518900D01*
X88535225Y-130518900D01*
X88410931Y-130555395D01*
X88301950Y-130625432D01*
X88301950Y-130625433D01*
X88217118Y-130723335D01*
X88217117Y-130723336D01*
X88163303Y-130841175D01*
X88163302Y-130841176D01*
X88144867Y-130969399D01*
X75878978Y-130969399D01*
X75877526Y-130959297D01*
X75823711Y-130841460D01*
X75823711Y-130841459D01*
X75823710Y-130841458D01*
X75738878Y-130743556D01*
X75738878Y-130743555D01*
X75629896Y-130673518D01*
X75629897Y-130673518D01*
X75505603Y-130637023D01*
X75505601Y-130637023D01*
X75500751Y-130637023D01*
X75473174Y-130625600D01*
X75462148Y-130603574D01*
X75452130Y-130533902D01*
X75398315Y-130416063D01*
X75398314Y-130416062D01*
X75313482Y-130318160D01*
X75313482Y-130318159D01*
X75204500Y-130248122D01*
X75204501Y-130248122D01*
X75080207Y-130211627D01*
X75080205Y-130211627D01*
X74950661Y-130211627D01*
X74950658Y-130211627D01*
X74826364Y-130248122D01*
X74717383Y-130318159D01*
X74717383Y-130318160D01*
X74632551Y-130416062D01*
X74632550Y-130416063D01*
X74578736Y-130533902D01*
X74578735Y-130533903D01*
X74560300Y-130662126D01*
X74005978Y-130662126D01*
X74039771Y-130588131D01*
X74058207Y-130459905D01*
X74039771Y-130331679D01*
X73986773Y-130215630D01*
X73985956Y-130213841D01*
X73985955Y-130213840D01*
X73901123Y-130115938D01*
X73901123Y-130115937D01*
X73794925Y-130047689D01*
X73792143Y-130045901D01*
X73792142Y-130045900D01*
X73667848Y-130009405D01*
X73667846Y-130009405D01*
X73538302Y-130009405D01*
X73538299Y-130009405D01*
X73414005Y-130045900D01*
X73312768Y-130110961D01*
X73283393Y-130116261D01*
X73270598Y-130110961D01*
X73172141Y-130047688D01*
X73172142Y-130047688D01*
X73047848Y-130011193D01*
X73047846Y-130011193D01*
X72918302Y-130011193D01*
X72918299Y-130011193D01*
X72794005Y-130047688D01*
X72685024Y-130117725D01*
X72685024Y-130117726D01*
X72600192Y-130215628D01*
X72600191Y-130215629D01*
X72559221Y-130305341D01*
X72547194Y-130331680D01*
X72546377Y-130333468D01*
X72546376Y-130333469D01*
X72527941Y-130461692D01*
X52950500Y-130461692D01*
X52950500Y-129499999D01*
X71044867Y-129499999D01*
X71044867Y-129500000D01*
X71063302Y-129628223D01*
X71063303Y-129628226D01*
X71088991Y-129684476D01*
X71117117Y-129746063D01*
X71117118Y-129746064D01*
X71201950Y-129843966D01*
X71201950Y-129843967D01*
X71211083Y-129849836D01*
X71310931Y-129914004D01*
X71435228Y-129950500D01*
X71435229Y-129950500D01*
X71564771Y-129950500D01*
X71564772Y-129950500D01*
X71689069Y-129914004D01*
X71788916Y-129849835D01*
X71818291Y-129844536D01*
X71831087Y-129849836D01*
X71930934Y-129914004D01*
X72055231Y-129950500D01*
X72055232Y-129950500D01*
X72184774Y-129950500D01*
X72184775Y-129950500D01*
X72309072Y-129914004D01*
X72418052Y-129843967D01*
X72502885Y-129746063D01*
X72556700Y-129628226D01*
X72575136Y-129500000D01*
X72556700Y-129371774D01*
X72502885Y-129253937D01*
X72502885Y-129253936D01*
X72502884Y-129253935D01*
X72418052Y-129156033D01*
X72418052Y-129156032D01*
X72309070Y-129085995D01*
X72309071Y-129085995D01*
X72184777Y-129049500D01*
X72184775Y-129049500D01*
X72055231Y-129049500D01*
X72055228Y-129049500D01*
X71930934Y-129085995D01*
X71831086Y-129150163D01*
X71801710Y-129155463D01*
X71788916Y-129150163D01*
X71689067Y-129085995D01*
X71689068Y-129085995D01*
X71564774Y-129049500D01*
X71564772Y-129049500D01*
X71435228Y-129049500D01*
X71435225Y-129049500D01*
X71310931Y-129085995D01*
X71201950Y-129156032D01*
X71201950Y-129156033D01*
X71117118Y-129253935D01*
X71117117Y-129253936D01*
X71063303Y-129371775D01*
X71063302Y-129371776D01*
X71044867Y-129499999D01*
X52950500Y-129499999D01*
X52950500Y-129000088D01*
X66544067Y-129000088D01*
X66544067Y-129000089D01*
X66562502Y-129128312D01*
X66562503Y-129128315D01*
X66575162Y-129156033D01*
X66616317Y-129246152D01*
X66616318Y-129246153D01*
X66701150Y-129344055D01*
X66701150Y-129344056D01*
X66719484Y-129355838D01*
X66810131Y-129414093D01*
X66934428Y-129450589D01*
X66934429Y-129450589D01*
X67063971Y-129450589D01*
X67063972Y-129450589D01*
X67188269Y-129414093D01*
X67278916Y-129355837D01*
X67308290Y-129350538D01*
X67321082Y-129355837D01*
X67411731Y-129414093D01*
X67536028Y-129450589D01*
X67536029Y-129450589D01*
X67665571Y-129450589D01*
X67665572Y-129450589D01*
X67789869Y-129414093D01*
X67898849Y-129344056D01*
X67983682Y-129246152D01*
X68037497Y-129128315D01*
X68055933Y-129000089D01*
X68037497Y-128871863D01*
X68003013Y-128796355D01*
X86129561Y-128796355D01*
X86129561Y-128796356D01*
X86147996Y-128924579D01*
X86147997Y-128924582D01*
X86173685Y-128980832D01*
X86201811Y-129042419D01*
X86201812Y-129042420D01*
X86286644Y-129140322D01*
X86286644Y-129140323D01*
X86311090Y-129156033D01*
X86395625Y-129210360D01*
X86519922Y-129246856D01*
X86519923Y-129246856D01*
X86649465Y-129246856D01*
X86649466Y-129246856D01*
X86773763Y-129210360D01*
X86864410Y-129152104D01*
X86893784Y-129146805D01*
X86906576Y-129152104D01*
X86997225Y-129210360D01*
X87121522Y-129246856D01*
X87121523Y-129246856D01*
X87251065Y-129246856D01*
X87251066Y-129246856D01*
X87375363Y-129210360D01*
X87484343Y-129140323D01*
X87569176Y-129042419D01*
X87622991Y-128924582D01*
X87641427Y-128796356D01*
X87622991Y-128668130D01*
X87569176Y-128550293D01*
X87569176Y-128550292D01*
X87569175Y-128550291D01*
X87484343Y-128452389D01*
X87484343Y-128452388D01*
X87375361Y-128382351D01*
X87375362Y-128382351D01*
X87251068Y-128345856D01*
X87251066Y-128345856D01*
X87121522Y-128345856D01*
X87121519Y-128345856D01*
X86997225Y-128382351D01*
X86906579Y-128440606D01*
X86877204Y-128445906D01*
X86864409Y-128440606D01*
X86773761Y-128382351D01*
X86773762Y-128382351D01*
X86649468Y-128345856D01*
X86649466Y-128345856D01*
X86519922Y-128345856D01*
X86519919Y-128345856D01*
X86395625Y-128382351D01*
X86286644Y-128452388D01*
X86286644Y-128452389D01*
X86201812Y-128550291D01*
X86201811Y-128550292D01*
X86160841Y-128640004D01*
X86152032Y-128659296D01*
X86147997Y-128668131D01*
X86147996Y-128668132D01*
X86129561Y-128796355D01*
X68003013Y-128796355D01*
X67983682Y-128754026D01*
X67983682Y-128754025D01*
X67983681Y-128754024D01*
X67898849Y-128656122D01*
X67898849Y-128656121D01*
X67789867Y-128586084D01*
X67789868Y-128586084D01*
X67665574Y-128549589D01*
X67665572Y-128549589D01*
X67536028Y-128549589D01*
X67536025Y-128549589D01*
X67411731Y-128586084D01*
X67321085Y-128644339D01*
X67291710Y-128649639D01*
X67278915Y-128644339D01*
X67188267Y-128586084D01*
X67188268Y-128586084D01*
X67063974Y-128549589D01*
X67063972Y-128549589D01*
X66934428Y-128549589D01*
X66934425Y-128549589D01*
X66810131Y-128586084D01*
X66701150Y-128656121D01*
X66701150Y-128656122D01*
X66616318Y-128754024D01*
X66616317Y-128754025D01*
X66562503Y-128871864D01*
X66562502Y-128871865D01*
X66544067Y-129000088D01*
X52950500Y-129000088D01*
X52950500Y-127359199D01*
X87684867Y-127359199D01*
X87684867Y-127359200D01*
X87703302Y-127487423D01*
X87703303Y-127487426D01*
X87757118Y-127605263D01*
X87782417Y-127634460D01*
X87782418Y-127634461D01*
X87791844Y-127662783D01*
X87782418Y-127685538D01*
X87757118Y-127714737D01*
X87704581Y-127829777D01*
X87703303Y-127832575D01*
X87703302Y-127832576D01*
X87684867Y-127960799D01*
X87684867Y-127960800D01*
X87703302Y-128089023D01*
X87703303Y-128089026D01*
X87728991Y-128145276D01*
X87757117Y-128206863D01*
X87757118Y-128206864D01*
X87841950Y-128304766D01*
X87841950Y-128304767D01*
X87896441Y-128339785D01*
X87950931Y-128374804D01*
X88075228Y-128411300D01*
X88075229Y-128411300D01*
X88204771Y-128411300D01*
X88204772Y-128411300D01*
X88329069Y-128374804D01*
X88438049Y-128304767D01*
X88522882Y-128206863D01*
X88576697Y-128089026D01*
X88595133Y-127960800D01*
X88576697Y-127832574D01*
X88522882Y-127714737D01*
X88497581Y-127685538D01*
X88488155Y-127657219D01*
X88497581Y-127634461D01*
X88522882Y-127605263D01*
X88570955Y-127499999D01*
X124544867Y-127499999D01*
X124544867Y-127500000D01*
X124563302Y-127628223D01*
X124563303Y-127628226D01*
X124576544Y-127657219D01*
X124617117Y-127746063D01*
X124617118Y-127746064D01*
X124701950Y-127843966D01*
X124701950Y-127843967D01*
X124756441Y-127878985D01*
X124810931Y-127914004D01*
X124935228Y-127950500D01*
X124935229Y-127950500D01*
X125064771Y-127950500D01*
X125064772Y-127950500D01*
X125189069Y-127914004D01*
X125298049Y-127843967D01*
X125382882Y-127746063D01*
X125436697Y-127628226D01*
X125455133Y-127500000D01*
X125436697Y-127371774D01*
X125382882Y-127253937D01*
X125382882Y-127253936D01*
X125382881Y-127253935D01*
X125298049Y-127156033D01*
X125298049Y-127156032D01*
X125189067Y-127085995D01*
X125189068Y-127085995D01*
X125064774Y-127049500D01*
X125064772Y-127049500D01*
X124935228Y-127049500D01*
X124935225Y-127049500D01*
X124810931Y-127085995D01*
X124701950Y-127156032D01*
X124701950Y-127156033D01*
X124617118Y-127253935D01*
X124617117Y-127253936D01*
X124578980Y-127337447D01*
X124569046Y-127359200D01*
X124563303Y-127371775D01*
X124563302Y-127371776D01*
X124544867Y-127499999D01*
X88570955Y-127499999D01*
X88576697Y-127487426D01*
X88595133Y-127359200D01*
X88576697Y-127230974D01*
X88522882Y-127113137D01*
X88522882Y-127113136D01*
X88522881Y-127113135D01*
X88438049Y-127015233D01*
X88438049Y-127015232D01*
X88344500Y-126955113D01*
X88329069Y-126945196D01*
X88329068Y-126945195D01*
X88204774Y-126908700D01*
X88204772Y-126908700D01*
X88075228Y-126908700D01*
X88075225Y-126908700D01*
X87950931Y-126945195D01*
X87841950Y-127015232D01*
X87841950Y-127015233D01*
X87757118Y-127113135D01*
X87757117Y-127113136D01*
X87703303Y-127230975D01*
X87703302Y-127230976D01*
X87684867Y-127359199D01*
X52950500Y-127359199D01*
X52950500Y-126611145D01*
X90508364Y-126611145D01*
X90508364Y-126611146D01*
X90526799Y-126739369D01*
X90526800Y-126739372D01*
X90541193Y-126770888D01*
X90580614Y-126857209D01*
X90580615Y-126857210D01*
X90665447Y-126955112D01*
X90665447Y-126955113D01*
X90719938Y-126990131D01*
X90774428Y-127025150D01*
X90898725Y-127061646D01*
X90898726Y-127061646D01*
X91028268Y-127061646D01*
X91028269Y-127061646D01*
X91152566Y-127025150D01*
X91261546Y-126955113D01*
X91346379Y-126857209D01*
X91400194Y-126739372D01*
X91410212Y-126669699D01*
X91425443Y-126644029D01*
X91448815Y-126636250D01*
X91453664Y-126636250D01*
X91453665Y-126636250D01*
X91577962Y-126599754D01*
X91686942Y-126529717D01*
X91771775Y-126431813D01*
X91786304Y-126399999D01*
X123544867Y-126399999D01*
X123544867Y-126400000D01*
X123563302Y-126528223D01*
X123563303Y-126528226D01*
X123588991Y-126584476D01*
X123617117Y-126646063D01*
X123617118Y-126646064D01*
X123701950Y-126743966D01*
X123701950Y-126743967D01*
X123743841Y-126770888D01*
X123810931Y-126814004D01*
X123935228Y-126850500D01*
X123935229Y-126850500D01*
X124064771Y-126850500D01*
X124064772Y-126850500D01*
X124100522Y-126840003D01*
X149110228Y-126840003D01*
X149110228Y-126840006D01*
X149129246Y-127033100D01*
X149129246Y-127033101D01*
X149185571Y-127218775D01*
X149249003Y-127337447D01*
X149596629Y-126989821D01*
X149610784Y-127042645D01*
X149679900Y-127162359D01*
X149777646Y-127260105D01*
X149897360Y-127329221D01*
X149950182Y-127343374D01*
X149602555Y-127691001D01*
X149721229Y-127754433D01*
X149906903Y-127810758D01*
X150099998Y-127829777D01*
X150100002Y-127829777D01*
X150293095Y-127810758D01*
X150293096Y-127810758D01*
X150478770Y-127754433D01*
X150597443Y-127691001D01*
X150249817Y-127343375D01*
X150302640Y-127329221D01*
X150422354Y-127260105D01*
X150520100Y-127162359D01*
X150589216Y-127042645D01*
X150603370Y-126989822D01*
X150950996Y-127337448D01*
X151014428Y-127218775D01*
X151070753Y-127033101D01*
X151070753Y-127033100D01*
X151089772Y-126840006D01*
X151089772Y-126840003D01*
X151070753Y-126646909D01*
X151070753Y-126646908D01*
X151014428Y-126461234D01*
X150950996Y-126342560D01*
X150603369Y-126690186D01*
X150589216Y-126637365D01*
X150520100Y-126517651D01*
X150422354Y-126419905D01*
X150302640Y-126350789D01*
X150249815Y-126336634D01*
X150597442Y-125989008D01*
X150478770Y-125925576D01*
X150293096Y-125869251D01*
X150100002Y-125850233D01*
X150099998Y-125850233D01*
X149906904Y-125869251D01*
X149906903Y-125869251D01*
X149721227Y-125925576D01*
X149602556Y-125989007D01*
X149602556Y-125989008D01*
X149950182Y-126336634D01*
X149897360Y-126350789D01*
X149777646Y-126419905D01*
X149679900Y-126517651D01*
X149610784Y-126637365D01*
X149596629Y-126690187D01*
X149249003Y-126342561D01*
X149249002Y-126342561D01*
X149185571Y-126461232D01*
X149129246Y-126646908D01*
X149129246Y-126646909D01*
X149110228Y-126840003D01*
X124100522Y-126840003D01*
X124189069Y-126814004D01*
X124298049Y-126743967D01*
X124382882Y-126646063D01*
X124436697Y-126528226D01*
X124455133Y-126400000D01*
X124436697Y-126271774D01*
X124382882Y-126153937D01*
X124382882Y-126153936D01*
X124382881Y-126153935D01*
X124298049Y-126056033D01*
X124298049Y-126056032D01*
X124213259Y-126001542D01*
X124189069Y-125985996D01*
X124189068Y-125985995D01*
X124064774Y-125949500D01*
X124064772Y-125949500D01*
X123935228Y-125949500D01*
X123935225Y-125949500D01*
X123810931Y-125985995D01*
X123701950Y-126056032D01*
X123701950Y-126056033D01*
X123617118Y-126153935D01*
X123617117Y-126153936D01*
X123576147Y-126243648D01*
X123565402Y-126267179D01*
X123563303Y-126271775D01*
X123563302Y-126271776D01*
X123544867Y-126399999D01*
X91786304Y-126399999D01*
X91825590Y-126313976D01*
X91844026Y-126185750D01*
X91825590Y-126057524D01*
X91771775Y-125939687D01*
X91771775Y-125939686D01*
X91771774Y-125939685D01*
X91686942Y-125841783D01*
X91686942Y-125841782D01*
X91577960Y-125771745D01*
X91577961Y-125771745D01*
X91453667Y-125735250D01*
X91453665Y-125735250D01*
X91324121Y-125735250D01*
X91324118Y-125735250D01*
X91199824Y-125771745D01*
X91090843Y-125841782D01*
X91090843Y-125841783D01*
X91006011Y-125939685D01*
X91006010Y-125939686D01*
X90965040Y-126029398D01*
X90952196Y-126057524D01*
X90952196Y-126057525D01*
X90952195Y-126057525D01*
X90942178Y-126127197D01*
X90926947Y-126152867D01*
X90903575Y-126160646D01*
X90898722Y-126160646D01*
X90774428Y-126197141D01*
X90665447Y-126267178D01*
X90665447Y-126267179D01*
X90580615Y-126365081D01*
X90580614Y-126365082D01*
X90526800Y-126482921D01*
X90526799Y-126482922D01*
X90508364Y-126611145D01*
X52950500Y-126611145D01*
X52950500Y-123799999D01*
X75934938Y-123799999D01*
X75934938Y-123800000D01*
X75955164Y-124121488D01*
X75955164Y-124121492D01*
X76015521Y-124437897D01*
X76015523Y-124437904D01*
X76115067Y-124744265D01*
X76115068Y-124744266D01*
X76252216Y-125035723D01*
X76252223Y-125035735D01*
X76424820Y-125307704D01*
X76424824Y-125307709D01*
X76521668Y-125424775D01*
X76521669Y-125424775D01*
X76813097Y-125133346D01*
X76880076Y-125220635D01*
X77079365Y-125419924D01*
X77166651Y-125486901D01*
X76872017Y-125781535D01*
X77125577Y-125965757D01*
X77407852Y-126120937D01*
X77707352Y-126239519D01*
X78019357Y-126319628D01*
X78338929Y-126359999D01*
X78338940Y-126360000D01*
X78661060Y-126360000D01*
X78661070Y-126359999D01*
X78980642Y-126319628D01*
X79292647Y-126239519D01*
X79592147Y-126120937D01*
X79874422Y-125965757D01*
X80127981Y-125781535D01*
X79833347Y-125486901D01*
X79920635Y-125419924D01*
X80119924Y-125220635D01*
X80186901Y-125133347D01*
X80478330Y-125424776D01*
X80478331Y-125424775D01*
X80575175Y-125307709D01*
X80575179Y-125307704D01*
X80675262Y-125149999D01*
X88644867Y-125149999D01*
X88644867Y-125150000D01*
X88663302Y-125278223D01*
X88663303Y-125278226D01*
X88676768Y-125307709D01*
X88717117Y-125396063D01*
X88717118Y-125396064D01*
X88801950Y-125493966D01*
X88801950Y-125493967D01*
X88856441Y-125528985D01*
X88910931Y-125564004D01*
X89035228Y-125600500D01*
X89035229Y-125600500D01*
X89164771Y-125600500D01*
X89164772Y-125600500D01*
X89289069Y-125564004D01*
X89398049Y-125493967D01*
X89482882Y-125396063D01*
X89536697Y-125278226D01*
X89555133Y-125150000D01*
X89555133Y-125149999D01*
X90244867Y-125149999D01*
X90244867Y-125150000D01*
X90263302Y-125278223D01*
X90263303Y-125278226D01*
X90276768Y-125307709D01*
X90317117Y-125396063D01*
X90317118Y-125396064D01*
X90401950Y-125493966D01*
X90401950Y-125493967D01*
X90456441Y-125528985D01*
X90510931Y-125564004D01*
X90635228Y-125600500D01*
X90635229Y-125600500D01*
X90764771Y-125600500D01*
X90764772Y-125600500D01*
X90889069Y-125564004D01*
X90998049Y-125493967D01*
X91082882Y-125396063D01*
X91136697Y-125278226D01*
X91155133Y-125150000D01*
X91136697Y-125021774D01*
X91082882Y-124903937D01*
X91082882Y-124903936D01*
X91082881Y-124903935D01*
X90998049Y-124806033D01*
X90998049Y-124806032D01*
X90889067Y-124735995D01*
X90889068Y-124735995D01*
X90764774Y-124699500D01*
X90764772Y-124699500D01*
X90635228Y-124699500D01*
X90635225Y-124699500D01*
X90510931Y-124735995D01*
X90401950Y-124806032D01*
X90401950Y-124806033D01*
X90317118Y-124903935D01*
X90317117Y-124903936D01*
X90263303Y-125021775D01*
X90263302Y-125021776D01*
X90244867Y-125149999D01*
X89555133Y-125149999D01*
X89536697Y-125021774D01*
X89482882Y-124903937D01*
X89482882Y-124903936D01*
X89482881Y-124903935D01*
X89398049Y-124806033D01*
X89398049Y-124806032D01*
X89289067Y-124735995D01*
X89289068Y-124735995D01*
X89164774Y-124699500D01*
X89164772Y-124699500D01*
X89035228Y-124699500D01*
X89035225Y-124699500D01*
X88910931Y-124735995D01*
X88801950Y-124806032D01*
X88801950Y-124806033D01*
X88717118Y-124903935D01*
X88717117Y-124903936D01*
X88663303Y-125021775D01*
X88663302Y-125021776D01*
X88644867Y-125149999D01*
X80675262Y-125149999D01*
X80747776Y-125035735D01*
X80747783Y-125035723D01*
X80884931Y-124744266D01*
X80884932Y-124744265D01*
X80984476Y-124437904D01*
X80984478Y-124437897D01*
X81010783Y-124299998D01*
X149119774Y-124299998D01*
X149119774Y-124300001D01*
X149138609Y-124491233D01*
X149138609Y-124491234D01*
X149194387Y-124675113D01*
X149284973Y-124844586D01*
X149406873Y-124993121D01*
X149406878Y-124993126D01*
X149555413Y-125115026D01*
X149555414Y-125115026D01*
X149555416Y-125115028D01*
X149620842Y-125149999D01*
X149724886Y-125205612D01*
X149816825Y-125233501D01*
X149908767Y-125261391D01*
X150062328Y-125276515D01*
X150099998Y-125280226D01*
X150100000Y-125280226D01*
X150100002Y-125280226D01*
X150131472Y-125277126D01*
X150291233Y-125261391D01*
X150475116Y-125205611D01*
X150644584Y-125115028D01*
X150793124Y-124993124D01*
X150915028Y-124844584D01*
X151005611Y-124675116D01*
X151061391Y-124491233D01*
X151080226Y-124300000D01*
X151061391Y-124108767D01*
X151005611Y-123924884D01*
X150915028Y-123755416D01*
X150835968Y-123659082D01*
X150793126Y-123606878D01*
X150793121Y-123606873D01*
X150644586Y-123484973D01*
X150475113Y-123394387D01*
X150291234Y-123338609D01*
X150100002Y-123319774D01*
X150099998Y-123319774D01*
X149908766Y-123338609D01*
X149908765Y-123338609D01*
X149724886Y-123394387D01*
X149555413Y-123484973D01*
X149406878Y-123606873D01*
X149406873Y-123606878D01*
X149284973Y-123755413D01*
X149194387Y-123924886D01*
X149138609Y-124108765D01*
X149138609Y-124108766D01*
X149119774Y-124299998D01*
X81010783Y-124299998D01*
X81044835Y-124121492D01*
X81044835Y-124121488D01*
X81065062Y-123800000D01*
X81065062Y-123799999D01*
X81044835Y-123478511D01*
X81044835Y-123478507D01*
X80984478Y-123162102D01*
X80984476Y-123162095D01*
X80948053Y-123049998D01*
X109024417Y-123049998D01*
X109024417Y-123050001D01*
X109044700Y-123255934D01*
X109044700Y-123255935D01*
X109103598Y-123450099D01*
X109104768Y-123453954D01*
X109153541Y-123545202D01*
X109202316Y-123636452D01*
X109333587Y-123796407D01*
X109333592Y-123796412D01*
X109493547Y-123927683D01*
X109493548Y-123927683D01*
X109493550Y-123927685D01*
X109676046Y-124025232D01*
X109874066Y-124085300D01*
X110039432Y-124101587D01*
X110079998Y-124105583D01*
X110080000Y-124105583D01*
X110080002Y-124105583D01*
X110113891Y-124102244D01*
X110285934Y-124085300D01*
X110483954Y-124025232D01*
X110666450Y-123927685D01*
X110826410Y-123796410D01*
X110957685Y-123636450D01*
X111055232Y-123453954D01*
X111115300Y-123255934D01*
X111135583Y-123050000D01*
X111135583Y-123049998D01*
X111564417Y-123049998D01*
X111564417Y-123050001D01*
X111584700Y-123255934D01*
X111584700Y-123255935D01*
X111643598Y-123450099D01*
X111644768Y-123453954D01*
X111693541Y-123545202D01*
X111742316Y-123636452D01*
X111873587Y-123796407D01*
X111873592Y-123796412D01*
X112033547Y-123927683D01*
X112033548Y-123927683D01*
X112033550Y-123927685D01*
X112216046Y-124025232D01*
X112414066Y-124085300D01*
X112579432Y-124101587D01*
X112619998Y-124105583D01*
X112620000Y-124105583D01*
X112620002Y-124105583D01*
X112653891Y-124102244D01*
X112825934Y-124085300D01*
X113023954Y-124025232D01*
X113206450Y-123927685D01*
X113366410Y-123796410D01*
X113497685Y-123636450D01*
X113595232Y-123453954D01*
X113655300Y-123255934D01*
X113675583Y-123050000D01*
X113655300Y-122844066D01*
X113641933Y-122800000D01*
X114128139Y-122800000D01*
X114726988Y-122800000D01*
X114694075Y-122857007D01*
X114660000Y-122984174D01*
X114660000Y-123115826D01*
X114694075Y-123242993D01*
X114726988Y-123300000D01*
X114128139Y-123300000D01*
X114175950Y-123457608D01*
X114274379Y-123641756D01*
X114406837Y-123803157D01*
X114406842Y-123803162D01*
X114568243Y-123935620D01*
X114752394Y-124034051D01*
X114910000Y-124081859D01*
X114910000Y-123483012D01*
X114967007Y-123515925D01*
X115094174Y-123550000D01*
X115225826Y-123550000D01*
X115352993Y-123515925D01*
X115410000Y-123483012D01*
X115410000Y-124081859D01*
X115567605Y-124034051D01*
X115751756Y-123935620D01*
X115913157Y-123803162D01*
X115913162Y-123803157D01*
X116045620Y-123641756D01*
X116144049Y-123457608D01*
X116191861Y-123300000D01*
X115593012Y-123300000D01*
X115625925Y-123242993D01*
X115660000Y-123115826D01*
X115660000Y-122984174D01*
X115625925Y-122857007D01*
X115593012Y-122800000D01*
X116191860Y-122800000D01*
X116668139Y-122800000D01*
X117266988Y-122800000D01*
X117234075Y-122857007D01*
X117200000Y-122984174D01*
X117200000Y-123115826D01*
X117234075Y-123242993D01*
X117266988Y-123300000D01*
X116668139Y-123300000D01*
X116715950Y-123457608D01*
X116814379Y-123641756D01*
X116946837Y-123803157D01*
X116946842Y-123803162D01*
X117108243Y-123935620D01*
X117292394Y-124034051D01*
X117450000Y-124081859D01*
X117450000Y-123483012D01*
X117507007Y-123515925D01*
X117634174Y-123550000D01*
X117765826Y-123550000D01*
X117892993Y-123515925D01*
X117950000Y-123483012D01*
X117950000Y-124081859D01*
X118107605Y-124034051D01*
X118291756Y-123935620D01*
X118453157Y-123803162D01*
X118453162Y-123803157D01*
X118585620Y-123641756D01*
X118684049Y-123457608D01*
X118731861Y-123300000D01*
X118133012Y-123300000D01*
X118165925Y-123242993D01*
X118200000Y-123115826D01*
X118200000Y-123049998D01*
X119184417Y-123049998D01*
X119184417Y-123050001D01*
X119204700Y-123255934D01*
X119204700Y-123255935D01*
X119263598Y-123450099D01*
X119264768Y-123453954D01*
X119313541Y-123545202D01*
X119362316Y-123636452D01*
X119493587Y-123796407D01*
X119493592Y-123796412D01*
X119653547Y-123927683D01*
X119653548Y-123927683D01*
X119653550Y-123927685D01*
X119836046Y-124025232D01*
X120034066Y-124085300D01*
X120199432Y-124101587D01*
X120239998Y-124105583D01*
X120240000Y-124105583D01*
X120240002Y-124105583D01*
X120273891Y-124102244D01*
X120445934Y-124085300D01*
X120643954Y-124025232D01*
X120826450Y-123927685D01*
X120986410Y-123796410D01*
X121117685Y-123636450D01*
X121215232Y-123453954D01*
X121275300Y-123255934D01*
X121295583Y-123050000D01*
X121275300Y-122844066D01*
X121215232Y-122646046D01*
X121117685Y-122463550D01*
X121109126Y-122453121D01*
X120986412Y-122303592D01*
X120986407Y-122303587D01*
X120836122Y-122180252D01*
X121729500Y-122180252D01*
X121729500Y-123919748D01*
X121741133Y-123978231D01*
X121785448Y-124044552D01*
X121851769Y-124088867D01*
X121910252Y-124100500D01*
X121910257Y-124100500D01*
X123649743Y-124100500D01*
X123649748Y-124100500D01*
X123708231Y-124088867D01*
X123774552Y-124044552D01*
X123818867Y-123978231D01*
X123830500Y-123919748D01*
X123830500Y-122180252D01*
X123818867Y-122121769D01*
X123774552Y-122055448D01*
X123708231Y-122011133D01*
X123649748Y-121999500D01*
X121910252Y-121999500D01*
X121864981Y-122008505D01*
X121851768Y-122011133D01*
X121785448Y-122055448D01*
X121741133Y-122121768D01*
X121741133Y-122121769D01*
X121729500Y-122180252D01*
X120836122Y-122180252D01*
X120826452Y-122172316D01*
X120643952Y-122074767D01*
X120445935Y-122014700D01*
X120240002Y-121994417D01*
X120239998Y-121994417D01*
X120034065Y-122014700D01*
X120034064Y-122014700D01*
X119836047Y-122074767D01*
X119653547Y-122172316D01*
X119493592Y-122303587D01*
X119493587Y-122303592D01*
X119362316Y-122463547D01*
X119264767Y-122646047D01*
X119204700Y-122844064D01*
X119204700Y-122844065D01*
X119184417Y-123049998D01*
X118200000Y-123049998D01*
X118200000Y-122984174D01*
X118165925Y-122857007D01*
X118133012Y-122800000D01*
X118731860Y-122800000D01*
X118684049Y-122642391D01*
X118585620Y-122458243D01*
X118453162Y-122296842D01*
X118453157Y-122296837D01*
X118291756Y-122164379D01*
X118107608Y-122065950D01*
X117950000Y-122018139D01*
X117950000Y-122616988D01*
X117892993Y-122584075D01*
X117765826Y-122550000D01*
X117634174Y-122550000D01*
X117507007Y-122584075D01*
X117450000Y-122616988D01*
X117450000Y-122018139D01*
X117292391Y-122065950D01*
X117108243Y-122164379D01*
X116946842Y-122296837D01*
X116946837Y-122296842D01*
X116814379Y-122458243D01*
X116715950Y-122642391D01*
X116668139Y-122800000D01*
X116191860Y-122800000D01*
X116144049Y-122642391D01*
X116045620Y-122458243D01*
X115913162Y-122296842D01*
X115913157Y-122296837D01*
X115751756Y-122164379D01*
X115567608Y-122065950D01*
X115410000Y-122018139D01*
X115410000Y-122616988D01*
X115352993Y-122584075D01*
X115225826Y-122550000D01*
X115094174Y-122550000D01*
X114967007Y-122584075D01*
X114910000Y-122616988D01*
X114910000Y-122018139D01*
X114752391Y-122065950D01*
X114568243Y-122164379D01*
X114406842Y-122296837D01*
X114406837Y-122296842D01*
X114274379Y-122458243D01*
X114175950Y-122642391D01*
X114128139Y-122800000D01*
X113641933Y-122800000D01*
X113595232Y-122646046D01*
X113497685Y-122463550D01*
X113489126Y-122453121D01*
X113366412Y-122303592D01*
X113366407Y-122303587D01*
X113206452Y-122172316D01*
X113023952Y-122074767D01*
X112825935Y-122014700D01*
X112620002Y-121994417D01*
X112619998Y-121994417D01*
X112414065Y-122014700D01*
X112414064Y-122014700D01*
X112216047Y-122074767D01*
X112033547Y-122172316D01*
X111873592Y-122303587D01*
X111873587Y-122303592D01*
X111742316Y-122463547D01*
X111644767Y-122646047D01*
X111584700Y-122844064D01*
X111584700Y-122844065D01*
X111564417Y-123049998D01*
X111135583Y-123049998D01*
X111115300Y-122844066D01*
X111055232Y-122646046D01*
X110957685Y-122463550D01*
X110949126Y-122453121D01*
X110826412Y-122303592D01*
X110826407Y-122303587D01*
X110666452Y-122172316D01*
X110483952Y-122074767D01*
X110285935Y-122014700D01*
X110080002Y-121994417D01*
X110079998Y-121994417D01*
X109874065Y-122014700D01*
X109874064Y-122014700D01*
X109676047Y-122074767D01*
X109493547Y-122172316D01*
X109333592Y-122303587D01*
X109333587Y-122303592D01*
X109202316Y-122463547D01*
X109104767Y-122646047D01*
X109044700Y-122844064D01*
X109044700Y-122844065D01*
X109024417Y-123049998D01*
X80948053Y-123049998D01*
X80884932Y-122855734D01*
X80884931Y-122855733D01*
X80747783Y-122564276D01*
X80747776Y-122564264D01*
X80575179Y-122292295D01*
X80575175Y-122292290D01*
X80498826Y-122199999D01*
X88694867Y-122199999D01*
X88694867Y-122200000D01*
X88713302Y-122328223D01*
X88713303Y-122328226D01*
X88736658Y-122379365D01*
X88767117Y-122446063D01*
X88767118Y-122446064D01*
X88851950Y-122543966D01*
X88851950Y-122543967D01*
X88900272Y-122575021D01*
X88960931Y-122614004D01*
X89085228Y-122650500D01*
X89085229Y-122650500D01*
X89214771Y-122650500D01*
X89214772Y-122650500D01*
X89339069Y-122614004D01*
X89448049Y-122543967D01*
X89532882Y-122446063D01*
X89586697Y-122328226D01*
X89605133Y-122200000D01*
X89586697Y-122071774D01*
X89532882Y-121953937D01*
X89532882Y-121953936D01*
X89532881Y-121953935D01*
X89448049Y-121856033D01*
X89448049Y-121856032D01*
X89339067Y-121785995D01*
X89339068Y-121785995D01*
X89250511Y-121759993D01*
X149119774Y-121759993D01*
X149119774Y-121759996D01*
X149138609Y-121951228D01*
X149138609Y-121951229D01*
X149194387Y-122135108D01*
X149284973Y-122304581D01*
X149406873Y-122453116D01*
X149406878Y-122453121D01*
X149555413Y-122575021D01*
X149555414Y-122575021D01*
X149555416Y-122575023D01*
X149628344Y-122614004D01*
X149724886Y-122665607D01*
X149816825Y-122693496D01*
X149908767Y-122721386D01*
X150062328Y-122736510D01*
X150099998Y-122740221D01*
X150100000Y-122740221D01*
X150100002Y-122740221D01*
X150131472Y-122737121D01*
X150291233Y-122721386D01*
X150475116Y-122665606D01*
X150644584Y-122575023D01*
X150793124Y-122453119D01*
X150915028Y-122304579D01*
X151005611Y-122135111D01*
X151061391Y-121951228D01*
X151080226Y-121759995D01*
X151061391Y-121568762D01*
X151005611Y-121384879D01*
X150915028Y-121215411D01*
X150849072Y-121135044D01*
X150793126Y-121066873D01*
X150793121Y-121066868D01*
X150644586Y-120944968D01*
X150475113Y-120854382D01*
X150291234Y-120798604D01*
X150100002Y-120779769D01*
X150099998Y-120779769D01*
X149908766Y-120798604D01*
X149908765Y-120798604D01*
X149724886Y-120854382D01*
X149555413Y-120944968D01*
X149406878Y-121066868D01*
X149406873Y-121066873D01*
X149284973Y-121215408D01*
X149194387Y-121384881D01*
X149138609Y-121568760D01*
X149138609Y-121568761D01*
X149119774Y-121759993D01*
X89250511Y-121759993D01*
X89214774Y-121749500D01*
X89214772Y-121749500D01*
X89085228Y-121749500D01*
X89085225Y-121749500D01*
X88960931Y-121785995D01*
X88851950Y-121856032D01*
X88851950Y-121856033D01*
X88767118Y-121953935D01*
X88767117Y-121953936D01*
X88713303Y-122071775D01*
X88713302Y-122071776D01*
X88694867Y-122199999D01*
X80498826Y-122199999D01*
X80478330Y-122175223D01*
X80478329Y-122175223D01*
X80186900Y-122466651D01*
X80119924Y-122379365D01*
X79920635Y-122180076D01*
X79833346Y-122113097D01*
X80127981Y-121818463D01*
X79874422Y-121634242D01*
X79592147Y-121479062D01*
X79292647Y-121360480D01*
X78980642Y-121280371D01*
X78661070Y-121240000D01*
X78338929Y-121240000D01*
X78019357Y-121280371D01*
X77707352Y-121360480D01*
X77407852Y-121479062D01*
X77125573Y-121634245D01*
X76872017Y-121818462D01*
X76872017Y-121818463D01*
X77166652Y-122113098D01*
X77079365Y-122180076D01*
X76880076Y-122379365D01*
X76813098Y-122466652D01*
X76521669Y-122175223D01*
X76521668Y-122175223D01*
X76424824Y-122292290D01*
X76424820Y-122292295D01*
X76252223Y-122564264D01*
X76252216Y-122564276D01*
X76115068Y-122855733D01*
X76115067Y-122855734D01*
X76015523Y-123162095D01*
X76015521Y-123162102D01*
X75955164Y-123478507D01*
X75955164Y-123478511D01*
X75934938Y-123799999D01*
X52950500Y-123799999D01*
X52950500Y-120252554D01*
X52950834Y-120247464D01*
X52955084Y-120215182D01*
X52961739Y-120164628D01*
X52964371Y-120154805D01*
X52995361Y-120079987D01*
X53000444Y-120071183D01*
X53049742Y-120006936D01*
X53056936Y-119999742D01*
X53121183Y-119950444D01*
X53129987Y-119945361D01*
X53204805Y-119914371D01*
X53214628Y-119911739D01*
X53285548Y-119902402D01*
X53297464Y-119900834D01*
X53302554Y-119900500D01*
X53357583Y-119900500D01*
X118002782Y-119900500D01*
X118030359Y-119911923D01*
G37*
%TD.AperFunction*%
%TD*%
M02*
