%TF.GenerationSoftware,KiCad,Pcbnew,8.0.7*%
%TF.CreationDate,2025-04-01T17:38:45+03:00*%
%TF.ProjectId,RibbonRiser,52696262-6f6e-4526-9973-65722e6b6963,rev?*%
%TF.SameCoordinates,Original*%
%TF.FileFunction,Legend,Bot*%
%TF.FilePolarity,Positive*%
%FSLAX46Y46*%
G04 Gerber Fmt 4.6, Leading zero omitted, Abs format (unit mm)*
G04 Created by KiCad (PCBNEW 8.0.7) date 2025-04-01 17:38:45*
%MOMM*%
%LPD*%
G01*
G04 APERTURE LIST*
%ADD10C,0.110000*%
%ADD11C,0.150000*%
%ADD12C,0.120000*%
%ADD13C,0.000000*%
G04 APERTURE END LIST*
D10*
X113890476Y-128896375D02*
X113471428Y-128363041D01*
X113890476Y-128363041D02*
X113471428Y-128896375D01*
X112823809Y-128363041D02*
X112823809Y-128896375D01*
X113014285Y-128058280D02*
X113204762Y-128629708D01*
X113204762Y-128629708D02*
X112709523Y-128629708D01*
D11*
G36*
X103260317Y-122801252D02*
G01*
X103292855Y-122872579D01*
X103326721Y-122943310D01*
X103361914Y-123013446D01*
X103398436Y-123082986D01*
X103435874Y-123151313D01*
X103474182Y-123217808D01*
X103513360Y-123282472D01*
X103553408Y-123345303D01*
X103599242Y-123413274D01*
X103645655Y-123478289D01*
X103692648Y-123540348D01*
X103719005Y-123573548D01*
X103766317Y-123630020D01*
X103818681Y-123687465D01*
X103870831Y-123739329D01*
X103886434Y-123753799D01*
X103942881Y-123802041D01*
X104003374Y-123845782D01*
X104048000Y-123872501D01*
X104119913Y-123903005D01*
X104192362Y-123914958D01*
X104196744Y-123915000D01*
X104250600Y-123904741D01*
X104293831Y-123876531D01*
X104322407Y-123833667D01*
X104332665Y-123780177D01*
X104332665Y-123280090D01*
X104864626Y-123874699D01*
X104909323Y-123905474D01*
X104959148Y-123915000D01*
X105011538Y-123904741D01*
X105054403Y-123876531D01*
X105083712Y-123833667D01*
X105094337Y-123780177D01*
X105094337Y-122801252D01*
X104826524Y-122801252D01*
X104826524Y-123435795D01*
X104292732Y-122839354D01*
X104226684Y-122803219D01*
X104224221Y-122802718D01*
X104150956Y-122809544D01*
X104146186Y-122811510D01*
X104087492Y-122858514D01*
X104086102Y-122860603D01*
X104063776Y-122931387D01*
X104063754Y-122933876D01*
X104063754Y-123570983D01*
X104011325Y-123517882D01*
X103962116Y-123462992D01*
X103911706Y-123400546D01*
X103907316Y-123394762D01*
X103860377Y-123330345D01*
X103815775Y-123264543D01*
X103777257Y-123203520D01*
X103736563Y-123135419D01*
X103697601Y-123066626D01*
X103663684Y-123003485D01*
X103627465Y-122933802D01*
X103591852Y-122864293D01*
X103560003Y-122801252D01*
X103260317Y-122801252D01*
G37*
G36*
X101343499Y-122801252D02*
G01*
X101376037Y-122872579D01*
X101409903Y-122943310D01*
X101445097Y-123013446D01*
X101481618Y-123082986D01*
X101519056Y-123151313D01*
X101557364Y-123217808D01*
X101596542Y-123282472D01*
X101636591Y-123345303D01*
X101682424Y-123413274D01*
X101728837Y-123478289D01*
X101775830Y-123540348D01*
X101802187Y-123573548D01*
X101849499Y-123630020D01*
X101901863Y-123687465D01*
X101954013Y-123739329D01*
X101969616Y-123753799D01*
X102026063Y-123802041D01*
X102086556Y-123845782D01*
X102131182Y-123872501D01*
X102203096Y-123903005D01*
X102275544Y-123914958D01*
X102279926Y-123915000D01*
X102333782Y-123904741D01*
X102377013Y-123876531D01*
X102405589Y-123833667D01*
X102415847Y-123780177D01*
X102415847Y-123280090D01*
X102947808Y-123874699D01*
X102992505Y-123905474D01*
X103042330Y-123915000D01*
X103094720Y-123904741D01*
X103137585Y-123876531D01*
X103166894Y-123833667D01*
X103177519Y-123780177D01*
X103177519Y-122801252D01*
X102909706Y-122801252D01*
X102909706Y-123435795D01*
X102375914Y-122839354D01*
X102309866Y-122803219D01*
X102307404Y-122802718D01*
X102234138Y-122809544D01*
X102229368Y-122811510D01*
X102170674Y-122858514D01*
X102169284Y-122860603D01*
X102146958Y-122931387D01*
X102146936Y-122933876D01*
X102146936Y-123570983D01*
X102094507Y-123517882D01*
X102045299Y-123462992D01*
X101994888Y-123400546D01*
X101990498Y-123394762D01*
X101943559Y-123330345D01*
X101898957Y-123264543D01*
X101860439Y-123203520D01*
X101819746Y-123135419D01*
X101780784Y-123066626D01*
X101746866Y-123003485D01*
X101710647Y-122933802D01*
X101675034Y-122864293D01*
X101643185Y-122801252D01*
X101343499Y-122801252D01*
G37*
G36*
X99426681Y-122801252D02*
G01*
X99459219Y-122872579D01*
X99493085Y-122943310D01*
X99528279Y-123013446D01*
X99564801Y-123082986D01*
X99602238Y-123151313D01*
X99640546Y-123217808D01*
X99679725Y-123282472D01*
X99719773Y-123345303D01*
X99765606Y-123413274D01*
X99812019Y-123478289D01*
X99859012Y-123540348D01*
X99885369Y-123573548D01*
X99932681Y-123630020D01*
X99985045Y-123687465D01*
X100037195Y-123739329D01*
X100052798Y-123753799D01*
X100109245Y-123802041D01*
X100169739Y-123845782D01*
X100214364Y-123872501D01*
X100286278Y-123903005D01*
X100358726Y-123914958D01*
X100363108Y-123915000D01*
X100416964Y-123904741D01*
X100460195Y-123876531D01*
X100488771Y-123833667D01*
X100499030Y-123780177D01*
X100499030Y-123280090D01*
X101030990Y-123874699D01*
X101075687Y-123905474D01*
X101125512Y-123915000D01*
X101177903Y-123904741D01*
X101220767Y-123876531D01*
X101250076Y-123833667D01*
X101260701Y-123780177D01*
X101260701Y-122801252D01*
X100992889Y-122801252D01*
X100992889Y-123435795D01*
X100459096Y-122839354D01*
X100393048Y-122803219D01*
X100390586Y-122802718D01*
X100317320Y-122809544D01*
X100312550Y-122811510D01*
X100253856Y-122858514D01*
X100252466Y-122860603D01*
X100230140Y-122931387D01*
X100230118Y-122933876D01*
X100230118Y-123570983D01*
X100177689Y-123517882D01*
X100128481Y-123462992D01*
X100078070Y-123400546D01*
X100073681Y-123394762D01*
X100026741Y-123330345D01*
X99982140Y-123264543D01*
X99943621Y-123203520D01*
X99902928Y-123135419D01*
X99863966Y-123066626D01*
X99830048Y-123003485D01*
X99793829Y-122933802D01*
X99758217Y-122864293D01*
X99726367Y-122801252D01*
X99426681Y-122801252D01*
G37*
G36*
X99190743Y-123780177D02*
G01*
X99201734Y-123832201D01*
X99230310Y-123874333D01*
X99272442Y-123902543D01*
X99323367Y-123912801D01*
X99375390Y-123902543D01*
X99417889Y-123874333D01*
X99446099Y-123832201D01*
X99456357Y-123780177D01*
X99446099Y-123728886D01*
X99417889Y-123686755D01*
X99375390Y-123658178D01*
X99323367Y-123647187D01*
X99272442Y-123658178D01*
X99230310Y-123686755D01*
X99201734Y-123728886D01*
X99190743Y-123780177D01*
G37*
G36*
X97748733Y-123915000D02*
G01*
X98016912Y-123915000D01*
X98016912Y-123296577D01*
X98027009Y-123223968D01*
X98034863Y-123202421D01*
X98074547Y-123140549D01*
X98083956Y-123130980D01*
X98146227Y-123089346D01*
X98156496Y-123085184D01*
X98228719Y-123069631D01*
X98246622Y-123069064D01*
X98715568Y-123069064D01*
X98715568Y-123915000D01*
X98983381Y-123915000D01*
X98983381Y-122933876D01*
X98973122Y-122882219D01*
X98944180Y-122839720D01*
X98900949Y-122811510D01*
X98848192Y-122801252D01*
X98244424Y-122801252D01*
X98168907Y-122807119D01*
X98137812Y-122812609D01*
X98064715Y-122833511D01*
X98026803Y-122849246D01*
X97959799Y-122885825D01*
X97921657Y-122912993D01*
X97866187Y-122964616D01*
X97832997Y-123006782D01*
X97794408Y-123074055D01*
X97771448Y-123133911D01*
X97755144Y-123205599D01*
X97748933Y-123279770D01*
X97748733Y-123296577D01*
X97748733Y-123915000D01*
G37*
G36*
X96372302Y-123546071D02*
G01*
X96380030Y-123619115D01*
X96392086Y-123666238D01*
X96421697Y-123735764D01*
X96455467Y-123785673D01*
X96509441Y-123839099D01*
X96569773Y-123877997D01*
X96642480Y-123904556D01*
X96716433Y-123914421D01*
X96741231Y-123915000D01*
X97224466Y-123915000D01*
X97297510Y-123907415D01*
X97344633Y-123895582D01*
X97413979Y-123865791D01*
X97464068Y-123832201D01*
X97517494Y-123778045D01*
X97556392Y-123717896D01*
X97582951Y-123644925D01*
X97592816Y-123570875D01*
X97593394Y-123546071D01*
X97585810Y-123472884D01*
X97573977Y-123425537D01*
X97544186Y-123355714D01*
X97510596Y-123305736D01*
X97456440Y-123252127D01*
X97396290Y-123213412D01*
X97323320Y-123186589D01*
X97249270Y-123176627D01*
X97224466Y-123176043D01*
X96741231Y-123176043D01*
X96741231Y-123431765D01*
X97224466Y-123431765D01*
X97296967Y-123454016D01*
X97309096Y-123465471D01*
X97338047Y-123533206D01*
X97338771Y-123548269D01*
X97316037Y-123618166D01*
X97304333Y-123629968D01*
X97236829Y-123658562D01*
X97222267Y-123659277D01*
X96741231Y-123659277D01*
X96668972Y-123637510D01*
X96656967Y-123626304D01*
X96627659Y-123558926D01*
X96626926Y-123543872D01*
X96626926Y-123170181D01*
X96648451Y-123098963D01*
X96659532Y-123086650D01*
X96729135Y-123055995D01*
X96741231Y-123055509D01*
X97329612Y-123055509D01*
X97329612Y-122801252D01*
X96741231Y-122801252D01*
X96668330Y-122808980D01*
X96621430Y-122821036D01*
X96551904Y-122850647D01*
X96501995Y-122884417D01*
X96448387Y-122938390D01*
X96409672Y-122998722D01*
X96382849Y-123071430D01*
X96372886Y-123145383D01*
X96372302Y-123170181D01*
X96372302Y-123546071D01*
G37*
G36*
X94916004Y-123915000D02*
G01*
X95184183Y-123915000D01*
X95184183Y-123296577D01*
X95194281Y-123223968D01*
X95202135Y-123202421D01*
X95241818Y-123140549D01*
X95251228Y-123130980D01*
X95313498Y-123089346D01*
X95323768Y-123085184D01*
X95395990Y-123069631D01*
X95413893Y-123069064D01*
X95882840Y-123069064D01*
X95882840Y-123915000D01*
X96150652Y-123915000D01*
X96150652Y-122933876D01*
X96140394Y-122882219D01*
X96111451Y-122839720D01*
X96068220Y-122811510D01*
X96015464Y-122801252D01*
X95411695Y-122801252D01*
X95336179Y-122807119D01*
X95305083Y-122812609D01*
X95231986Y-122833511D01*
X95194075Y-122849246D01*
X95127070Y-122885825D01*
X95088928Y-122912993D01*
X95033458Y-122964616D01*
X95000268Y-123006782D01*
X94961680Y-123074055D01*
X94938719Y-123133911D01*
X94922415Y-123205599D01*
X94916204Y-123279770D01*
X94916004Y-123296577D01*
X94916004Y-123915000D01*
G37*
G36*
X93467400Y-123538743D02*
G01*
X93472964Y-123612237D01*
X93484986Y-123663307D01*
X93514534Y-123732636D01*
X93531514Y-123760027D01*
X93579737Y-123815669D01*
X93598192Y-123831102D01*
X93662526Y-123871716D01*
X93678060Y-123879096D01*
X93749321Y-123903226D01*
X93762690Y-123906207D01*
X93836470Y-123914922D01*
X93843656Y-123915000D01*
X94326891Y-123915000D01*
X94403644Y-123908800D01*
X94450355Y-123897414D01*
X94519354Y-123867693D01*
X94546709Y-123850519D01*
X94602557Y-123801610D01*
X94618150Y-123783108D01*
X94658764Y-123718774D01*
X94666144Y-123703241D01*
X94690275Y-123632240D01*
X94693255Y-123618977D01*
X94701970Y-123545798D01*
X94702048Y-123538743D01*
X94702048Y-123176043D01*
X94695820Y-123097597D01*
X94675183Y-123024748D01*
X94664312Y-123001653D01*
X94621997Y-122936624D01*
X94570523Y-122885150D01*
X94508174Y-122844794D01*
X94448524Y-122821036D01*
X94373830Y-122804517D01*
X94326891Y-122801252D01*
X93843656Y-122801252D01*
X93843656Y-123069064D01*
X94324692Y-123069064D01*
X94396698Y-123088626D01*
X94406025Y-123096542D01*
X94433624Y-123166442D01*
X94433869Y-123176043D01*
X94433869Y-123536912D01*
X94414568Y-123609989D01*
X94406758Y-123619344D01*
X94336495Y-123646942D01*
X94326891Y-123647187D01*
X93843656Y-123647187D01*
X93771361Y-123627365D01*
X93762323Y-123619344D01*
X93735451Y-123548416D01*
X93735212Y-123538743D01*
X93735212Y-122330108D01*
X93467400Y-122330108D01*
X93467400Y-123538743D01*
G37*
G36*
X92233485Y-123069064D02*
G01*
X92839452Y-123069064D01*
X92839452Y-122801252D01*
X92233485Y-122801252D01*
X92233485Y-123069064D01*
G37*
G36*
X92233485Y-122585830D02*
G01*
X92837254Y-122585830D01*
X92908304Y-122603969D01*
X92919685Y-122613307D01*
X92947284Y-122683207D01*
X92947529Y-122692808D01*
X92947529Y-123915000D01*
X93215708Y-123915000D01*
X93215708Y-122692808D01*
X93209508Y-122616055D01*
X93198122Y-122569344D01*
X93168401Y-122500345D01*
X93151228Y-122472990D01*
X93102318Y-122417348D01*
X93083817Y-122401915D01*
X93019483Y-122361302D01*
X93003949Y-122353921D01*
X92933209Y-122329694D01*
X92920052Y-122326810D01*
X92846634Y-122318095D01*
X92839452Y-122318018D01*
X92233485Y-122318018D01*
X92233485Y-122585830D01*
G37*
G36*
X91001402Y-123546071D02*
G01*
X91009130Y-123619115D01*
X91021186Y-123666238D01*
X91050797Y-123735764D01*
X91084567Y-123785673D01*
X91138540Y-123839099D01*
X91198872Y-123877997D01*
X91271580Y-123904556D01*
X91345533Y-123914421D01*
X91370331Y-123915000D01*
X91853565Y-123915000D01*
X91926609Y-123907415D01*
X91973733Y-123895582D01*
X92043079Y-123865791D01*
X92093168Y-123832201D01*
X92146594Y-123778045D01*
X92185491Y-123717896D01*
X92212051Y-123644925D01*
X92221916Y-123570875D01*
X92222494Y-123546071D01*
X92214909Y-123472884D01*
X92203077Y-123425537D01*
X92173286Y-123355714D01*
X92139696Y-123305736D01*
X92085540Y-123252127D01*
X92025390Y-123213412D01*
X91952420Y-123186589D01*
X91878369Y-123176627D01*
X91853565Y-123176043D01*
X91370331Y-123176043D01*
X91370331Y-123431765D01*
X91853565Y-123431765D01*
X91926067Y-123454016D01*
X91938196Y-123465471D01*
X91967147Y-123533206D01*
X91967871Y-123548269D01*
X91945136Y-123618166D01*
X91933433Y-123629968D01*
X91865929Y-123658562D01*
X91851367Y-123659277D01*
X91370331Y-123659277D01*
X91298071Y-123637510D01*
X91286067Y-123626304D01*
X91256759Y-123558926D01*
X91256025Y-123543872D01*
X91256025Y-123170181D01*
X91277551Y-123098963D01*
X91288632Y-123086650D01*
X91358235Y-123055995D01*
X91370331Y-123055509D01*
X91958712Y-123055509D01*
X91958712Y-122801252D01*
X91370331Y-122801252D01*
X91297430Y-122808980D01*
X91250530Y-122821036D01*
X91181004Y-122850647D01*
X91131095Y-122884417D01*
X91077486Y-122938390D01*
X91038771Y-122998722D01*
X91011949Y-123071430D01*
X91001986Y-123145383D01*
X91001402Y-123170181D01*
X91001402Y-123546071D01*
G37*
G36*
X89804856Y-123069064D02*
G01*
X90407892Y-123069064D01*
X90478942Y-123087204D01*
X90490324Y-123096542D01*
X90517560Y-123166442D01*
X90517801Y-123176043D01*
X90517801Y-123915000D01*
X90785980Y-123915000D01*
X90785980Y-123176043D01*
X90779780Y-123099289D01*
X90768394Y-123052578D01*
X90738673Y-122983580D01*
X90721500Y-122956224D01*
X90672590Y-122900583D01*
X90654089Y-122885150D01*
X90589755Y-122844536D01*
X90574221Y-122837156D01*
X90502960Y-122812929D01*
X90489591Y-122810045D01*
X90416713Y-122801329D01*
X90409724Y-122801252D01*
X89804856Y-122801252D01*
X89804856Y-123069064D01*
G37*
G36*
X88640917Y-123915000D02*
G01*
X88908729Y-123915000D01*
X88908729Y-123176043D01*
X88930047Y-123103714D01*
X88936573Y-123096542D01*
X89005776Y-123069494D01*
X89019005Y-123069064D01*
X89367418Y-123069064D01*
X89367418Y-123915000D01*
X89635230Y-123915000D01*
X89635230Y-122933876D01*
X89624972Y-122882219D01*
X89596029Y-122839720D01*
X89552798Y-122811510D01*
X89500041Y-122801252D01*
X89016807Y-122801252D01*
X88940246Y-122809772D01*
X88897372Y-122821036D01*
X88827511Y-122850415D01*
X88775739Y-122883684D01*
X88775739Y-122801252D01*
X88413039Y-122801252D01*
X88338056Y-122808980D01*
X88332805Y-122810045D01*
X88261968Y-122831567D01*
X88248907Y-122837156D01*
X88183457Y-122874532D01*
X88169040Y-122885150D01*
X88115096Y-122938548D01*
X88101995Y-122956224D01*
X88066257Y-123022886D01*
X88055467Y-123052578D01*
X88040355Y-123126395D01*
X88037882Y-123176043D01*
X88037882Y-123915000D01*
X88306060Y-123915000D01*
X88306060Y-123176043D01*
X88326256Y-123103714D01*
X88332438Y-123096542D01*
X88403054Y-123069306D01*
X88413039Y-123069064D01*
X88654106Y-123069064D01*
X88641960Y-123144326D01*
X88640917Y-123176043D01*
X88640917Y-123915000D01*
G37*
G36*
X87578461Y-123780177D02*
G01*
X87589452Y-123832201D01*
X87618028Y-123874333D01*
X87660160Y-123902543D01*
X87711085Y-123912801D01*
X87763108Y-123902543D01*
X87805607Y-123874333D01*
X87833817Y-123832201D01*
X87844075Y-123780177D01*
X87833817Y-123728886D01*
X87805607Y-123686755D01*
X87763108Y-123658178D01*
X87711085Y-123647187D01*
X87660160Y-123658178D01*
X87618028Y-123686755D01*
X87589452Y-123728886D01*
X87578461Y-123780177D01*
G37*
G36*
X86292156Y-123915000D02*
G01*
X87018656Y-123915000D01*
X87092272Y-123907415D01*
X87140289Y-123895582D01*
X87211348Y-123865443D01*
X87262288Y-123831102D01*
X87316676Y-123775778D01*
X87356078Y-123714598D01*
X87381873Y-123645596D01*
X87392892Y-123570471D01*
X87393813Y-123538743D01*
X87393813Y-123176043D01*
X87386085Y-123101060D01*
X87385020Y-123095809D01*
X87363401Y-123024972D01*
X87357909Y-123011912D01*
X87320533Y-122946461D01*
X87309916Y-122932044D01*
X87256392Y-122878100D01*
X87238841Y-122865000D01*
X87172179Y-122829451D01*
X87142487Y-122818838D01*
X87068356Y-122803725D01*
X87018656Y-122801252D01*
X86292156Y-122801252D01*
X86292156Y-123069064D01*
X87018656Y-123069064D01*
X87091265Y-123089541D01*
X87098524Y-123095809D01*
X87125211Y-123164771D01*
X87125635Y-123178241D01*
X87125635Y-123538743D01*
X87106073Y-123610034D01*
X87098157Y-123619344D01*
X87029515Y-123646752D01*
X87016458Y-123647187D01*
X86292156Y-123647187D01*
X86292156Y-123915000D01*
G37*
G36*
X85780389Y-122804517D02*
G01*
X85855083Y-122821036D01*
X85914734Y-122844794D01*
X85977083Y-122885150D01*
X86028557Y-122936624D01*
X86070872Y-123001653D01*
X86081743Y-123024748D01*
X86102379Y-123097597D01*
X86108607Y-123176043D01*
X86108607Y-123538743D01*
X86107686Y-123570471D01*
X86096668Y-123645596D01*
X86070872Y-123714598D01*
X86031470Y-123775778D01*
X85977083Y-123831102D01*
X85926142Y-123865443D01*
X85855083Y-123895582D01*
X85807067Y-123907415D01*
X85733450Y-123915000D01*
X85250216Y-123915000D01*
X85243030Y-123914922D01*
X85169249Y-123906207D01*
X85155890Y-123903226D01*
X85084986Y-123879096D01*
X85069452Y-123871716D01*
X85005118Y-123831102D01*
X84986502Y-123815669D01*
X84938073Y-123760027D01*
X84921093Y-123732636D01*
X84891545Y-123663307D01*
X84879524Y-123612237D01*
X84873960Y-123538743D01*
X84873960Y-123178241D01*
X85142138Y-123178241D01*
X85142138Y-123538743D01*
X85142373Y-123548416D01*
X85168883Y-123619344D01*
X85177920Y-123627365D01*
X85250216Y-123647187D01*
X85731252Y-123647187D01*
X85744310Y-123646752D01*
X85812951Y-123619344D01*
X85820867Y-123610034D01*
X85840429Y-123538743D01*
X85840429Y-123176043D01*
X85840187Y-123166442D01*
X85812951Y-123096542D01*
X85803615Y-123088626D01*
X85731252Y-123069064D01*
X85250216Y-123069064D01*
X85240546Y-123069299D01*
X85169982Y-123095809D01*
X85160520Y-123106856D01*
X85142138Y-123178241D01*
X84873960Y-123178241D01*
X84873960Y-123176043D01*
X84877285Y-123128629D01*
X84894110Y-123053677D01*
X84918313Y-122994027D01*
X84958590Y-122931678D01*
X85009881Y-122880112D01*
X85075094Y-122838255D01*
X85098399Y-122827595D01*
X85171649Y-122807359D01*
X85250216Y-122801252D01*
X85733450Y-122801252D01*
X85780389Y-122804517D01*
G37*
G36*
X83659829Y-123915000D02*
G01*
X83927641Y-123915000D01*
X83927641Y-123176043D01*
X83948959Y-123103714D01*
X83955484Y-123096542D01*
X84024687Y-123069494D01*
X84037916Y-123069064D01*
X84386329Y-123069064D01*
X84386329Y-123915000D01*
X84654141Y-123915000D01*
X84654141Y-122933876D01*
X84643883Y-122882219D01*
X84614940Y-122839720D01*
X84571709Y-122811510D01*
X84518953Y-122801252D01*
X84035718Y-122801252D01*
X83959157Y-122809772D01*
X83916284Y-122821036D01*
X83846422Y-122850415D01*
X83794651Y-122883684D01*
X83794651Y-122801252D01*
X83431950Y-122801252D01*
X83356967Y-122808980D01*
X83351716Y-122810045D01*
X83280879Y-122831567D01*
X83267819Y-122837156D01*
X83202368Y-122874532D01*
X83187951Y-122885150D01*
X83134007Y-122938548D01*
X83120907Y-122956224D01*
X83085169Y-123022886D01*
X83074378Y-123052578D01*
X83059266Y-123126395D01*
X83056793Y-123176043D01*
X83056793Y-123915000D01*
X83324972Y-123915000D01*
X83324972Y-123176043D01*
X83345167Y-123103714D01*
X83351350Y-123096542D01*
X83421966Y-123069306D01*
X83431950Y-123069064D01*
X83673018Y-123069064D01*
X83660872Y-123144326D01*
X83659829Y-123176043D01*
X83659829Y-123915000D01*
G37*
X147591792Y-122244748D02*
X147639411Y-122292368D01*
X147639411Y-122292368D02*
X147782268Y-122339987D01*
X147782268Y-122339987D02*
X147877506Y-122339987D01*
X147877506Y-122339987D02*
X148020363Y-122292368D01*
X148020363Y-122292368D02*
X148115601Y-122197129D01*
X148115601Y-122197129D02*
X148163220Y-122101891D01*
X148163220Y-122101891D02*
X148210839Y-121911415D01*
X148210839Y-121911415D02*
X148210839Y-121768558D01*
X148210839Y-121768558D02*
X148163220Y-121578082D01*
X148163220Y-121578082D02*
X148115601Y-121482844D01*
X148115601Y-121482844D02*
X148020363Y-121387606D01*
X148020363Y-121387606D02*
X147877506Y-121339987D01*
X147877506Y-121339987D02*
X147782268Y-121339987D01*
X147782268Y-121339987D02*
X147639411Y-121387606D01*
X147639411Y-121387606D02*
X147591792Y-121435225D01*
X147020363Y-122339987D02*
X147115601Y-122292368D01*
X147115601Y-122292368D02*
X147163220Y-122244748D01*
X147163220Y-122244748D02*
X147210839Y-122149510D01*
X147210839Y-122149510D02*
X147210839Y-121863796D01*
X147210839Y-121863796D02*
X147163220Y-121768558D01*
X147163220Y-121768558D02*
X147115601Y-121720939D01*
X147115601Y-121720939D02*
X147020363Y-121673320D01*
X147020363Y-121673320D02*
X146877506Y-121673320D01*
X146877506Y-121673320D02*
X146782268Y-121720939D01*
X146782268Y-121720939D02*
X146734649Y-121768558D01*
X146734649Y-121768558D02*
X146687030Y-121863796D01*
X146687030Y-121863796D02*
X146687030Y-122149510D01*
X146687030Y-122149510D02*
X146734649Y-122244748D01*
X146734649Y-122244748D02*
X146782268Y-122292368D01*
X146782268Y-122292368D02*
X146877506Y-122339987D01*
X146877506Y-122339987D02*
X147020363Y-122339987D01*
X146258458Y-122339987D02*
X146258458Y-121673320D01*
X146258458Y-121768558D02*
X146210839Y-121720939D01*
X146210839Y-121720939D02*
X146115601Y-121673320D01*
X146115601Y-121673320D02*
X145972744Y-121673320D01*
X145972744Y-121673320D02*
X145877506Y-121720939D01*
X145877506Y-121720939D02*
X145829887Y-121816177D01*
X145829887Y-121816177D02*
X145829887Y-122339987D01*
X145829887Y-121816177D02*
X145782268Y-121720939D01*
X145782268Y-121720939D02*
X145687030Y-121673320D01*
X145687030Y-121673320D02*
X145544173Y-121673320D01*
X145544173Y-121673320D02*
X145448934Y-121720939D01*
X145448934Y-121720939D02*
X145401315Y-121816177D01*
X145401315Y-121816177D02*
X145401315Y-122339987D01*
X144925125Y-121673320D02*
X144925125Y-122673320D01*
X144925125Y-121720939D02*
X144829887Y-121673320D01*
X144829887Y-121673320D02*
X144639411Y-121673320D01*
X144639411Y-121673320D02*
X144544173Y-121720939D01*
X144544173Y-121720939D02*
X144496554Y-121768558D01*
X144496554Y-121768558D02*
X144448935Y-121863796D01*
X144448935Y-121863796D02*
X144448935Y-122149510D01*
X144448935Y-122149510D02*
X144496554Y-122244748D01*
X144496554Y-122244748D02*
X144544173Y-122292368D01*
X144544173Y-122292368D02*
X144639411Y-122339987D01*
X144639411Y-122339987D02*
X144829887Y-122339987D01*
X144829887Y-122339987D02*
X144925125Y-122292368D01*
X143591792Y-122339987D02*
X143591792Y-121816177D01*
X143591792Y-121816177D02*
X143639411Y-121720939D01*
X143639411Y-121720939D02*
X143734649Y-121673320D01*
X143734649Y-121673320D02*
X143925125Y-121673320D01*
X143925125Y-121673320D02*
X144020363Y-121720939D01*
X143591792Y-122292368D02*
X143687030Y-122339987D01*
X143687030Y-122339987D02*
X143925125Y-122339987D01*
X143925125Y-122339987D02*
X144020363Y-122292368D01*
X144020363Y-122292368D02*
X144067982Y-122197129D01*
X144067982Y-122197129D02*
X144067982Y-122101891D01*
X144067982Y-122101891D02*
X144020363Y-122006653D01*
X144020363Y-122006653D02*
X143925125Y-121959034D01*
X143925125Y-121959034D02*
X143687030Y-121959034D01*
X143687030Y-121959034D02*
X143591792Y-121911415D01*
X143258458Y-121673320D02*
X142877506Y-121673320D01*
X143115601Y-121339987D02*
X143115601Y-122197129D01*
X143115601Y-122197129D02*
X143067982Y-122292368D01*
X143067982Y-122292368D02*
X142972744Y-122339987D01*
X142972744Y-122339987D02*
X142877506Y-122339987D01*
X142544172Y-122339987D02*
X142544172Y-121673320D01*
X142544172Y-121339987D02*
X142591791Y-121387606D01*
X142591791Y-121387606D02*
X142544172Y-121435225D01*
X142544172Y-121435225D02*
X142496553Y-121387606D01*
X142496553Y-121387606D02*
X142544172Y-121339987D01*
X142544172Y-121339987D02*
X142544172Y-121435225D01*
X142067982Y-122339987D02*
X142067982Y-121339987D01*
X142067982Y-121720939D02*
X141972744Y-121673320D01*
X141972744Y-121673320D02*
X141782268Y-121673320D01*
X141782268Y-121673320D02*
X141687030Y-121720939D01*
X141687030Y-121720939D02*
X141639411Y-121768558D01*
X141639411Y-121768558D02*
X141591792Y-121863796D01*
X141591792Y-121863796D02*
X141591792Y-122149510D01*
X141591792Y-122149510D02*
X141639411Y-122244748D01*
X141639411Y-122244748D02*
X141687030Y-122292368D01*
X141687030Y-122292368D02*
X141782268Y-122339987D01*
X141782268Y-122339987D02*
X141972744Y-122339987D01*
X141972744Y-122339987D02*
X142067982Y-122292368D01*
X141020363Y-122339987D02*
X141115601Y-122292368D01*
X141115601Y-122292368D02*
X141163220Y-122197129D01*
X141163220Y-122197129D02*
X141163220Y-121339987D01*
X140258458Y-122292368D02*
X140353696Y-122339987D01*
X140353696Y-122339987D02*
X140544172Y-122339987D01*
X140544172Y-122339987D02*
X140639410Y-122292368D01*
X140639410Y-122292368D02*
X140687029Y-122197129D01*
X140687029Y-122197129D02*
X140687029Y-121816177D01*
X140687029Y-121816177D02*
X140639410Y-121720939D01*
X140639410Y-121720939D02*
X140544172Y-121673320D01*
X140544172Y-121673320D02*
X140353696Y-121673320D01*
X140353696Y-121673320D02*
X140258458Y-121720939D01*
X140258458Y-121720939D02*
X140210839Y-121816177D01*
X140210839Y-121816177D02*
X140210839Y-121911415D01*
X140210839Y-121911415D02*
X140687029Y-122006653D01*
X139115600Y-121673320D02*
X138925124Y-122339987D01*
X138925124Y-122339987D02*
X138734648Y-121863796D01*
X138734648Y-121863796D02*
X138544172Y-122339987D01*
X138544172Y-122339987D02*
X138353696Y-121673320D01*
X137972743Y-122339987D02*
X137972743Y-121673320D01*
X137972743Y-121339987D02*
X138020362Y-121387606D01*
X138020362Y-121387606D02*
X137972743Y-121435225D01*
X137972743Y-121435225D02*
X137925124Y-121387606D01*
X137925124Y-121387606D02*
X137972743Y-121339987D01*
X137972743Y-121339987D02*
X137972743Y-121435225D01*
X137639410Y-121673320D02*
X137258458Y-121673320D01*
X137496553Y-121339987D02*
X137496553Y-122197129D01*
X137496553Y-122197129D02*
X137448934Y-122292368D01*
X137448934Y-122292368D02*
X137353696Y-122339987D01*
X137353696Y-122339987D02*
X137258458Y-122339987D01*
X136925124Y-122339987D02*
X136925124Y-121339987D01*
X136496553Y-122339987D02*
X136496553Y-121816177D01*
X136496553Y-121816177D02*
X136544172Y-121720939D01*
X136544172Y-121720939D02*
X136639410Y-121673320D01*
X136639410Y-121673320D02*
X136782267Y-121673320D01*
X136782267Y-121673320D02*
X136877505Y-121720939D01*
X136877505Y-121720939D02*
X136925124Y-121768558D01*
X135401314Y-121339987D02*
X134829886Y-121339987D01*
X135115600Y-122339987D02*
X135115600Y-121339987D01*
X134496552Y-122339987D02*
X134496552Y-121673320D01*
X134496552Y-121339987D02*
X134544171Y-121387606D01*
X134544171Y-121387606D02*
X134496552Y-121435225D01*
X134496552Y-121435225D02*
X134448933Y-121387606D01*
X134448933Y-121387606D02*
X134496552Y-121339987D01*
X134496552Y-121339987D02*
X134496552Y-121435225D01*
X134020362Y-121673320D02*
X134020362Y-122339987D01*
X134020362Y-121768558D02*
X133972743Y-121720939D01*
X133972743Y-121720939D02*
X133877505Y-121673320D01*
X133877505Y-121673320D02*
X133734648Y-121673320D01*
X133734648Y-121673320D02*
X133639410Y-121720939D01*
X133639410Y-121720939D02*
X133591791Y-121816177D01*
X133591791Y-121816177D02*
X133591791Y-122339987D01*
X133210838Y-121673320D02*
X132972743Y-122339987D01*
X132734648Y-121673320D02*
X132972743Y-122339987D01*
X132972743Y-122339987D02*
X133067981Y-122578082D01*
X133067981Y-122578082D02*
X133115600Y-122625701D01*
X133115600Y-122625701D02*
X133210838Y-122673320D01*
X131877505Y-121339987D02*
X132353695Y-121339987D01*
X132353695Y-121339987D02*
X132401314Y-121816177D01*
X132401314Y-121816177D02*
X132353695Y-121768558D01*
X132353695Y-121768558D02*
X132258457Y-121720939D01*
X132258457Y-121720939D02*
X132020362Y-121720939D01*
X132020362Y-121720939D02*
X131925124Y-121768558D01*
X131925124Y-121768558D02*
X131877505Y-121816177D01*
X131877505Y-121816177D02*
X131829886Y-121911415D01*
X131829886Y-121911415D02*
X131829886Y-122149510D01*
X131829886Y-122149510D02*
X131877505Y-122244748D01*
X131877505Y-122244748D02*
X131925124Y-122292368D01*
X131925124Y-122292368D02*
X132020362Y-122339987D01*
X132020362Y-122339987D02*
X132258457Y-122339987D01*
X132258457Y-122339987D02*
X132353695Y-122292368D01*
X132353695Y-122292368D02*
X132401314Y-122244748D01*
X131401314Y-122244748D02*
X131353695Y-122292368D01*
X131353695Y-122292368D02*
X131401314Y-122339987D01*
X131401314Y-122339987D02*
X131448933Y-122292368D01*
X131448933Y-122292368D02*
X131401314Y-122244748D01*
X131401314Y-122244748D02*
X131401314Y-122339987D01*
X131401314Y-121720939D02*
X131353695Y-121768558D01*
X131353695Y-121768558D02*
X131401314Y-121816177D01*
X131401314Y-121816177D02*
X131448933Y-121768558D01*
X131448933Y-121768558D02*
X131401314Y-121720939D01*
X131401314Y-121720939D02*
X131401314Y-121816177D01*
X147687030Y-123949931D02*
X148163220Y-123949931D01*
X148163220Y-123949931D02*
X148163220Y-122949931D01*
X146972744Y-123902312D02*
X147067982Y-123949931D01*
X147067982Y-123949931D02*
X147258458Y-123949931D01*
X147258458Y-123949931D02*
X147353696Y-123902312D01*
X147353696Y-123902312D02*
X147401315Y-123807073D01*
X147401315Y-123807073D02*
X147401315Y-123426121D01*
X147401315Y-123426121D02*
X147353696Y-123330883D01*
X147353696Y-123330883D02*
X147258458Y-123283264D01*
X147258458Y-123283264D02*
X147067982Y-123283264D01*
X147067982Y-123283264D02*
X146972744Y-123330883D01*
X146972744Y-123330883D02*
X146925125Y-123426121D01*
X146925125Y-123426121D02*
X146925125Y-123521359D01*
X146925125Y-123521359D02*
X147401315Y-123616597D01*
X146496553Y-123283264D02*
X146496553Y-123949931D01*
X146496553Y-123378502D02*
X146448934Y-123330883D01*
X146448934Y-123330883D02*
X146353696Y-123283264D01*
X146353696Y-123283264D02*
X146210839Y-123283264D01*
X146210839Y-123283264D02*
X146115601Y-123330883D01*
X146115601Y-123330883D02*
X146067982Y-123426121D01*
X146067982Y-123426121D02*
X146067982Y-123949931D01*
X145448934Y-123949931D02*
X145544172Y-123902312D01*
X145544172Y-123902312D02*
X145591791Y-123854692D01*
X145591791Y-123854692D02*
X145639410Y-123759454D01*
X145639410Y-123759454D02*
X145639410Y-123473740D01*
X145639410Y-123473740D02*
X145591791Y-123378502D01*
X145591791Y-123378502D02*
X145544172Y-123330883D01*
X145544172Y-123330883D02*
X145448934Y-123283264D01*
X145448934Y-123283264D02*
X145306077Y-123283264D01*
X145306077Y-123283264D02*
X145210839Y-123330883D01*
X145210839Y-123330883D02*
X145163220Y-123378502D01*
X145163220Y-123378502D02*
X145115601Y-123473740D01*
X145115601Y-123473740D02*
X145115601Y-123759454D01*
X145115601Y-123759454D02*
X145163220Y-123854692D01*
X145163220Y-123854692D02*
X145210839Y-123902312D01*
X145210839Y-123902312D02*
X145306077Y-123949931D01*
X145306077Y-123949931D02*
X145448934Y-123949931D01*
X144782267Y-123283264D02*
X144544172Y-123949931D01*
X144544172Y-123949931D02*
X144306077Y-123283264D01*
X143782267Y-123949931D02*
X143877505Y-123902312D01*
X143877505Y-123902312D02*
X143925124Y-123854692D01*
X143925124Y-123854692D02*
X143972743Y-123759454D01*
X143972743Y-123759454D02*
X143972743Y-123473740D01*
X143972743Y-123473740D02*
X143925124Y-123378502D01*
X143925124Y-123378502D02*
X143877505Y-123330883D01*
X143877505Y-123330883D02*
X143782267Y-123283264D01*
X143782267Y-123283264D02*
X143639410Y-123283264D01*
X143639410Y-123283264D02*
X143544172Y-123330883D01*
X143544172Y-123330883D02*
X143496553Y-123378502D01*
X143496553Y-123378502D02*
X143448934Y-123473740D01*
X143448934Y-123473740D02*
X143448934Y-123759454D01*
X143448934Y-123759454D02*
X143496553Y-123854692D01*
X143496553Y-123854692D02*
X143544172Y-123902312D01*
X143544172Y-123902312D02*
X143639410Y-123949931D01*
X143639410Y-123949931D02*
X143782267Y-123949931D01*
X142258457Y-123949931D02*
X142258457Y-122949931D01*
X142258457Y-122949931D02*
X141925124Y-123664216D01*
X141925124Y-123664216D02*
X141591791Y-122949931D01*
X141591791Y-122949931D02*
X141591791Y-123949931D01*
X141210838Y-122949931D02*
X140544172Y-122949931D01*
X140544172Y-122949931D02*
X140972743Y-123949931D01*
X140210838Y-123045169D02*
X140163219Y-122997550D01*
X140163219Y-122997550D02*
X140067981Y-122949931D01*
X140067981Y-122949931D02*
X139829886Y-122949931D01*
X139829886Y-122949931D02*
X139734648Y-122997550D01*
X139734648Y-122997550D02*
X139687029Y-123045169D01*
X139687029Y-123045169D02*
X139639410Y-123140407D01*
X139639410Y-123140407D02*
X139639410Y-123235645D01*
X139639410Y-123235645D02*
X139687029Y-123378502D01*
X139687029Y-123378502D02*
X140258457Y-123949931D01*
X140258457Y-123949931D02*
X139639410Y-123949931D01*
X139020362Y-122949931D02*
X138925124Y-122949931D01*
X138925124Y-122949931D02*
X138829886Y-122997550D01*
X138829886Y-122997550D02*
X138782267Y-123045169D01*
X138782267Y-123045169D02*
X138734648Y-123140407D01*
X138734648Y-123140407D02*
X138687029Y-123330883D01*
X138687029Y-123330883D02*
X138687029Y-123568978D01*
X138687029Y-123568978D02*
X138734648Y-123759454D01*
X138734648Y-123759454D02*
X138782267Y-123854692D01*
X138782267Y-123854692D02*
X138829886Y-123902312D01*
X138829886Y-123902312D02*
X138925124Y-123949931D01*
X138925124Y-123949931D02*
X139020362Y-123949931D01*
X139020362Y-123949931D02*
X139115600Y-123902312D01*
X139115600Y-123902312D02*
X139163219Y-123854692D01*
X139163219Y-123854692D02*
X139210838Y-123759454D01*
X139210838Y-123759454D02*
X139258457Y-123568978D01*
X139258457Y-123568978D02*
X139258457Y-123330883D01*
X139258457Y-123330883D02*
X139210838Y-123140407D01*
X139210838Y-123140407D02*
X139163219Y-123045169D01*
X139163219Y-123045169D02*
X139115600Y-122997550D01*
X139115600Y-122997550D02*
X139020362Y-122949931D01*
X137829886Y-123283264D02*
X137829886Y-124283264D01*
X137829886Y-123902312D02*
X137925124Y-123949931D01*
X137925124Y-123949931D02*
X138115600Y-123949931D01*
X138115600Y-123949931D02*
X138210838Y-123902312D01*
X138210838Y-123902312D02*
X138258457Y-123854692D01*
X138258457Y-123854692D02*
X138306076Y-123759454D01*
X138306076Y-123759454D02*
X138306076Y-123473740D01*
X138306076Y-123473740D02*
X138258457Y-123378502D01*
X138258457Y-123378502D02*
X138210838Y-123330883D01*
X138210838Y-123330883D02*
X138115600Y-123283264D01*
X138115600Y-123283264D02*
X137925124Y-123283264D01*
X137925124Y-123283264D02*
X137829886Y-123330883D01*
X137306076Y-123902312D02*
X137306076Y-123949931D01*
X137306076Y-123949931D02*
X137353695Y-124045169D01*
X137353695Y-124045169D02*
X137401314Y-124092788D01*
X136115600Y-123949931D02*
X136115600Y-122949931D01*
X136115600Y-122949931D02*
X135782267Y-123664216D01*
X135782267Y-123664216D02*
X135448934Y-122949931D01*
X135448934Y-122949931D02*
X135448934Y-123949931D01*
X134925124Y-123949931D02*
X134734648Y-123949931D01*
X134734648Y-123949931D02*
X134639410Y-123902312D01*
X134639410Y-123902312D02*
X134591791Y-123854692D01*
X134591791Y-123854692D02*
X134496553Y-123711835D01*
X134496553Y-123711835D02*
X134448934Y-123521359D01*
X134448934Y-123521359D02*
X134448934Y-123140407D01*
X134448934Y-123140407D02*
X134496553Y-123045169D01*
X134496553Y-123045169D02*
X134544172Y-122997550D01*
X134544172Y-122997550D02*
X134639410Y-122949931D01*
X134639410Y-122949931D02*
X134829886Y-122949931D01*
X134829886Y-122949931D02*
X134925124Y-122997550D01*
X134925124Y-122997550D02*
X134972743Y-123045169D01*
X134972743Y-123045169D02*
X135020362Y-123140407D01*
X135020362Y-123140407D02*
X135020362Y-123378502D01*
X135020362Y-123378502D02*
X134972743Y-123473740D01*
X134972743Y-123473740D02*
X134925124Y-123521359D01*
X134925124Y-123521359D02*
X134829886Y-123568978D01*
X134829886Y-123568978D02*
X134639410Y-123568978D01*
X134639410Y-123568978D02*
X134544172Y-123521359D01*
X134544172Y-123521359D02*
X134496553Y-123473740D01*
X134496553Y-123473740D02*
X134448934Y-123378502D01*
X134067981Y-123045169D02*
X134020362Y-122997550D01*
X134020362Y-122997550D02*
X133925124Y-122949931D01*
X133925124Y-122949931D02*
X133687029Y-122949931D01*
X133687029Y-122949931D02*
X133591791Y-122997550D01*
X133591791Y-122997550D02*
X133544172Y-123045169D01*
X133544172Y-123045169D02*
X133496553Y-123140407D01*
X133496553Y-123140407D02*
X133496553Y-123235645D01*
X133496553Y-123235645D02*
X133544172Y-123378502D01*
X133544172Y-123378502D02*
X134115600Y-123949931D01*
X134115600Y-123949931D02*
X133496553Y-123949931D01*
X132877505Y-122949931D02*
X132782267Y-122949931D01*
X132782267Y-122949931D02*
X132687029Y-122997550D01*
X132687029Y-122997550D02*
X132639410Y-123045169D01*
X132639410Y-123045169D02*
X132591791Y-123140407D01*
X132591791Y-123140407D02*
X132544172Y-123330883D01*
X132544172Y-123330883D02*
X132544172Y-123568978D01*
X132544172Y-123568978D02*
X132591791Y-123759454D01*
X132591791Y-123759454D02*
X132639410Y-123854692D01*
X132639410Y-123854692D02*
X132687029Y-123902312D01*
X132687029Y-123902312D02*
X132782267Y-123949931D01*
X132782267Y-123949931D02*
X132877505Y-123949931D01*
X132877505Y-123949931D02*
X132972743Y-123902312D01*
X132972743Y-123902312D02*
X133020362Y-123854692D01*
X133020362Y-123854692D02*
X133067981Y-123759454D01*
X133067981Y-123759454D02*
X133115600Y-123568978D01*
X133115600Y-123568978D02*
X133115600Y-123330883D01*
X133115600Y-123330883D02*
X133067981Y-123140407D01*
X133067981Y-123140407D02*
X133020362Y-123045169D01*
X133020362Y-123045169D02*
X132972743Y-122997550D01*
X132972743Y-122997550D02*
X132877505Y-122949931D01*
X131687029Y-123283264D02*
X131687029Y-124283264D01*
X131687029Y-123902312D02*
X131782267Y-123949931D01*
X131782267Y-123949931D02*
X131972743Y-123949931D01*
X131972743Y-123949931D02*
X132067981Y-123902312D01*
X132067981Y-123902312D02*
X132115600Y-123854692D01*
X132115600Y-123854692D02*
X132163219Y-123759454D01*
X132163219Y-123759454D02*
X132163219Y-123473740D01*
X132163219Y-123473740D02*
X132115600Y-123378502D01*
X132115600Y-123378502D02*
X132067981Y-123330883D01*
X132067981Y-123330883D02*
X131972743Y-123283264D01*
X131972743Y-123283264D02*
X131782267Y-123283264D01*
X131782267Y-123283264D02*
X131687029Y-123330883D01*
X130496553Y-122902312D02*
X131353695Y-124188026D01*
X130258457Y-123949931D02*
X129734648Y-123283264D01*
X130258457Y-123283264D02*
X129734648Y-123949931D01*
X128734647Y-122949931D02*
X128163219Y-122949931D01*
X128448933Y-123949931D02*
X128448933Y-122949931D01*
X127829885Y-123949931D02*
X127829885Y-123283264D01*
X127829885Y-122949931D02*
X127877504Y-122997550D01*
X127877504Y-122997550D02*
X127829885Y-123045169D01*
X127829885Y-123045169D02*
X127782266Y-122997550D01*
X127782266Y-122997550D02*
X127829885Y-122949931D01*
X127829885Y-122949931D02*
X127829885Y-123045169D01*
X127353695Y-123283264D02*
X127353695Y-123949931D01*
X127353695Y-123378502D02*
X127306076Y-123330883D01*
X127306076Y-123330883D02*
X127210838Y-123283264D01*
X127210838Y-123283264D02*
X127067981Y-123283264D01*
X127067981Y-123283264D02*
X126972743Y-123330883D01*
X126972743Y-123330883D02*
X126925124Y-123426121D01*
X126925124Y-123426121D02*
X126925124Y-123949931D01*
X126544171Y-123283264D02*
X126306076Y-123949931D01*
X126067981Y-123283264D02*
X126306076Y-123949931D01*
X126306076Y-123949931D02*
X126401314Y-124188026D01*
X126401314Y-124188026D02*
X126448933Y-124235645D01*
X126448933Y-124235645D02*
X126544171Y-124283264D01*
X147687030Y-125559875D02*
X148163220Y-125559875D01*
X148163220Y-125559875D02*
X148163220Y-124559875D01*
X146972744Y-125512256D02*
X147067982Y-125559875D01*
X147067982Y-125559875D02*
X147258458Y-125559875D01*
X147258458Y-125559875D02*
X147353696Y-125512256D01*
X147353696Y-125512256D02*
X147401315Y-125417017D01*
X147401315Y-125417017D02*
X147401315Y-125036065D01*
X147401315Y-125036065D02*
X147353696Y-124940827D01*
X147353696Y-124940827D02*
X147258458Y-124893208D01*
X147258458Y-124893208D02*
X147067982Y-124893208D01*
X147067982Y-124893208D02*
X146972744Y-124940827D01*
X146972744Y-124940827D02*
X146925125Y-125036065D01*
X146925125Y-125036065D02*
X146925125Y-125131303D01*
X146925125Y-125131303D02*
X147401315Y-125226541D01*
X146496553Y-124893208D02*
X146496553Y-125559875D01*
X146496553Y-124988446D02*
X146448934Y-124940827D01*
X146448934Y-124940827D02*
X146353696Y-124893208D01*
X146353696Y-124893208D02*
X146210839Y-124893208D01*
X146210839Y-124893208D02*
X146115601Y-124940827D01*
X146115601Y-124940827D02*
X146067982Y-125036065D01*
X146067982Y-125036065D02*
X146067982Y-125559875D01*
X145448934Y-125559875D02*
X145544172Y-125512256D01*
X145544172Y-125512256D02*
X145591791Y-125464636D01*
X145591791Y-125464636D02*
X145639410Y-125369398D01*
X145639410Y-125369398D02*
X145639410Y-125083684D01*
X145639410Y-125083684D02*
X145591791Y-124988446D01*
X145591791Y-124988446D02*
X145544172Y-124940827D01*
X145544172Y-124940827D02*
X145448934Y-124893208D01*
X145448934Y-124893208D02*
X145306077Y-124893208D01*
X145306077Y-124893208D02*
X145210839Y-124940827D01*
X145210839Y-124940827D02*
X145163220Y-124988446D01*
X145163220Y-124988446D02*
X145115601Y-125083684D01*
X145115601Y-125083684D02*
X145115601Y-125369398D01*
X145115601Y-125369398D02*
X145163220Y-125464636D01*
X145163220Y-125464636D02*
X145210839Y-125512256D01*
X145210839Y-125512256D02*
X145306077Y-125559875D01*
X145306077Y-125559875D02*
X145448934Y-125559875D01*
X144782267Y-124893208D02*
X144544172Y-125559875D01*
X144544172Y-125559875D02*
X144306077Y-124893208D01*
X143782267Y-125559875D02*
X143877505Y-125512256D01*
X143877505Y-125512256D02*
X143925124Y-125464636D01*
X143925124Y-125464636D02*
X143972743Y-125369398D01*
X143972743Y-125369398D02*
X143972743Y-125083684D01*
X143972743Y-125083684D02*
X143925124Y-124988446D01*
X143925124Y-124988446D02*
X143877505Y-124940827D01*
X143877505Y-124940827D02*
X143782267Y-124893208D01*
X143782267Y-124893208D02*
X143639410Y-124893208D01*
X143639410Y-124893208D02*
X143544172Y-124940827D01*
X143544172Y-124940827D02*
X143496553Y-124988446D01*
X143496553Y-124988446D02*
X143448934Y-125083684D01*
X143448934Y-125083684D02*
X143448934Y-125369398D01*
X143448934Y-125369398D02*
X143496553Y-125464636D01*
X143496553Y-125464636D02*
X143544172Y-125512256D01*
X143544172Y-125512256D02*
X143639410Y-125559875D01*
X143639410Y-125559875D02*
X143782267Y-125559875D01*
X142258457Y-125559875D02*
X142258457Y-124559875D01*
X142258457Y-124559875D02*
X141877505Y-124559875D01*
X141877505Y-124559875D02*
X141782267Y-124607494D01*
X141782267Y-124607494D02*
X141734648Y-124655113D01*
X141734648Y-124655113D02*
X141687029Y-124750351D01*
X141687029Y-124750351D02*
X141687029Y-124893208D01*
X141687029Y-124893208D02*
X141734648Y-124988446D01*
X141734648Y-124988446D02*
X141782267Y-125036065D01*
X141782267Y-125036065D02*
X141877505Y-125083684D01*
X141877505Y-125083684D02*
X142258457Y-125083684D01*
X141353695Y-124559875D02*
X140734648Y-124559875D01*
X140734648Y-124559875D02*
X141067981Y-124940827D01*
X141067981Y-124940827D02*
X140925124Y-124940827D01*
X140925124Y-124940827D02*
X140829886Y-124988446D01*
X140829886Y-124988446D02*
X140782267Y-125036065D01*
X140782267Y-125036065D02*
X140734648Y-125131303D01*
X140734648Y-125131303D02*
X140734648Y-125369398D01*
X140734648Y-125369398D02*
X140782267Y-125464636D01*
X140782267Y-125464636D02*
X140829886Y-125512256D01*
X140829886Y-125512256D02*
X140925124Y-125559875D01*
X140925124Y-125559875D02*
X141210838Y-125559875D01*
X141210838Y-125559875D02*
X141306076Y-125512256D01*
X141306076Y-125512256D02*
X141353695Y-125464636D01*
X140401314Y-124559875D02*
X139782267Y-124559875D01*
X139782267Y-124559875D02*
X140115600Y-124940827D01*
X140115600Y-124940827D02*
X139972743Y-124940827D01*
X139972743Y-124940827D02*
X139877505Y-124988446D01*
X139877505Y-124988446D02*
X139829886Y-125036065D01*
X139829886Y-125036065D02*
X139782267Y-125131303D01*
X139782267Y-125131303D02*
X139782267Y-125369398D01*
X139782267Y-125369398D02*
X139829886Y-125464636D01*
X139829886Y-125464636D02*
X139877505Y-125512256D01*
X139877505Y-125512256D02*
X139972743Y-125559875D01*
X139972743Y-125559875D02*
X140258457Y-125559875D01*
X140258457Y-125559875D02*
X140353695Y-125512256D01*
X140353695Y-125512256D02*
X140401314Y-125464636D01*
X139163219Y-124559875D02*
X139067981Y-124559875D01*
X139067981Y-124559875D02*
X138972743Y-124607494D01*
X138972743Y-124607494D02*
X138925124Y-124655113D01*
X138925124Y-124655113D02*
X138877505Y-124750351D01*
X138877505Y-124750351D02*
X138829886Y-124940827D01*
X138829886Y-124940827D02*
X138829886Y-125178922D01*
X138829886Y-125178922D02*
X138877505Y-125369398D01*
X138877505Y-125369398D02*
X138925124Y-125464636D01*
X138925124Y-125464636D02*
X138972743Y-125512256D01*
X138972743Y-125512256D02*
X139067981Y-125559875D01*
X139067981Y-125559875D02*
X139163219Y-125559875D01*
X139163219Y-125559875D02*
X139258457Y-125512256D01*
X139258457Y-125512256D02*
X139306076Y-125464636D01*
X139306076Y-125464636D02*
X139353695Y-125369398D01*
X139353695Y-125369398D02*
X139401314Y-125178922D01*
X139401314Y-125178922D02*
X139401314Y-124940827D01*
X139401314Y-124940827D02*
X139353695Y-124750351D01*
X139353695Y-124750351D02*
X139306076Y-124655113D01*
X139306076Y-124655113D02*
X139258457Y-124607494D01*
X139258457Y-124607494D02*
X139163219Y-124559875D01*
X137782266Y-124559875D02*
X137210838Y-124559875D01*
X137496552Y-125559875D02*
X137496552Y-124559875D01*
X136877504Y-125559875D02*
X136877504Y-124893208D01*
X136877504Y-124559875D02*
X136925123Y-124607494D01*
X136925123Y-124607494D02*
X136877504Y-124655113D01*
X136877504Y-124655113D02*
X136829885Y-124607494D01*
X136829885Y-124607494D02*
X136877504Y-124559875D01*
X136877504Y-124559875D02*
X136877504Y-124655113D01*
X136401314Y-124893208D02*
X136401314Y-125559875D01*
X136401314Y-124988446D02*
X136353695Y-124940827D01*
X136353695Y-124940827D02*
X136258457Y-124893208D01*
X136258457Y-124893208D02*
X136115600Y-124893208D01*
X136115600Y-124893208D02*
X136020362Y-124940827D01*
X136020362Y-124940827D02*
X135972743Y-125036065D01*
X135972743Y-125036065D02*
X135972743Y-125559875D01*
X135591790Y-124893208D02*
X135353695Y-125559875D01*
X135115600Y-124893208D02*
X135353695Y-125559875D01*
X135353695Y-125559875D02*
X135448933Y-125797970D01*
X135448933Y-125797970D02*
X135496552Y-125845589D01*
X135496552Y-125845589D02*
X135591790Y-125893208D01*
X148163220Y-127169819D02*
X148163220Y-126169819D01*
X148163220Y-126169819D02*
X147591792Y-127169819D01*
X147591792Y-127169819D02*
X147591792Y-126169819D01*
X147115601Y-126646009D02*
X146782268Y-126646009D01*
X146639411Y-127169819D02*
X147115601Y-127169819D01*
X147115601Y-127169819D02*
X147115601Y-126169819D01*
X147115601Y-126169819D02*
X146639411Y-126169819D01*
X145639411Y-127074580D02*
X145687030Y-127122200D01*
X145687030Y-127122200D02*
X145829887Y-127169819D01*
X145829887Y-127169819D02*
X145925125Y-127169819D01*
X145925125Y-127169819D02*
X146067982Y-127122200D01*
X146067982Y-127122200D02*
X146163220Y-127026961D01*
X146163220Y-127026961D02*
X146210839Y-126931723D01*
X146210839Y-126931723D02*
X146258458Y-126741247D01*
X146258458Y-126741247D02*
X146258458Y-126598390D01*
X146258458Y-126598390D02*
X146210839Y-126407914D01*
X146210839Y-126407914D02*
X146163220Y-126312676D01*
X146163220Y-126312676D02*
X146067982Y-126217438D01*
X146067982Y-126217438D02*
X145925125Y-126169819D01*
X145925125Y-126169819D02*
X145829887Y-126169819D01*
X145829887Y-126169819D02*
X145687030Y-126217438D01*
X145687030Y-126217438D02*
X145639411Y-126265057D01*
X144448934Y-127169819D02*
X144448934Y-126169819D01*
X144448934Y-126169819D02*
X144115601Y-126884104D01*
X144115601Y-126884104D02*
X143782268Y-126169819D01*
X143782268Y-126169819D02*
X143782268Y-127169819D01*
X142877506Y-127169819D02*
X142877506Y-126646009D01*
X142877506Y-126646009D02*
X142925125Y-126550771D01*
X142925125Y-126550771D02*
X143020363Y-126503152D01*
X143020363Y-126503152D02*
X143210839Y-126503152D01*
X143210839Y-126503152D02*
X143306077Y-126550771D01*
X142877506Y-127122200D02*
X142972744Y-127169819D01*
X142972744Y-127169819D02*
X143210839Y-127169819D01*
X143210839Y-127169819D02*
X143306077Y-127122200D01*
X143306077Y-127122200D02*
X143353696Y-127026961D01*
X143353696Y-127026961D02*
X143353696Y-126931723D01*
X143353696Y-126931723D02*
X143306077Y-126836485D01*
X143306077Y-126836485D02*
X143210839Y-126788866D01*
X143210839Y-126788866D02*
X142972744Y-126788866D01*
X142972744Y-126788866D02*
X142877506Y-126741247D01*
X142544172Y-126503152D02*
X142163220Y-126503152D01*
X142401315Y-126169819D02*
X142401315Y-127026961D01*
X142401315Y-127026961D02*
X142353696Y-127122200D01*
X142353696Y-127122200D02*
X142258458Y-127169819D01*
X142258458Y-127169819D02*
X142163220Y-127169819D01*
X141448934Y-127122200D02*
X141544172Y-127169819D01*
X141544172Y-127169819D02*
X141734648Y-127169819D01*
X141734648Y-127169819D02*
X141829886Y-127122200D01*
X141829886Y-127122200D02*
X141877505Y-127026961D01*
X141877505Y-127026961D02*
X141877505Y-126646009D01*
X141877505Y-126646009D02*
X141829886Y-126550771D01*
X141829886Y-126550771D02*
X141734648Y-126503152D01*
X141734648Y-126503152D02*
X141544172Y-126503152D01*
X141544172Y-126503152D02*
X141448934Y-126550771D01*
X141448934Y-126550771D02*
X141401315Y-126646009D01*
X141401315Y-126646009D02*
X141401315Y-126741247D01*
X141401315Y-126741247D02*
X141877505Y-126836485D01*
X140210838Y-127169819D02*
X140210838Y-126169819D01*
X140210838Y-126169819D02*
X139877505Y-126884104D01*
X139877505Y-126884104D02*
X139544172Y-126169819D01*
X139544172Y-126169819D02*
X139544172Y-127169819D01*
X138496553Y-127074580D02*
X138544172Y-127122200D01*
X138544172Y-127122200D02*
X138687029Y-127169819D01*
X138687029Y-127169819D02*
X138782267Y-127169819D01*
X138782267Y-127169819D02*
X138925124Y-127122200D01*
X138925124Y-127122200D02*
X139020362Y-127026961D01*
X139020362Y-127026961D02*
X139067981Y-126931723D01*
X139067981Y-126931723D02*
X139115600Y-126741247D01*
X139115600Y-126741247D02*
X139115600Y-126598390D01*
X139115600Y-126598390D02*
X139067981Y-126407914D01*
X139067981Y-126407914D02*
X139020362Y-126312676D01*
X139020362Y-126312676D02*
X138925124Y-126217438D01*
X138925124Y-126217438D02*
X138782267Y-126169819D01*
X138782267Y-126169819D02*
X138687029Y-126169819D01*
X138687029Y-126169819D02*
X138544172Y-126217438D01*
X138544172Y-126217438D02*
X138496553Y-126265057D01*
X138067981Y-126788866D02*
X137306077Y-126788866D01*
X136925124Y-126169819D02*
X136306077Y-126169819D01*
X136306077Y-126169819D02*
X136639410Y-126550771D01*
X136639410Y-126550771D02*
X136496553Y-126550771D01*
X136496553Y-126550771D02*
X136401315Y-126598390D01*
X136401315Y-126598390D02*
X136353696Y-126646009D01*
X136353696Y-126646009D02*
X136306077Y-126741247D01*
X136306077Y-126741247D02*
X136306077Y-126979342D01*
X136306077Y-126979342D02*
X136353696Y-127074580D01*
X136353696Y-127074580D02*
X136401315Y-127122200D01*
X136401315Y-127122200D02*
X136496553Y-127169819D01*
X136496553Y-127169819D02*
X136782267Y-127169819D01*
X136782267Y-127169819D02*
X136877505Y-127122200D01*
X136877505Y-127122200D02*
X136925124Y-127074580D01*
X135829886Y-127122200D02*
X135829886Y-127169819D01*
X135829886Y-127169819D02*
X135877505Y-127265057D01*
X135877505Y-127265057D02*
X135925124Y-127312676D01*
X134639410Y-127169819D02*
X134639410Y-126169819D01*
X134639410Y-126169819D02*
X134306077Y-126884104D01*
X134306077Y-126884104D02*
X133972744Y-126169819D01*
X133972744Y-126169819D02*
X133972744Y-127169819D01*
X132925125Y-127074580D02*
X132972744Y-127122200D01*
X132972744Y-127122200D02*
X133115601Y-127169819D01*
X133115601Y-127169819D02*
X133210839Y-127169819D01*
X133210839Y-127169819D02*
X133353696Y-127122200D01*
X133353696Y-127122200D02*
X133448934Y-127026961D01*
X133448934Y-127026961D02*
X133496553Y-126931723D01*
X133496553Y-126931723D02*
X133544172Y-126741247D01*
X133544172Y-126741247D02*
X133544172Y-126598390D01*
X133544172Y-126598390D02*
X133496553Y-126407914D01*
X133496553Y-126407914D02*
X133448934Y-126312676D01*
X133448934Y-126312676D02*
X133353696Y-126217438D01*
X133353696Y-126217438D02*
X133210839Y-126169819D01*
X133210839Y-126169819D02*
X133115601Y-126169819D01*
X133115601Y-126169819D02*
X132972744Y-126217438D01*
X132972744Y-126217438D02*
X132925125Y-126265057D01*
X132496553Y-126788866D02*
X131734649Y-126788866D01*
X130829887Y-126503152D02*
X130829887Y-127169819D01*
X131067982Y-126122200D02*
X131306077Y-126836485D01*
X131306077Y-126836485D02*
X130687030Y-126836485D01*
X130258458Y-127122200D02*
X130258458Y-127169819D01*
X130258458Y-127169819D02*
X130306077Y-127265057D01*
X130306077Y-127265057D02*
X130353696Y-127312676D01*
X129067982Y-127169819D02*
X129067982Y-126169819D01*
X129067982Y-126169819D02*
X128734649Y-126884104D01*
X128734649Y-126884104D02*
X128401316Y-126169819D01*
X128401316Y-126169819D02*
X128401316Y-127169819D01*
X127353697Y-127074580D02*
X127401316Y-127122200D01*
X127401316Y-127122200D02*
X127544173Y-127169819D01*
X127544173Y-127169819D02*
X127639411Y-127169819D01*
X127639411Y-127169819D02*
X127782268Y-127122200D01*
X127782268Y-127122200D02*
X127877506Y-127026961D01*
X127877506Y-127026961D02*
X127925125Y-126931723D01*
X127925125Y-126931723D02*
X127972744Y-126741247D01*
X127972744Y-126741247D02*
X127972744Y-126598390D01*
X127972744Y-126598390D02*
X127925125Y-126407914D01*
X127925125Y-126407914D02*
X127877506Y-126312676D01*
X127877506Y-126312676D02*
X127782268Y-126217438D01*
X127782268Y-126217438D02*
X127639411Y-126169819D01*
X127639411Y-126169819D02*
X127544173Y-126169819D01*
X127544173Y-126169819D02*
X127401316Y-126217438D01*
X127401316Y-126217438D02*
X127353697Y-126265057D01*
X126925125Y-126788866D02*
X126163221Y-126788866D01*
X125210840Y-126169819D02*
X125687030Y-126169819D01*
X125687030Y-126169819D02*
X125734649Y-126646009D01*
X125734649Y-126646009D02*
X125687030Y-126598390D01*
X125687030Y-126598390D02*
X125591792Y-126550771D01*
X125591792Y-126550771D02*
X125353697Y-126550771D01*
X125353697Y-126550771D02*
X125258459Y-126598390D01*
X125258459Y-126598390D02*
X125210840Y-126646009D01*
X125210840Y-126646009D02*
X125163221Y-126741247D01*
X125163221Y-126741247D02*
X125163221Y-126979342D01*
X125163221Y-126979342D02*
X125210840Y-127074580D01*
X125210840Y-127074580D02*
X125258459Y-127122200D01*
X125258459Y-127122200D02*
X125353697Y-127169819D01*
X125353697Y-127169819D02*
X125591792Y-127169819D01*
X125591792Y-127169819D02*
X125687030Y-127122200D01*
X125687030Y-127122200D02*
X125734649Y-127074580D01*
D10*
X127890476Y-128896375D02*
X127471428Y-128363041D01*
X127890476Y-128363041D02*
X127471428Y-128896375D01*
X126747619Y-128896375D02*
X127204762Y-128896375D01*
X126976190Y-128896375D02*
X126976190Y-128096375D01*
X126976190Y-128096375D02*
X127052381Y-128210660D01*
X127052381Y-128210660D02*
X127128571Y-128286851D01*
X127128571Y-128286851D02*
X127204762Y-128324946D01*
X98690476Y-128796375D02*
X98271428Y-128263041D01*
X98690476Y-128263041D02*
X98271428Y-128796375D01*
X97852381Y-128339232D02*
X97928571Y-128301137D01*
X97928571Y-128301137D02*
X97966666Y-128263041D01*
X97966666Y-128263041D02*
X98004762Y-128186851D01*
X98004762Y-128186851D02*
X98004762Y-128148756D01*
X98004762Y-128148756D02*
X97966666Y-128072565D01*
X97966666Y-128072565D02*
X97928571Y-128034470D01*
X97928571Y-128034470D02*
X97852381Y-127996375D01*
X97852381Y-127996375D02*
X97700000Y-127996375D01*
X97700000Y-127996375D02*
X97623809Y-128034470D01*
X97623809Y-128034470D02*
X97585714Y-128072565D01*
X97585714Y-128072565D02*
X97547619Y-128148756D01*
X97547619Y-128148756D02*
X97547619Y-128186851D01*
X97547619Y-128186851D02*
X97585714Y-128263041D01*
X97585714Y-128263041D02*
X97623809Y-128301137D01*
X97623809Y-128301137D02*
X97700000Y-128339232D01*
X97700000Y-128339232D02*
X97852381Y-128339232D01*
X97852381Y-128339232D02*
X97928571Y-128377327D01*
X97928571Y-128377327D02*
X97966666Y-128415422D01*
X97966666Y-128415422D02*
X98004762Y-128491613D01*
X98004762Y-128491613D02*
X98004762Y-128643994D01*
X98004762Y-128643994D02*
X97966666Y-128720184D01*
X97966666Y-128720184D02*
X97928571Y-128758280D01*
X97928571Y-128758280D02*
X97852381Y-128796375D01*
X97852381Y-128796375D02*
X97700000Y-128796375D01*
X97700000Y-128796375D02*
X97623809Y-128758280D01*
X97623809Y-128758280D02*
X97585714Y-128720184D01*
X97585714Y-128720184D02*
X97547619Y-128643994D01*
X97547619Y-128643994D02*
X97547619Y-128491613D01*
X97547619Y-128491613D02*
X97585714Y-128415422D01*
X97585714Y-128415422D02*
X97623809Y-128377327D01*
X97623809Y-128377327D02*
X97700000Y-128339232D01*
D11*
X129779166Y-130484819D02*
X130112499Y-130008628D01*
X130350594Y-130484819D02*
X130350594Y-129484819D01*
X130350594Y-129484819D02*
X129969642Y-129484819D01*
X129969642Y-129484819D02*
X129874404Y-129532438D01*
X129874404Y-129532438D02*
X129826785Y-129580057D01*
X129826785Y-129580057D02*
X129779166Y-129675295D01*
X129779166Y-129675295D02*
X129779166Y-129818152D01*
X129779166Y-129818152D02*
X129826785Y-129913390D01*
X129826785Y-129913390D02*
X129874404Y-129961009D01*
X129874404Y-129961009D02*
X129969642Y-130008628D01*
X129969642Y-130008628D02*
X130350594Y-130008628D01*
X129207737Y-129913390D02*
X129302975Y-129865771D01*
X129302975Y-129865771D02*
X129350594Y-129818152D01*
X129350594Y-129818152D02*
X129398213Y-129722914D01*
X129398213Y-129722914D02*
X129398213Y-129675295D01*
X129398213Y-129675295D02*
X129350594Y-129580057D01*
X129350594Y-129580057D02*
X129302975Y-129532438D01*
X129302975Y-129532438D02*
X129207737Y-129484819D01*
X129207737Y-129484819D02*
X129017261Y-129484819D01*
X129017261Y-129484819D02*
X128922023Y-129532438D01*
X128922023Y-129532438D02*
X128874404Y-129580057D01*
X128874404Y-129580057D02*
X128826785Y-129675295D01*
X128826785Y-129675295D02*
X128826785Y-129722914D01*
X128826785Y-129722914D02*
X128874404Y-129818152D01*
X128874404Y-129818152D02*
X128922023Y-129865771D01*
X128922023Y-129865771D02*
X129017261Y-129913390D01*
X129017261Y-129913390D02*
X129207737Y-129913390D01*
X129207737Y-129913390D02*
X129302975Y-129961009D01*
X129302975Y-129961009D02*
X129350594Y-130008628D01*
X129350594Y-130008628D02*
X129398213Y-130103866D01*
X129398213Y-130103866D02*
X129398213Y-130294342D01*
X129398213Y-130294342D02*
X129350594Y-130389580D01*
X129350594Y-130389580D02*
X129302975Y-130437200D01*
X129302975Y-130437200D02*
X129207737Y-130484819D01*
X129207737Y-130484819D02*
X129017261Y-130484819D01*
X129017261Y-130484819D02*
X128922023Y-130437200D01*
X128922023Y-130437200D02*
X128874404Y-130389580D01*
X128874404Y-130389580D02*
X128826785Y-130294342D01*
X128826785Y-130294342D02*
X128826785Y-130103866D01*
X128826785Y-130103866D02*
X128874404Y-130008628D01*
X128874404Y-130008628D02*
X128922023Y-129961009D01*
X128922023Y-129961009D02*
X129017261Y-129913390D01*
X80861904Y-134954819D02*
X80290476Y-134954819D01*
X80576190Y-135954819D02*
X80576190Y-134954819D01*
X79957142Y-135954819D02*
X79957142Y-134954819D01*
X79957142Y-134954819D02*
X79576190Y-134954819D01*
X79576190Y-134954819D02*
X79480952Y-135002438D01*
X79480952Y-135002438D02*
X79433333Y-135050057D01*
X79433333Y-135050057D02*
X79385714Y-135145295D01*
X79385714Y-135145295D02*
X79385714Y-135288152D01*
X79385714Y-135288152D02*
X79433333Y-135383390D01*
X79433333Y-135383390D02*
X79480952Y-135431009D01*
X79480952Y-135431009D02*
X79576190Y-135478628D01*
X79576190Y-135478628D02*
X79957142Y-135478628D01*
X79004761Y-135050057D02*
X78957142Y-135002438D01*
X78957142Y-135002438D02*
X78861904Y-134954819D01*
X78861904Y-134954819D02*
X78623809Y-134954819D01*
X78623809Y-134954819D02*
X78528571Y-135002438D01*
X78528571Y-135002438D02*
X78480952Y-135050057D01*
X78480952Y-135050057D02*
X78433333Y-135145295D01*
X78433333Y-135145295D02*
X78433333Y-135240533D01*
X78433333Y-135240533D02*
X78480952Y-135383390D01*
X78480952Y-135383390D02*
X79052380Y-135954819D01*
X79052380Y-135954819D02*
X78433333Y-135954819D01*
X115654166Y-130484819D02*
X115987499Y-130008628D01*
X116225594Y-130484819D02*
X116225594Y-129484819D01*
X116225594Y-129484819D02*
X115844642Y-129484819D01*
X115844642Y-129484819D02*
X115749404Y-129532438D01*
X115749404Y-129532438D02*
X115701785Y-129580057D01*
X115701785Y-129580057D02*
X115654166Y-129675295D01*
X115654166Y-129675295D02*
X115654166Y-129818152D01*
X115654166Y-129818152D02*
X115701785Y-129913390D01*
X115701785Y-129913390D02*
X115749404Y-129961009D01*
X115749404Y-129961009D02*
X115844642Y-130008628D01*
X115844642Y-130008628D02*
X116225594Y-130008628D01*
X115320832Y-129484819D02*
X114654166Y-129484819D01*
X114654166Y-129484819D02*
X115082737Y-130484819D01*
X84161904Y-135006819D02*
X83590476Y-135006819D01*
X83876190Y-136006819D02*
X83876190Y-135006819D01*
X83257142Y-136006819D02*
X83257142Y-135006819D01*
X83257142Y-135006819D02*
X82876190Y-135006819D01*
X82876190Y-135006819D02*
X82780952Y-135054438D01*
X82780952Y-135054438D02*
X82733333Y-135102057D01*
X82733333Y-135102057D02*
X82685714Y-135197295D01*
X82685714Y-135197295D02*
X82685714Y-135340152D01*
X82685714Y-135340152D02*
X82733333Y-135435390D01*
X82733333Y-135435390D02*
X82780952Y-135483009D01*
X82780952Y-135483009D02*
X82876190Y-135530628D01*
X82876190Y-135530628D02*
X83257142Y-135530628D01*
X82352380Y-135006819D02*
X81733333Y-135006819D01*
X81733333Y-135006819D02*
X82066666Y-135387771D01*
X82066666Y-135387771D02*
X81923809Y-135387771D01*
X81923809Y-135387771D02*
X81828571Y-135435390D01*
X81828571Y-135435390D02*
X81780952Y-135483009D01*
X81780952Y-135483009D02*
X81733333Y-135578247D01*
X81733333Y-135578247D02*
X81733333Y-135816342D01*
X81733333Y-135816342D02*
X81780952Y-135911580D01*
X81780952Y-135911580D02*
X81828571Y-135959200D01*
X81828571Y-135959200D02*
X81923809Y-136006819D01*
X81923809Y-136006819D02*
X82209523Y-136006819D01*
X82209523Y-136006819D02*
X82304761Y-135959200D01*
X82304761Y-135959200D02*
X82352380Y-135911580D01*
X100676666Y-130434819D02*
X101009999Y-129958628D01*
X101248094Y-130434819D02*
X101248094Y-129434819D01*
X101248094Y-129434819D02*
X100867142Y-129434819D01*
X100867142Y-129434819D02*
X100771904Y-129482438D01*
X100771904Y-129482438D02*
X100724285Y-129530057D01*
X100724285Y-129530057D02*
X100676666Y-129625295D01*
X100676666Y-129625295D02*
X100676666Y-129768152D01*
X100676666Y-129768152D02*
X100724285Y-129863390D01*
X100724285Y-129863390D02*
X100771904Y-129911009D01*
X100771904Y-129911009D02*
X100867142Y-129958628D01*
X100867142Y-129958628D02*
X101248094Y-129958628D01*
X100295713Y-129530057D02*
X100248094Y-129482438D01*
X100248094Y-129482438D02*
X100152856Y-129434819D01*
X100152856Y-129434819D02*
X99914761Y-129434819D01*
X99914761Y-129434819D02*
X99819523Y-129482438D01*
X99819523Y-129482438D02*
X99771904Y-129530057D01*
X99771904Y-129530057D02*
X99724285Y-129625295D01*
X99724285Y-129625295D02*
X99724285Y-129720533D01*
X99724285Y-129720533D02*
X99771904Y-129863390D01*
X99771904Y-129863390D02*
X100343332Y-130434819D01*
X100343332Y-130434819D02*
X99724285Y-130434819D01*
X151761904Y-128806819D02*
X151190476Y-128806819D01*
X151476190Y-129806819D02*
X151476190Y-128806819D01*
X150857142Y-129806819D02*
X150857142Y-128806819D01*
X150857142Y-128806819D02*
X150476190Y-128806819D01*
X150476190Y-128806819D02*
X150380952Y-128854438D01*
X150380952Y-128854438D02*
X150333333Y-128902057D01*
X150333333Y-128902057D02*
X150285714Y-128997295D01*
X150285714Y-128997295D02*
X150285714Y-129140152D01*
X150285714Y-129140152D02*
X150333333Y-129235390D01*
X150333333Y-129235390D02*
X150380952Y-129283009D01*
X150380952Y-129283009D02*
X150476190Y-129330628D01*
X150476190Y-129330628D02*
X150857142Y-129330628D01*
X149333333Y-129806819D02*
X149904761Y-129806819D01*
X149619047Y-129806819D02*
X149619047Y-128806819D01*
X149619047Y-128806819D02*
X149714285Y-128949676D01*
X149714285Y-128949676D02*
X149809523Y-129044914D01*
X149809523Y-129044914D02*
X149904761Y-129092533D01*
D12*
%TO.C,R8*%
X129867224Y-128077500D02*
X129357776Y-128077500D01*
X129867224Y-129122500D02*
X129357776Y-129122500D01*
%TO.C,TP2*%
X81100000Y-137000000D02*
G75*
G02*
X79700000Y-137000000I-700000J0D01*
G01*
X79700000Y-137000000D02*
G75*
G02*
X81100000Y-137000000I700000J0D01*
G01*
%TO.C,R7*%
X115742224Y-128077500D02*
X115232776Y-128077500D01*
X115742224Y-129122500D02*
X115232776Y-129122500D01*
%TO.C,TP3*%
X83600000Y-137000000D02*
G75*
G02*
X82200000Y-137000000I-700000J0D01*
G01*
X82200000Y-137000000D02*
G75*
G02*
X83600000Y-137000000I700000J0D01*
G01*
D13*
%TO.C,G\u002A\u002A\u002A*%
G36*
X72186759Y-129979695D02*
G01*
X72180138Y-130710226D01*
X70612930Y-130716658D01*
X69045723Y-130723089D01*
X69045723Y-129986127D01*
X69045723Y-129249164D01*
X70619551Y-129249164D01*
X72193379Y-129249164D01*
X72186759Y-129979695D01*
G37*
G36*
X72192625Y-126751622D02*
G01*
X72192625Y-127475909D01*
X70631662Y-127475909D01*
X69070698Y-127475909D01*
X69070698Y-126751622D01*
X69070698Y-126027335D01*
X70631662Y-126027335D01*
X72192625Y-126027335D01*
X72192625Y-126751622D01*
G37*
G36*
X69770010Y-124135146D02*
G01*
X69770010Y-124871243D01*
X69601426Y-124887165D01*
X69569020Y-124889731D01*
X69465974Y-124895024D01*
X69332712Y-124899301D01*
X69182915Y-124902176D01*
X69030263Y-124903264D01*
X69013057Y-124903289D01*
X68761157Y-124908756D01*
X68540868Y-124925423D01*
X68335640Y-124955690D01*
X68128925Y-125001959D01*
X67904173Y-125066629D01*
X67799375Y-125101794D01*
X67597890Y-125180505D01*
X67391039Y-125273510D01*
X67192279Y-125374211D01*
X67015067Y-125476010D01*
X66872861Y-125572308D01*
X66869490Y-125574881D01*
X66762385Y-125664334D01*
X66634571Y-125782695D01*
X66495740Y-125919880D01*
X66355589Y-126065803D01*
X66223812Y-126210379D01*
X66110104Y-126343524D01*
X66024160Y-126455152D01*
X65893161Y-126659289D01*
X65731631Y-126973638D01*
X65602086Y-127306596D01*
X65511339Y-127642389D01*
X65506872Y-127664579D01*
X65474558Y-127891404D01*
X65457677Y-128150887D01*
X65455994Y-128429717D01*
X65469273Y-128714580D01*
X65497279Y-128992167D01*
X65539776Y-129249164D01*
X65544823Y-129272976D01*
X65619693Y-129535150D01*
X65730313Y-129811013D01*
X65870755Y-130088725D01*
X66035088Y-130356444D01*
X66217384Y-130602331D01*
X66268949Y-130663841D01*
X66559277Y-130964676D01*
X66880485Y-131227433D01*
X67229274Y-131450216D01*
X67602341Y-131631132D01*
X67996385Y-131768284D01*
X68408105Y-131859779D01*
X68418127Y-131861351D01*
X68535028Y-131875026D01*
X68682141Y-131886205D01*
X68841659Y-131893771D01*
X68995772Y-131896608D01*
X69015501Y-131896644D01*
X69168484Y-131898229D01*
X69322137Y-131901789D01*
X69459588Y-131906840D01*
X69563963Y-131912898D01*
X69770010Y-131928937D01*
X69770010Y-132662010D01*
X69770010Y-133395083D01*
X69536620Y-133395083D01*
X69506958Y-133395010D01*
X69232070Y-133388358D01*
X68938703Y-133371787D01*
X68638252Y-133346538D01*
X68342112Y-133313852D01*
X68061678Y-133274970D01*
X67808343Y-133231130D01*
X67593504Y-133183574D01*
X67244261Y-133078015D01*
X66819485Y-132904588D01*
X66410303Y-132687814D01*
X66020716Y-132430964D01*
X65654726Y-132137309D01*
X65316334Y-131810121D01*
X65009542Y-131452671D01*
X64738351Y-131068231D01*
X64506763Y-130660072D01*
X64433798Y-130504500D01*
X64345651Y-130293945D01*
X64259436Y-130066515D01*
X64181618Y-129839372D01*
X64118662Y-129629680D01*
X64035027Y-129323717D01*
X63961663Y-129478642D01*
X63788881Y-129792362D01*
X63575305Y-130083704D01*
X63328113Y-130339220D01*
X63048942Y-130557225D01*
X62739430Y-130736035D01*
X62624730Y-130791304D01*
X62452665Y-130868733D01*
X62303774Y-130925744D01*
X62165584Y-130965667D01*
X62025618Y-130991837D01*
X61871403Y-131007584D01*
X61690462Y-131016242D01*
X61620573Y-131017886D01*
X61616610Y-131017979D01*
X61304194Y-131009845D01*
X61021638Y-130973482D01*
X60757975Y-130906259D01*
X60502241Y-130805542D01*
X60243472Y-130668696D01*
X60022448Y-130526381D01*
X59801330Y-130351332D01*
X59606948Y-130155586D01*
X59432980Y-129931834D01*
X59273105Y-129672769D01*
X59121002Y-129371083D01*
X59018537Y-129149262D01*
X58100468Y-129149262D01*
X57182399Y-129149262D01*
X57182399Y-128412488D01*
X60405868Y-128412488D01*
X60407432Y-128465179D01*
X60442396Y-128689001D01*
X60519574Y-128897865D01*
X60634173Y-129086246D01*
X60781397Y-129248620D01*
X60956452Y-129379461D01*
X61154544Y-129473244D01*
X61370877Y-129524446D01*
X61451107Y-129532035D01*
X61620573Y-129534401D01*
X61786555Y-129520668D01*
X61933991Y-129492463D01*
X62047817Y-129451411D01*
X62168634Y-129380142D01*
X62349157Y-129230283D01*
X62497056Y-129049091D01*
X62608026Y-128843566D01*
X62677764Y-128620706D01*
X62701967Y-128387512D01*
X62696872Y-128275598D01*
X62651590Y-128042576D01*
X62561736Y-127827515D01*
X62430096Y-127634930D01*
X62259457Y-127469337D01*
X62052606Y-127335252D01*
X62050563Y-127334187D01*
X61992837Y-127305514D01*
X61941755Y-127285881D01*
X61885999Y-127273581D01*
X61814252Y-127266909D01*
X61715193Y-127264157D01*
X61577504Y-127263618D01*
X61534237Y-127263632D01*
X61409661Y-127264439D01*
X61319651Y-127267959D01*
X61252217Y-127276198D01*
X61195374Y-127291160D01*
X61137134Y-127314851D01*
X61065508Y-127349277D01*
X61005287Y-127381152D01*
X60812053Y-127518412D01*
X60649215Y-127690872D01*
X60522649Y-127891379D01*
X60438229Y-128112783D01*
X60423424Y-128187048D01*
X60410455Y-128300348D01*
X60405868Y-128412488D01*
X57182399Y-128412488D01*
X57182399Y-128400000D01*
X57182399Y-127650737D01*
X58103097Y-127650737D01*
X59023794Y-127650737D01*
X59067573Y-127532104D01*
X59106468Y-127439330D01*
X59172918Y-127303053D01*
X59253952Y-127151723D01*
X59341776Y-126999280D01*
X59428598Y-126859660D01*
X59506625Y-126746802D01*
X59569711Y-126668494D01*
X59739807Y-126494010D01*
X59942886Y-126324287D01*
X60167621Y-126167552D01*
X60402689Y-126032030D01*
X60636765Y-125925946D01*
X60729872Y-125891176D01*
X60863993Y-125847183D01*
X60990789Y-125815745D01*
X61121675Y-125795262D01*
X61268063Y-125784135D01*
X61441366Y-125780765D01*
X61652999Y-125783552D01*
X61813162Y-125787570D01*
X61940769Y-125792372D01*
X62038913Y-125799133D01*
X62118039Y-125809199D01*
X62188590Y-125823911D01*
X62261011Y-125844613D01*
X62345745Y-125872648D01*
X62507081Y-125931114D01*
X62680688Y-126006232D01*
X62842696Y-126093294D01*
X63014159Y-126202694D01*
X63220793Y-126356865D01*
X63489316Y-126609452D01*
X63722447Y-126897160D01*
X63919660Y-127219400D01*
X64041319Y-127449912D01*
X64111720Y-127194425D01*
X64117909Y-127172131D01*
X64280474Y-126677149D01*
X64482321Y-126211048D01*
X64721759Y-125775335D01*
X64997094Y-125371519D01*
X65306634Y-125001108D01*
X65648689Y-124665612D01*
X66021565Y-124366538D01*
X66423570Y-124105396D01*
X66853012Y-123883694D01*
X67308200Y-123702940D01*
X67787440Y-123564643D01*
X68289041Y-123470312D01*
X68328890Y-123465292D01*
X68451879Y-123453433D01*
X68608392Y-123441836D01*
X68786956Y-123431217D01*
X68976101Y-123422289D01*
X69164356Y-123415768D01*
X69770010Y-123399049D01*
X69770010Y-124135146D01*
G37*
D12*
%TO.C,R2*%
X100132776Y-128077500D02*
X100642224Y-128077500D01*
X100132776Y-129122500D02*
X100642224Y-129122500D01*
%TO.C,TP1*%
X151200000Y-130800000D02*
G75*
G02*
X149800000Y-130800000I-700000J0D01*
G01*
X149800000Y-130800000D02*
G75*
G02*
X151200000Y-130800000I700000J0D01*
G01*
%TD*%
M02*
