%TF.GenerationSoftware,KiCad,Pcbnew,8.0.7*%
%TF.CreationDate,2025-04-01T17:38:45+03:00*%
%TF.ProjectId,RibbonRiser,52696262-6f6e-4526-9973-65722e6b6963,rev?*%
%TF.SameCoordinates,Original*%
%TF.FileFunction,Legend,Top*%
%TF.FilePolarity,Positive*%
%FSLAX46Y46*%
G04 Gerber Fmt 4.6, Leading zero omitted, Abs format (unit mm)*
G04 Created by KiCad (PCBNEW 8.0.7) date 2025-04-01 17:38:45*
%MOMM*%
%LPD*%
G01*
G04 APERTURE LIST*
%ADD10C,0.150000*%
%ADD11C,0.000000*%
%ADD12C,0.254000*%
%ADD13C,0.059995*%
%ADD14C,0.120000*%
%ADD15C,0.200000*%
G04 APERTURE END LIST*
D10*
X53827255Y-120169819D02*
X53922493Y-120169819D01*
X53922493Y-120169819D02*
X54017731Y-120217438D01*
X54017731Y-120217438D02*
X54065350Y-120265057D01*
X54065350Y-120265057D02*
X54112969Y-120360295D01*
X54112969Y-120360295D02*
X54160588Y-120550771D01*
X54160588Y-120550771D02*
X54160588Y-120788866D01*
X54160588Y-120788866D02*
X54112969Y-120979342D01*
X54112969Y-120979342D02*
X54065350Y-121074580D01*
X54065350Y-121074580D02*
X54017731Y-121122200D01*
X54017731Y-121122200D02*
X53922493Y-121169819D01*
X53922493Y-121169819D02*
X53827255Y-121169819D01*
X53827255Y-121169819D02*
X53732017Y-121122200D01*
X53732017Y-121122200D02*
X53684398Y-121074580D01*
X53684398Y-121074580D02*
X53636779Y-120979342D01*
X53636779Y-120979342D02*
X53589160Y-120788866D01*
X53589160Y-120788866D02*
X53589160Y-120550771D01*
X53589160Y-120550771D02*
X53636779Y-120360295D01*
X53636779Y-120360295D02*
X53684398Y-120265057D01*
X53684398Y-120265057D02*
X53732017Y-120217438D01*
X53732017Y-120217438D02*
X53827255Y-120169819D01*
X55112969Y-121169819D02*
X54541541Y-121169819D01*
X54827255Y-121169819D02*
X54827255Y-120169819D01*
X54827255Y-120169819D02*
X54732017Y-120312676D01*
X54732017Y-120312676D02*
X54636779Y-120407914D01*
X54636779Y-120407914D02*
X54541541Y-120455533D01*
X56255826Y-120122200D02*
X55398684Y-121407914D01*
X56779636Y-120169819D02*
X56874874Y-120169819D01*
X56874874Y-120169819D02*
X56970112Y-120217438D01*
X56970112Y-120217438D02*
X57017731Y-120265057D01*
X57017731Y-120265057D02*
X57065350Y-120360295D01*
X57065350Y-120360295D02*
X57112969Y-120550771D01*
X57112969Y-120550771D02*
X57112969Y-120788866D01*
X57112969Y-120788866D02*
X57065350Y-120979342D01*
X57065350Y-120979342D02*
X57017731Y-121074580D01*
X57017731Y-121074580D02*
X56970112Y-121122200D01*
X56970112Y-121122200D02*
X56874874Y-121169819D01*
X56874874Y-121169819D02*
X56779636Y-121169819D01*
X56779636Y-121169819D02*
X56684398Y-121122200D01*
X56684398Y-121122200D02*
X56636779Y-121074580D01*
X56636779Y-121074580D02*
X56589160Y-120979342D01*
X56589160Y-120979342D02*
X56541541Y-120788866D01*
X56541541Y-120788866D02*
X56541541Y-120550771D01*
X56541541Y-120550771D02*
X56589160Y-120360295D01*
X56589160Y-120360295D02*
X56636779Y-120265057D01*
X56636779Y-120265057D02*
X56684398Y-120217438D01*
X56684398Y-120217438D02*
X56779636Y-120169819D01*
X57970112Y-120503152D02*
X57970112Y-121169819D01*
X57732017Y-120122200D02*
X57493922Y-120836485D01*
X57493922Y-120836485D02*
X58112969Y-120836485D01*
X59208207Y-120122200D02*
X58351065Y-121407914D01*
X59493922Y-120265057D02*
X59541541Y-120217438D01*
X59541541Y-120217438D02*
X59636779Y-120169819D01*
X59636779Y-120169819D02*
X59874874Y-120169819D01*
X59874874Y-120169819D02*
X59970112Y-120217438D01*
X59970112Y-120217438D02*
X60017731Y-120265057D01*
X60017731Y-120265057D02*
X60065350Y-120360295D01*
X60065350Y-120360295D02*
X60065350Y-120455533D01*
X60065350Y-120455533D02*
X60017731Y-120598390D01*
X60017731Y-120598390D02*
X59446303Y-121169819D01*
X59446303Y-121169819D02*
X60065350Y-121169819D01*
X60684398Y-120169819D02*
X60779636Y-120169819D01*
X60779636Y-120169819D02*
X60874874Y-120217438D01*
X60874874Y-120217438D02*
X60922493Y-120265057D01*
X60922493Y-120265057D02*
X60970112Y-120360295D01*
X60970112Y-120360295D02*
X61017731Y-120550771D01*
X61017731Y-120550771D02*
X61017731Y-120788866D01*
X61017731Y-120788866D02*
X60970112Y-120979342D01*
X60970112Y-120979342D02*
X60922493Y-121074580D01*
X60922493Y-121074580D02*
X60874874Y-121122200D01*
X60874874Y-121122200D02*
X60779636Y-121169819D01*
X60779636Y-121169819D02*
X60684398Y-121169819D01*
X60684398Y-121169819D02*
X60589160Y-121122200D01*
X60589160Y-121122200D02*
X60541541Y-121074580D01*
X60541541Y-121074580D02*
X60493922Y-120979342D01*
X60493922Y-120979342D02*
X60446303Y-120788866D01*
X60446303Y-120788866D02*
X60446303Y-120550771D01*
X60446303Y-120550771D02*
X60493922Y-120360295D01*
X60493922Y-120360295D02*
X60541541Y-120265057D01*
X60541541Y-120265057D02*
X60589160Y-120217438D01*
X60589160Y-120217438D02*
X60684398Y-120169819D01*
X61398684Y-120265057D02*
X61446303Y-120217438D01*
X61446303Y-120217438D02*
X61541541Y-120169819D01*
X61541541Y-120169819D02*
X61779636Y-120169819D01*
X61779636Y-120169819D02*
X61874874Y-120217438D01*
X61874874Y-120217438D02*
X61922493Y-120265057D01*
X61922493Y-120265057D02*
X61970112Y-120360295D01*
X61970112Y-120360295D02*
X61970112Y-120455533D01*
X61970112Y-120455533D02*
X61922493Y-120598390D01*
X61922493Y-120598390D02*
X61351065Y-121169819D01*
X61351065Y-121169819D02*
X61970112Y-121169819D01*
X62874874Y-120169819D02*
X62398684Y-120169819D01*
X62398684Y-120169819D02*
X62351065Y-120646009D01*
X62351065Y-120646009D02*
X62398684Y-120598390D01*
X62398684Y-120598390D02*
X62493922Y-120550771D01*
X62493922Y-120550771D02*
X62732017Y-120550771D01*
X62732017Y-120550771D02*
X62827255Y-120598390D01*
X62827255Y-120598390D02*
X62874874Y-120646009D01*
X62874874Y-120646009D02*
X62922493Y-120741247D01*
X62922493Y-120741247D02*
X62922493Y-120979342D01*
X62922493Y-120979342D02*
X62874874Y-121074580D01*
X62874874Y-121074580D02*
X62827255Y-121122200D01*
X62827255Y-121122200D02*
X62732017Y-121169819D01*
X62732017Y-121169819D02*
X62493922Y-121169819D01*
X62493922Y-121169819D02*
X62398684Y-121122200D01*
X62398684Y-121122200D02*
X62351065Y-121074580D01*
X68708207Y-120969819D02*
X68374874Y-120493628D01*
X68136779Y-120969819D02*
X68136779Y-119969819D01*
X68136779Y-119969819D02*
X68517731Y-119969819D01*
X68517731Y-119969819D02*
X68612969Y-120017438D01*
X68612969Y-120017438D02*
X68660588Y-120065057D01*
X68660588Y-120065057D02*
X68708207Y-120160295D01*
X68708207Y-120160295D02*
X68708207Y-120303152D01*
X68708207Y-120303152D02*
X68660588Y-120398390D01*
X68660588Y-120398390D02*
X68612969Y-120446009D01*
X68612969Y-120446009D02*
X68517731Y-120493628D01*
X68517731Y-120493628D02*
X68136779Y-120493628D01*
X69136779Y-120969819D02*
X69136779Y-120303152D01*
X69136779Y-119969819D02*
X69089160Y-120017438D01*
X69089160Y-120017438D02*
X69136779Y-120065057D01*
X69136779Y-120065057D02*
X69184398Y-120017438D01*
X69184398Y-120017438D02*
X69136779Y-119969819D01*
X69136779Y-119969819D02*
X69136779Y-120065057D01*
X69612969Y-120969819D02*
X69612969Y-119969819D01*
X69612969Y-120350771D02*
X69708207Y-120303152D01*
X69708207Y-120303152D02*
X69898683Y-120303152D01*
X69898683Y-120303152D02*
X69993921Y-120350771D01*
X69993921Y-120350771D02*
X70041540Y-120398390D01*
X70041540Y-120398390D02*
X70089159Y-120493628D01*
X70089159Y-120493628D02*
X70089159Y-120779342D01*
X70089159Y-120779342D02*
X70041540Y-120874580D01*
X70041540Y-120874580D02*
X69993921Y-120922200D01*
X69993921Y-120922200D02*
X69898683Y-120969819D01*
X69898683Y-120969819D02*
X69708207Y-120969819D01*
X69708207Y-120969819D02*
X69612969Y-120922200D01*
X70517731Y-120969819D02*
X70517731Y-119969819D01*
X70517731Y-120350771D02*
X70612969Y-120303152D01*
X70612969Y-120303152D02*
X70803445Y-120303152D01*
X70803445Y-120303152D02*
X70898683Y-120350771D01*
X70898683Y-120350771D02*
X70946302Y-120398390D01*
X70946302Y-120398390D02*
X70993921Y-120493628D01*
X70993921Y-120493628D02*
X70993921Y-120779342D01*
X70993921Y-120779342D02*
X70946302Y-120874580D01*
X70946302Y-120874580D02*
X70898683Y-120922200D01*
X70898683Y-120922200D02*
X70803445Y-120969819D01*
X70803445Y-120969819D02*
X70612969Y-120969819D01*
X70612969Y-120969819D02*
X70517731Y-120922200D01*
X71565350Y-120969819D02*
X71470112Y-120922200D01*
X71470112Y-120922200D02*
X71422493Y-120874580D01*
X71422493Y-120874580D02*
X71374874Y-120779342D01*
X71374874Y-120779342D02*
X71374874Y-120493628D01*
X71374874Y-120493628D02*
X71422493Y-120398390D01*
X71422493Y-120398390D02*
X71470112Y-120350771D01*
X71470112Y-120350771D02*
X71565350Y-120303152D01*
X71565350Y-120303152D02*
X71708207Y-120303152D01*
X71708207Y-120303152D02*
X71803445Y-120350771D01*
X71803445Y-120350771D02*
X71851064Y-120398390D01*
X71851064Y-120398390D02*
X71898683Y-120493628D01*
X71898683Y-120493628D02*
X71898683Y-120779342D01*
X71898683Y-120779342D02*
X71851064Y-120874580D01*
X71851064Y-120874580D02*
X71803445Y-120922200D01*
X71803445Y-120922200D02*
X71708207Y-120969819D01*
X71708207Y-120969819D02*
X71565350Y-120969819D01*
X72327255Y-120303152D02*
X72327255Y-120969819D01*
X72327255Y-120398390D02*
X72374874Y-120350771D01*
X72374874Y-120350771D02*
X72470112Y-120303152D01*
X72470112Y-120303152D02*
X72612969Y-120303152D01*
X72612969Y-120303152D02*
X72708207Y-120350771D01*
X72708207Y-120350771D02*
X72755826Y-120446009D01*
X72755826Y-120446009D02*
X72755826Y-120969819D01*
X73803445Y-120969819D02*
X73470112Y-120493628D01*
X73232017Y-120969819D02*
X73232017Y-119969819D01*
X73232017Y-119969819D02*
X73612969Y-119969819D01*
X73612969Y-119969819D02*
X73708207Y-120017438D01*
X73708207Y-120017438D02*
X73755826Y-120065057D01*
X73755826Y-120065057D02*
X73803445Y-120160295D01*
X73803445Y-120160295D02*
X73803445Y-120303152D01*
X73803445Y-120303152D02*
X73755826Y-120398390D01*
X73755826Y-120398390D02*
X73708207Y-120446009D01*
X73708207Y-120446009D02*
X73612969Y-120493628D01*
X73612969Y-120493628D02*
X73232017Y-120493628D01*
X74232017Y-120969819D02*
X74232017Y-120303152D01*
X74232017Y-119969819D02*
X74184398Y-120017438D01*
X74184398Y-120017438D02*
X74232017Y-120065057D01*
X74232017Y-120065057D02*
X74279636Y-120017438D01*
X74279636Y-120017438D02*
X74232017Y-119969819D01*
X74232017Y-119969819D02*
X74232017Y-120065057D01*
X74660588Y-120922200D02*
X74755826Y-120969819D01*
X74755826Y-120969819D02*
X74946302Y-120969819D01*
X74946302Y-120969819D02*
X75041540Y-120922200D01*
X75041540Y-120922200D02*
X75089159Y-120826961D01*
X75089159Y-120826961D02*
X75089159Y-120779342D01*
X75089159Y-120779342D02*
X75041540Y-120684104D01*
X75041540Y-120684104D02*
X74946302Y-120636485D01*
X74946302Y-120636485D02*
X74803445Y-120636485D01*
X74803445Y-120636485D02*
X74708207Y-120588866D01*
X74708207Y-120588866D02*
X74660588Y-120493628D01*
X74660588Y-120493628D02*
X74660588Y-120446009D01*
X74660588Y-120446009D02*
X74708207Y-120350771D01*
X74708207Y-120350771D02*
X74803445Y-120303152D01*
X74803445Y-120303152D02*
X74946302Y-120303152D01*
X74946302Y-120303152D02*
X75041540Y-120350771D01*
X75898683Y-120922200D02*
X75803445Y-120969819D01*
X75803445Y-120969819D02*
X75612969Y-120969819D01*
X75612969Y-120969819D02*
X75517731Y-120922200D01*
X75517731Y-120922200D02*
X75470112Y-120826961D01*
X75470112Y-120826961D02*
X75470112Y-120446009D01*
X75470112Y-120446009D02*
X75517731Y-120350771D01*
X75517731Y-120350771D02*
X75612969Y-120303152D01*
X75612969Y-120303152D02*
X75803445Y-120303152D01*
X75803445Y-120303152D02*
X75898683Y-120350771D01*
X75898683Y-120350771D02*
X75946302Y-120446009D01*
X75946302Y-120446009D02*
X75946302Y-120541247D01*
X75946302Y-120541247D02*
X75470112Y-120636485D01*
X76374874Y-120969819D02*
X76374874Y-120303152D01*
X76374874Y-120493628D02*
X76422493Y-120398390D01*
X76422493Y-120398390D02*
X76470112Y-120350771D01*
X76470112Y-120350771D02*
X76565350Y-120303152D01*
X76565350Y-120303152D02*
X76660588Y-120303152D01*
X77755827Y-120969819D02*
X77755827Y-119969819D01*
X77755827Y-119969819D02*
X78136779Y-119969819D01*
X78136779Y-119969819D02*
X78232017Y-120017438D01*
X78232017Y-120017438D02*
X78279636Y-120065057D01*
X78279636Y-120065057D02*
X78327255Y-120160295D01*
X78327255Y-120160295D02*
X78327255Y-120303152D01*
X78327255Y-120303152D02*
X78279636Y-120398390D01*
X78279636Y-120398390D02*
X78232017Y-120446009D01*
X78232017Y-120446009D02*
X78136779Y-120493628D01*
X78136779Y-120493628D02*
X77755827Y-120493628D01*
X78755827Y-120969819D02*
X78755827Y-120303152D01*
X78755827Y-120493628D02*
X78803446Y-120398390D01*
X78803446Y-120398390D02*
X78851065Y-120350771D01*
X78851065Y-120350771D02*
X78946303Y-120303152D01*
X78946303Y-120303152D02*
X79041541Y-120303152D01*
X79517732Y-120969819D02*
X79422494Y-120922200D01*
X79422494Y-120922200D02*
X79374875Y-120874580D01*
X79374875Y-120874580D02*
X79327256Y-120779342D01*
X79327256Y-120779342D02*
X79327256Y-120493628D01*
X79327256Y-120493628D02*
X79374875Y-120398390D01*
X79374875Y-120398390D02*
X79422494Y-120350771D01*
X79422494Y-120350771D02*
X79517732Y-120303152D01*
X79517732Y-120303152D02*
X79660589Y-120303152D01*
X79660589Y-120303152D02*
X79755827Y-120350771D01*
X79755827Y-120350771D02*
X79803446Y-120398390D01*
X79803446Y-120398390D02*
X79851065Y-120493628D01*
X79851065Y-120493628D02*
X79851065Y-120779342D01*
X79851065Y-120779342D02*
X79803446Y-120874580D01*
X79803446Y-120874580D02*
X79755827Y-120922200D01*
X79755827Y-120922200D02*
X79660589Y-120969819D01*
X79660589Y-120969819D02*
X79517732Y-120969819D01*
X80136780Y-120303152D02*
X80517732Y-120303152D01*
X80279637Y-119969819D02*
X80279637Y-120826961D01*
X80279637Y-120826961D02*
X80327256Y-120922200D01*
X80327256Y-120922200D02*
X80422494Y-120969819D01*
X80422494Y-120969819D02*
X80517732Y-120969819D01*
X80993923Y-120969819D02*
X80898685Y-120922200D01*
X80898685Y-120922200D02*
X80851066Y-120874580D01*
X80851066Y-120874580D02*
X80803447Y-120779342D01*
X80803447Y-120779342D02*
X80803447Y-120493628D01*
X80803447Y-120493628D02*
X80851066Y-120398390D01*
X80851066Y-120398390D02*
X80898685Y-120350771D01*
X80898685Y-120350771D02*
X80993923Y-120303152D01*
X80993923Y-120303152D02*
X81136780Y-120303152D01*
X81136780Y-120303152D02*
X81232018Y-120350771D01*
X81232018Y-120350771D02*
X81279637Y-120398390D01*
X81279637Y-120398390D02*
X81327256Y-120493628D01*
X81327256Y-120493628D02*
X81327256Y-120779342D01*
X81327256Y-120779342D02*
X81279637Y-120874580D01*
X81279637Y-120874580D02*
X81232018Y-120922200D01*
X81232018Y-120922200D02*
X81136780Y-120969819D01*
X81136780Y-120969819D02*
X80993923Y-120969819D01*
X81612971Y-120303152D02*
X81993923Y-120303152D01*
X81755828Y-119969819D02*
X81755828Y-120826961D01*
X81755828Y-120826961D02*
X81803447Y-120922200D01*
X81803447Y-120922200D02*
X81898685Y-120969819D01*
X81898685Y-120969819D02*
X81993923Y-120969819D01*
X82232019Y-120303152D02*
X82470114Y-120969819D01*
X82708209Y-120303152D02*
X82470114Y-120969819D01*
X82470114Y-120969819D02*
X82374876Y-121207914D01*
X82374876Y-121207914D02*
X82327257Y-121255533D01*
X82327257Y-121255533D02*
X82232019Y-121303152D01*
X83089162Y-120303152D02*
X83089162Y-121303152D01*
X83089162Y-120350771D02*
X83184400Y-120303152D01*
X83184400Y-120303152D02*
X83374876Y-120303152D01*
X83374876Y-120303152D02*
X83470114Y-120350771D01*
X83470114Y-120350771D02*
X83517733Y-120398390D01*
X83517733Y-120398390D02*
X83565352Y-120493628D01*
X83565352Y-120493628D02*
X83565352Y-120779342D01*
X83565352Y-120779342D02*
X83517733Y-120874580D01*
X83517733Y-120874580D02*
X83470114Y-120922200D01*
X83470114Y-120922200D02*
X83374876Y-120969819D01*
X83374876Y-120969819D02*
X83184400Y-120969819D01*
X83184400Y-120969819D02*
X83089162Y-120922200D01*
X84374876Y-120922200D02*
X84279638Y-120969819D01*
X84279638Y-120969819D02*
X84089162Y-120969819D01*
X84089162Y-120969819D02*
X83993924Y-120922200D01*
X83993924Y-120922200D02*
X83946305Y-120826961D01*
X83946305Y-120826961D02*
X83946305Y-120446009D01*
X83946305Y-120446009D02*
X83993924Y-120350771D01*
X83993924Y-120350771D02*
X84089162Y-120303152D01*
X84089162Y-120303152D02*
X84279638Y-120303152D01*
X84279638Y-120303152D02*
X84374876Y-120350771D01*
X84374876Y-120350771D02*
X84422495Y-120446009D01*
X84422495Y-120446009D02*
X84422495Y-120541247D01*
X84422495Y-120541247D02*
X83946305Y-120636485D01*
X85517734Y-120303152D02*
X85755829Y-120969819D01*
X85755829Y-120969819D02*
X85993924Y-120303152D01*
X86565353Y-119969819D02*
X86660591Y-119969819D01*
X86660591Y-119969819D02*
X86755829Y-120017438D01*
X86755829Y-120017438D02*
X86803448Y-120065057D01*
X86803448Y-120065057D02*
X86851067Y-120160295D01*
X86851067Y-120160295D02*
X86898686Y-120350771D01*
X86898686Y-120350771D02*
X86898686Y-120588866D01*
X86898686Y-120588866D02*
X86851067Y-120779342D01*
X86851067Y-120779342D02*
X86803448Y-120874580D01*
X86803448Y-120874580D02*
X86755829Y-120922200D01*
X86755829Y-120922200D02*
X86660591Y-120969819D01*
X86660591Y-120969819D02*
X86565353Y-120969819D01*
X86565353Y-120969819D02*
X86470115Y-120922200D01*
X86470115Y-120922200D02*
X86422496Y-120874580D01*
X86422496Y-120874580D02*
X86374877Y-120779342D01*
X86374877Y-120779342D02*
X86327258Y-120588866D01*
X86327258Y-120588866D02*
X86327258Y-120350771D01*
X86327258Y-120350771D02*
X86374877Y-120160295D01*
X86374877Y-120160295D02*
X86422496Y-120065057D01*
X86422496Y-120065057D02*
X86470115Y-120017438D01*
X86470115Y-120017438D02*
X86565353Y-119969819D01*
X87327258Y-120874580D02*
X87374877Y-120922200D01*
X87374877Y-120922200D02*
X87327258Y-120969819D01*
X87327258Y-120969819D02*
X87279639Y-120922200D01*
X87279639Y-120922200D02*
X87327258Y-120874580D01*
X87327258Y-120874580D02*
X87327258Y-120969819D01*
X87946305Y-120398390D02*
X87851067Y-120350771D01*
X87851067Y-120350771D02*
X87803448Y-120303152D01*
X87803448Y-120303152D02*
X87755829Y-120207914D01*
X87755829Y-120207914D02*
X87755829Y-120160295D01*
X87755829Y-120160295D02*
X87803448Y-120065057D01*
X87803448Y-120065057D02*
X87851067Y-120017438D01*
X87851067Y-120017438D02*
X87946305Y-119969819D01*
X87946305Y-119969819D02*
X88136781Y-119969819D01*
X88136781Y-119969819D02*
X88232019Y-120017438D01*
X88232019Y-120017438D02*
X88279638Y-120065057D01*
X88279638Y-120065057D02*
X88327257Y-120160295D01*
X88327257Y-120160295D02*
X88327257Y-120207914D01*
X88327257Y-120207914D02*
X88279638Y-120303152D01*
X88279638Y-120303152D02*
X88232019Y-120350771D01*
X88232019Y-120350771D02*
X88136781Y-120398390D01*
X88136781Y-120398390D02*
X87946305Y-120398390D01*
X87946305Y-120398390D02*
X87851067Y-120446009D01*
X87851067Y-120446009D02*
X87803448Y-120493628D01*
X87803448Y-120493628D02*
X87755829Y-120588866D01*
X87755829Y-120588866D02*
X87755829Y-120779342D01*
X87755829Y-120779342D02*
X87803448Y-120874580D01*
X87803448Y-120874580D02*
X87851067Y-120922200D01*
X87851067Y-120922200D02*
X87946305Y-120969819D01*
X87946305Y-120969819D02*
X88136781Y-120969819D01*
X88136781Y-120969819D02*
X88232019Y-120922200D01*
X88232019Y-120922200D02*
X88279638Y-120874580D01*
X88279638Y-120874580D02*
X88327257Y-120779342D01*
X88327257Y-120779342D02*
X88327257Y-120588866D01*
X88327257Y-120588866D02*
X88279638Y-120493628D01*
X88279638Y-120493628D02*
X88232019Y-120446009D01*
X88232019Y-120446009D02*
X88136781Y-120398390D01*
X90232019Y-119922200D02*
X89374877Y-121207914D01*
X91279639Y-120922200D02*
X91422496Y-120969819D01*
X91422496Y-120969819D02*
X91660591Y-120969819D01*
X91660591Y-120969819D02*
X91755829Y-120922200D01*
X91755829Y-120922200D02*
X91803448Y-120874580D01*
X91803448Y-120874580D02*
X91851067Y-120779342D01*
X91851067Y-120779342D02*
X91851067Y-120684104D01*
X91851067Y-120684104D02*
X91803448Y-120588866D01*
X91803448Y-120588866D02*
X91755829Y-120541247D01*
X91755829Y-120541247D02*
X91660591Y-120493628D01*
X91660591Y-120493628D02*
X91470115Y-120446009D01*
X91470115Y-120446009D02*
X91374877Y-120398390D01*
X91374877Y-120398390D02*
X91327258Y-120350771D01*
X91327258Y-120350771D02*
X91279639Y-120255533D01*
X91279639Y-120255533D02*
X91279639Y-120160295D01*
X91279639Y-120160295D02*
X91327258Y-120065057D01*
X91327258Y-120065057D02*
X91374877Y-120017438D01*
X91374877Y-120017438D02*
X91470115Y-119969819D01*
X91470115Y-119969819D02*
X91708210Y-119969819D01*
X91708210Y-119969819D02*
X91851067Y-120017438D01*
X92279639Y-120303152D02*
X92279639Y-121303152D01*
X92279639Y-120350771D02*
X92374877Y-120303152D01*
X92374877Y-120303152D02*
X92565353Y-120303152D01*
X92565353Y-120303152D02*
X92660591Y-120350771D01*
X92660591Y-120350771D02*
X92708210Y-120398390D01*
X92708210Y-120398390D02*
X92755829Y-120493628D01*
X92755829Y-120493628D02*
X92755829Y-120779342D01*
X92755829Y-120779342D02*
X92708210Y-120874580D01*
X92708210Y-120874580D02*
X92660591Y-120922200D01*
X92660591Y-120922200D02*
X92565353Y-120969819D01*
X92565353Y-120969819D02*
X92374877Y-120969819D01*
X92374877Y-120969819D02*
X92279639Y-120922200D01*
X93327258Y-120969819D02*
X93232020Y-120922200D01*
X93232020Y-120922200D02*
X93184401Y-120874580D01*
X93184401Y-120874580D02*
X93136782Y-120779342D01*
X93136782Y-120779342D02*
X93136782Y-120493628D01*
X93136782Y-120493628D02*
X93184401Y-120398390D01*
X93184401Y-120398390D02*
X93232020Y-120350771D01*
X93232020Y-120350771D02*
X93327258Y-120303152D01*
X93327258Y-120303152D02*
X93470115Y-120303152D01*
X93470115Y-120303152D02*
X93565353Y-120350771D01*
X93565353Y-120350771D02*
X93612972Y-120398390D01*
X93612972Y-120398390D02*
X93660591Y-120493628D01*
X93660591Y-120493628D02*
X93660591Y-120779342D01*
X93660591Y-120779342D02*
X93612972Y-120874580D01*
X93612972Y-120874580D02*
X93565353Y-120922200D01*
X93565353Y-120922200D02*
X93470115Y-120969819D01*
X93470115Y-120969819D02*
X93327258Y-120969819D01*
X94089163Y-120303152D02*
X94089163Y-120969819D01*
X94089163Y-120398390D02*
X94136782Y-120350771D01*
X94136782Y-120350771D02*
X94232020Y-120303152D01*
X94232020Y-120303152D02*
X94374877Y-120303152D01*
X94374877Y-120303152D02*
X94470115Y-120350771D01*
X94470115Y-120350771D02*
X94517734Y-120446009D01*
X94517734Y-120446009D02*
X94517734Y-120969819D01*
X94946306Y-120922200D02*
X95041544Y-120969819D01*
X95041544Y-120969819D02*
X95232020Y-120969819D01*
X95232020Y-120969819D02*
X95327258Y-120922200D01*
X95327258Y-120922200D02*
X95374877Y-120826961D01*
X95374877Y-120826961D02*
X95374877Y-120779342D01*
X95374877Y-120779342D02*
X95327258Y-120684104D01*
X95327258Y-120684104D02*
X95232020Y-120636485D01*
X95232020Y-120636485D02*
X95089163Y-120636485D01*
X95089163Y-120636485D02*
X94993925Y-120588866D01*
X94993925Y-120588866D02*
X94946306Y-120493628D01*
X94946306Y-120493628D02*
X94946306Y-120446009D01*
X94946306Y-120446009D02*
X94993925Y-120350771D01*
X94993925Y-120350771D02*
X95089163Y-120303152D01*
X95089163Y-120303152D02*
X95232020Y-120303152D01*
X95232020Y-120303152D02*
X95327258Y-120350771D01*
X95946306Y-120969819D02*
X95851068Y-120922200D01*
X95851068Y-120922200D02*
X95803449Y-120874580D01*
X95803449Y-120874580D02*
X95755830Y-120779342D01*
X95755830Y-120779342D02*
X95755830Y-120493628D01*
X95755830Y-120493628D02*
X95803449Y-120398390D01*
X95803449Y-120398390D02*
X95851068Y-120350771D01*
X95851068Y-120350771D02*
X95946306Y-120303152D01*
X95946306Y-120303152D02*
X96089163Y-120303152D01*
X96089163Y-120303152D02*
X96184401Y-120350771D01*
X96184401Y-120350771D02*
X96232020Y-120398390D01*
X96232020Y-120398390D02*
X96279639Y-120493628D01*
X96279639Y-120493628D02*
X96279639Y-120779342D01*
X96279639Y-120779342D02*
X96232020Y-120874580D01*
X96232020Y-120874580D02*
X96184401Y-120922200D01*
X96184401Y-120922200D02*
X96089163Y-120969819D01*
X96089163Y-120969819D02*
X95946306Y-120969819D01*
X96708211Y-120969819D02*
X96708211Y-120303152D01*
X96708211Y-120493628D02*
X96755830Y-120398390D01*
X96755830Y-120398390D02*
X96803449Y-120350771D01*
X96803449Y-120350771D02*
X96898687Y-120303152D01*
X96898687Y-120303152D02*
X96993925Y-120303152D01*
X97708211Y-120922200D02*
X97612973Y-120969819D01*
X97612973Y-120969819D02*
X97422497Y-120969819D01*
X97422497Y-120969819D02*
X97327259Y-120922200D01*
X97327259Y-120922200D02*
X97279640Y-120826961D01*
X97279640Y-120826961D02*
X97279640Y-120446009D01*
X97279640Y-120446009D02*
X97327259Y-120350771D01*
X97327259Y-120350771D02*
X97422497Y-120303152D01*
X97422497Y-120303152D02*
X97612973Y-120303152D01*
X97612973Y-120303152D02*
X97708211Y-120350771D01*
X97708211Y-120350771D02*
X97755830Y-120446009D01*
X97755830Y-120446009D02*
X97755830Y-120541247D01*
X97755830Y-120541247D02*
X97279640Y-120636485D01*
X98612973Y-120969819D02*
X98612973Y-119969819D01*
X98612973Y-120922200D02*
X98517735Y-120969819D01*
X98517735Y-120969819D02*
X98327259Y-120969819D01*
X98327259Y-120969819D02*
X98232021Y-120922200D01*
X98232021Y-120922200D02*
X98184402Y-120874580D01*
X98184402Y-120874580D02*
X98136783Y-120779342D01*
X98136783Y-120779342D02*
X98136783Y-120493628D01*
X98136783Y-120493628D02*
X98184402Y-120398390D01*
X98184402Y-120398390D02*
X98232021Y-120350771D01*
X98232021Y-120350771D02*
X98327259Y-120303152D01*
X98327259Y-120303152D02*
X98517735Y-120303152D01*
X98517735Y-120303152D02*
X98612973Y-120350771D01*
X99851069Y-120969819D02*
X99851069Y-119969819D01*
X99851069Y-120350771D02*
X99946307Y-120303152D01*
X99946307Y-120303152D02*
X100136783Y-120303152D01*
X100136783Y-120303152D02*
X100232021Y-120350771D01*
X100232021Y-120350771D02*
X100279640Y-120398390D01*
X100279640Y-120398390D02*
X100327259Y-120493628D01*
X100327259Y-120493628D02*
X100327259Y-120779342D01*
X100327259Y-120779342D02*
X100279640Y-120874580D01*
X100279640Y-120874580D02*
X100232021Y-120922200D01*
X100232021Y-120922200D02*
X100136783Y-120969819D01*
X100136783Y-120969819D02*
X99946307Y-120969819D01*
X99946307Y-120969819D02*
X99851069Y-120922200D01*
X100660593Y-120303152D02*
X100898688Y-120969819D01*
X101136783Y-120303152D02*
X100898688Y-120969819D01*
X100898688Y-120969819D02*
X100803450Y-121207914D01*
X100803450Y-121207914D02*
X100755831Y-121255533D01*
X100755831Y-121255533D02*
X100660593Y-121303152D01*
X102279641Y-120969819D02*
X102279641Y-119969819D01*
X102279641Y-119969819D02*
X102660593Y-119969819D01*
X102660593Y-119969819D02*
X102755831Y-120017438D01*
X102755831Y-120017438D02*
X102803450Y-120065057D01*
X102803450Y-120065057D02*
X102851069Y-120160295D01*
X102851069Y-120160295D02*
X102851069Y-120303152D01*
X102851069Y-120303152D02*
X102803450Y-120398390D01*
X102803450Y-120398390D02*
X102755831Y-120446009D01*
X102755831Y-120446009D02*
X102660593Y-120493628D01*
X102660593Y-120493628D02*
X102279641Y-120493628D01*
X103851069Y-120874580D02*
X103803450Y-120922200D01*
X103803450Y-120922200D02*
X103660593Y-120969819D01*
X103660593Y-120969819D02*
X103565355Y-120969819D01*
X103565355Y-120969819D02*
X103422498Y-120922200D01*
X103422498Y-120922200D02*
X103327260Y-120826961D01*
X103327260Y-120826961D02*
X103279641Y-120731723D01*
X103279641Y-120731723D02*
X103232022Y-120541247D01*
X103232022Y-120541247D02*
X103232022Y-120398390D01*
X103232022Y-120398390D02*
X103279641Y-120207914D01*
X103279641Y-120207914D02*
X103327260Y-120112676D01*
X103327260Y-120112676D02*
X103422498Y-120017438D01*
X103422498Y-120017438D02*
X103565355Y-119969819D01*
X103565355Y-119969819D02*
X103660593Y-119969819D01*
X103660593Y-119969819D02*
X103803450Y-120017438D01*
X103803450Y-120017438D02*
X103851069Y-120065057D01*
X104612974Y-120446009D02*
X104755831Y-120493628D01*
X104755831Y-120493628D02*
X104803450Y-120541247D01*
X104803450Y-120541247D02*
X104851069Y-120636485D01*
X104851069Y-120636485D02*
X104851069Y-120779342D01*
X104851069Y-120779342D02*
X104803450Y-120874580D01*
X104803450Y-120874580D02*
X104755831Y-120922200D01*
X104755831Y-120922200D02*
X104660593Y-120969819D01*
X104660593Y-120969819D02*
X104279641Y-120969819D01*
X104279641Y-120969819D02*
X104279641Y-119969819D01*
X104279641Y-119969819D02*
X104612974Y-119969819D01*
X104612974Y-119969819D02*
X104708212Y-120017438D01*
X104708212Y-120017438D02*
X104755831Y-120065057D01*
X104755831Y-120065057D02*
X104803450Y-120160295D01*
X104803450Y-120160295D02*
X104803450Y-120255533D01*
X104803450Y-120255533D02*
X104755831Y-120350771D01*
X104755831Y-120350771D02*
X104708212Y-120398390D01*
X104708212Y-120398390D02*
X104612974Y-120446009D01*
X104612974Y-120446009D02*
X104279641Y-120446009D01*
X105184403Y-119969819D02*
X105422498Y-120969819D01*
X105422498Y-120969819D02*
X105612974Y-120255533D01*
X105612974Y-120255533D02*
X105803450Y-120969819D01*
X105803450Y-120969819D02*
X106041546Y-119969819D01*
X106851069Y-120969819D02*
X106851069Y-120446009D01*
X106851069Y-120446009D02*
X106803450Y-120350771D01*
X106803450Y-120350771D02*
X106708212Y-120303152D01*
X106708212Y-120303152D02*
X106517736Y-120303152D01*
X106517736Y-120303152D02*
X106422498Y-120350771D01*
X106851069Y-120922200D02*
X106755831Y-120969819D01*
X106755831Y-120969819D02*
X106517736Y-120969819D01*
X106517736Y-120969819D02*
X106422498Y-120922200D01*
X106422498Y-120922200D02*
X106374879Y-120826961D01*
X106374879Y-120826961D02*
X106374879Y-120731723D01*
X106374879Y-120731723D02*
X106422498Y-120636485D01*
X106422498Y-120636485D02*
X106517736Y-120588866D01*
X106517736Y-120588866D02*
X106755831Y-120588866D01*
X106755831Y-120588866D02*
X106851069Y-120541247D01*
X107232022Y-120303152D02*
X107470117Y-120969819D01*
X107708212Y-120303152D02*
X107470117Y-120969819D01*
X107470117Y-120969819D02*
X107374879Y-121207914D01*
X107374879Y-121207914D02*
X107327260Y-121255533D01*
X107327260Y-121255533D02*
X107232022Y-121303152D01*
X112400000Y-127900000D02*
X115300000Y-127900000D01*
X122750000Y-124225000D02*
X123200000Y-124900000D01*
X112950000Y-127850000D02*
X115050000Y-124550000D01*
X115300000Y-127900000D02*
X117400000Y-124600000D01*
X120400000Y-124550000D02*
X121700000Y-126500000D01*
X111400000Y-126400000D02*
X112700000Y-124500000D01*
X109800000Y-124800000D02*
X110200000Y-124200000D01*
X95836779Y-128769819D02*
X95836779Y-127769819D01*
X95836779Y-127769819D02*
X96217731Y-127769819D01*
X96217731Y-127769819D02*
X96312969Y-127817438D01*
X96312969Y-127817438D02*
X96360588Y-127865057D01*
X96360588Y-127865057D02*
X96408207Y-127960295D01*
X96408207Y-127960295D02*
X96408207Y-128103152D01*
X96408207Y-128103152D02*
X96360588Y-128198390D01*
X96360588Y-128198390D02*
X96312969Y-128246009D01*
X96312969Y-128246009D02*
X96217731Y-128293628D01*
X96217731Y-128293628D02*
X95836779Y-128293628D01*
X97408207Y-128674580D02*
X97360588Y-128722200D01*
X97360588Y-128722200D02*
X97217731Y-128769819D01*
X97217731Y-128769819D02*
X97122493Y-128769819D01*
X97122493Y-128769819D02*
X96979636Y-128722200D01*
X96979636Y-128722200D02*
X96884398Y-128626961D01*
X96884398Y-128626961D02*
X96836779Y-128531723D01*
X96836779Y-128531723D02*
X96789160Y-128341247D01*
X96789160Y-128341247D02*
X96789160Y-128198390D01*
X96789160Y-128198390D02*
X96836779Y-128007914D01*
X96836779Y-128007914D02*
X96884398Y-127912676D01*
X96884398Y-127912676D02*
X96979636Y-127817438D01*
X96979636Y-127817438D02*
X97122493Y-127769819D01*
X97122493Y-127769819D02*
X97217731Y-127769819D01*
X97217731Y-127769819D02*
X97360588Y-127817438D01*
X97360588Y-127817438D02*
X97408207Y-127865057D01*
X97836779Y-128769819D02*
X97836779Y-127769819D01*
X98693921Y-128722200D02*
X98598683Y-128769819D01*
X98598683Y-128769819D02*
X98408207Y-128769819D01*
X98408207Y-128769819D02*
X98312969Y-128722200D01*
X98312969Y-128722200D02*
X98265350Y-128626961D01*
X98265350Y-128626961D02*
X98265350Y-128246009D01*
X98265350Y-128246009D02*
X98312969Y-128150771D01*
X98312969Y-128150771D02*
X98408207Y-128103152D01*
X98408207Y-128103152D02*
X98598683Y-128103152D01*
X98598683Y-128103152D02*
X98693921Y-128150771D01*
X98693921Y-128150771D02*
X98741540Y-128246009D01*
X98741540Y-128246009D02*
X98741540Y-128341247D01*
X98741540Y-128341247D02*
X98265350Y-128436485D01*
X99836779Y-128769819D02*
X100360588Y-128103152D01*
X99836779Y-128103152D02*
X100360588Y-128769819D01*
X100884398Y-128198390D02*
X100789160Y-128150771D01*
X100789160Y-128150771D02*
X100741541Y-128103152D01*
X100741541Y-128103152D02*
X100693922Y-128007914D01*
X100693922Y-128007914D02*
X100693922Y-127960295D01*
X100693922Y-127960295D02*
X100741541Y-127865057D01*
X100741541Y-127865057D02*
X100789160Y-127817438D01*
X100789160Y-127817438D02*
X100884398Y-127769819D01*
X100884398Y-127769819D02*
X101074874Y-127769819D01*
X101074874Y-127769819D02*
X101170112Y-127817438D01*
X101170112Y-127817438D02*
X101217731Y-127865057D01*
X101217731Y-127865057D02*
X101265350Y-127960295D01*
X101265350Y-127960295D02*
X101265350Y-128007914D01*
X101265350Y-128007914D02*
X101217731Y-128103152D01*
X101217731Y-128103152D02*
X101170112Y-128150771D01*
X101170112Y-128150771D02*
X101074874Y-128198390D01*
X101074874Y-128198390D02*
X100884398Y-128198390D01*
X100884398Y-128198390D02*
X100789160Y-128246009D01*
X100789160Y-128246009D02*
X100741541Y-128293628D01*
X100741541Y-128293628D02*
X100693922Y-128388866D01*
X100693922Y-128388866D02*
X100693922Y-128579342D01*
X100693922Y-128579342D02*
X100741541Y-128674580D01*
X100741541Y-128674580D02*
X100789160Y-128722200D01*
X100789160Y-128722200D02*
X100884398Y-128769819D01*
X100884398Y-128769819D02*
X101074874Y-128769819D01*
X101074874Y-128769819D02*
X101170112Y-128722200D01*
X101170112Y-128722200D02*
X101217731Y-128674580D01*
X101217731Y-128674580D02*
X101265350Y-128579342D01*
X101265350Y-128579342D02*
X101265350Y-128388866D01*
X101265350Y-128388866D02*
X101217731Y-128293628D01*
X101217731Y-128293628D02*
X101170112Y-128246009D01*
X101170112Y-128246009D02*
X101074874Y-128198390D01*
X64008207Y-130469819D02*
X63674874Y-129993628D01*
X63436779Y-130469819D02*
X63436779Y-129469819D01*
X63436779Y-129469819D02*
X63817731Y-129469819D01*
X63817731Y-129469819D02*
X63912969Y-129517438D01*
X63912969Y-129517438D02*
X63960588Y-129565057D01*
X63960588Y-129565057D02*
X64008207Y-129660295D01*
X64008207Y-129660295D02*
X64008207Y-129803152D01*
X64008207Y-129803152D02*
X63960588Y-129898390D01*
X63960588Y-129898390D02*
X63912969Y-129946009D01*
X63912969Y-129946009D02*
X63817731Y-129993628D01*
X63817731Y-129993628D02*
X63436779Y-129993628D01*
X64436779Y-130469819D02*
X64436779Y-129803152D01*
X64436779Y-129469819D02*
X64389160Y-129517438D01*
X64389160Y-129517438D02*
X64436779Y-129565057D01*
X64436779Y-129565057D02*
X64484398Y-129517438D01*
X64484398Y-129517438D02*
X64436779Y-129469819D01*
X64436779Y-129469819D02*
X64436779Y-129565057D01*
X64912969Y-130469819D02*
X64912969Y-129469819D01*
X64912969Y-129850771D02*
X65008207Y-129803152D01*
X65008207Y-129803152D02*
X65198683Y-129803152D01*
X65198683Y-129803152D02*
X65293921Y-129850771D01*
X65293921Y-129850771D02*
X65341540Y-129898390D01*
X65341540Y-129898390D02*
X65389159Y-129993628D01*
X65389159Y-129993628D02*
X65389159Y-130279342D01*
X65389159Y-130279342D02*
X65341540Y-130374580D01*
X65341540Y-130374580D02*
X65293921Y-130422200D01*
X65293921Y-130422200D02*
X65198683Y-130469819D01*
X65198683Y-130469819D02*
X65008207Y-130469819D01*
X65008207Y-130469819D02*
X64912969Y-130422200D01*
X65817731Y-130469819D02*
X65817731Y-129469819D01*
X65817731Y-129850771D02*
X65912969Y-129803152D01*
X65912969Y-129803152D02*
X66103445Y-129803152D01*
X66103445Y-129803152D02*
X66198683Y-129850771D01*
X66198683Y-129850771D02*
X66246302Y-129898390D01*
X66246302Y-129898390D02*
X66293921Y-129993628D01*
X66293921Y-129993628D02*
X66293921Y-130279342D01*
X66293921Y-130279342D02*
X66246302Y-130374580D01*
X66246302Y-130374580D02*
X66198683Y-130422200D01*
X66198683Y-130422200D02*
X66103445Y-130469819D01*
X66103445Y-130469819D02*
X65912969Y-130469819D01*
X65912969Y-130469819D02*
X65817731Y-130422200D01*
X66865350Y-130469819D02*
X66770112Y-130422200D01*
X66770112Y-130422200D02*
X66722493Y-130374580D01*
X66722493Y-130374580D02*
X66674874Y-130279342D01*
X66674874Y-130279342D02*
X66674874Y-129993628D01*
X66674874Y-129993628D02*
X66722493Y-129898390D01*
X66722493Y-129898390D02*
X66770112Y-129850771D01*
X66770112Y-129850771D02*
X66865350Y-129803152D01*
X66865350Y-129803152D02*
X67008207Y-129803152D01*
X67008207Y-129803152D02*
X67103445Y-129850771D01*
X67103445Y-129850771D02*
X67151064Y-129898390D01*
X67151064Y-129898390D02*
X67198683Y-129993628D01*
X67198683Y-129993628D02*
X67198683Y-130279342D01*
X67198683Y-130279342D02*
X67151064Y-130374580D01*
X67151064Y-130374580D02*
X67103445Y-130422200D01*
X67103445Y-130422200D02*
X67008207Y-130469819D01*
X67008207Y-130469819D02*
X66865350Y-130469819D01*
X67627255Y-129803152D02*
X67627255Y-130469819D01*
X67627255Y-129898390D02*
X67674874Y-129850771D01*
X67674874Y-129850771D02*
X67770112Y-129803152D01*
X67770112Y-129803152D02*
X67912969Y-129803152D01*
X67912969Y-129803152D02*
X68008207Y-129850771D01*
X68008207Y-129850771D02*
X68055826Y-129946009D01*
X68055826Y-129946009D02*
X68055826Y-130469819D01*
X69722493Y-130422200D02*
X69627255Y-130469819D01*
X69627255Y-130469819D02*
X69436779Y-130469819D01*
X69436779Y-130469819D02*
X69341541Y-130422200D01*
X69341541Y-130422200D02*
X69293922Y-130374580D01*
X69293922Y-130374580D02*
X69246303Y-130279342D01*
X69246303Y-130279342D02*
X69246303Y-129993628D01*
X69246303Y-129993628D02*
X69293922Y-129898390D01*
X69293922Y-129898390D02*
X69341541Y-129850771D01*
X69341541Y-129850771D02*
X69436779Y-129803152D01*
X69436779Y-129803152D02*
X69627255Y-129803152D01*
X69627255Y-129803152D02*
X69722493Y-129850771D01*
X70293922Y-130469819D02*
X70198684Y-130422200D01*
X70198684Y-130422200D02*
X70151065Y-130374580D01*
X70151065Y-130374580D02*
X70103446Y-130279342D01*
X70103446Y-130279342D02*
X70103446Y-129993628D01*
X70103446Y-129993628D02*
X70151065Y-129898390D01*
X70151065Y-129898390D02*
X70198684Y-129850771D01*
X70198684Y-129850771D02*
X70293922Y-129803152D01*
X70293922Y-129803152D02*
X70436779Y-129803152D01*
X70436779Y-129803152D02*
X70532017Y-129850771D01*
X70532017Y-129850771D02*
X70579636Y-129898390D01*
X70579636Y-129898390D02*
X70627255Y-129993628D01*
X70627255Y-129993628D02*
X70627255Y-130279342D01*
X70627255Y-130279342D02*
X70579636Y-130374580D01*
X70579636Y-130374580D02*
X70532017Y-130422200D01*
X70532017Y-130422200D02*
X70436779Y-130469819D01*
X70436779Y-130469819D02*
X70293922Y-130469819D01*
X71055827Y-129803152D02*
X71055827Y-130469819D01*
X71055827Y-129898390D02*
X71103446Y-129850771D01*
X71103446Y-129850771D02*
X71198684Y-129803152D01*
X71198684Y-129803152D02*
X71341541Y-129803152D01*
X71341541Y-129803152D02*
X71436779Y-129850771D01*
X71436779Y-129850771D02*
X71484398Y-129946009D01*
X71484398Y-129946009D02*
X71484398Y-130469819D01*
X71817732Y-129803152D02*
X72198684Y-129803152D01*
X71960589Y-129469819D02*
X71960589Y-130326961D01*
X71960589Y-130326961D02*
X72008208Y-130422200D01*
X72008208Y-130422200D02*
X72103446Y-130469819D01*
X72103446Y-130469819D02*
X72198684Y-130469819D01*
X72960589Y-130469819D02*
X72960589Y-129946009D01*
X72960589Y-129946009D02*
X72912970Y-129850771D01*
X72912970Y-129850771D02*
X72817732Y-129803152D01*
X72817732Y-129803152D02*
X72627256Y-129803152D01*
X72627256Y-129803152D02*
X72532018Y-129850771D01*
X72960589Y-130422200D02*
X72865351Y-130469819D01*
X72865351Y-130469819D02*
X72627256Y-130469819D01*
X72627256Y-130469819D02*
X72532018Y-130422200D01*
X72532018Y-130422200D02*
X72484399Y-130326961D01*
X72484399Y-130326961D02*
X72484399Y-130231723D01*
X72484399Y-130231723D02*
X72532018Y-130136485D01*
X72532018Y-130136485D02*
X72627256Y-130088866D01*
X72627256Y-130088866D02*
X72865351Y-130088866D01*
X72865351Y-130088866D02*
X72960589Y-130041247D01*
X73865351Y-130422200D02*
X73770113Y-130469819D01*
X73770113Y-130469819D02*
X73579637Y-130469819D01*
X73579637Y-130469819D02*
X73484399Y-130422200D01*
X73484399Y-130422200D02*
X73436780Y-130374580D01*
X73436780Y-130374580D02*
X73389161Y-130279342D01*
X73389161Y-130279342D02*
X73389161Y-129993628D01*
X73389161Y-129993628D02*
X73436780Y-129898390D01*
X73436780Y-129898390D02*
X73484399Y-129850771D01*
X73484399Y-129850771D02*
X73579637Y-129803152D01*
X73579637Y-129803152D02*
X73770113Y-129803152D01*
X73770113Y-129803152D02*
X73865351Y-129850771D01*
X74151066Y-129803152D02*
X74532018Y-129803152D01*
X74293923Y-129469819D02*
X74293923Y-130326961D01*
X74293923Y-130326961D02*
X74341542Y-130422200D01*
X74341542Y-130422200D02*
X74436780Y-130469819D01*
X74436780Y-130469819D02*
X74532018Y-130469819D01*
X75579638Y-130422200D02*
X75674876Y-130469819D01*
X75674876Y-130469819D02*
X75865352Y-130469819D01*
X75865352Y-130469819D02*
X75960590Y-130422200D01*
X75960590Y-130422200D02*
X76008209Y-130326961D01*
X76008209Y-130326961D02*
X76008209Y-130279342D01*
X76008209Y-130279342D02*
X75960590Y-130184104D01*
X75960590Y-130184104D02*
X75865352Y-130136485D01*
X75865352Y-130136485D02*
X75722495Y-130136485D01*
X75722495Y-130136485D02*
X75627257Y-130088866D01*
X75627257Y-130088866D02*
X75579638Y-129993628D01*
X75579638Y-129993628D02*
X75579638Y-129946009D01*
X75579638Y-129946009D02*
X75627257Y-129850771D01*
X75627257Y-129850771D02*
X75722495Y-129803152D01*
X75722495Y-129803152D02*
X75865352Y-129803152D01*
X75865352Y-129803152D02*
X75960590Y-129850771D01*
X76436781Y-130469819D02*
X76436781Y-129803152D01*
X76436781Y-129469819D02*
X76389162Y-129517438D01*
X76389162Y-129517438D02*
X76436781Y-129565057D01*
X76436781Y-129565057D02*
X76484400Y-129517438D01*
X76484400Y-129517438D02*
X76436781Y-129469819D01*
X76436781Y-129469819D02*
X76436781Y-129565057D01*
X77341542Y-130469819D02*
X77341542Y-129469819D01*
X77341542Y-130422200D02*
X77246304Y-130469819D01*
X77246304Y-130469819D02*
X77055828Y-130469819D01*
X77055828Y-130469819D02*
X76960590Y-130422200D01*
X76960590Y-130422200D02*
X76912971Y-130374580D01*
X76912971Y-130374580D02*
X76865352Y-130279342D01*
X76865352Y-130279342D02*
X76865352Y-129993628D01*
X76865352Y-129993628D02*
X76912971Y-129898390D01*
X76912971Y-129898390D02*
X76960590Y-129850771D01*
X76960590Y-129850771D02*
X77055828Y-129803152D01*
X77055828Y-129803152D02*
X77246304Y-129803152D01*
X77246304Y-129803152D02*
X77341542Y-129850771D01*
X78198685Y-130422200D02*
X78103447Y-130469819D01*
X78103447Y-130469819D02*
X77912971Y-130469819D01*
X77912971Y-130469819D02*
X77817733Y-130422200D01*
X77817733Y-130422200D02*
X77770114Y-130326961D01*
X77770114Y-130326961D02*
X77770114Y-129946009D01*
X77770114Y-129946009D02*
X77817733Y-129850771D01*
X77817733Y-129850771D02*
X77912971Y-129803152D01*
X77912971Y-129803152D02*
X78103447Y-129803152D01*
X78103447Y-129803152D02*
X78198685Y-129850771D01*
X78198685Y-129850771D02*
X78246304Y-129946009D01*
X78246304Y-129946009D02*
X78246304Y-130041247D01*
X78246304Y-130041247D02*
X77770114Y-130136485D01*
X79865352Y-129803152D02*
X79865352Y-130469819D01*
X79436781Y-129803152D02*
X79436781Y-130326961D01*
X79436781Y-130326961D02*
X79484400Y-130422200D01*
X79484400Y-130422200D02*
X79579638Y-130469819D01*
X79579638Y-130469819D02*
X79722495Y-130469819D01*
X79722495Y-130469819D02*
X79817733Y-130422200D01*
X79817733Y-130422200D02*
X79865352Y-130374580D01*
X80341543Y-129803152D02*
X80341543Y-130803152D01*
X80341543Y-129850771D02*
X80436781Y-129803152D01*
X80436781Y-129803152D02*
X80627257Y-129803152D01*
X80627257Y-129803152D02*
X80722495Y-129850771D01*
X80722495Y-129850771D02*
X80770114Y-129898390D01*
X80770114Y-129898390D02*
X80817733Y-129993628D01*
X80817733Y-129993628D02*
X80817733Y-130279342D01*
X80817733Y-130279342D02*
X80770114Y-130374580D01*
X80770114Y-130374580D02*
X80722495Y-130422200D01*
X80722495Y-130422200D02*
X80627257Y-130469819D01*
X80627257Y-130469819D02*
X80436781Y-130469819D01*
X80436781Y-130469819D02*
X80341543Y-130422200D01*
X122041541Y-126069819D02*
X122660588Y-126069819D01*
X122660588Y-126069819D02*
X122327255Y-126450771D01*
X122327255Y-126450771D02*
X122470112Y-126450771D01*
X122470112Y-126450771D02*
X122565350Y-126498390D01*
X122565350Y-126498390D02*
X122612969Y-126546009D01*
X122612969Y-126546009D02*
X122660588Y-126641247D01*
X122660588Y-126641247D02*
X122660588Y-126879342D01*
X122660588Y-126879342D02*
X122612969Y-126974580D01*
X122612969Y-126974580D02*
X122565350Y-127022200D01*
X122565350Y-127022200D02*
X122470112Y-127069819D01*
X122470112Y-127069819D02*
X122184398Y-127069819D01*
X122184398Y-127069819D02*
X122089160Y-127022200D01*
X122089160Y-127022200D02*
X122041541Y-126974580D01*
X123089160Y-126974580D02*
X123136779Y-127022200D01*
X123136779Y-127022200D02*
X123089160Y-127069819D01*
X123089160Y-127069819D02*
X123041541Y-127022200D01*
X123041541Y-127022200D02*
X123089160Y-126974580D01*
X123089160Y-126974580D02*
X123089160Y-127069819D01*
X123470112Y-126069819D02*
X124089159Y-126069819D01*
X124089159Y-126069819D02*
X123755826Y-126450771D01*
X123755826Y-126450771D02*
X123898683Y-126450771D01*
X123898683Y-126450771D02*
X123993921Y-126498390D01*
X123993921Y-126498390D02*
X124041540Y-126546009D01*
X124041540Y-126546009D02*
X124089159Y-126641247D01*
X124089159Y-126641247D02*
X124089159Y-126879342D01*
X124089159Y-126879342D02*
X124041540Y-126974580D01*
X124041540Y-126974580D02*
X123993921Y-127022200D01*
X123993921Y-127022200D02*
X123898683Y-127069819D01*
X123898683Y-127069819D02*
X123612969Y-127069819D01*
X123612969Y-127069819D02*
X123517731Y-127022200D01*
X123517731Y-127022200D02*
X123470112Y-126974580D01*
X124374874Y-126069819D02*
X124708207Y-127069819D01*
X124708207Y-127069819D02*
X125041540Y-126069819D01*
X103089160Y-125422200D02*
X103232017Y-125469819D01*
X103232017Y-125469819D02*
X103470112Y-125469819D01*
X103470112Y-125469819D02*
X103565350Y-125422200D01*
X103565350Y-125422200D02*
X103612969Y-125374580D01*
X103612969Y-125374580D02*
X103660588Y-125279342D01*
X103660588Y-125279342D02*
X103660588Y-125184104D01*
X103660588Y-125184104D02*
X103612969Y-125088866D01*
X103612969Y-125088866D02*
X103565350Y-125041247D01*
X103565350Y-125041247D02*
X103470112Y-124993628D01*
X103470112Y-124993628D02*
X103279636Y-124946009D01*
X103279636Y-124946009D02*
X103184398Y-124898390D01*
X103184398Y-124898390D02*
X103136779Y-124850771D01*
X103136779Y-124850771D02*
X103089160Y-124755533D01*
X103089160Y-124755533D02*
X103089160Y-124660295D01*
X103089160Y-124660295D02*
X103136779Y-124565057D01*
X103136779Y-124565057D02*
X103184398Y-124517438D01*
X103184398Y-124517438D02*
X103279636Y-124469819D01*
X103279636Y-124469819D02*
X103517731Y-124469819D01*
X103517731Y-124469819D02*
X103660588Y-124517438D01*
X104089160Y-125469819D02*
X104089160Y-124469819D01*
X104089160Y-124469819D02*
X104422493Y-125184104D01*
X104422493Y-125184104D02*
X104755826Y-124469819D01*
X104755826Y-124469819D02*
X104755826Y-125469819D01*
X105565350Y-124946009D02*
X105708207Y-124993628D01*
X105708207Y-124993628D02*
X105755826Y-125041247D01*
X105755826Y-125041247D02*
X105803445Y-125136485D01*
X105803445Y-125136485D02*
X105803445Y-125279342D01*
X105803445Y-125279342D02*
X105755826Y-125374580D01*
X105755826Y-125374580D02*
X105708207Y-125422200D01*
X105708207Y-125422200D02*
X105612969Y-125469819D01*
X105612969Y-125469819D02*
X105232017Y-125469819D01*
X105232017Y-125469819D02*
X105232017Y-124469819D01*
X105232017Y-124469819D02*
X105565350Y-124469819D01*
X105565350Y-124469819D02*
X105660588Y-124517438D01*
X105660588Y-124517438D02*
X105708207Y-124565057D01*
X105708207Y-124565057D02*
X105755826Y-124660295D01*
X105755826Y-124660295D02*
X105755826Y-124755533D01*
X105755826Y-124755533D02*
X105708207Y-124850771D01*
X105708207Y-124850771D02*
X105660588Y-124898390D01*
X105660588Y-124898390D02*
X105565350Y-124946009D01*
X105565350Y-124946009D02*
X105232017Y-124946009D01*
X106232017Y-125469819D02*
X106232017Y-124469819D01*
X106232017Y-124469819D02*
X106470112Y-124469819D01*
X106470112Y-124469819D02*
X106612969Y-124517438D01*
X106612969Y-124517438D02*
X106708207Y-124612676D01*
X106708207Y-124612676D02*
X106755826Y-124707914D01*
X106755826Y-124707914D02*
X106803445Y-124898390D01*
X106803445Y-124898390D02*
X106803445Y-125041247D01*
X106803445Y-125041247D02*
X106755826Y-125231723D01*
X106755826Y-125231723D02*
X106708207Y-125326961D01*
X106708207Y-125326961D02*
X106612969Y-125422200D01*
X106612969Y-125422200D02*
X106470112Y-125469819D01*
X106470112Y-125469819D02*
X106232017Y-125469819D01*
X107184398Y-125184104D02*
X107660588Y-125184104D01*
X107089160Y-125469819D02*
X107422493Y-124469819D01*
X107422493Y-124469819D02*
X107755826Y-125469819D01*
X107946303Y-124469819D02*
X108517731Y-124469819D01*
X108232017Y-125469819D02*
X108232017Y-124469819D01*
X108803446Y-125184104D02*
X109279636Y-125184104D01*
X108708208Y-125469819D02*
X109041541Y-124469819D01*
X109041541Y-124469819D02*
X109374874Y-125469819D01*
X86319046Y-135612256D02*
X86223808Y-135659875D01*
X86223808Y-135659875D02*
X86033332Y-135659875D01*
X86033332Y-135659875D02*
X85938094Y-135612256D01*
X85938094Y-135612256D02*
X85890475Y-135564636D01*
X85890475Y-135564636D02*
X85842856Y-135469398D01*
X85842856Y-135469398D02*
X85842856Y-135183684D01*
X85842856Y-135183684D02*
X85890475Y-135088446D01*
X85890475Y-135088446D02*
X85938094Y-135040827D01*
X85938094Y-135040827D02*
X86033332Y-134993208D01*
X86033332Y-134993208D02*
X86223808Y-134993208D01*
X86223808Y-134993208D02*
X86319046Y-135040827D01*
X87176189Y-134993208D02*
X87176189Y-135659875D01*
X86747618Y-134993208D02*
X86747618Y-135517017D01*
X86747618Y-135517017D02*
X86795237Y-135612256D01*
X86795237Y-135612256D02*
X86890475Y-135659875D01*
X86890475Y-135659875D02*
X87033332Y-135659875D01*
X87033332Y-135659875D02*
X87128570Y-135612256D01*
X87128570Y-135612256D02*
X87176189Y-135564636D01*
X87509523Y-134993208D02*
X87890475Y-134993208D01*
X87652380Y-134659875D02*
X87652380Y-135517017D01*
X87652380Y-135517017D02*
X87699999Y-135612256D01*
X87699999Y-135612256D02*
X87795237Y-135659875D01*
X87795237Y-135659875D02*
X87890475Y-135659875D01*
X88985714Y-135659875D02*
X88985714Y-134659875D01*
X89414285Y-135659875D02*
X89414285Y-135136065D01*
X89414285Y-135136065D02*
X89366666Y-135040827D01*
X89366666Y-135040827D02*
X89271428Y-134993208D01*
X89271428Y-134993208D02*
X89128571Y-134993208D01*
X89128571Y-134993208D02*
X89033333Y-135040827D01*
X89033333Y-135040827D02*
X88985714Y-135088446D01*
X90271428Y-135612256D02*
X90176190Y-135659875D01*
X90176190Y-135659875D02*
X89985714Y-135659875D01*
X89985714Y-135659875D02*
X89890476Y-135612256D01*
X89890476Y-135612256D02*
X89842857Y-135517017D01*
X89842857Y-135517017D02*
X89842857Y-135136065D01*
X89842857Y-135136065D02*
X89890476Y-135040827D01*
X89890476Y-135040827D02*
X89985714Y-134993208D01*
X89985714Y-134993208D02*
X90176190Y-134993208D01*
X90176190Y-134993208D02*
X90271428Y-135040827D01*
X90271428Y-135040827D02*
X90319047Y-135136065D01*
X90319047Y-135136065D02*
X90319047Y-135231303D01*
X90319047Y-135231303D02*
X89842857Y-135326541D01*
X90747619Y-135659875D02*
X90747619Y-134993208D01*
X90747619Y-135183684D02*
X90795238Y-135088446D01*
X90795238Y-135088446D02*
X90842857Y-135040827D01*
X90842857Y-135040827D02*
X90938095Y-134993208D01*
X90938095Y-134993208D02*
X91033333Y-134993208D01*
X91747619Y-135612256D02*
X91652381Y-135659875D01*
X91652381Y-135659875D02*
X91461905Y-135659875D01*
X91461905Y-135659875D02*
X91366667Y-135612256D01*
X91366667Y-135612256D02*
X91319048Y-135517017D01*
X91319048Y-135517017D02*
X91319048Y-135136065D01*
X91319048Y-135136065D02*
X91366667Y-135040827D01*
X91366667Y-135040827D02*
X91461905Y-134993208D01*
X91461905Y-134993208D02*
X91652381Y-134993208D01*
X91652381Y-134993208D02*
X91747619Y-135040827D01*
X91747619Y-135040827D02*
X91795238Y-135136065D01*
X91795238Y-135136065D02*
X91795238Y-135231303D01*
X91795238Y-135231303D02*
X91319048Y-135326541D01*
X87176190Y-137269819D02*
X87176190Y-136603152D01*
X87176190Y-136269819D02*
X87128571Y-136317438D01*
X87128571Y-136317438D02*
X87176190Y-136365057D01*
X87176190Y-136365057D02*
X87223809Y-136317438D01*
X87223809Y-136317438D02*
X87176190Y-136269819D01*
X87176190Y-136269819D02*
X87176190Y-136365057D01*
X87509523Y-136603152D02*
X87890475Y-136603152D01*
X87652380Y-137269819D02*
X87652380Y-136412676D01*
X87652380Y-136412676D02*
X87699999Y-136317438D01*
X87699999Y-136317438D02*
X87795237Y-136269819D01*
X87795237Y-136269819D02*
X87890475Y-136269819D01*
X88890476Y-137269819D02*
X89414285Y-136603152D01*
X88890476Y-136603152D02*
X89414285Y-137269819D01*
X90319047Y-137269819D02*
X89747619Y-137269819D01*
X90033333Y-137269819D02*
X90033333Y-136269819D01*
X90033333Y-136269819D02*
X89938095Y-136412676D01*
X89938095Y-136412676D02*
X89842857Y-136507914D01*
X89842857Y-136507914D02*
X89747619Y-136555533D01*
X91176190Y-136269819D02*
X90985714Y-136269819D01*
X90985714Y-136269819D02*
X90890476Y-136317438D01*
X90890476Y-136317438D02*
X90842857Y-136365057D01*
X90842857Y-136365057D02*
X90747619Y-136507914D01*
X90747619Y-136507914D02*
X90700000Y-136698390D01*
X90700000Y-136698390D02*
X90700000Y-137079342D01*
X90700000Y-137079342D02*
X90747619Y-137174580D01*
X90747619Y-137174580D02*
X90795238Y-137222200D01*
X90795238Y-137222200D02*
X90890476Y-137269819D01*
X90890476Y-137269819D02*
X91080952Y-137269819D01*
X91080952Y-137269819D02*
X91176190Y-137222200D01*
X91176190Y-137222200D02*
X91223809Y-137174580D01*
X91223809Y-137174580D02*
X91271428Y-137079342D01*
X91271428Y-137079342D02*
X91271428Y-136841247D01*
X91271428Y-136841247D02*
X91223809Y-136746009D01*
X91223809Y-136746009D02*
X91176190Y-136698390D01*
X91176190Y-136698390D02*
X91080952Y-136650771D01*
X91080952Y-136650771D02*
X90890476Y-136650771D01*
X90890476Y-136650771D02*
X90795238Y-136698390D01*
X90795238Y-136698390D02*
X90747619Y-136746009D01*
X90747619Y-136746009D02*
X90700000Y-136841247D01*
G36*
X94347313Y-134540530D02*
G01*
X93533984Y-134540530D01*
X93330774Y-134759371D01*
X94001465Y-134759371D01*
X92837404Y-135899497D01*
X92981995Y-136041158D01*
X94145568Y-134899567D01*
X94144103Y-135557069D01*
X94347313Y-135357766D01*
X94347313Y-134540530D01*
G37*
X109860588Y-127517438D02*
X109765350Y-127469819D01*
X109765350Y-127469819D02*
X109622493Y-127469819D01*
X109622493Y-127469819D02*
X109479636Y-127517438D01*
X109479636Y-127517438D02*
X109384398Y-127612676D01*
X109384398Y-127612676D02*
X109336779Y-127707914D01*
X109336779Y-127707914D02*
X109289160Y-127898390D01*
X109289160Y-127898390D02*
X109289160Y-128041247D01*
X109289160Y-128041247D02*
X109336779Y-128231723D01*
X109336779Y-128231723D02*
X109384398Y-128326961D01*
X109384398Y-128326961D02*
X109479636Y-128422200D01*
X109479636Y-128422200D02*
X109622493Y-128469819D01*
X109622493Y-128469819D02*
X109717731Y-128469819D01*
X109717731Y-128469819D02*
X109860588Y-128422200D01*
X109860588Y-128422200D02*
X109908207Y-128374580D01*
X109908207Y-128374580D02*
X109908207Y-128041247D01*
X109908207Y-128041247D02*
X109717731Y-128041247D01*
X110336779Y-128469819D02*
X110336779Y-127469819D01*
X110336779Y-127469819D02*
X110908207Y-128469819D01*
X110908207Y-128469819D02*
X110908207Y-127469819D01*
X111384398Y-128469819D02*
X111384398Y-127469819D01*
X111384398Y-127469819D02*
X111622493Y-127469819D01*
X111622493Y-127469819D02*
X111765350Y-127517438D01*
X111765350Y-127517438D02*
X111860588Y-127612676D01*
X111860588Y-127612676D02*
X111908207Y-127707914D01*
X111908207Y-127707914D02*
X111955826Y-127898390D01*
X111955826Y-127898390D02*
X111955826Y-128041247D01*
X111955826Y-128041247D02*
X111908207Y-128231723D01*
X111908207Y-128231723D02*
X111860588Y-128326961D01*
X111860588Y-128326961D02*
X111765350Y-128422200D01*
X111765350Y-128422200D02*
X111622493Y-128469819D01*
X111622493Y-128469819D02*
X111384398Y-128469819D01*
X105489160Y-126922200D02*
X105632017Y-126969819D01*
X105632017Y-126969819D02*
X105870112Y-126969819D01*
X105870112Y-126969819D02*
X105965350Y-126922200D01*
X105965350Y-126922200D02*
X106012969Y-126874580D01*
X106012969Y-126874580D02*
X106060588Y-126779342D01*
X106060588Y-126779342D02*
X106060588Y-126684104D01*
X106060588Y-126684104D02*
X106012969Y-126588866D01*
X106012969Y-126588866D02*
X105965350Y-126541247D01*
X105965350Y-126541247D02*
X105870112Y-126493628D01*
X105870112Y-126493628D02*
X105679636Y-126446009D01*
X105679636Y-126446009D02*
X105584398Y-126398390D01*
X105584398Y-126398390D02*
X105536779Y-126350771D01*
X105536779Y-126350771D02*
X105489160Y-126255533D01*
X105489160Y-126255533D02*
X105489160Y-126160295D01*
X105489160Y-126160295D02*
X105536779Y-126065057D01*
X105536779Y-126065057D02*
X105584398Y-126017438D01*
X105584398Y-126017438D02*
X105679636Y-125969819D01*
X105679636Y-125969819D02*
X105917731Y-125969819D01*
X105917731Y-125969819D02*
X106060588Y-126017438D01*
X106489160Y-126969819D02*
X106489160Y-125969819D01*
X106489160Y-125969819D02*
X106822493Y-126684104D01*
X106822493Y-126684104D02*
X107155826Y-125969819D01*
X107155826Y-125969819D02*
X107155826Y-126969819D01*
X107965350Y-126446009D02*
X108108207Y-126493628D01*
X108108207Y-126493628D02*
X108155826Y-126541247D01*
X108155826Y-126541247D02*
X108203445Y-126636485D01*
X108203445Y-126636485D02*
X108203445Y-126779342D01*
X108203445Y-126779342D02*
X108155826Y-126874580D01*
X108155826Y-126874580D02*
X108108207Y-126922200D01*
X108108207Y-126922200D02*
X108012969Y-126969819D01*
X108012969Y-126969819D02*
X107632017Y-126969819D01*
X107632017Y-126969819D02*
X107632017Y-125969819D01*
X107632017Y-125969819D02*
X107965350Y-125969819D01*
X107965350Y-125969819D02*
X108060588Y-126017438D01*
X108060588Y-126017438D02*
X108108207Y-126065057D01*
X108108207Y-126065057D02*
X108155826Y-126160295D01*
X108155826Y-126160295D02*
X108155826Y-126255533D01*
X108155826Y-126255533D02*
X108108207Y-126350771D01*
X108108207Y-126350771D02*
X108060588Y-126398390D01*
X108060588Y-126398390D02*
X107965350Y-126446009D01*
X107965350Y-126446009D02*
X107632017Y-126446009D01*
X109203445Y-126874580D02*
X109155826Y-126922200D01*
X109155826Y-126922200D02*
X109012969Y-126969819D01*
X109012969Y-126969819D02*
X108917731Y-126969819D01*
X108917731Y-126969819D02*
X108774874Y-126922200D01*
X108774874Y-126922200D02*
X108679636Y-126826961D01*
X108679636Y-126826961D02*
X108632017Y-126731723D01*
X108632017Y-126731723D02*
X108584398Y-126541247D01*
X108584398Y-126541247D02*
X108584398Y-126398390D01*
X108584398Y-126398390D02*
X108632017Y-126207914D01*
X108632017Y-126207914D02*
X108679636Y-126112676D01*
X108679636Y-126112676D02*
X108774874Y-126017438D01*
X108774874Y-126017438D02*
X108917731Y-125969819D01*
X108917731Y-125969819D02*
X109012969Y-125969819D01*
X109012969Y-125969819D02*
X109155826Y-126017438D01*
X109155826Y-126017438D02*
X109203445Y-126065057D01*
X110108207Y-126969819D02*
X109632017Y-126969819D01*
X109632017Y-126969819D02*
X109632017Y-125969819D01*
X110441541Y-126969819D02*
X110441541Y-125969819D01*
X111012969Y-126969819D02*
X110584398Y-126398390D01*
X111012969Y-125969819D02*
X110441541Y-126541247D01*
X124160588Y-125569819D02*
X123589160Y-125569819D01*
X123874874Y-125569819D02*
X123874874Y-124569819D01*
X123874874Y-124569819D02*
X123779636Y-124712676D01*
X123779636Y-124712676D02*
X123684398Y-124807914D01*
X123684398Y-124807914D02*
X123589160Y-124855533D01*
X124541541Y-124665057D02*
X124589160Y-124617438D01*
X124589160Y-124617438D02*
X124684398Y-124569819D01*
X124684398Y-124569819D02*
X124922493Y-124569819D01*
X124922493Y-124569819D02*
X125017731Y-124617438D01*
X125017731Y-124617438D02*
X125065350Y-124665057D01*
X125065350Y-124665057D02*
X125112969Y-124760295D01*
X125112969Y-124760295D02*
X125112969Y-124855533D01*
X125112969Y-124855533D02*
X125065350Y-124998390D01*
X125065350Y-124998390D02*
X124493922Y-125569819D01*
X124493922Y-125569819D02*
X125112969Y-125569819D01*
X125398684Y-124569819D02*
X125732017Y-125569819D01*
X125732017Y-125569819D02*
X126065350Y-124569819D01*
G36*
X85079682Y-122801252D02*
G01*
X85047144Y-122872579D01*
X85013278Y-122943310D01*
X84978085Y-123013446D01*
X84941563Y-123082986D01*
X84904125Y-123151313D01*
X84865817Y-123217808D01*
X84826639Y-123282472D01*
X84786591Y-123345303D01*
X84740757Y-123413274D01*
X84694344Y-123478289D01*
X84647351Y-123540348D01*
X84620994Y-123573548D01*
X84573682Y-123630020D01*
X84521318Y-123687465D01*
X84469168Y-123739329D01*
X84453565Y-123753799D01*
X84397118Y-123802041D01*
X84336625Y-123845782D01*
X84291999Y-123872501D01*
X84220086Y-123903005D01*
X84147637Y-123914958D01*
X84143255Y-123915000D01*
X84089399Y-123904741D01*
X84046168Y-123876531D01*
X84017592Y-123833667D01*
X84007334Y-123780177D01*
X84007334Y-123280090D01*
X83475373Y-123874699D01*
X83430676Y-123905474D01*
X83380851Y-123915000D01*
X83328461Y-123904741D01*
X83285596Y-123876531D01*
X83256287Y-123833667D01*
X83245662Y-123780177D01*
X83245662Y-122801252D01*
X83513475Y-122801252D01*
X83513475Y-123435795D01*
X84047267Y-122839354D01*
X84113315Y-122803219D01*
X84115778Y-122802718D01*
X84189043Y-122809544D01*
X84193813Y-122811510D01*
X84252507Y-122858514D01*
X84253897Y-122860603D01*
X84276223Y-122931387D01*
X84276245Y-122933876D01*
X84276245Y-123570983D01*
X84328674Y-123517882D01*
X84377883Y-123462992D01*
X84428293Y-123400546D01*
X84432683Y-123394762D01*
X84479622Y-123330345D01*
X84524224Y-123264543D01*
X84562742Y-123203520D01*
X84603436Y-123135419D01*
X84642398Y-123066626D01*
X84676315Y-123003485D01*
X84712534Y-122933802D01*
X84748147Y-122864293D01*
X84779996Y-122801252D01*
X85079682Y-122801252D01*
G37*
G36*
X86996500Y-122801252D02*
G01*
X86963962Y-122872579D01*
X86930096Y-122943310D01*
X86894902Y-123013446D01*
X86858381Y-123082986D01*
X86820943Y-123151313D01*
X86782635Y-123217808D01*
X86743457Y-123282472D01*
X86703408Y-123345303D01*
X86657575Y-123413274D01*
X86611162Y-123478289D01*
X86564169Y-123540348D01*
X86537812Y-123573548D01*
X86490500Y-123630020D01*
X86438136Y-123687465D01*
X86385986Y-123739329D01*
X86370383Y-123753799D01*
X86313936Y-123802041D01*
X86253443Y-123845782D01*
X86208817Y-123872501D01*
X86136903Y-123903005D01*
X86064455Y-123914958D01*
X86060073Y-123915000D01*
X86006217Y-123904741D01*
X85962986Y-123876531D01*
X85934410Y-123833667D01*
X85924152Y-123780177D01*
X85924152Y-123280090D01*
X85392191Y-123874699D01*
X85347494Y-123905474D01*
X85297669Y-123915000D01*
X85245279Y-123904741D01*
X85202414Y-123876531D01*
X85173105Y-123833667D01*
X85162480Y-123780177D01*
X85162480Y-122801252D01*
X85430293Y-122801252D01*
X85430293Y-123435795D01*
X85964085Y-122839354D01*
X86030133Y-122803219D01*
X86032595Y-122802718D01*
X86105861Y-122809544D01*
X86110631Y-122811510D01*
X86169325Y-122858514D01*
X86170715Y-122860603D01*
X86193041Y-122931387D01*
X86193063Y-122933876D01*
X86193063Y-123570983D01*
X86245492Y-123517882D01*
X86294700Y-123462992D01*
X86345111Y-123400546D01*
X86349501Y-123394762D01*
X86396440Y-123330345D01*
X86441042Y-123264543D01*
X86479560Y-123203520D01*
X86520253Y-123135419D01*
X86559215Y-123066626D01*
X86593133Y-123003485D01*
X86629352Y-122933802D01*
X86664965Y-122864293D01*
X86696814Y-122801252D01*
X86996500Y-122801252D01*
G37*
G36*
X88913318Y-122801252D02*
G01*
X88880780Y-122872579D01*
X88846914Y-122943310D01*
X88811720Y-123013446D01*
X88775198Y-123082986D01*
X88737761Y-123151313D01*
X88699453Y-123217808D01*
X88660274Y-123282472D01*
X88620226Y-123345303D01*
X88574393Y-123413274D01*
X88527980Y-123478289D01*
X88480987Y-123540348D01*
X88454630Y-123573548D01*
X88407318Y-123630020D01*
X88354954Y-123687465D01*
X88302804Y-123739329D01*
X88287201Y-123753799D01*
X88230754Y-123802041D01*
X88170260Y-123845782D01*
X88125635Y-123872501D01*
X88053721Y-123903005D01*
X87981273Y-123914958D01*
X87976891Y-123915000D01*
X87923035Y-123904741D01*
X87879804Y-123876531D01*
X87851228Y-123833667D01*
X87840969Y-123780177D01*
X87840969Y-123280090D01*
X87309009Y-123874699D01*
X87264312Y-123905474D01*
X87214487Y-123915000D01*
X87162096Y-123904741D01*
X87119232Y-123876531D01*
X87089923Y-123833667D01*
X87079298Y-123780177D01*
X87079298Y-122801252D01*
X87347110Y-122801252D01*
X87347110Y-123435795D01*
X87880903Y-122839354D01*
X87946951Y-122803219D01*
X87949413Y-122802718D01*
X88022679Y-122809544D01*
X88027449Y-122811510D01*
X88086143Y-122858514D01*
X88087533Y-122860603D01*
X88109859Y-122931387D01*
X88109881Y-122933876D01*
X88109881Y-123570983D01*
X88162310Y-123517882D01*
X88211518Y-123462992D01*
X88261929Y-123400546D01*
X88266318Y-123394762D01*
X88313258Y-123330345D01*
X88357859Y-123264543D01*
X88396378Y-123203520D01*
X88437071Y-123135419D01*
X88476033Y-123066626D01*
X88509951Y-123003485D01*
X88546170Y-122933802D01*
X88581782Y-122864293D01*
X88613632Y-122801252D01*
X88913318Y-122801252D01*
G37*
G36*
X89149256Y-123780177D02*
G01*
X89138265Y-123832201D01*
X89109689Y-123874333D01*
X89067557Y-123902543D01*
X89016632Y-123912801D01*
X88964609Y-123902543D01*
X88922110Y-123874333D01*
X88893900Y-123832201D01*
X88883642Y-123780177D01*
X88893900Y-123728886D01*
X88922110Y-123686755D01*
X88964609Y-123658178D01*
X89016632Y-123647187D01*
X89067557Y-123658178D01*
X89109689Y-123686755D01*
X89138265Y-123728886D01*
X89149256Y-123780177D01*
G37*
G36*
X90591266Y-123915000D02*
G01*
X90323087Y-123915000D01*
X90323087Y-123296577D01*
X90312990Y-123223968D01*
X90305136Y-123202421D01*
X90265452Y-123140549D01*
X90256043Y-123130980D01*
X90193772Y-123089346D01*
X90183503Y-123085184D01*
X90111280Y-123069631D01*
X90093377Y-123069064D01*
X89624431Y-123069064D01*
X89624431Y-123915000D01*
X89356618Y-123915000D01*
X89356618Y-122933876D01*
X89366877Y-122882219D01*
X89395819Y-122839720D01*
X89439050Y-122811510D01*
X89491807Y-122801252D01*
X90095575Y-122801252D01*
X90171092Y-122807119D01*
X90202187Y-122812609D01*
X90275284Y-122833511D01*
X90313196Y-122849246D01*
X90380200Y-122885825D01*
X90418342Y-122912993D01*
X90473812Y-122964616D01*
X90507002Y-123006782D01*
X90545591Y-123074055D01*
X90568551Y-123133911D01*
X90584855Y-123205599D01*
X90591066Y-123279770D01*
X90591266Y-123296577D01*
X90591266Y-123915000D01*
G37*
G36*
X91967697Y-123546071D02*
G01*
X91959969Y-123619115D01*
X91947913Y-123666238D01*
X91918302Y-123735764D01*
X91884532Y-123785673D01*
X91830558Y-123839099D01*
X91770226Y-123877997D01*
X91697519Y-123904556D01*
X91623566Y-123914421D01*
X91598768Y-123915000D01*
X91115533Y-123915000D01*
X91042489Y-123907415D01*
X90995366Y-123895582D01*
X90926020Y-123865791D01*
X90875931Y-123832201D01*
X90822505Y-123778045D01*
X90783607Y-123717896D01*
X90757048Y-123644925D01*
X90747183Y-123570875D01*
X90746605Y-123546071D01*
X90754189Y-123472884D01*
X90766022Y-123425537D01*
X90795813Y-123355714D01*
X90829403Y-123305736D01*
X90883559Y-123252127D01*
X90943709Y-123213412D01*
X91016679Y-123186589D01*
X91090729Y-123176627D01*
X91115533Y-123176043D01*
X91598768Y-123176043D01*
X91598768Y-123431765D01*
X91115533Y-123431765D01*
X91043032Y-123454016D01*
X91030903Y-123465471D01*
X91001952Y-123533206D01*
X91001228Y-123548269D01*
X91023962Y-123618166D01*
X91035666Y-123629968D01*
X91103170Y-123658562D01*
X91117732Y-123659277D01*
X91598768Y-123659277D01*
X91671027Y-123637510D01*
X91683032Y-123626304D01*
X91712340Y-123558926D01*
X91713073Y-123543872D01*
X91713073Y-123170181D01*
X91691548Y-123098963D01*
X91680467Y-123086650D01*
X91610864Y-123055995D01*
X91598768Y-123055509D01*
X91010387Y-123055509D01*
X91010387Y-122801252D01*
X91598768Y-122801252D01*
X91671669Y-122808980D01*
X91718569Y-122821036D01*
X91788095Y-122850647D01*
X91838004Y-122884417D01*
X91891612Y-122938390D01*
X91930327Y-122998722D01*
X91957150Y-123071430D01*
X91967113Y-123145383D01*
X91967697Y-123170181D01*
X91967697Y-123546071D01*
G37*
G36*
X93423995Y-123915000D02*
G01*
X93155816Y-123915000D01*
X93155816Y-123296577D01*
X93145718Y-123223968D01*
X93137864Y-123202421D01*
X93098181Y-123140549D01*
X93088771Y-123130980D01*
X93026501Y-123089346D01*
X93016231Y-123085184D01*
X92944009Y-123069631D01*
X92926106Y-123069064D01*
X92457159Y-123069064D01*
X92457159Y-123915000D01*
X92189347Y-123915000D01*
X92189347Y-122933876D01*
X92199605Y-122882219D01*
X92228548Y-122839720D01*
X92271779Y-122811510D01*
X92324535Y-122801252D01*
X92928304Y-122801252D01*
X93003820Y-122807119D01*
X93034916Y-122812609D01*
X93108013Y-122833511D01*
X93145924Y-122849246D01*
X93212929Y-122885825D01*
X93251071Y-122912993D01*
X93306541Y-122964616D01*
X93339731Y-123006782D01*
X93378319Y-123074055D01*
X93401280Y-123133911D01*
X93417584Y-123205599D01*
X93423795Y-123279770D01*
X93423995Y-123296577D01*
X93423995Y-123915000D01*
G37*
G36*
X94872599Y-123538743D02*
G01*
X94867035Y-123612237D01*
X94855013Y-123663307D01*
X94825465Y-123732636D01*
X94808485Y-123760027D01*
X94760262Y-123815669D01*
X94741807Y-123831102D01*
X94677473Y-123871716D01*
X94661939Y-123879096D01*
X94590678Y-123903226D01*
X94577309Y-123906207D01*
X94503529Y-123914922D01*
X94496343Y-123915000D01*
X94013108Y-123915000D01*
X93936355Y-123908800D01*
X93889644Y-123897414D01*
X93820645Y-123867693D01*
X93793290Y-123850519D01*
X93737442Y-123801610D01*
X93721849Y-123783108D01*
X93681235Y-123718774D01*
X93673855Y-123703241D01*
X93649724Y-123632240D01*
X93646744Y-123618977D01*
X93638029Y-123545798D01*
X93637951Y-123538743D01*
X93637951Y-123176043D01*
X93644179Y-123097597D01*
X93664816Y-123024748D01*
X93675687Y-123001653D01*
X93718002Y-122936624D01*
X93769476Y-122885150D01*
X93831825Y-122844794D01*
X93891475Y-122821036D01*
X93966169Y-122804517D01*
X94013108Y-122801252D01*
X94496343Y-122801252D01*
X94496343Y-123069064D01*
X94015307Y-123069064D01*
X93943301Y-123088626D01*
X93933974Y-123096542D01*
X93906375Y-123166442D01*
X93906130Y-123176043D01*
X93906130Y-123536912D01*
X93925431Y-123609989D01*
X93933241Y-123619344D01*
X94003504Y-123646942D01*
X94013108Y-123647187D01*
X94496343Y-123647187D01*
X94568638Y-123627365D01*
X94577676Y-123619344D01*
X94604548Y-123548416D01*
X94604787Y-123538743D01*
X94604787Y-122330108D01*
X94872599Y-122330108D01*
X94872599Y-123538743D01*
G37*
G36*
X96106514Y-123069064D02*
G01*
X95500547Y-123069064D01*
X95500547Y-122801252D01*
X96106514Y-122801252D01*
X96106514Y-123069064D01*
G37*
G36*
X96106514Y-122585830D02*
G01*
X95502745Y-122585830D01*
X95431695Y-122603969D01*
X95420314Y-122613307D01*
X95392715Y-122683207D01*
X95392470Y-122692808D01*
X95392470Y-123915000D01*
X95124291Y-123915000D01*
X95124291Y-122692808D01*
X95130491Y-122616055D01*
X95141877Y-122569344D01*
X95171598Y-122500345D01*
X95188771Y-122472990D01*
X95237681Y-122417348D01*
X95256182Y-122401915D01*
X95320516Y-122361302D01*
X95336050Y-122353921D01*
X95406790Y-122329694D01*
X95419947Y-122326810D01*
X95493365Y-122318095D01*
X95500547Y-122318018D01*
X96106514Y-122318018D01*
X96106514Y-122585830D01*
G37*
G36*
X97338597Y-123546071D02*
G01*
X97330869Y-123619115D01*
X97318813Y-123666238D01*
X97289202Y-123735764D01*
X97255432Y-123785673D01*
X97201459Y-123839099D01*
X97141127Y-123877997D01*
X97068419Y-123904556D01*
X96994466Y-123914421D01*
X96969668Y-123915000D01*
X96486434Y-123915000D01*
X96413390Y-123907415D01*
X96366266Y-123895582D01*
X96296920Y-123865791D01*
X96246831Y-123832201D01*
X96193405Y-123778045D01*
X96154508Y-123717896D01*
X96127948Y-123644925D01*
X96118083Y-123570875D01*
X96117505Y-123546071D01*
X96125090Y-123472884D01*
X96136922Y-123425537D01*
X96166713Y-123355714D01*
X96200303Y-123305736D01*
X96254459Y-123252127D01*
X96314609Y-123213412D01*
X96387579Y-123186589D01*
X96461630Y-123176627D01*
X96486434Y-123176043D01*
X96969668Y-123176043D01*
X96969668Y-123431765D01*
X96486434Y-123431765D01*
X96413932Y-123454016D01*
X96401803Y-123465471D01*
X96372852Y-123533206D01*
X96372128Y-123548269D01*
X96394863Y-123618166D01*
X96406566Y-123629968D01*
X96474070Y-123658562D01*
X96488632Y-123659277D01*
X96969668Y-123659277D01*
X97041928Y-123637510D01*
X97053932Y-123626304D01*
X97083240Y-123558926D01*
X97083974Y-123543872D01*
X97083974Y-123170181D01*
X97062448Y-123098963D01*
X97051367Y-123086650D01*
X96981764Y-123055995D01*
X96969668Y-123055509D01*
X96381287Y-123055509D01*
X96381287Y-122801252D01*
X96969668Y-122801252D01*
X97042569Y-122808980D01*
X97089469Y-122821036D01*
X97158995Y-122850647D01*
X97208904Y-122884417D01*
X97262513Y-122938390D01*
X97301228Y-122998722D01*
X97328050Y-123071430D01*
X97338013Y-123145383D01*
X97338597Y-123170181D01*
X97338597Y-123546071D01*
G37*
G36*
X98535143Y-123069064D02*
G01*
X97932107Y-123069064D01*
X97861057Y-123087204D01*
X97849675Y-123096542D01*
X97822439Y-123166442D01*
X97822198Y-123176043D01*
X97822198Y-123915000D01*
X97554019Y-123915000D01*
X97554019Y-123176043D01*
X97560219Y-123099289D01*
X97571605Y-123052578D01*
X97601326Y-122983580D01*
X97618499Y-122956224D01*
X97667409Y-122900583D01*
X97685910Y-122885150D01*
X97750244Y-122844536D01*
X97765778Y-122837156D01*
X97837039Y-122812929D01*
X97850408Y-122810045D01*
X97923286Y-122801329D01*
X97930275Y-122801252D01*
X98535143Y-122801252D01*
X98535143Y-123069064D01*
G37*
G36*
X99699082Y-123915000D02*
G01*
X99431270Y-123915000D01*
X99431270Y-123176043D01*
X99409952Y-123103714D01*
X99403426Y-123096542D01*
X99334223Y-123069494D01*
X99320994Y-123069064D01*
X98972581Y-123069064D01*
X98972581Y-123915000D01*
X98704769Y-123915000D01*
X98704769Y-122933876D01*
X98715027Y-122882219D01*
X98743970Y-122839720D01*
X98787201Y-122811510D01*
X98839958Y-122801252D01*
X99323192Y-122801252D01*
X99399753Y-122809772D01*
X99442627Y-122821036D01*
X99512488Y-122850415D01*
X99564260Y-122883684D01*
X99564260Y-122801252D01*
X99926960Y-122801252D01*
X100001943Y-122808980D01*
X100007194Y-122810045D01*
X100078031Y-122831567D01*
X100091092Y-122837156D01*
X100156542Y-122874532D01*
X100170959Y-122885150D01*
X100224903Y-122938548D01*
X100238004Y-122956224D01*
X100273742Y-123022886D01*
X100284532Y-123052578D01*
X100299644Y-123126395D01*
X100302117Y-123176043D01*
X100302117Y-123915000D01*
X100033939Y-123915000D01*
X100033939Y-123176043D01*
X100013743Y-123103714D01*
X100007561Y-123096542D01*
X99936945Y-123069306D01*
X99926960Y-123069064D01*
X99685893Y-123069064D01*
X99698039Y-123144326D01*
X99699082Y-123176043D01*
X99699082Y-123915000D01*
G37*
G36*
X100761538Y-123780177D02*
G01*
X100750547Y-123832201D01*
X100721971Y-123874333D01*
X100679839Y-123902543D01*
X100628914Y-123912801D01*
X100576891Y-123902543D01*
X100534392Y-123874333D01*
X100506182Y-123832201D01*
X100495924Y-123780177D01*
X100506182Y-123728886D01*
X100534392Y-123686755D01*
X100576891Y-123658178D01*
X100628914Y-123647187D01*
X100679839Y-123658178D01*
X100721971Y-123686755D01*
X100750547Y-123728886D01*
X100761538Y-123780177D01*
G37*
G36*
X102047843Y-123915000D02*
G01*
X101321343Y-123915000D01*
X101247727Y-123907415D01*
X101199710Y-123895582D01*
X101128651Y-123865443D01*
X101077711Y-123831102D01*
X101023323Y-123775778D01*
X100983921Y-123714598D01*
X100958126Y-123645596D01*
X100947107Y-123570471D01*
X100946186Y-123538743D01*
X100946186Y-123176043D01*
X100953914Y-123101060D01*
X100954979Y-123095809D01*
X100976598Y-123024972D01*
X100982090Y-123011912D01*
X101019466Y-122946461D01*
X101030083Y-122932044D01*
X101083607Y-122878100D01*
X101101158Y-122865000D01*
X101167820Y-122829451D01*
X101197512Y-122818838D01*
X101271643Y-122803725D01*
X101321343Y-122801252D01*
X102047843Y-122801252D01*
X102047843Y-123069064D01*
X101321343Y-123069064D01*
X101248734Y-123089541D01*
X101241475Y-123095809D01*
X101214788Y-123164771D01*
X101214364Y-123178241D01*
X101214364Y-123538743D01*
X101233926Y-123610034D01*
X101241842Y-123619344D01*
X101310484Y-123646752D01*
X101323541Y-123647187D01*
X102047843Y-123647187D01*
X102047843Y-123915000D01*
G37*
G36*
X103168350Y-122807359D02*
G01*
X103241600Y-122827595D01*
X103264905Y-122838255D01*
X103330118Y-122880112D01*
X103381409Y-122931678D01*
X103421686Y-122994027D01*
X103445889Y-123053677D01*
X103462714Y-123128629D01*
X103466039Y-123176043D01*
X103466039Y-123538743D01*
X103460475Y-123612237D01*
X103448454Y-123663307D01*
X103418906Y-123732636D01*
X103401926Y-123760027D01*
X103353497Y-123815669D01*
X103334881Y-123831102D01*
X103270547Y-123871716D01*
X103255013Y-123879096D01*
X103184109Y-123903226D01*
X103170750Y-123906207D01*
X103096969Y-123914922D01*
X103089783Y-123915000D01*
X102606549Y-123915000D01*
X102532932Y-123907415D01*
X102484916Y-123895582D01*
X102413857Y-123865443D01*
X102362916Y-123831102D01*
X102308529Y-123775778D01*
X102269127Y-123714598D01*
X102243331Y-123645596D01*
X102232313Y-123570471D01*
X102231392Y-123538743D01*
X102231392Y-123176043D01*
X102499570Y-123176043D01*
X102499570Y-123538743D01*
X102519132Y-123610034D01*
X102527048Y-123619344D01*
X102595689Y-123646752D01*
X102608747Y-123647187D01*
X103089783Y-123647187D01*
X103162079Y-123627365D01*
X103171116Y-123619344D01*
X103197626Y-123548416D01*
X103197861Y-123538743D01*
X103197861Y-123178241D01*
X103179479Y-123106856D01*
X103170017Y-123095809D01*
X103099453Y-123069299D01*
X103089783Y-123069064D01*
X102608747Y-123069064D01*
X102536384Y-123088626D01*
X102527048Y-123096542D01*
X102499812Y-123166442D01*
X102499570Y-123176043D01*
X102231392Y-123176043D01*
X102237620Y-123097597D01*
X102258256Y-123024748D01*
X102269127Y-123001653D01*
X102311442Y-122936624D01*
X102362916Y-122885150D01*
X102425265Y-122844794D01*
X102484916Y-122821036D01*
X102559610Y-122804517D01*
X102606549Y-122801252D01*
X103089783Y-122801252D01*
X103168350Y-122807359D01*
G37*
G36*
X104680170Y-123915000D02*
G01*
X104412358Y-123915000D01*
X104412358Y-123176043D01*
X104391040Y-123103714D01*
X104384515Y-123096542D01*
X104315312Y-123069494D01*
X104302083Y-123069064D01*
X103953670Y-123069064D01*
X103953670Y-123915000D01*
X103685858Y-123915000D01*
X103685858Y-122933876D01*
X103696116Y-122882219D01*
X103725059Y-122839720D01*
X103768290Y-122811510D01*
X103821046Y-122801252D01*
X104304281Y-122801252D01*
X104380842Y-122809772D01*
X104423715Y-122821036D01*
X104493577Y-122850415D01*
X104545348Y-122883684D01*
X104545348Y-122801252D01*
X104908049Y-122801252D01*
X104983032Y-122808980D01*
X104988283Y-122810045D01*
X105059120Y-122831567D01*
X105072180Y-122837156D01*
X105137631Y-122874532D01*
X105152048Y-122885150D01*
X105205992Y-122938548D01*
X105219092Y-122956224D01*
X105254830Y-123022886D01*
X105265621Y-123052578D01*
X105280733Y-123126395D01*
X105283206Y-123176043D01*
X105283206Y-123915000D01*
X105015027Y-123915000D01*
X105015027Y-123176043D01*
X104994832Y-123103714D01*
X104988649Y-123096542D01*
X104918033Y-123069306D01*
X104908049Y-123069064D01*
X104666981Y-123069064D01*
X104679127Y-123144326D01*
X104680170Y-123176043D01*
X104680170Y-123915000D01*
G37*
X136554819Y-127371428D02*
X136554819Y-126752381D01*
X136554819Y-126752381D02*
X136935771Y-127085714D01*
X136935771Y-127085714D02*
X136935771Y-126942857D01*
X136935771Y-126942857D02*
X136983390Y-126847619D01*
X136983390Y-126847619D02*
X137031009Y-126800000D01*
X137031009Y-126800000D02*
X137126247Y-126752381D01*
X137126247Y-126752381D02*
X137364342Y-126752381D01*
X137364342Y-126752381D02*
X137459580Y-126800000D01*
X137459580Y-126800000D02*
X137507200Y-126847619D01*
X137507200Y-126847619D02*
X137554819Y-126942857D01*
X137554819Y-126942857D02*
X137554819Y-127228571D01*
X137554819Y-127228571D02*
X137507200Y-127323809D01*
X137507200Y-127323809D02*
X137459580Y-127371428D01*
X137554819Y-126323809D02*
X136554819Y-126323809D01*
X136554819Y-126323809D02*
X136554819Y-125942857D01*
X136554819Y-125942857D02*
X136602438Y-125847619D01*
X136602438Y-125847619D02*
X136650057Y-125800000D01*
X136650057Y-125800000D02*
X136745295Y-125752381D01*
X136745295Y-125752381D02*
X136888152Y-125752381D01*
X136888152Y-125752381D02*
X136983390Y-125800000D01*
X136983390Y-125800000D02*
X137031009Y-125847619D01*
X137031009Y-125847619D02*
X137078628Y-125942857D01*
X137078628Y-125942857D02*
X137078628Y-126323809D01*
X137650057Y-125561905D02*
X137650057Y-124800000D01*
X137031009Y-124228571D02*
X137031009Y-124561904D01*
X137554819Y-124561904D02*
X136554819Y-124561904D01*
X136554819Y-124561904D02*
X136554819Y-124085714D01*
X137269104Y-123752380D02*
X137269104Y-123276190D01*
X137554819Y-123847618D02*
X136554819Y-123514285D01*
X136554819Y-123514285D02*
X137554819Y-123180952D01*
X137554819Y-122847618D02*
X136554819Y-122847618D01*
X136554819Y-122847618D02*
X137554819Y-122276190D01*
X137554819Y-122276190D02*
X136554819Y-122276190D01*
X137554819Y-121276190D02*
X137554819Y-121847618D01*
X137554819Y-121561904D02*
X136554819Y-121561904D01*
X136554819Y-121561904D02*
X136697676Y-121657142D01*
X136697676Y-121657142D02*
X136792914Y-121752380D01*
X136792914Y-121752380D02*
X136840533Y-121847618D01*
X57733333Y-127159580D02*
X57685714Y-127207200D01*
X57685714Y-127207200D02*
X57542857Y-127254819D01*
X57542857Y-127254819D02*
X57447619Y-127254819D01*
X57447619Y-127254819D02*
X57304762Y-127207200D01*
X57304762Y-127207200D02*
X57209524Y-127111961D01*
X57209524Y-127111961D02*
X57161905Y-127016723D01*
X57161905Y-127016723D02*
X57114286Y-126826247D01*
X57114286Y-126826247D02*
X57114286Y-126683390D01*
X57114286Y-126683390D02*
X57161905Y-126492914D01*
X57161905Y-126492914D02*
X57209524Y-126397676D01*
X57209524Y-126397676D02*
X57304762Y-126302438D01*
X57304762Y-126302438D02*
X57447619Y-126254819D01*
X57447619Y-126254819D02*
X57542857Y-126254819D01*
X57542857Y-126254819D02*
X57685714Y-126302438D01*
X57685714Y-126302438D02*
X57733333Y-126350057D01*
X58114286Y-126350057D02*
X58161905Y-126302438D01*
X58161905Y-126302438D02*
X58257143Y-126254819D01*
X58257143Y-126254819D02*
X58495238Y-126254819D01*
X58495238Y-126254819D02*
X58590476Y-126302438D01*
X58590476Y-126302438D02*
X58638095Y-126350057D01*
X58638095Y-126350057D02*
X58685714Y-126445295D01*
X58685714Y-126445295D02*
X58685714Y-126540533D01*
X58685714Y-126540533D02*
X58638095Y-126683390D01*
X58638095Y-126683390D02*
X58066667Y-127254819D01*
X58066667Y-127254819D02*
X58685714Y-127254819D01*
X56633333Y-129459580D02*
X56585714Y-129507200D01*
X56585714Y-129507200D02*
X56442857Y-129554819D01*
X56442857Y-129554819D02*
X56347619Y-129554819D01*
X56347619Y-129554819D02*
X56204762Y-129507200D01*
X56204762Y-129507200D02*
X56109524Y-129411961D01*
X56109524Y-129411961D02*
X56061905Y-129316723D01*
X56061905Y-129316723D02*
X56014286Y-129126247D01*
X56014286Y-129126247D02*
X56014286Y-128983390D01*
X56014286Y-128983390D02*
X56061905Y-128792914D01*
X56061905Y-128792914D02*
X56109524Y-128697676D01*
X56109524Y-128697676D02*
X56204762Y-128602438D01*
X56204762Y-128602438D02*
X56347619Y-128554819D01*
X56347619Y-128554819D02*
X56442857Y-128554819D01*
X56442857Y-128554819D02*
X56585714Y-128602438D01*
X56585714Y-128602438D02*
X56633333Y-128650057D01*
X57585714Y-129554819D02*
X57014286Y-129554819D01*
X57300000Y-129554819D02*
X57300000Y-128554819D01*
X57300000Y-128554819D02*
X57204762Y-128697676D01*
X57204762Y-128697676D02*
X57109524Y-128792914D01*
X57109524Y-128792914D02*
X57014286Y-128840533D01*
X114385714Y-120669104D02*
X114861904Y-120669104D01*
X114290476Y-120954819D02*
X114623809Y-119954819D01*
X114623809Y-119954819D02*
X114957142Y-120954819D01*
X115290476Y-119954819D02*
X115290476Y-120764342D01*
X115290476Y-120764342D02*
X115338095Y-120859580D01*
X115338095Y-120859580D02*
X115385714Y-120907200D01*
X115385714Y-120907200D02*
X115480952Y-120954819D01*
X115480952Y-120954819D02*
X115671428Y-120954819D01*
X115671428Y-120954819D02*
X115766666Y-120907200D01*
X115766666Y-120907200D02*
X115814285Y-120859580D01*
X115814285Y-120859580D02*
X115861904Y-120764342D01*
X115861904Y-120764342D02*
X115861904Y-119954819D01*
X116242857Y-119954819D02*
X116909523Y-120954819D01*
X116909523Y-119954819D02*
X116242857Y-120954819D01*
X117814285Y-120954819D02*
X117242857Y-120954819D01*
X117528571Y-120954819D02*
X117528571Y-119954819D01*
X117528571Y-119954819D02*
X117433333Y-120097676D01*
X117433333Y-120097676D02*
X117338095Y-120192914D01*
X117338095Y-120192914D02*
X117242857Y-120240533D01*
X150761778Y-135119040D02*
X151237968Y-135119040D01*
X150666540Y-135404755D02*
X150999873Y-134404755D01*
X150999873Y-134404755D02*
X151333206Y-135404755D01*
X151070285Y-132331542D02*
X151213142Y-132379161D01*
X151213142Y-132379161D02*
X151260761Y-132426780D01*
X151260761Y-132426780D02*
X151308380Y-132522018D01*
X151308380Y-132522018D02*
X151308380Y-132664875D01*
X151308380Y-132664875D02*
X151260761Y-132760113D01*
X151260761Y-132760113D02*
X151213142Y-132807733D01*
X151213142Y-132807733D02*
X151117904Y-132855352D01*
X151117904Y-132855352D02*
X150736952Y-132855352D01*
X150736952Y-132855352D02*
X150736952Y-131855352D01*
X150736952Y-131855352D02*
X151070285Y-131855352D01*
X151070285Y-131855352D02*
X151165523Y-131902971D01*
X151165523Y-131902971D02*
X151213142Y-131950590D01*
X151213142Y-131950590D02*
X151260761Y-132045828D01*
X151260761Y-132045828D02*
X151260761Y-132141066D01*
X151260761Y-132141066D02*
X151213142Y-132236304D01*
X151213142Y-132236304D02*
X151165523Y-132283923D01*
X151165523Y-132283923D02*
X151070285Y-132331542D01*
X151070285Y-132331542D02*
X150736952Y-132331542D01*
D11*
%TO.C,G\u002A\u002A\u002A*%
G36*
X93120175Y-127833958D02*
G01*
X93072410Y-127962736D01*
X93014663Y-128118082D01*
X92951000Y-128289080D01*
X92885489Y-128464812D01*
X92822194Y-128634362D01*
X92790088Y-128720252D01*
X92739614Y-128855982D01*
X92693946Y-128980277D01*
X92654941Y-129087963D01*
X92624455Y-129173864D01*
X92604346Y-129232807D01*
X92596470Y-129259615D01*
X92596444Y-129259849D01*
X92603732Y-129273570D01*
X92632025Y-129285270D01*
X92686691Y-129296173D01*
X92773097Y-129307509D01*
X92833885Y-129314142D01*
X93017993Y-129334177D01*
X93163353Y-129351801D01*
X93271163Y-129367207D01*
X93342619Y-129380591D01*
X93378920Y-129392145D01*
X93381264Y-129402063D01*
X93380339Y-129402617D01*
X93359592Y-129406919D01*
X93316315Y-129408064D01*
X93247733Y-129405884D01*
X93151071Y-129400210D01*
X93023556Y-129390873D01*
X92862412Y-129377705D01*
X92664864Y-129360536D01*
X92614486Y-129356049D01*
X92571975Y-129357854D01*
X92548915Y-129380730D01*
X92536532Y-129415800D01*
X92517849Y-129480851D01*
X92268213Y-129480851D01*
X92018577Y-129480851D01*
X92032536Y-129435816D01*
X92051853Y-129372128D01*
X92057066Y-129333258D01*
X92042046Y-129312029D01*
X92000665Y-129301267D01*
X91926795Y-129293798D01*
X91909931Y-129292282D01*
X91682576Y-129272295D01*
X91662395Y-129270686D01*
X92063278Y-129270686D01*
X92073286Y-129280694D01*
X92083294Y-129270686D01*
X92073286Y-129260678D01*
X92063278Y-129270686D01*
X91662395Y-129270686D01*
X91475934Y-129255820D01*
X91281476Y-129242440D01*
X91090673Y-129231739D01*
X90894995Y-129223303D01*
X90685914Y-129216715D01*
X90454902Y-129211560D01*
X90193427Y-129207423D01*
X90159131Y-129206969D01*
X89838783Y-129203904D01*
X89544493Y-129203646D01*
X89267097Y-129206479D01*
X88997428Y-129212687D01*
X88726321Y-129222551D01*
X88444612Y-129236357D01*
X88143135Y-129254387D01*
X87812724Y-129276925D01*
X87749881Y-129281452D01*
X87576098Y-129294265D01*
X87419817Y-129306319D01*
X87273190Y-129318328D01*
X87128368Y-129331011D01*
X86977503Y-129345085D01*
X86812745Y-129361265D01*
X86626246Y-129380270D01*
X86410157Y-129402815D01*
X86338770Y-129410336D01*
X86086222Y-129438900D01*
X85801525Y-129474468D01*
X85491740Y-129515970D01*
X85163928Y-129562338D01*
X84825150Y-129612505D01*
X84482467Y-129665402D01*
X84142939Y-129719961D01*
X83813628Y-129775113D01*
X83501594Y-129829790D01*
X83213897Y-129882925D01*
X83209567Y-129883750D01*
X83099928Y-129903523D01*
X83002530Y-129918987D01*
X82924833Y-129929121D01*
X82874294Y-129932903D01*
X82859901Y-129931621D01*
X82839883Y-129928062D01*
X82842943Y-129934801D01*
X82832808Y-129945221D01*
X82793390Y-129958993D01*
X82735025Y-129973744D01*
X82668050Y-129987097D01*
X82602802Y-129996679D01*
X82559036Y-130000027D01*
X82530371Y-129997702D01*
X82519572Y-129981583D01*
X82522515Y-129941037D01*
X82526515Y-129916194D01*
X82542271Y-129834214D01*
X82561380Y-129782742D01*
X82576644Y-129767744D01*
X83623299Y-129767744D01*
X83626046Y-129779643D01*
X83636643Y-129781088D01*
X83653118Y-129773764D01*
X83649986Y-129767744D01*
X83626232Y-129765348D01*
X83623299Y-129767744D01*
X82576644Y-129767744D01*
X82592104Y-129752553D01*
X82596260Y-129751064D01*
X83316390Y-129751064D01*
X83326398Y-129761072D01*
X83336406Y-129751064D01*
X83326398Y-129741056D01*
X83316390Y-129751064D01*
X82596260Y-129751064D01*
X82642702Y-129734426D01*
X82699503Y-129723046D01*
X82942929Y-129679771D01*
X83109545Y-129650985D01*
X83316390Y-129650985D01*
X83326398Y-129660993D01*
X83336406Y-129650985D01*
X83326398Y-129640977D01*
X83316390Y-129650985D01*
X83109545Y-129650985D01*
X83166957Y-129641066D01*
X83227428Y-129630969D01*
X84457289Y-129630969D01*
X84467297Y-129640977D01*
X84477305Y-129630969D01*
X84467297Y-129620962D01*
X84457289Y-129630969D01*
X83227428Y-129630969D01*
X83368846Y-129607356D01*
X83545852Y-129579063D01*
X83695233Y-129556611D01*
X83814246Y-129540421D01*
X83900148Y-129530918D01*
X83950198Y-129528525D01*
X83956895Y-129529103D01*
X83996083Y-129532284D01*
X84004786Y-129526541D01*
X84000919Y-129523513D01*
X84008476Y-129514396D01*
X84033182Y-129507539D01*
X84263803Y-129507539D01*
X84266551Y-129519438D01*
X84277147Y-129520883D01*
X84293622Y-129513559D01*
X84290491Y-129507539D01*
X84266737Y-129505143D01*
X84263803Y-129507539D01*
X84033182Y-129507539D01*
X84052812Y-129502091D01*
X84110678Y-129490859D01*
X84437273Y-129490859D01*
X84447281Y-129500867D01*
X84457289Y-129490859D01*
X84453953Y-129487523D01*
X85424717Y-129487523D01*
X85427465Y-129499422D01*
X85438061Y-129500867D01*
X85454536Y-129493544D01*
X85451405Y-129487523D01*
X85427651Y-129485128D01*
X85424717Y-129487523D01*
X84453953Y-129487523D01*
X84447281Y-129480851D01*
X84437273Y-129490859D01*
X84110678Y-129490859D01*
X84130832Y-129486947D01*
X84239440Y-129469311D01*
X84366635Y-129450828D01*
X85498108Y-129450828D01*
X85508116Y-129460835D01*
X85518124Y-129450828D01*
X85738298Y-129450828D01*
X85748305Y-129460835D01*
X85758313Y-129450828D01*
X85748305Y-129440820D01*
X85738298Y-129450828D01*
X85518124Y-129450828D01*
X85508116Y-129440820D01*
X85498108Y-129450828D01*
X84366635Y-129450828D01*
X84375540Y-129449534D01*
X84536036Y-129427962D01*
X84717833Y-129404945D01*
X84917835Y-129380831D01*
X85132946Y-129355968D01*
X85360071Y-129330706D01*
X85390927Y-129327397D01*
X85704938Y-129327397D01*
X85707685Y-129339296D01*
X85718282Y-129340741D01*
X85734757Y-129333417D01*
X85731626Y-129327397D01*
X85707872Y-129325002D01*
X85704938Y-129327397D01*
X85390927Y-129327397D01*
X85596113Y-129305393D01*
X85837977Y-129280376D01*
X85968713Y-129267350D01*
X87346230Y-129267350D01*
X87348978Y-129279249D01*
X87359574Y-129280694D01*
X87376049Y-129273370D01*
X87372918Y-129267350D01*
X87349164Y-129264954D01*
X87346230Y-129267350D01*
X85968713Y-129267350D01*
X86082567Y-129256006D01*
X86326788Y-129232629D01*
X86510005Y-129215861D01*
X86967940Y-129215861D01*
X86987615Y-129219066D01*
X87013575Y-129215386D01*
X87013885Y-129208553D01*
X86987096Y-129203775D01*
X86975522Y-129206973D01*
X86967940Y-129215861D01*
X86510005Y-129215861D01*
X86567544Y-129210595D01*
X86801739Y-129190253D01*
X87026277Y-129171950D01*
X87088546Y-129167271D01*
X90869004Y-129167271D01*
X90871752Y-129179170D01*
X90882348Y-129180615D01*
X90898823Y-129173291D01*
X90895692Y-129167271D01*
X90871938Y-129164875D01*
X90869004Y-129167271D01*
X87088546Y-129167271D01*
X87238063Y-129156036D01*
X87309535Y-129151030D01*
X88001820Y-129113221D01*
X88713684Y-129092802D01*
X89434589Y-129089657D01*
X90154000Y-129103667D01*
X90861382Y-129134713D01*
X91546197Y-129182678D01*
X91751286Y-129200873D01*
X91877681Y-129213184D01*
X91970308Y-129221697D01*
X92035386Y-129224500D01*
X92079135Y-129219679D01*
X92107774Y-129205322D01*
X92127523Y-129179516D01*
X92144600Y-129140349D01*
X92165226Y-129085907D01*
X92170793Y-129071849D01*
X92234660Y-128913044D01*
X91961002Y-128186151D01*
X91687344Y-127459259D01*
X91930509Y-127459259D01*
X92173674Y-127459259D01*
X92322022Y-127904610D01*
X92364496Y-128031213D01*
X92403266Y-128145069D01*
X92436418Y-128240686D01*
X92462035Y-128312576D01*
X92478199Y-128355246D01*
X92482574Y-128364552D01*
X92491655Y-128350480D01*
X92510636Y-128303151D01*
X92537749Y-128227600D01*
X92571228Y-128128864D01*
X92609305Y-128011980D01*
X92637078Y-127924205D01*
X92779380Y-127469267D01*
X93019374Y-127463667D01*
X93259368Y-127458066D01*
X93120175Y-127833958D01*
G37*
G36*
X91145057Y-127433266D02*
G01*
X91275514Y-127446534D01*
X91380955Y-127470806D01*
X91468536Y-127507846D01*
X91545412Y-127559420D01*
X91560343Y-127571815D01*
X91598807Y-127607090D01*
X91629693Y-127643239D01*
X91653825Y-127684952D01*
X91672027Y-127736920D01*
X91685124Y-127803834D01*
X91693940Y-127890387D01*
X91699299Y-128001268D01*
X91702027Y-128141170D01*
X91702947Y-128314782D01*
X91702994Y-128383550D01*
X91702994Y-128940426D01*
X91472813Y-128940426D01*
X91242632Y-128940426D01*
X91242632Y-128870371D01*
X91239857Y-128818756D01*
X91227041Y-128803922D01*
X91197449Y-128822753D01*
X91177880Y-128840433D01*
X91074185Y-128911248D01*
X90945458Y-128956965D01*
X90812293Y-128974211D01*
X90731562Y-128973919D01*
X90658477Y-128968608D01*
X90612135Y-128960217D01*
X90532749Y-128920513D01*
X90452567Y-128855683D01*
X90385297Y-128777914D01*
X90359591Y-128735668D01*
X90332061Y-128661578D01*
X90319718Y-128570820D01*
X90318374Y-128516689D01*
X90325149Y-128442957D01*
X90785288Y-128442957D01*
X90785603Y-128520199D01*
X90803593Y-128582587D01*
X90849022Y-128627914D01*
X90920017Y-128653337D01*
X91006863Y-128657870D01*
X91099845Y-128640527D01*
X91156249Y-128618388D01*
X91242632Y-128576571D01*
X91242632Y-128412048D01*
X91242632Y-128247525D01*
X91105578Y-128262170D01*
X90979391Y-128282897D01*
X90883188Y-128314214D01*
X90820769Y-128354675D01*
X90803896Y-128376974D01*
X90785288Y-128442957D01*
X90325149Y-128442957D01*
X90330430Y-128385482D01*
X90368014Y-128275648D01*
X90433254Y-128185574D01*
X90528277Y-128113649D01*
X90655208Y-128058262D01*
X90816175Y-128017800D01*
X91012450Y-127990735D01*
X91109378Y-127980603D01*
X91173393Y-127971521D01*
X91211504Y-127961551D01*
X91230717Y-127948757D01*
X91238041Y-127931201D01*
X91238518Y-127928241D01*
X91227998Y-127870261D01*
X91183923Y-127817410D01*
X91112758Y-127775826D01*
X91060264Y-127758962D01*
X90918987Y-127743062D01*
X90763070Y-127757333D01*
X90612829Y-127797373D01*
X90546247Y-127819534D01*
X90492964Y-127834812D01*
X90467715Y-127839559D01*
X90454537Y-127827849D01*
X90446393Y-127789331D01*
X90442550Y-127718925D01*
X90442001Y-127661683D01*
X90442001Y-127483808D01*
X90577108Y-127456522D01*
X90650416Y-127445975D01*
X90750701Y-127437327D01*
X90864920Y-127431455D01*
X90980032Y-127429237D01*
X90982427Y-127429236D01*
X91145057Y-127433266D01*
G37*
G36*
X83111604Y-126999049D02*
G01*
X83319791Y-127000694D01*
X83492452Y-127006001D01*
X83633994Y-127015792D01*
X83748823Y-127030888D01*
X83841344Y-127052111D01*
X83915963Y-127080283D01*
X83977086Y-127116225D01*
X84029118Y-127160758D01*
X84040168Y-127172202D01*
X84121352Y-127287074D01*
X84173853Y-127423446D01*
X84196080Y-127573347D01*
X84186439Y-127728806D01*
X84167750Y-127811124D01*
X84139287Y-127889845D01*
X84099408Y-127954841D01*
X84037489Y-128023030D01*
X84030231Y-128030136D01*
X83967778Y-128085533D01*
X83904496Y-128127895D01*
X83833388Y-128159268D01*
X83747458Y-128181693D01*
X83639708Y-128197213D01*
X83503142Y-128207872D01*
X83404742Y-128212772D01*
X83096217Y-128226075D01*
X83096217Y-128583250D01*
X83096217Y-128940426D01*
X82901063Y-128940431D01*
X82705910Y-128940436D01*
X82711289Y-127969666D01*
X82711765Y-127883707D01*
X83096217Y-127883707D01*
X83341410Y-127876138D01*
X83479830Y-127868954D01*
X83580299Y-127857174D01*
X83641941Y-127840905D01*
X83645903Y-127839052D01*
X83696291Y-127802623D01*
X83744855Y-127750447D01*
X83752754Y-127739480D01*
X83788656Y-127654140D01*
X83789899Y-127563909D01*
X83759239Y-127478123D01*
X83699433Y-127406123D01*
X83643626Y-127369851D01*
X83598219Y-127354892D01*
X83530962Y-127345243D01*
X83435344Y-127340250D01*
X83338385Y-127339165D01*
X83096217Y-127339165D01*
X83096217Y-127611436D01*
X83096217Y-127883707D01*
X82711765Y-127883707D01*
X82713274Y-127611436D01*
X82716669Y-126998897D01*
X83111604Y-126999049D01*
G37*
G36*
X86654019Y-126983448D02*
G01*
X86830178Y-126986511D01*
X86971609Y-126990438D01*
X87083618Y-126996033D01*
X87171506Y-127004106D01*
X87240580Y-127015462D01*
X87296142Y-127030910D01*
X87343497Y-127051257D01*
X87387949Y-127077309D01*
X87421397Y-127100240D01*
X87497678Y-127177493D01*
X87547080Y-127275792D01*
X87570029Y-127386910D01*
X87566953Y-127502618D01*
X87538278Y-127614689D01*
X87484430Y-127714897D01*
X87405837Y-127795013D01*
X87384618Y-127809535D01*
X87343227Y-127838345D01*
X87321313Y-127858905D01*
X87320314Y-127861410D01*
X87337024Y-127873870D01*
X87379854Y-127890949D01*
X87399608Y-127897242D01*
X87485335Y-127938776D01*
X87565391Y-128004913D01*
X87627866Y-128083989D01*
X87657485Y-128149803D01*
X87668618Y-128210987D01*
X87676452Y-128294064D01*
X87679275Y-128379984D01*
X87666200Y-128522491D01*
X87625537Y-128640335D01*
X87554106Y-128738288D01*
X87448725Y-128821117D01*
X87349566Y-128874291D01*
X87229472Y-128930418D01*
X86674034Y-128936581D01*
X86118597Y-128942745D01*
X86118597Y-128580142D01*
X86618991Y-128580142D01*
X86811419Y-128580142D01*
X86908635Y-128578612D01*
X86977166Y-128572801D01*
X87028283Y-128560880D01*
X87073257Y-128541019D01*
X87081994Y-128536221D01*
X87147776Y-128479039D01*
X87186498Y-128403237D01*
X87197325Y-128319177D01*
X87179421Y-128237221D01*
X87131952Y-128167730D01*
X87112985Y-128151721D01*
X87081016Y-128132312D01*
X87041218Y-128119173D01*
X86984626Y-128110717D01*
X86902277Y-128105356D01*
X86837768Y-128102997D01*
X86618991Y-128096222D01*
X86618991Y-128338182D01*
X86618991Y-128580142D01*
X86118597Y-128580142D01*
X86118597Y-128338182D01*
X86118597Y-127959118D01*
X86118597Y-127759496D01*
X86618991Y-127759496D01*
X86754097Y-127759465D01*
X86871844Y-127750680D01*
X86958169Y-127724977D01*
X86959259Y-127724437D01*
X87027205Y-127670330D01*
X87064799Y-127596439D01*
X87068747Y-127512486D01*
X87050647Y-127454854D01*
X87015714Y-127401951D01*
X86965675Y-127367009D01*
X86893212Y-127347153D01*
X86791003Y-127339509D01*
X86756114Y-127339165D01*
X86618991Y-127339165D01*
X86618991Y-127549330D01*
X86618991Y-127759496D01*
X86118597Y-127759496D01*
X86118597Y-127549330D01*
X86118597Y-126975492D01*
X86654019Y-126983448D01*
G37*
G36*
X88058150Y-126979604D02*
G01*
X88138270Y-126981582D01*
X88194584Y-126984527D01*
X88219637Y-126988153D01*
X88220252Y-126988840D01*
X88224166Y-127011914D01*
X88235127Y-127068080D01*
X88251959Y-127151709D01*
X88273488Y-127257173D01*
X88298539Y-127378843D01*
X88325938Y-127511090D01*
X88354510Y-127648285D01*
X88383080Y-127784802D01*
X88410473Y-127915009D01*
X88435516Y-128033280D01*
X88457034Y-128133985D01*
X88473851Y-128211496D01*
X88484794Y-128260185D01*
X88488594Y-128274699D01*
X88494743Y-128257603D01*
X88509253Y-128206315D01*
X88530899Y-128125507D01*
X88558453Y-128019854D01*
X88590687Y-127894030D01*
X88626376Y-127752707D01*
X88640851Y-127694857D01*
X88678405Y-127544591D01*
X88713582Y-127404214D01*
X88745006Y-127279188D01*
X88771301Y-127174974D01*
X88791091Y-127097033D01*
X88803001Y-127050826D01*
X88804841Y-127043932D01*
X88822606Y-126978881D01*
X89069866Y-126978881D01*
X89317126Y-126978881D01*
X89341425Y-127083964D01*
X89358682Y-127157955D01*
X89383246Y-127262420D01*
X89413113Y-127388902D01*
X89446276Y-127528942D01*
X89480730Y-127674081D01*
X89514468Y-127815862D01*
X89545486Y-127945826D01*
X89571777Y-128055515D01*
X89574214Y-128065643D01*
X89595371Y-128151422D01*
X89613266Y-128219981D01*
X89625859Y-128263767D01*
X89630938Y-128275808D01*
X89636568Y-128255229D01*
X89648983Y-128202367D01*
X89666626Y-128124091D01*
X89687936Y-128027270D01*
X89700426Y-127969661D01*
X89730232Y-127832059D01*
X89764642Y-127674095D01*
X89799572Y-127514485D01*
X89830932Y-127371944D01*
X89833383Y-127360848D01*
X89856831Y-127252497D01*
X89876797Y-127155944D01*
X89891770Y-127078845D01*
X89900239Y-127028854D01*
X89901576Y-127015576D01*
X89904597Y-127000502D01*
X89917893Y-126990215D01*
X89947811Y-126983815D01*
X90000700Y-126980398D01*
X90082907Y-126979062D01*
X90159670Y-126978881D01*
X90417765Y-126978881D01*
X90331108Y-127314145D01*
X90303846Y-127419929D01*
X90268828Y-127556289D01*
X90228158Y-127715002D01*
X90183942Y-127887846D01*
X90138283Y-128066599D01*
X90093286Y-128243037D01*
X90080071Y-128294917D01*
X89915689Y-128940426D01*
X89643424Y-128940369D01*
X89371158Y-128940312D01*
X89223251Y-128364916D01*
X89185422Y-128219022D01*
X89150219Y-128085672D01*
X89118999Y-127969815D01*
X89093118Y-127876398D01*
X89073931Y-127810369D01*
X89062795Y-127776677D01*
X89061199Y-127773582D01*
X89052588Y-127787522D01*
X89036022Y-127835231D01*
X89013003Y-127911581D01*
X88985035Y-128011445D01*
X88953623Y-128129694D01*
X88932084Y-128213929D01*
X88897238Y-128352061D01*
X88863576Y-128485201D01*
X88833025Y-128605751D01*
X88807512Y-128706109D01*
X88788965Y-128778679D01*
X88783386Y-128800315D01*
X88749657Y-128930418D01*
X88477288Y-128935971D01*
X88204918Y-128941525D01*
X88163396Y-128785853D01*
X88149467Y-128732667D01*
X88127008Y-128645719D01*
X88097311Y-128530057D01*
X88061665Y-128390729D01*
X88021363Y-128232783D01*
X87977693Y-128061264D01*
X87931947Y-127881221D01*
X87912490Y-127804531D01*
X87703105Y-126978881D01*
X87961678Y-126978881D01*
X88058150Y-126979604D01*
G37*
G36*
X85350967Y-127025441D02*
G01*
X85532379Y-127060265D01*
X85705584Y-127128269D01*
X85865170Y-127229677D01*
X85926870Y-127282319D01*
X86028526Y-127376729D01*
X85915330Y-127490942D01*
X85802133Y-127605154D01*
X85713774Y-127532750D01*
X85573467Y-127439201D01*
X85426523Y-127379840D01*
X85277885Y-127353886D01*
X85132492Y-127360561D01*
X84995288Y-127399087D01*
X84871212Y-127468683D01*
X84765208Y-127568571D01*
X84683590Y-127695156D01*
X84653510Y-127763043D01*
X84636603Y-127823969D01*
X84629530Y-127894640D01*
X84628709Y-127969661D01*
X84645346Y-128128299D01*
X84693361Y-128262575D01*
X84774044Y-128374532D01*
X84888685Y-128466211D01*
X84970111Y-128510364D01*
X85044267Y-128541321D01*
X85112574Y-128557851D01*
X85193808Y-128563724D01*
X85236812Y-128563917D01*
X85378307Y-128553341D01*
X85498619Y-128520412D01*
X85612723Y-128459957D01*
X85682344Y-128409942D01*
X85796524Y-128321393D01*
X85902517Y-128432450D01*
X85953060Y-128487354D01*
X85990506Y-128531741D01*
X86008006Y-128557401D01*
X86008510Y-128559490D01*
X85992665Y-128584722D01*
X85950618Y-128624194D01*
X85890605Y-128671736D01*
X85820859Y-128721174D01*
X85749614Y-128766337D01*
X85688258Y-128799556D01*
X85509448Y-128863807D01*
X85314965Y-128894953D01*
X85112949Y-128892069D01*
X85007926Y-128876871D01*
X84861079Y-128832464D01*
X84714973Y-128758898D01*
X84584822Y-128664339D01*
X84548285Y-128630236D01*
X84432650Y-128487797D01*
X84349032Y-128327559D01*
X84297604Y-128155387D01*
X84278538Y-127977145D01*
X84292007Y-127798698D01*
X84338185Y-127625910D01*
X84417243Y-127464645D01*
X84510302Y-127341146D01*
X84651537Y-127213444D01*
X84811635Y-127117798D01*
X84985182Y-127054432D01*
X85166764Y-127023572D01*
X85350967Y-127025441D01*
G37*
G36*
X60114162Y-123189262D02*
G01*
X60082987Y-123242600D01*
X60052856Y-123250568D01*
X60007698Y-123228055D01*
X60006876Y-123204588D01*
X60045416Y-123153457D01*
X60091812Y-123146955D01*
X60114162Y-123189262D01*
G37*
G36*
X61508064Y-123189262D02*
G01*
X61476889Y-123242600D01*
X61446758Y-123250568D01*
X61401600Y-123228055D01*
X61400779Y-123204588D01*
X61439318Y-123153457D01*
X61485714Y-123146955D01*
X61508064Y-123189262D01*
G37*
G36*
X63173003Y-123189262D02*
G01*
X63141828Y-123242600D01*
X63111697Y-123250568D01*
X63066539Y-123228055D01*
X63065718Y-123204588D01*
X63104257Y-123153457D01*
X63150653Y-123146955D01*
X63173003Y-123189262D01*
G37*
G36*
X65844650Y-123189262D02*
G01*
X65813474Y-123242600D01*
X65783344Y-123250568D01*
X65738185Y-123228055D01*
X65737364Y-123204588D01*
X65775903Y-123153457D01*
X65822300Y-123146955D01*
X65844650Y-123189262D01*
G37*
G36*
X55738857Y-122592336D02*
G01*
X55738857Y-122785933D01*
X55371021Y-122785933D01*
X55003186Y-122785933D01*
X55003186Y-122592336D01*
X55003186Y-122398738D01*
X55371021Y-122398738D01*
X55738857Y-122398738D01*
X55738857Y-122592336D01*
G37*
G36*
X55738857Y-123365273D02*
G01*
X55738857Y-123560324D01*
X55368900Y-123560324D01*
X54998943Y-123560324D01*
X55010744Y-123376406D01*
X55022546Y-123192488D01*
X55380701Y-123181355D01*
X55738857Y-123170223D01*
X55738857Y-123365273D01*
G37*
G36*
X65728491Y-122301940D02*
G01*
X65728491Y-122437458D01*
X65321936Y-122437458D01*
X64915381Y-122437458D01*
X64915381Y-122301940D01*
X64915381Y-122166421D01*
X65321936Y-122166421D01*
X65728491Y-122166421D01*
X65728491Y-122301940D01*
G37*
G36*
X60064447Y-123359078D02*
G01*
X60063949Y-123456522D01*
X60058105Y-123502256D01*
X60031774Y-123654458D01*
X60005417Y-123743868D01*
X59973221Y-123784913D01*
X59941167Y-123792641D01*
X59916122Y-123776737D01*
X59912624Y-123719100D01*
X59930367Y-123604845D01*
X59936636Y-123572895D01*
X59972424Y-123437994D01*
X60010867Y-123354360D01*
X60044147Y-123326539D01*
X60064447Y-123359078D01*
G37*
G36*
X61458350Y-123359078D02*
G01*
X61457851Y-123456522D01*
X61452007Y-123502256D01*
X61425677Y-123654458D01*
X61399319Y-123743868D01*
X61367124Y-123784913D01*
X61335070Y-123792641D01*
X61310025Y-123776737D01*
X61306527Y-123719100D01*
X61324269Y-123604845D01*
X61330539Y-123572895D01*
X61366327Y-123437994D01*
X61404770Y-123354360D01*
X61438050Y-123326539D01*
X61458350Y-123359078D01*
G37*
G36*
X63123289Y-123359078D02*
G01*
X63122790Y-123456522D01*
X63116946Y-123502256D01*
X63090616Y-123654458D01*
X63064258Y-123743868D01*
X63032063Y-123784913D01*
X63000009Y-123792641D01*
X62974964Y-123776737D01*
X62971466Y-123719100D01*
X62989208Y-123604845D01*
X62995478Y-123572895D01*
X63031266Y-123437994D01*
X63069709Y-123354360D01*
X63102989Y-123326539D01*
X63123289Y-123359078D01*
G37*
G36*
X65794935Y-123359078D02*
G01*
X65794437Y-123456522D01*
X65788592Y-123502256D01*
X65762262Y-123654458D01*
X65735905Y-123743868D01*
X65703709Y-123784913D01*
X65671655Y-123792641D01*
X65646610Y-123776737D01*
X65643112Y-123719100D01*
X65660855Y-123604845D01*
X65667124Y-123572895D01*
X65702912Y-123437994D01*
X65741355Y-123354360D01*
X65774635Y-123326539D01*
X65794935Y-123359078D01*
G37*
G36*
X68696731Y-123346398D02*
G01*
X68759511Y-123409563D01*
X68771381Y-123528757D01*
X68760417Y-123603310D01*
X68729134Y-123708082D01*
X68689345Y-123775257D01*
X68675089Y-123784883D01*
X68644600Y-123780554D01*
X68637025Y-123729401D01*
X68649050Y-123623342D01*
X68675919Y-123444165D01*
X68554161Y-123444165D01*
X68468542Y-123429227D01*
X68447877Y-123395253D01*
X68488194Y-123358507D01*
X68580655Y-123335709D01*
X68696731Y-123346398D01*
G37*
G36*
X68435400Y-123172958D02*
G01*
X68433646Y-123242218D01*
X68414957Y-123360614D01*
X68378475Y-123537675D01*
X68341007Y-123705522D01*
X68306048Y-123773528D01*
X68269429Y-123792641D01*
X68246111Y-123779553D01*
X68239920Y-123731383D01*
X68251340Y-123634774D01*
X68280857Y-123476366D01*
X68280915Y-123476075D01*
X68315305Y-123328892D01*
X68351501Y-123213972D01*
X68383198Y-123150264D01*
X68391526Y-123143733D01*
X68421074Y-123143305D01*
X68435400Y-123172958D01*
G37*
G36*
X68245259Y-122068115D02*
G01*
X68245259Y-122202126D01*
X67906464Y-122213313D01*
X67567668Y-122224501D01*
X67556633Y-122621376D01*
X67545599Y-123018251D01*
X67406462Y-123018251D01*
X67267324Y-123018251D01*
X67286657Y-122602016D01*
X67297254Y-122423856D01*
X67310688Y-122269690D01*
X67325015Y-122159013D01*
X67335043Y-122116590D01*
X67404910Y-122030002D01*
X67533034Y-121972029D01*
X67725035Y-121940900D01*
X67914221Y-121934104D01*
X68245259Y-121934104D01*
X68245259Y-122068115D01*
G37*
G36*
X71373370Y-123186843D02*
G01*
X71364778Y-123297239D01*
X71344475Y-123412737D01*
X71320648Y-123559278D01*
X71320556Y-123641785D01*
X71339204Y-123668824D01*
X71377901Y-123714389D01*
X71381540Y-123737788D01*
X71351471Y-123779795D01*
X71286025Y-123791545D01*
X71222343Y-123769947D01*
X71206347Y-123752376D01*
X71199913Y-123694738D01*
X71208570Y-123587849D01*
X71228029Y-123455957D01*
X71254002Y-123323307D01*
X71282202Y-123214149D01*
X71308343Y-123152728D01*
X71313189Y-123148152D01*
X71356424Y-123139266D01*
X71373370Y-123186843D01*
G37*
G36*
X73735260Y-123186843D02*
G01*
X73726668Y-123297239D01*
X73706365Y-123412737D01*
X73682538Y-123559278D01*
X73682446Y-123641785D01*
X73701095Y-123668824D01*
X73739791Y-123714389D01*
X73743430Y-123737788D01*
X73713361Y-123779795D01*
X73647915Y-123791545D01*
X73584233Y-123769947D01*
X73568237Y-123752376D01*
X73561804Y-123694738D01*
X73570460Y-123587849D01*
X73589919Y-123455957D01*
X73615892Y-123323307D01*
X73644093Y-123214149D01*
X73670233Y-123152728D01*
X73675079Y-123148152D01*
X73718314Y-123139266D01*
X73735260Y-123186843D01*
G37*
G36*
X59861087Y-123341587D02*
G01*
X59864647Y-123342838D01*
X59908642Y-123377493D01*
X59888636Y-123412802D01*
X59817239Y-123438109D01*
X59744779Y-123444165D01*
X59650879Y-123453970D01*
X59605481Y-123496012D01*
X59588587Y-123550644D01*
X59556803Y-123683424D01*
X59531074Y-123756785D01*
X59503617Y-123787499D01*
X59476305Y-123792641D01*
X59440445Y-123762284D01*
X59443879Y-123705522D01*
X59484228Y-123542239D01*
X59523336Y-123439521D01*
X59571296Y-123381330D01*
X59638203Y-123351627D01*
X59671179Y-123344382D01*
X59779166Y-123333703D01*
X59861087Y-123341587D01*
G37*
G36*
X65844650Y-121721147D02*
G01*
X65844650Y-121856665D01*
X65321936Y-121856665D01*
X64799223Y-121856665D01*
X64799223Y-122437458D01*
X64799223Y-123018251D01*
X64663704Y-123018251D01*
X64528186Y-123018251D01*
X64528186Y-122363186D01*
X64529527Y-122142098D01*
X64533238Y-121945412D01*
X64538854Y-121787348D01*
X64545907Y-121682129D01*
X64551688Y-121646875D01*
X64570226Y-121623789D01*
X64612656Y-121607212D01*
X64689921Y-121596127D01*
X64812962Y-121589515D01*
X64992722Y-121586358D01*
X65209920Y-121585629D01*
X65844650Y-121585629D01*
X65844650Y-121721147D01*
G37*
G36*
X70044318Y-123341587D02*
G01*
X70047879Y-123342838D01*
X70091873Y-123377493D01*
X70071868Y-123412802D01*
X70000471Y-123438109D01*
X69928011Y-123444165D01*
X69834111Y-123453970D01*
X69788713Y-123496012D01*
X69771819Y-123550644D01*
X69740035Y-123683424D01*
X69714306Y-123756785D01*
X69686849Y-123787499D01*
X69659537Y-123792641D01*
X69623677Y-123762284D01*
X69627110Y-123705522D01*
X69667460Y-123542239D01*
X69706568Y-123439521D01*
X69754527Y-123381330D01*
X69821434Y-123351627D01*
X69854411Y-123344382D01*
X69962397Y-123333703D01*
X70044318Y-123341587D01*
G37*
G36*
X73490355Y-123341587D02*
G01*
X73493916Y-123342838D01*
X73537910Y-123377493D01*
X73517904Y-123412802D01*
X73446508Y-123438109D01*
X73374047Y-123444165D01*
X73280147Y-123453970D01*
X73234750Y-123496012D01*
X73217855Y-123550644D01*
X73186071Y-123683424D01*
X73160342Y-123756785D01*
X73132886Y-123787499D01*
X73105574Y-123792641D01*
X73069714Y-123762284D01*
X73073147Y-123705522D01*
X73113497Y-123542239D01*
X73152604Y-123439521D01*
X73200564Y-123381330D01*
X73267471Y-123351627D01*
X73300448Y-123344382D01*
X73408434Y-123333703D01*
X73490355Y-123341587D01*
G37*
G36*
X62314612Y-121942437D02*
G01*
X62512641Y-121968946D01*
X62653286Y-122029192D01*
X62745609Y-122131451D01*
X62798671Y-122283996D01*
X62821534Y-122495102D01*
X62824528Y-122648492D01*
X62824528Y-123018251D01*
X62689009Y-123018251D01*
X62553491Y-123018251D01*
X62553491Y-122658159D01*
X62548160Y-122460406D01*
X62532804Y-122322586D01*
X62508376Y-122253046D01*
X62507028Y-122251604D01*
X62442494Y-122226307D01*
X62318806Y-122210014D01*
X62177912Y-122205141D01*
X61895259Y-122205141D01*
X61895259Y-122611696D01*
X61895259Y-123018251D01*
X61758648Y-123018251D01*
X61622037Y-123018251D01*
X61632810Y-122485857D01*
X61643582Y-121953464D01*
X62050137Y-121941392D01*
X62314612Y-121942437D01*
G37*
G36*
X66767172Y-123242842D02*
G01*
X66773918Y-123269927D01*
X66806198Y-123317227D01*
X66851357Y-123328007D01*
X66914423Y-123352217D01*
X66928796Y-123386086D01*
X66895281Y-123432885D01*
X66834606Y-123444165D01*
X66778519Y-123450135D01*
X66741717Y-123479547D01*
X66713173Y-123549659D01*
X66681861Y-123677727D01*
X66679980Y-123686162D01*
X66643362Y-123764990D01*
X66596333Y-123792641D01*
X66552824Y-123765911D01*
X66554752Y-123724882D01*
X66591264Y-123581672D01*
X66604072Y-123497272D01*
X66592574Y-123456579D01*
X66556167Y-123444489D01*
X66543554Y-123444165D01*
X66487528Y-123425653D01*
X66488879Y-123386086D01*
X66541682Y-123337115D01*
X66584463Y-123328007D01*
X66644929Y-123302654D01*
X66657759Y-123269927D01*
X66688753Y-123218594D01*
X66715839Y-123211848D01*
X66767172Y-123242842D01*
G37*
G36*
X68083635Y-123242842D02*
G01*
X68090381Y-123269927D01*
X68122661Y-123317227D01*
X68167820Y-123328007D01*
X68230886Y-123352217D01*
X68245259Y-123386086D01*
X68211744Y-123432885D01*
X68151070Y-123444165D01*
X68094983Y-123450135D01*
X68058180Y-123479547D01*
X68029636Y-123549659D01*
X67998324Y-123677727D01*
X67996444Y-123686162D01*
X67959826Y-123764990D01*
X67912796Y-123792641D01*
X67869287Y-123765911D01*
X67871216Y-123724882D01*
X67907727Y-123581672D01*
X67920535Y-123497272D01*
X67909037Y-123456579D01*
X67872630Y-123444489D01*
X67860017Y-123444165D01*
X67803991Y-123425653D01*
X67805343Y-123386086D01*
X67858145Y-123337115D01*
X67900926Y-123328007D01*
X67961392Y-123302654D01*
X67974223Y-123269927D01*
X68005216Y-123218594D01*
X68032302Y-123211848D01*
X68083635Y-123242842D01*
G37*
G36*
X69875830Y-122048657D02*
G01*
X69924612Y-122100416D01*
X69956634Y-122150385D01*
X69975423Y-122215613D01*
X69984502Y-122313153D01*
X69987400Y-122460053D01*
X69987637Y-122589357D01*
X69987637Y-123018251D01*
X69852119Y-123018251D01*
X69716601Y-123018251D01*
X69716601Y-122611696D01*
X69716601Y-122205141D01*
X69561723Y-122205141D01*
X69406845Y-122205141D01*
X69406845Y-122611696D01*
X69406845Y-123018251D01*
X69272681Y-123018251D01*
X69138517Y-123018251D01*
X69127483Y-122621376D01*
X69116448Y-122224501D01*
X68913171Y-122212797D01*
X68709893Y-122201094D01*
X68709893Y-122609672D01*
X68709893Y-123018251D01*
X68573282Y-123018251D01*
X68436672Y-123018251D01*
X68447444Y-122485857D01*
X68458217Y-121953464D01*
X69111120Y-121945157D01*
X69764023Y-121936850D01*
X69875830Y-122048657D01*
G37*
G36*
X60465559Y-123336742D02*
G01*
X60580097Y-123373416D01*
X60614791Y-123395766D01*
X60667191Y-123451391D01*
X60680860Y-123518944D01*
X60665789Y-123618198D01*
X60628220Y-123728572D01*
X60577854Y-123782954D01*
X60571019Y-123784903D01*
X60532758Y-123781611D01*
X60525259Y-123738542D01*
X60541293Y-123651727D01*
X60560419Y-123533049D01*
X60542796Y-123470208D01*
X60478875Y-123446533D01*
X60422370Y-123444165D01*
X60335509Y-123459131D01*
X60293874Y-123519015D01*
X60285538Y-123550644D01*
X60253760Y-123683518D01*
X60228197Y-123756931D01*
X60201221Y-123787610D01*
X60175203Y-123792641D01*
X60148456Y-123776522D01*
X60144465Y-123717902D01*
X60162439Y-123601379D01*
X60164750Y-123589363D01*
X60194364Y-123469786D01*
X60227581Y-123383288D01*
X60246298Y-123357639D01*
X60341458Y-123330155D01*
X60465559Y-123336742D01*
G37*
G36*
X61859462Y-123336742D02*
G01*
X61973999Y-123373416D01*
X62008694Y-123395766D01*
X62061094Y-123451391D01*
X62074762Y-123518944D01*
X62059692Y-123618198D01*
X62022123Y-123728572D01*
X61971756Y-123782954D01*
X61964921Y-123784903D01*
X61926661Y-123781611D01*
X61919162Y-123738542D01*
X61935196Y-123651727D01*
X61954321Y-123533049D01*
X61936699Y-123470208D01*
X61872777Y-123446533D01*
X61816273Y-123444165D01*
X61729411Y-123459131D01*
X61687777Y-123519015D01*
X61679441Y-123550644D01*
X61647663Y-123683518D01*
X61622100Y-123756931D01*
X61595123Y-123787610D01*
X61569105Y-123792641D01*
X61542358Y-123776522D01*
X61538367Y-123717902D01*
X61556342Y-123601379D01*
X61558653Y-123589363D01*
X61588266Y-123469786D01*
X61621484Y-123383288D01*
X61640200Y-123357639D01*
X61735361Y-123330155D01*
X61859462Y-123336742D01*
G37*
G36*
X65274834Y-123343903D02*
G01*
X65309819Y-123380277D01*
X65281803Y-123420157D01*
X65193177Y-123446574D01*
X65157378Y-123449262D01*
X65012180Y-123454359D01*
X65147698Y-123478302D01*
X65247235Y-123509684D01*
X65290670Y-123566850D01*
X65295869Y-123591495D01*
X65286541Y-123697033D01*
X65218956Y-123762074D01*
X65087765Y-123790569D01*
X65023572Y-123792641D01*
X64902343Y-123785982D01*
X64849620Y-123764560D01*
X64847405Y-123744241D01*
X64892508Y-123711569D01*
X64986230Y-123688125D01*
X65024869Y-123683936D01*
X65136223Y-123666077D01*
X65181720Y-123639199D01*
X65158081Y-123611687D01*
X65062025Y-123591927D01*
X65060896Y-123591817D01*
X64958304Y-123561379D01*
X64915808Y-123505971D01*
X64927048Y-123440373D01*
X64985660Y-123379363D01*
X65085284Y-123337721D01*
X65174458Y-123328007D01*
X65274834Y-123343903D01*
G37*
G36*
X66196047Y-123336742D02*
G01*
X66310585Y-123373416D01*
X66345279Y-123395766D01*
X66397679Y-123451391D01*
X66411348Y-123518944D01*
X66396277Y-123618198D01*
X66358708Y-123728572D01*
X66308341Y-123782954D01*
X66301506Y-123784903D01*
X66263246Y-123781611D01*
X66255747Y-123738542D01*
X66271781Y-123651727D01*
X66290907Y-123533049D01*
X66273284Y-123470208D01*
X66209363Y-123446533D01*
X66152858Y-123444165D01*
X66065997Y-123459131D01*
X66024362Y-123519015D01*
X66016026Y-123550644D01*
X65984248Y-123683518D01*
X65958685Y-123756931D01*
X65931709Y-123787610D01*
X65905691Y-123792641D01*
X65878943Y-123776522D01*
X65874953Y-123717902D01*
X65892927Y-123601379D01*
X65895238Y-123589363D01*
X65924852Y-123469786D01*
X65958069Y-123383288D01*
X65976786Y-123357639D01*
X66071946Y-123330155D01*
X66196047Y-123336742D01*
G37*
G36*
X67285856Y-123334452D02*
G01*
X67387237Y-123369442D01*
X67405073Y-123383900D01*
X67441594Y-123469017D01*
X67433583Y-123583488D01*
X67384878Y-123696192D01*
X67363014Y-123724882D01*
X67288524Y-123769486D01*
X67180557Y-123792023D01*
X67067525Y-123791860D01*
X66977841Y-123768361D01*
X66942686Y-123734270D01*
X66932660Y-123641695D01*
X67051356Y-123641695D01*
X67086185Y-123670981D01*
X67173387Y-123676482D01*
X67267494Y-123666967D01*
X67311673Y-123626926D01*
X67326051Y-123576632D01*
X67321968Y-123488809D01*
X67262567Y-123448889D01*
X67154249Y-123450783D01*
X67080540Y-123486587D01*
X67052062Y-123570004D01*
X67051356Y-123641695D01*
X66932660Y-123641695D01*
X66931924Y-123634901D01*
X66953660Y-123516894D01*
X66998418Y-123414552D01*
X67044075Y-123367197D01*
X67159404Y-123333146D01*
X67285856Y-123334452D01*
G37*
G36*
X72861466Y-123334452D02*
G01*
X72962846Y-123369442D01*
X72980682Y-123383900D01*
X73017204Y-123469017D01*
X73009193Y-123583488D01*
X72960488Y-123696192D01*
X72938623Y-123724882D01*
X72864133Y-123769486D01*
X72756166Y-123792023D01*
X72643135Y-123791860D01*
X72553450Y-123768361D01*
X72518296Y-123734270D01*
X72508270Y-123641695D01*
X72626966Y-123641695D01*
X72661795Y-123670981D01*
X72748997Y-123676482D01*
X72843104Y-123666967D01*
X72887283Y-123626926D01*
X72901661Y-123576632D01*
X72897577Y-123488809D01*
X72838177Y-123448889D01*
X72729859Y-123450783D01*
X72656150Y-123486587D01*
X72627672Y-123570004D01*
X72626966Y-123641695D01*
X72508270Y-123641695D01*
X72507534Y-123634901D01*
X72529270Y-123516894D01*
X72574028Y-123414552D01*
X72619685Y-123367197D01*
X72735014Y-123333146D01*
X72861466Y-123334452D01*
G37*
G36*
X59547489Y-121942213D02*
G01*
X59740417Y-121972581D01*
X59876043Y-122034272D01*
X59963871Y-122136351D01*
X60013403Y-122287882D01*
X60034142Y-122497927D01*
X60036723Y-122648492D01*
X60036723Y-123018251D01*
X59901204Y-123018251D01*
X59765686Y-123018251D01*
X59765686Y-122658159D01*
X59760355Y-122460406D01*
X59744999Y-122322586D01*
X59720571Y-122253046D01*
X59719223Y-122251604D01*
X59654690Y-122226307D01*
X59531001Y-122210014D01*
X59390107Y-122205141D01*
X59107454Y-122205141D01*
X59107454Y-122611696D01*
X59107454Y-123018251D01*
X58971936Y-123018251D01*
X58836418Y-123018251D01*
X58836418Y-122537423D01*
X58838240Y-122347527D01*
X58843207Y-122182500D01*
X58850568Y-122059657D01*
X58859573Y-121996308D01*
X58859920Y-121995350D01*
X58883606Y-121967119D01*
X58937703Y-121948858D01*
X59035749Y-121938629D01*
X59191284Y-121934494D01*
X59287758Y-121934104D01*
X59547489Y-121942213D01*
G37*
G36*
X63777982Y-123152286D02*
G01*
X63791911Y-123202168D01*
X63780505Y-123307182D01*
X63752461Y-123439103D01*
X63714803Y-123573521D01*
X63674553Y-123686025D01*
X63638737Y-123752206D01*
X63631886Y-123758295D01*
X63548298Y-123785759D01*
X63436736Y-123793417D01*
X63326382Y-123782995D01*
X63246419Y-123756219D01*
X63225613Y-123734270D01*
X63212137Y-123620758D01*
X63240527Y-123499333D01*
X63299999Y-123401548D01*
X63351844Y-123364976D01*
X63477668Y-123331842D01*
X63564775Y-123338393D01*
X63598860Y-123383408D01*
X63598918Y-123386086D01*
X63564489Y-123432316D01*
X63486902Y-123444165D01*
X63384737Y-123471089D01*
X63334501Y-123554144D01*
X63327881Y-123621570D01*
X63363187Y-123663688D01*
X63460654Y-123676482D01*
X63535569Y-123672857D01*
X63579725Y-123649874D01*
X63607526Y-123589368D01*
X63633371Y-123473177D01*
X63637179Y-123453845D01*
X63663594Y-123324675D01*
X63686142Y-123223494D01*
X63696788Y-123182808D01*
X63735569Y-123137051D01*
X63777982Y-123152286D01*
G37*
G36*
X64175550Y-123335725D02*
G01*
X64234623Y-123351509D01*
X64283218Y-123405536D01*
X64293068Y-123492384D01*
X64261989Y-123576607D01*
X64249406Y-123591299D01*
X64180098Y-123626881D01*
X64087643Y-123638557D01*
X64001503Y-123627459D01*
X63951141Y-123594722D01*
X63947393Y-123579683D01*
X63975103Y-123537821D01*
X64065073Y-123522007D01*
X64090656Y-123521604D01*
X64181437Y-123514980D01*
X64202149Y-123493362D01*
X64192171Y-123479858D01*
X64125918Y-123453361D01*
X64039229Y-123450818D01*
X63954407Y-123476797D01*
X63919620Y-123544150D01*
X63915782Y-123570004D01*
X63917309Y-123647244D01*
X63960419Y-123674274D01*
X64002901Y-123676482D01*
X64082677Y-123696235D01*
X64102271Y-123734562D01*
X64070251Y-123775370D01*
X63994268Y-123793651D01*
X63904440Y-123789434D01*
X63830887Y-123762748D01*
X63806405Y-123734270D01*
X63795644Y-123634901D01*
X63817379Y-123516894D01*
X63862137Y-123414552D01*
X63907795Y-123367197D01*
X64032992Y-123332314D01*
X64175550Y-123335725D01*
G37*
G36*
X69209087Y-123335725D02*
G01*
X69268160Y-123351509D01*
X69316754Y-123405536D01*
X69326604Y-123492384D01*
X69295525Y-123576607D01*
X69282942Y-123591299D01*
X69213634Y-123626881D01*
X69121179Y-123638557D01*
X69035039Y-123627459D01*
X68984678Y-123594722D01*
X68980930Y-123579683D01*
X69008640Y-123537821D01*
X69098609Y-123522007D01*
X69124192Y-123521604D01*
X69214973Y-123514980D01*
X69235685Y-123493362D01*
X69225708Y-123479858D01*
X69159455Y-123453361D01*
X69072766Y-123450818D01*
X68987944Y-123476797D01*
X68953156Y-123544150D01*
X68949319Y-123570004D01*
X68950846Y-123647244D01*
X68993956Y-123674274D01*
X69036437Y-123676482D01*
X69116214Y-123696235D01*
X69135808Y-123734562D01*
X69103787Y-123775370D01*
X69027804Y-123793651D01*
X68937977Y-123789434D01*
X68864423Y-123762748D01*
X68839942Y-123734270D01*
X68829181Y-123634901D01*
X68850916Y-123516894D01*
X68895674Y-123414552D01*
X68941331Y-123367197D01*
X69066529Y-123332314D01*
X69209087Y-123335725D01*
G37*
G36*
X70486831Y-123335725D02*
G01*
X70545903Y-123351509D01*
X70594498Y-123405536D01*
X70604348Y-123492384D01*
X70573269Y-123576607D01*
X70560686Y-123591299D01*
X70491378Y-123626881D01*
X70398923Y-123638557D01*
X70312783Y-123627459D01*
X70262422Y-123594722D01*
X70258674Y-123579683D01*
X70286384Y-123537821D01*
X70376353Y-123522007D01*
X70401936Y-123521604D01*
X70492717Y-123514980D01*
X70513429Y-123493362D01*
X70503452Y-123479858D01*
X70437198Y-123453361D01*
X70350510Y-123450818D01*
X70265687Y-123476797D01*
X70230900Y-123544150D01*
X70227062Y-123570004D01*
X70228590Y-123647244D01*
X70271700Y-123674274D01*
X70314181Y-123676482D01*
X70393957Y-123696235D01*
X70413552Y-123734562D01*
X70381531Y-123775370D01*
X70305548Y-123793651D01*
X70215721Y-123789434D01*
X70142167Y-123762748D01*
X70117686Y-123734270D01*
X70106924Y-123634901D01*
X70128660Y-123516894D01*
X70173418Y-123414552D01*
X70219075Y-123367197D01*
X70344272Y-123332314D01*
X70486831Y-123335725D01*
G37*
G36*
X74387128Y-123152286D02*
G01*
X74401057Y-123202168D01*
X74389652Y-123307182D01*
X74361608Y-123439103D01*
X74323949Y-123573521D01*
X74283699Y-123686025D01*
X74247883Y-123752206D01*
X74241032Y-123758295D01*
X74157444Y-123785759D01*
X74045882Y-123793417D01*
X73935529Y-123782995D01*
X73855566Y-123756219D01*
X73834759Y-123734270D01*
X73821283Y-123620758D01*
X73849674Y-123499333D01*
X73909145Y-123401548D01*
X73960991Y-123364976D01*
X74086814Y-123331842D01*
X74173922Y-123338393D01*
X74208006Y-123383408D01*
X74208064Y-123386086D01*
X74173635Y-123432316D01*
X74096048Y-123444165D01*
X73993883Y-123471089D01*
X73943647Y-123554144D01*
X73937028Y-123621570D01*
X73972334Y-123663688D01*
X74069801Y-123676482D01*
X74144715Y-123672857D01*
X74188872Y-123649874D01*
X74216672Y-123589368D01*
X74242517Y-123473177D01*
X74246325Y-123453845D01*
X74272740Y-123324675D01*
X74295288Y-123223494D01*
X74305934Y-123182808D01*
X74344715Y-123137051D01*
X74387128Y-123152286D01*
G37*
G36*
X71877172Y-123361282D02*
G01*
X71876634Y-123444165D01*
X71870768Y-123529296D01*
X71892080Y-123553166D01*
X71947953Y-123515847D01*
X72019093Y-123445542D01*
X72109343Y-123368585D01*
X72165371Y-123360915D01*
X72186249Y-123422119D01*
X72177715Y-123516359D01*
X72153827Y-123657123D01*
X72306571Y-123482925D01*
X72398370Y-123389543D01*
X72465004Y-123342623D01*
X72497860Y-123344705D01*
X72488325Y-123398326D01*
X72470854Y-123434509D01*
X72419626Y-123503223D01*
X72335896Y-123591274D01*
X72239462Y-123680597D01*
X72150125Y-123753124D01*
X72087683Y-123790788D01*
X72078379Y-123792641D01*
X72051929Y-123758829D01*
X72039847Y-123676656D01*
X72039771Y-123668887D01*
X72039771Y-123545133D01*
X71912090Y-123668887D01*
X71829178Y-123742994D01*
X71767270Y-123787193D01*
X71752223Y-123792641D01*
X71738831Y-123758171D01*
X71738896Y-123669612D01*
X71746709Y-123591588D01*
X71768592Y-123449764D01*
X71791346Y-123369256D01*
X71821384Y-123334138D01*
X71852854Y-123328007D01*
X71877172Y-123361282D01*
G37*
G36*
X64734053Y-123343450D02*
G01*
X64807780Y-123401839D01*
X64824402Y-123512026D01*
X64818077Y-123557841D01*
X64790062Y-123663932D01*
X64755966Y-123739378D01*
X64752297Y-123744241D01*
X64684344Y-123777781D01*
X64574945Y-123791139D01*
X64457314Y-123784701D01*
X64364664Y-123758849D01*
X64338661Y-123739469D01*
X64310380Y-123658348D01*
X64344987Y-123579320D01*
X64428887Y-123516619D01*
X64548488Y-123484479D01*
X64583720Y-123482885D01*
X64663476Y-123502642D01*
X64683064Y-123540964D01*
X64653677Y-123583920D01*
X64559888Y-123598938D01*
X64547546Y-123599043D01*
X64457981Y-123609353D01*
X64413201Y-123634704D01*
X64412028Y-123640100D01*
X64446463Y-123664671D01*
X64535321Y-123670548D01*
X64557226Y-123669140D01*
X64654946Y-123653216D01*
X64699783Y-123615072D01*
X64714676Y-123550644D01*
X64715797Y-123480303D01*
X64683059Y-123450558D01*
X64595579Y-123444182D01*
X64585611Y-123444165D01*
X64488227Y-123429983D01*
X64458602Y-123397318D01*
X64494584Y-123360992D01*
X64594019Y-123335827D01*
X64601456Y-123335045D01*
X64734053Y-123343450D01*
G37*
G36*
X71045334Y-123343450D02*
G01*
X71119060Y-123401839D01*
X71135682Y-123512026D01*
X71129357Y-123557841D01*
X71101343Y-123663932D01*
X71067246Y-123739378D01*
X71063578Y-123744241D01*
X70995625Y-123777781D01*
X70886226Y-123791139D01*
X70768595Y-123784701D01*
X70675945Y-123758849D01*
X70649942Y-123739469D01*
X70621661Y-123658348D01*
X70656267Y-123579320D01*
X70740168Y-123516619D01*
X70859768Y-123484479D01*
X70895000Y-123482885D01*
X70974757Y-123502642D01*
X70994345Y-123540964D01*
X70964958Y-123583920D01*
X70871169Y-123598938D01*
X70858826Y-123599043D01*
X70769262Y-123609353D01*
X70724482Y-123634704D01*
X70723308Y-123640100D01*
X70757744Y-123664671D01*
X70846602Y-123670548D01*
X70868506Y-123669140D01*
X70966227Y-123653216D01*
X71011063Y-123615072D01*
X71025956Y-123550644D01*
X71027077Y-123480303D01*
X70994339Y-123450558D01*
X70906859Y-123444182D01*
X70896891Y-123444165D01*
X70799508Y-123429983D01*
X70769883Y-123397318D01*
X70805864Y-123360992D01*
X70905300Y-123335827D01*
X70912737Y-123335045D01*
X71045334Y-123343450D01*
G37*
G36*
X61149158Y-123341854D02*
G01*
X61218192Y-123390691D01*
X61241662Y-123485462D01*
X61225422Y-123637112D01*
X61216958Y-123679884D01*
X61182948Y-123810358D01*
X61144547Y-123909825D01*
X61114928Y-123952010D01*
X61040263Y-123978402D01*
X60948226Y-123986400D01*
X60866207Y-123977323D01*
X60821596Y-123952489D01*
X60820548Y-123937839D01*
X60866508Y-123900181D01*
X60954578Y-123877658D01*
X61026014Y-123863605D01*
X61067858Y-123825859D01*
X61095853Y-123743670D01*
X61111199Y-123671264D01*
X61129378Y-123539989D01*
X61112486Y-123468654D01*
X61051586Y-123444302D01*
X60959127Y-123450783D01*
X60885418Y-123486587D01*
X60856940Y-123570004D01*
X60858468Y-123647244D01*
X60901578Y-123674274D01*
X60944059Y-123676482D01*
X61024658Y-123696819D01*
X61043430Y-123736899D01*
X61023899Y-123776722D01*
X60954209Y-123788207D01*
X60898232Y-123785298D01*
X60808407Y-123774155D01*
X60766876Y-123745359D01*
X60755959Y-123676101D01*
X60756810Y-123602840D01*
X60781655Y-123455079D01*
X60853133Y-123366615D01*
X60978616Y-123329997D01*
X61028705Y-123328007D01*
X61149158Y-123341854D01*
G37*
G36*
X62543061Y-123341854D02*
G01*
X62612095Y-123390691D01*
X62635564Y-123485462D01*
X62619325Y-123637112D01*
X62610860Y-123679884D01*
X62576851Y-123810358D01*
X62538449Y-123909825D01*
X62508830Y-123952010D01*
X62434165Y-123978402D01*
X62342129Y-123986400D01*
X62260110Y-123977323D01*
X62215498Y-123952489D01*
X62214450Y-123937839D01*
X62260410Y-123900181D01*
X62348480Y-123877658D01*
X62419917Y-123863605D01*
X62461760Y-123825859D01*
X62489755Y-123743670D01*
X62505101Y-123671264D01*
X62523280Y-123539989D01*
X62506388Y-123468654D01*
X62445489Y-123444302D01*
X62353029Y-123450783D01*
X62279320Y-123486587D01*
X62250843Y-123570004D01*
X62252370Y-123647244D01*
X62295480Y-123674274D01*
X62337962Y-123676482D01*
X62418560Y-123696819D01*
X62437332Y-123736899D01*
X62417802Y-123776722D01*
X62348111Y-123788207D01*
X62292134Y-123785298D01*
X62202309Y-123774155D01*
X62160778Y-123745359D01*
X62149861Y-123676101D01*
X62150713Y-123602840D01*
X62175558Y-123455079D01*
X62247036Y-123366615D01*
X62372519Y-123329997D01*
X62422607Y-123328007D01*
X62543061Y-123341854D01*
G37*
G36*
X59053585Y-123144793D02*
G01*
X59063941Y-123183677D01*
X59057530Y-123269161D01*
X59033827Y-123411881D01*
X59006845Y-123550644D01*
X58994812Y-123633833D01*
X59017302Y-123668775D01*
X59093460Y-123676394D01*
X59121974Y-123676482D01*
X59213642Y-123669412D01*
X59261076Y-123651954D01*
X59262861Y-123647443D01*
X59272417Y-123590347D01*
X59286737Y-123531284D01*
X59293364Y-123471238D01*
X59255923Y-123447662D01*
X59186183Y-123444165D01*
X59096538Y-123431470D01*
X59078174Y-123395766D01*
X59128268Y-123350920D01*
X59217761Y-123336747D01*
X59314022Y-123355497D01*
X59353028Y-123376835D01*
X59396092Y-123420072D01*
X59404969Y-123478633D01*
X59383464Y-123580541D01*
X59381612Y-123587452D01*
X59341539Y-123691607D01*
X59293115Y-123759781D01*
X59278105Y-123769300D01*
X59177383Y-123790715D01*
X59061008Y-123792522D01*
X58957576Y-123777030D01*
X58895684Y-123746548D01*
X58890455Y-123737990D01*
X58884661Y-123665164D01*
X58897404Y-123550307D01*
X58923284Y-123417010D01*
X58956896Y-123288861D01*
X58992837Y-123189451D01*
X59025705Y-123142369D01*
X59026986Y-123141872D01*
X59053585Y-123144793D01*
G37*
G36*
X64257150Y-122125543D02*
G01*
X64256725Y-122365806D01*
X64254414Y-122541368D01*
X64248660Y-122664968D01*
X64237910Y-122749342D01*
X64220606Y-122807228D01*
X64195194Y-122851363D01*
X64163763Y-122890253D01*
X64116843Y-122939872D01*
X64066952Y-122972260D01*
X63996375Y-122991886D01*
X63887396Y-123003217D01*
X63722300Y-123010724D01*
X63680399Y-123012179D01*
X63503236Y-123017476D01*
X63385166Y-123016370D01*
X63307890Y-123005124D01*
X63253107Y-122980001D01*
X63202517Y-122937264D01*
X63173633Y-122908679D01*
X63116587Y-122847079D01*
X63081966Y-122788330D01*
X63064192Y-122711157D01*
X63057686Y-122594281D01*
X63056845Y-122463238D01*
X63058203Y-122302225D01*
X63066032Y-122198374D01*
X63085962Y-122131411D01*
X63123625Y-122081062D01*
X63175974Y-122034345D01*
X63248574Y-121981251D01*
X63324802Y-121950917D01*
X63429414Y-121937236D01*
X63582529Y-121934104D01*
X63869954Y-121934104D01*
X63869954Y-122069622D01*
X63869954Y-122205141D01*
X63598918Y-122205141D01*
X63327881Y-122205141D01*
X63327881Y-122477743D01*
X63327881Y-122750346D01*
X63647317Y-122739100D01*
X63966753Y-122727854D01*
X63977392Y-122098662D01*
X63988031Y-121469470D01*
X64122590Y-121469470D01*
X64257150Y-121469470D01*
X64257150Y-122125543D01*
G37*
G36*
X60982434Y-121935490D02*
G01*
X61093339Y-121942896D01*
X61166801Y-121961191D01*
X61222814Y-121995246D01*
X61278725Y-122047284D01*
X61335077Y-122108937D01*
X61368782Y-122169293D01*
X61385621Y-122250252D01*
X61391373Y-122373716D01*
X61391906Y-122476177D01*
X61390005Y-122635268D01*
X61380451Y-122738843D01*
X61357465Y-122808801D01*
X61315266Y-122867043D01*
X61278725Y-122905070D01*
X61220023Y-122959408D01*
X61163374Y-122992662D01*
X61088356Y-123009804D01*
X60974547Y-123015804D01*
X60823771Y-123015796D01*
X60658563Y-123010886D01*
X60514891Y-122999930D01*
X60416487Y-122984969D01*
X60396906Y-122979074D01*
X60302908Y-122905122D01*
X60233913Y-122786080D01*
X60205304Y-122653696D01*
X60210513Y-122594372D01*
X60256087Y-122490734D01*
X60332084Y-122394074D01*
X60395668Y-122345434D01*
X60473755Y-122315222D01*
X60588177Y-122297731D01*
X60736631Y-122288313D01*
X61043430Y-122274380D01*
X61043430Y-122412302D01*
X61043430Y-122550224D01*
X60762714Y-122561600D01*
X60616985Y-122569480D01*
X60531442Y-122582326D01*
X60488835Y-122606021D01*
X60471915Y-122646450D01*
X60469421Y-122661645D01*
X60466511Y-122703830D01*
X60482081Y-122729310D01*
X60530596Y-122741487D01*
X60626521Y-122743766D01*
X60784321Y-122739550D01*
X60798537Y-122739084D01*
X61140229Y-122727854D01*
X61151938Y-122501950D01*
X61153951Y-122351732D01*
X61132621Y-122254418D01*
X61074960Y-122198668D01*
X60967978Y-122173139D01*
X60798685Y-122166491D01*
X60767652Y-122166421D01*
X60462637Y-122166421D01*
X60462637Y-122050263D01*
X60462637Y-121934104D01*
X60814091Y-121934104D01*
X60982434Y-121935490D01*
G37*
G36*
X66673901Y-121935418D02*
G01*
X66784619Y-121942710D01*
X66858123Y-121961006D01*
X66914521Y-121995332D01*
X66973924Y-122050715D01*
X66974428Y-122051218D01*
X67030981Y-122111258D01*
X67064760Y-122166189D01*
X67080576Y-122236861D01*
X67083239Y-122344125D01*
X67077927Y-122499846D01*
X67069294Y-122663746D01*
X67055904Y-122770319D01*
X67031976Y-122839667D01*
X66991724Y-122891895D01*
X66955676Y-122924805D01*
X66897218Y-122968934D01*
X66833682Y-122996542D01*
X66745688Y-123011423D01*
X66613855Y-123017370D01*
X66478384Y-123018251D01*
X66305635Y-123017048D01*
X66191092Y-123010431D01*
X66115529Y-122993882D01*
X66059717Y-122962885D01*
X66004431Y-122912924D01*
X65996549Y-122905070D01*
X65905421Y-122773957D01*
X65888523Y-122631895D01*
X65941674Y-122475741D01*
X66039019Y-122370691D01*
X66199057Y-122307334D01*
X66418551Y-122286745D01*
X66502881Y-122289484D01*
X66624614Y-122298844D01*
X66688005Y-122316187D01*
X66712074Y-122352999D01*
X66715839Y-122418098D01*
X66715839Y-122534257D01*
X66444802Y-122553616D01*
X66301674Y-122566219D01*
X66218502Y-122582836D01*
X66177846Y-122610020D01*
X66162264Y-122654324D01*
X66161392Y-122660095D01*
X66159179Y-122702146D01*
X66176948Y-122727887D01*
X66229354Y-122741313D01*
X66331052Y-122746423D01*
X66480828Y-122747214D01*
X66812637Y-122747214D01*
X66812637Y-122480320D01*
X66810148Y-122338337D01*
X66793293Y-122247301D01*
X66747992Y-122195891D01*
X66660164Y-122172783D01*
X66515729Y-122166656D01*
X66422275Y-122166421D01*
X66154406Y-122166421D01*
X66154406Y-122050263D01*
X66154406Y-121934104D01*
X66505860Y-121934104D01*
X66673901Y-121935418D01*
G37*
G36*
X56066786Y-121854588D02*
G01*
X56328195Y-121959710D01*
X56559898Y-122124246D01*
X56750309Y-122339321D01*
X56887844Y-122596060D01*
X56918398Y-122684252D01*
X56937948Y-122722565D01*
X56968248Y-122708596D01*
X57023320Y-122635350D01*
X57026906Y-122630107D01*
X57172787Y-122476317D01*
X57346879Y-122387251D01*
X57535262Y-122362661D01*
X57724014Y-122402297D01*
X57899216Y-122505909D01*
X58029919Y-122648087D01*
X58105170Y-122749061D01*
X58166836Y-122801619D01*
X58244627Y-122821552D01*
X58362104Y-122824653D01*
X58569834Y-122824653D01*
X58557928Y-122989211D01*
X58546021Y-123153769D01*
X58327330Y-123165263D01*
X58200719Y-123175379D01*
X58128105Y-123196315D01*
X58086048Y-123239405D01*
X58059816Y-123294627D01*
X57962144Y-123436552D01*
X57814644Y-123539572D01*
X57637233Y-123598437D01*
X57449827Y-123607897D01*
X57272343Y-123562701D01*
X57198790Y-123521615D01*
X57097322Y-123438677D01*
X57017715Y-123351002D01*
X57006953Y-123334892D01*
X56949547Y-123240282D01*
X56853321Y-123450469D01*
X56694516Y-123720091D01*
X56493248Y-123925409D01*
X56246921Y-124068261D01*
X55952942Y-124150485D01*
X55845335Y-124164596D01*
X55583979Y-124190530D01*
X55583979Y-124010945D01*
X55583979Y-123831360D01*
X55724685Y-123831360D01*
X55978534Y-123797270D01*
X56200565Y-123701026D01*
X56381329Y-123551667D01*
X56511377Y-123358233D01*
X56581258Y-123129763D01*
X56590686Y-123002954D01*
X56586972Y-122937096D01*
X57259819Y-122937096D01*
X57263507Y-123059043D01*
X57311450Y-123155131D01*
X57400895Y-123229450D01*
X57520792Y-123256008D01*
X57641070Y-123234133D01*
X57730716Y-123164513D01*
X57785848Y-123027068D01*
X57767069Y-122889603D01*
X57706803Y-122798109D01*
X57591254Y-122721518D01*
X57467932Y-122716197D01*
X57354971Y-122781551D01*
X57329167Y-122810515D01*
X57259819Y-122937096D01*
X56586972Y-122937096D01*
X56580163Y-122816348D01*
X56540695Y-122672868D01*
X56460434Y-122540110D01*
X56390334Y-122455041D01*
X56198451Y-122291793D01*
X55972293Y-122194135D01*
X55767896Y-122167272D01*
X55583979Y-122166421D01*
X55583979Y-121992183D01*
X55583979Y-121817946D01*
X55787256Y-121817754D01*
X56066786Y-121854588D01*
G37*
D12*
%TO.C,3P_FAN1*%
X138598044Y-121591872D02*
X138998095Y-121191897D01*
X138598044Y-121991897D02*
X138598044Y-121591872D01*
X138697333Y-124092431D02*
X139097384Y-123692405D01*
X138697333Y-124492405D02*
X138697333Y-124092431D01*
X138699949Y-126690043D02*
X139099975Y-126290069D01*
X138699949Y-127090094D02*
X138699949Y-126690043D01*
X138998095Y-122391872D02*
X138598044Y-121991897D01*
X139097384Y-124892380D02*
X138697333Y-124492405D01*
X139099975Y-127490069D02*
X138699949Y-127090094D01*
X141199949Y-123690043D02*
X141199949Y-122390094D01*
X141199949Y-126290069D02*
X141199949Y-124890094D01*
X144597333Y-123693091D02*
X144597333Y-122393066D01*
X144599924Y-124990069D02*
X144699949Y-124890094D01*
X144599924Y-126290069D02*
X144599924Y-124990069D01*
X146998298Y-121190704D02*
X138997282Y-121190704D01*
X146998298Y-122392126D02*
X138997282Y-122392126D01*
X147097587Y-123691212D02*
X139096571Y-123691212D01*
X147097587Y-124892634D02*
X139096571Y-124892634D01*
X147100000Y-120500000D02*
X150100000Y-120500000D01*
X147100000Y-128100000D02*
X147100000Y-120500000D01*
X147100178Y-126288900D02*
X139099162Y-126288900D01*
X147100178Y-127490323D02*
X139099162Y-127490323D01*
X150099949Y-122791186D02*
X150099949Y-123268910D01*
X150099949Y-125331191D02*
X150099949Y-125808915D01*
X150099949Y-127871146D02*
X150099949Y-128100000D01*
X150099949Y-128100000D02*
X147100000Y-128100000D01*
X150100000Y-120500000D02*
X150100000Y-120728854D01*
D13*
X150440006Y-128109982D02*
G75*
G02*
X150380010Y-128109982I-29998J0D01*
G01*
X150380010Y-128109982D02*
G75*
G02*
X150440006Y-128109982I29998J0D01*
G01*
D14*
%TO.C,C2*%
X61273752Y-126065000D02*
X60751248Y-126065000D01*
X61273752Y-127535000D02*
X60751248Y-127535000D01*
%TO.C,C1*%
X61148752Y-128240000D02*
X59726248Y-128240000D01*
X61148752Y-130060000D02*
X59726248Y-130060000D01*
%TO.C,AUX1*%
X108750000Y-121720000D02*
X108750000Y-124380000D01*
X121510000Y-121720000D02*
X108750000Y-121720000D01*
X121510000Y-121720000D02*
X121510000Y-124380000D01*
X121510000Y-124380000D02*
X108750000Y-124380000D01*
X122780000Y-121720000D02*
X124110000Y-121720000D01*
X124110000Y-121720000D02*
X124110000Y-123050000D01*
D12*
%TO.C,J1*%
X95559817Y-129242926D02*
X151439929Y-129242926D01*
X95559817Y-133651130D02*
X95559817Y-129242926D01*
X95559817Y-138386944D02*
X95559817Y-135248488D01*
X98783744Y-138386944D02*
X95559817Y-138386944D01*
X100783744Y-138386944D02*
X100216256Y-138386944D01*
X102783744Y-138386944D02*
X102216256Y-138386944D01*
X104783744Y-138386944D02*
X104216256Y-138386944D01*
X106783744Y-138386944D02*
X106216256Y-138386944D01*
X108783744Y-138386944D02*
X108216256Y-138386944D01*
X110783744Y-138386944D02*
X110216256Y-138386944D01*
X112783744Y-138386944D02*
X112216256Y-138386944D01*
X114783744Y-138386944D02*
X114216256Y-138386944D01*
X116783744Y-138386944D02*
X116216256Y-138386944D01*
X118783744Y-138386944D02*
X118216256Y-138386944D01*
X120783744Y-138386944D02*
X120216256Y-138386944D01*
X122783744Y-138386944D02*
X122216256Y-138386944D01*
X124783744Y-138386944D02*
X124216256Y-138386944D01*
X126783744Y-138386944D02*
X126216256Y-138386944D01*
X128783744Y-138386944D02*
X128216256Y-138386944D01*
X130783744Y-138386944D02*
X130216256Y-138386944D01*
X132783744Y-138386944D02*
X132216256Y-138386944D01*
X134783744Y-138386944D02*
X134216256Y-138386944D01*
X138783744Y-138386944D02*
X136216256Y-138386944D01*
X140783744Y-138386944D02*
X140216256Y-138386944D01*
X142783744Y-138386944D02*
X142216256Y-138386944D01*
X144783744Y-138386944D02*
X144216256Y-138386944D01*
X146783744Y-138386944D02*
X146216256Y-138386944D01*
X151439929Y-129242926D02*
X151439929Y-138386944D01*
X151439929Y-138386944D02*
X148216256Y-138386944D01*
D13*
X151529718Y-129205943D02*
G75*
G02*
X151469774Y-129205943I-29972J0D01*
G01*
X151469774Y-129205943D02*
G75*
G02*
X151529718Y-129205943I29972J0D01*
G01*
D12*
%TO.C,U1*%
X57000000Y-136811494D02*
X57300000Y-136811494D01*
X57000000Y-137961481D02*
X57000000Y-136811494D01*
X57300000Y-136811494D02*
X57300000Y-136542634D01*
X57300000Y-136811494D02*
X82300000Y-136811494D01*
X82300000Y-136811494D02*
X82300000Y-136542634D01*
X82600000Y-136811494D02*
X82300000Y-136811494D01*
X82600000Y-136811494D02*
X82600000Y-137961481D01*
X82600000Y-137961481D02*
X57000000Y-137961481D01*
D15*
X80100076Y-132861532D02*
G75*
G02*
X79900076Y-132861532I-100000J0D01*
G01*
X79900076Y-132861532D02*
G75*
G02*
X80100076Y-132861532I100000J0D01*
G01*
D13*
X82629870Y-132236487D02*
G75*
G02*
X82569876Y-132236487I-29997J0D01*
G01*
X82569876Y-132236487D02*
G75*
G02*
X82629870Y-132236487I29997J0D01*
G01*
%TD*%
M02*
