%TF.GenerationSoftware,KiCad,Pcbnew,8.0.7*%
%TF.CreationDate,2025-04-01T17:50:48+03:00*%
%TF.ProjectId,RibbonExtentionCard,52696262-6f6e-4457-9874-656e74696f6e,rev?*%
%TF.SameCoordinates,Original*%
%TF.FileFunction,Legend,Bot*%
%TF.FilePolarity,Positive*%
%FSLAX46Y46*%
G04 Gerber Fmt 4.6, Leading zero omitted, Abs format (unit mm)*
G04 Created by KiCad (PCBNEW 8.0.7) date 2025-04-01 17:50:48*
%MOMM*%
%LPD*%
G01*
G04 APERTURE LIST*
%ADD10C,0.100000*%
%ADD11C,0.000000*%
G04 APERTURE END LIST*
D10*
G36*
X88724996Y-84048381D02*
G01*
X88629894Y-84087426D01*
X88535586Y-84128065D01*
X88442071Y-84170297D01*
X88349351Y-84214124D01*
X88258248Y-84259049D01*
X88169588Y-84305019D01*
X88083370Y-84352032D01*
X87999595Y-84400090D01*
X87908967Y-84455090D01*
X87822280Y-84510786D01*
X87739535Y-84567177D01*
X87695268Y-84598806D01*
X87619972Y-84655580D01*
X87543379Y-84718417D01*
X87474227Y-84780997D01*
X87454933Y-84799720D01*
X87390611Y-84867458D01*
X87332290Y-84940049D01*
X87296664Y-84993600D01*
X87255992Y-85079896D01*
X87240055Y-85166835D01*
X87240000Y-85172093D01*
X87253677Y-85236720D01*
X87291290Y-85288597D01*
X87348443Y-85322889D01*
X87419762Y-85335198D01*
X88086545Y-85335198D01*
X87293733Y-85973551D01*
X87252700Y-86027187D01*
X87240000Y-86086978D01*
X87253677Y-86149846D01*
X87291290Y-86201284D01*
X87348443Y-86236454D01*
X87419762Y-86249204D01*
X88724996Y-86249204D01*
X88724996Y-85927829D01*
X87878939Y-85927829D01*
X88674193Y-85287278D01*
X88722373Y-85208021D01*
X88723042Y-85205066D01*
X88713940Y-85117147D01*
X88711318Y-85111423D01*
X88648646Y-85040990D01*
X88645861Y-85039323D01*
X88551483Y-85012531D01*
X88548164Y-85012505D01*
X87698688Y-85012505D01*
X87769489Y-84949590D01*
X87842676Y-84890540D01*
X87925937Y-84830047D01*
X87933649Y-84824780D01*
X88019539Y-84768452D01*
X88107275Y-84714931D01*
X88188639Y-84668709D01*
X88279440Y-84619876D01*
X88371164Y-84573122D01*
X88455352Y-84532421D01*
X88548262Y-84488958D01*
X88640942Y-84446223D01*
X88724996Y-84408004D01*
X88724996Y-84048381D01*
G37*
G36*
X88724996Y-81748199D02*
G01*
X88629894Y-81787244D01*
X88535586Y-81827883D01*
X88442071Y-81870116D01*
X88349351Y-81913942D01*
X88258248Y-81958868D01*
X88169588Y-82004837D01*
X88083370Y-82051851D01*
X87999595Y-82099909D01*
X87908967Y-82154909D01*
X87822280Y-82210605D01*
X87739535Y-82266996D01*
X87695268Y-82298625D01*
X87619972Y-82355398D01*
X87543379Y-82418236D01*
X87474227Y-82480815D01*
X87454933Y-82499539D01*
X87390611Y-82567276D01*
X87332290Y-82639868D01*
X87296664Y-82693419D01*
X87255992Y-82779715D01*
X87240055Y-82866653D01*
X87240000Y-82871912D01*
X87253677Y-82936538D01*
X87291290Y-82988415D01*
X87348443Y-83022707D01*
X87419762Y-83035017D01*
X88086545Y-83035017D01*
X87293733Y-83673370D01*
X87252700Y-83727006D01*
X87240000Y-83786796D01*
X87253677Y-83849665D01*
X87291290Y-83901102D01*
X87348443Y-83936273D01*
X87419762Y-83949023D01*
X88724996Y-83949023D01*
X88724996Y-83627648D01*
X87878939Y-83627648D01*
X88674193Y-82987096D01*
X88722373Y-82907839D01*
X88723042Y-82904884D01*
X88713940Y-82816966D01*
X88711318Y-82811242D01*
X88648646Y-82740809D01*
X88645861Y-82739141D01*
X88551483Y-82712349D01*
X88548164Y-82712323D01*
X87698688Y-82712323D01*
X87769489Y-82649409D01*
X87842676Y-82590358D01*
X87925937Y-82529866D01*
X87933649Y-82524598D01*
X88019539Y-82468271D01*
X88107275Y-82414749D01*
X88188639Y-82368527D01*
X88279440Y-82319695D01*
X88371164Y-82272940D01*
X88455352Y-82232240D01*
X88548262Y-82188777D01*
X88640942Y-82146041D01*
X88724996Y-82107822D01*
X88724996Y-81748199D01*
G37*
G36*
X88724996Y-79448018D02*
G01*
X88629894Y-79487063D01*
X88535586Y-79527702D01*
X88442071Y-79569935D01*
X88349351Y-79613761D01*
X88258248Y-79658686D01*
X88169588Y-79704656D01*
X88083370Y-79751670D01*
X87999595Y-79799727D01*
X87908967Y-79854727D01*
X87822280Y-79910423D01*
X87739535Y-79966814D01*
X87695268Y-79998443D01*
X87619972Y-80055217D01*
X87543379Y-80118054D01*
X87474227Y-80180634D01*
X87454933Y-80199357D01*
X87390611Y-80267095D01*
X87332290Y-80339686D01*
X87296664Y-80393237D01*
X87255992Y-80479533D01*
X87240055Y-80566472D01*
X87240000Y-80571730D01*
X87253677Y-80636357D01*
X87291290Y-80688234D01*
X87348443Y-80722526D01*
X87419762Y-80734836D01*
X88086545Y-80734836D01*
X87293733Y-81373189D01*
X87252700Y-81426824D01*
X87240000Y-81486615D01*
X87253677Y-81549483D01*
X87291290Y-81600921D01*
X87348443Y-81636092D01*
X87419762Y-81648841D01*
X88724996Y-81648841D01*
X88724996Y-81327466D01*
X87878939Y-81327466D01*
X88674193Y-80686915D01*
X88722373Y-80607658D01*
X88723042Y-80604703D01*
X88713940Y-80516784D01*
X88711318Y-80511060D01*
X88648646Y-80440627D01*
X88645861Y-80438960D01*
X88551483Y-80412168D01*
X88548164Y-80412142D01*
X87698688Y-80412142D01*
X87769489Y-80349227D01*
X87842676Y-80290177D01*
X87925937Y-80229684D01*
X87933649Y-80224417D01*
X88019539Y-80168090D01*
X88107275Y-80114568D01*
X88188639Y-80068346D01*
X88279440Y-80019513D01*
X88371164Y-79972759D01*
X88455352Y-79932058D01*
X88548262Y-79888595D01*
X88640942Y-79845860D01*
X88724996Y-79807641D01*
X88724996Y-79448018D01*
G37*
G36*
X87419762Y-79164891D02*
G01*
X87350397Y-79178080D01*
X87294221Y-79212372D01*
X87256608Y-79262930D01*
X87242930Y-79324040D01*
X87256608Y-79386468D01*
X87294221Y-79437466D01*
X87350397Y-79471318D01*
X87419762Y-79483628D01*
X87488150Y-79471318D01*
X87544326Y-79437466D01*
X87582428Y-79386468D01*
X87597083Y-79324040D01*
X87582428Y-79262930D01*
X87544326Y-79212372D01*
X87488150Y-79178080D01*
X87419762Y-79164891D01*
G37*
G36*
X87240000Y-77434480D02*
G01*
X87240000Y-77756294D01*
X88064563Y-77756294D01*
X88161375Y-77768411D01*
X88190104Y-77777836D01*
X88272601Y-77825456D01*
X88285359Y-77836748D01*
X88340871Y-77911472D01*
X88346420Y-77923796D01*
X88367157Y-78010463D01*
X88367913Y-78031946D01*
X88367913Y-78594682D01*
X87240000Y-78594682D01*
X87240000Y-78916057D01*
X88548164Y-78916057D01*
X88617041Y-78903747D01*
X88673705Y-78869016D01*
X88711318Y-78817138D01*
X88724996Y-78753831D01*
X88724996Y-78029309D01*
X88717173Y-77938689D01*
X88709853Y-77901374D01*
X88681984Y-77813658D01*
X88661004Y-77768164D01*
X88612232Y-77687759D01*
X88576008Y-77641988D01*
X88507178Y-77575425D01*
X88450956Y-77535596D01*
X88361259Y-77489290D01*
X88281451Y-77461737D01*
X88185867Y-77442172D01*
X88086972Y-77434719D01*
X88064563Y-77434480D01*
X87240000Y-77434480D01*
G37*
G36*
X87731905Y-75782763D02*
G01*
X87634513Y-75792037D01*
X87571681Y-75806503D01*
X87478980Y-75842037D01*
X87412435Y-75882561D01*
X87341200Y-75947329D01*
X87289337Y-76019727D01*
X87253924Y-76106976D01*
X87240770Y-76195720D01*
X87240000Y-76225478D01*
X87240000Y-76805359D01*
X87250113Y-76893012D01*
X87265889Y-76949560D01*
X87305611Y-77032775D01*
X87350397Y-77092882D01*
X87422605Y-77156993D01*
X87502805Y-77203670D01*
X87600099Y-77235542D01*
X87698833Y-77247380D01*
X87731905Y-77248073D01*
X87829487Y-77238972D01*
X87892616Y-77224773D01*
X87985713Y-77189023D01*
X88052351Y-77148715D01*
X88123829Y-77083728D01*
X88175450Y-77011549D01*
X88211213Y-76923984D01*
X88224497Y-76835124D01*
X88225275Y-76805359D01*
X88225275Y-76225478D01*
X87884312Y-76225478D01*
X87884312Y-76805359D01*
X87854644Y-76892361D01*
X87839371Y-76906915D01*
X87749057Y-76941656D01*
X87728974Y-76942526D01*
X87635778Y-76915244D01*
X87620041Y-76901200D01*
X87581917Y-76820195D01*
X87580963Y-76802721D01*
X87580963Y-76225478D01*
X87609985Y-76138766D01*
X87624926Y-76124361D01*
X87714764Y-76089191D01*
X87734836Y-76088311D01*
X88233091Y-76088311D01*
X88328048Y-76114141D01*
X88344466Y-76127438D01*
X88385338Y-76210963D01*
X88385987Y-76225478D01*
X88385987Y-76931535D01*
X88724996Y-76931535D01*
X88724996Y-76225478D01*
X88714692Y-76137997D01*
X88698618Y-76081716D01*
X88659136Y-75998285D01*
X88614110Y-75938394D01*
X88542145Y-75874064D01*
X88461702Y-75827606D01*
X88364759Y-75795419D01*
X88266155Y-75783464D01*
X88233091Y-75782763D01*
X87731905Y-75782763D01*
G37*
G36*
X87240000Y-74035205D02*
G01*
X87240000Y-74357020D01*
X88064563Y-74357020D01*
X88161375Y-74369137D01*
X88190104Y-74378562D01*
X88272601Y-74426182D01*
X88285359Y-74437473D01*
X88340871Y-74512198D01*
X88346420Y-74524521D01*
X88367157Y-74611188D01*
X88367913Y-74632672D01*
X88367913Y-75195408D01*
X87240000Y-75195408D01*
X87240000Y-75516782D01*
X88548164Y-75516782D01*
X88617041Y-75504473D01*
X88673705Y-75469741D01*
X88711318Y-75417864D01*
X88724996Y-75354556D01*
X88724996Y-74630034D01*
X88717173Y-74539415D01*
X88709853Y-74502100D01*
X88681984Y-74414383D01*
X88661004Y-74368890D01*
X88612232Y-74288484D01*
X88576008Y-74242714D01*
X88507178Y-74176150D01*
X88450956Y-74136322D01*
X88361259Y-74090016D01*
X88281451Y-74062463D01*
X88185867Y-74042898D01*
X88086972Y-74035445D01*
X88064563Y-74035205D01*
X87240000Y-74035205D01*
G37*
G36*
X87741674Y-72296880D02*
G01*
X87643683Y-72303557D01*
X87575589Y-72317983D01*
X87483151Y-72353441D01*
X87446629Y-72373817D01*
X87372440Y-72431684D01*
X87351863Y-72453831D01*
X87297711Y-72531032D01*
X87287871Y-72549672D01*
X87255697Y-72635186D01*
X87251723Y-72651228D01*
X87240103Y-72739764D01*
X87240000Y-72748387D01*
X87240000Y-73328269D01*
X87248266Y-73420373D01*
X87263447Y-73476427D01*
X87303075Y-73559224D01*
X87325973Y-73592051D01*
X87391186Y-73659068D01*
X87415854Y-73677780D01*
X87501633Y-73726517D01*
X87522344Y-73735373D01*
X87617012Y-73764330D01*
X87634696Y-73767906D01*
X87732268Y-73778365D01*
X87741674Y-73778457D01*
X88225275Y-73778457D01*
X88329869Y-73770984D01*
X88427002Y-73746220D01*
X88457794Y-73733175D01*
X88544501Y-73682397D01*
X88613133Y-73620628D01*
X88666940Y-73545809D01*
X88698618Y-73474228D01*
X88720643Y-73384596D01*
X88724996Y-73328269D01*
X88724996Y-72748387D01*
X88367913Y-72748387D01*
X88367913Y-73325631D01*
X88341831Y-73412038D01*
X88331277Y-73423230D01*
X88238076Y-73456349D01*
X88225275Y-73456643D01*
X87744117Y-73456643D01*
X87646680Y-73433482D01*
X87634207Y-73424110D01*
X87597409Y-73339794D01*
X87597083Y-73328269D01*
X87597083Y-72748387D01*
X87623512Y-72661633D01*
X87634207Y-72650788D01*
X87728777Y-72618541D01*
X87741674Y-72618255D01*
X89353189Y-72618255D01*
X89353189Y-72296880D01*
X87741674Y-72296880D01*
G37*
G36*
X88367913Y-70816182D02*
G01*
X88367913Y-71543342D01*
X88724996Y-71543342D01*
X88724996Y-70816182D01*
X88367913Y-70816182D01*
G37*
G36*
X89012226Y-70816182D02*
G01*
X89012226Y-71540704D01*
X88988040Y-71625965D01*
X88975589Y-71639623D01*
X88882389Y-71672741D01*
X88869588Y-71673035D01*
X87240000Y-71673035D01*
X87240000Y-71994849D01*
X88869588Y-71994849D01*
X88971926Y-71987410D01*
X89034207Y-71973747D01*
X89126205Y-71938081D01*
X89162679Y-71917473D01*
X89236868Y-71858782D01*
X89257445Y-71836580D01*
X89311597Y-71759379D01*
X89321437Y-71740739D01*
X89353740Y-71655851D01*
X89357585Y-71640062D01*
X89369206Y-71551961D01*
X89369309Y-71543342D01*
X89369309Y-70816182D01*
X89012226Y-70816182D01*
G37*
G36*
X87731905Y-69337683D02*
G01*
X87634513Y-69346956D01*
X87571681Y-69361423D01*
X87478980Y-69396956D01*
X87412435Y-69437480D01*
X87341200Y-69502249D01*
X87289337Y-69574647D01*
X87253924Y-69661896D01*
X87240770Y-69750639D01*
X87240000Y-69780397D01*
X87240000Y-70360279D01*
X87250113Y-70447931D01*
X87265889Y-70504480D01*
X87305611Y-70587695D01*
X87350397Y-70647801D01*
X87422605Y-70711913D01*
X87502805Y-70758590D01*
X87600099Y-70790461D01*
X87698833Y-70802299D01*
X87731905Y-70802993D01*
X87829487Y-70793891D01*
X87892616Y-70779692D01*
X87985713Y-70743943D01*
X88052351Y-70703635D01*
X88123829Y-70638648D01*
X88175450Y-70566468D01*
X88211213Y-70478904D01*
X88224497Y-70390043D01*
X88225275Y-70360279D01*
X88225275Y-69780397D01*
X87884312Y-69780397D01*
X87884312Y-70360279D01*
X87854644Y-70447280D01*
X87839371Y-70461835D01*
X87749057Y-70496576D01*
X87728974Y-70497445D01*
X87635778Y-70470164D01*
X87620041Y-70456120D01*
X87581917Y-70375115D01*
X87580963Y-70357641D01*
X87580963Y-69780397D01*
X87609985Y-69693686D01*
X87624926Y-69679281D01*
X87714764Y-69644111D01*
X87734836Y-69643230D01*
X88233091Y-69643230D01*
X88328048Y-69669061D01*
X88344466Y-69682358D01*
X88385338Y-69765882D01*
X88385987Y-69780397D01*
X88385987Y-70486454D01*
X88724996Y-70486454D01*
X88724996Y-69780397D01*
X88714692Y-69692916D01*
X88698618Y-69636636D01*
X88659136Y-69553204D01*
X88614110Y-69493314D01*
X88542145Y-69428984D01*
X88461702Y-69382526D01*
X88364759Y-69350339D01*
X88266155Y-69338383D01*
X88233091Y-69337683D01*
X87731905Y-69337683D01*
G37*
G36*
X88367913Y-67901828D02*
G01*
X88367913Y-68625471D01*
X88343727Y-68710731D01*
X88331277Y-68724389D01*
X88238076Y-68757072D01*
X88225275Y-68757362D01*
X87240000Y-68757362D01*
X87240000Y-69079176D01*
X88225275Y-69079176D01*
X88327613Y-69071737D01*
X88389895Y-69058073D01*
X88481892Y-69022408D01*
X88518367Y-69001800D01*
X88592555Y-68943108D01*
X88613133Y-68920907D01*
X88667284Y-68843706D01*
X88677124Y-68825066D01*
X88709427Y-68739552D01*
X88713272Y-68723510D01*
X88724893Y-68636056D01*
X88724996Y-68627669D01*
X88724996Y-67901828D01*
X88367913Y-67901828D01*
G37*
G36*
X87240000Y-66505101D02*
G01*
X87240000Y-66826475D01*
X88225275Y-66826475D01*
X88321713Y-66852057D01*
X88331277Y-66859888D01*
X88367341Y-66942931D01*
X88367913Y-66958806D01*
X88367913Y-67376901D01*
X87240000Y-67376901D01*
X87240000Y-67698276D01*
X88548164Y-67698276D01*
X88617041Y-67685966D01*
X88673705Y-67651235D01*
X88711318Y-67599357D01*
X88724996Y-67536050D01*
X88724996Y-66956168D01*
X88713636Y-66864295D01*
X88698618Y-66812847D01*
X88659445Y-66729013D01*
X88615087Y-66666887D01*
X88724996Y-66666887D01*
X88724996Y-66231646D01*
X88714692Y-66141667D01*
X88713272Y-66135366D01*
X88684576Y-66050362D01*
X88677124Y-66034689D01*
X88627289Y-65956148D01*
X88613133Y-65938848D01*
X88541935Y-65874115D01*
X88518367Y-65858394D01*
X88429484Y-65815509D01*
X88389895Y-65802561D01*
X88291473Y-65784426D01*
X88225275Y-65781458D01*
X87240000Y-65781458D01*
X87240000Y-66103272D01*
X88225275Y-66103272D01*
X88321713Y-66127507D01*
X88331277Y-66134926D01*
X88367591Y-66219665D01*
X88367913Y-66231646D01*
X88367913Y-66520928D01*
X88267564Y-66506353D01*
X88225275Y-66505101D01*
X87240000Y-66505101D01*
G37*
G36*
X87419762Y-65230153D02*
G01*
X87350397Y-65243342D01*
X87294221Y-65277634D01*
X87256608Y-65328192D01*
X87242930Y-65389302D01*
X87256608Y-65451730D01*
X87294221Y-65502728D01*
X87350397Y-65536580D01*
X87419762Y-65548890D01*
X87488150Y-65536580D01*
X87544326Y-65502728D01*
X87582428Y-65451730D01*
X87597083Y-65389302D01*
X87582428Y-65328192D01*
X87544326Y-65277634D01*
X87488150Y-65243342D01*
X87419762Y-65230153D01*
G37*
G36*
X87240000Y-63686587D02*
G01*
X87240000Y-64558387D01*
X87250113Y-64646727D01*
X87265889Y-64704347D01*
X87306075Y-64789618D01*
X87351863Y-64850746D01*
X87425628Y-64916011D01*
X87507201Y-64963293D01*
X87599204Y-64994248D01*
X87699371Y-65007470D01*
X87741674Y-65008576D01*
X88225275Y-65008576D01*
X88325253Y-64999302D01*
X88332254Y-64998025D01*
X88426703Y-64972082D01*
X88444117Y-64965491D01*
X88531384Y-64920640D01*
X88550607Y-64907899D01*
X88622532Y-64843671D01*
X88640000Y-64822609D01*
X88687398Y-64742615D01*
X88701549Y-64706985D01*
X88721699Y-64618027D01*
X88724996Y-64558387D01*
X88724996Y-63686587D01*
X88367913Y-63686587D01*
X88367913Y-64558387D01*
X88340611Y-64645518D01*
X88332254Y-64654228D01*
X88240304Y-64686253D01*
X88222344Y-64686762D01*
X87741674Y-64686762D01*
X87646620Y-64663288D01*
X87634207Y-64653789D01*
X87597663Y-64571419D01*
X87597083Y-64555750D01*
X87597083Y-63686587D01*
X87240000Y-63686587D01*
G37*
G36*
X88288493Y-61988742D02*
G01*
X88388429Y-62008932D01*
X88467963Y-62037976D01*
X88551095Y-62086308D01*
X88619849Y-62147857D01*
X88675659Y-62226113D01*
X88689872Y-62254079D01*
X88716853Y-62341979D01*
X88724996Y-62436259D01*
X88724996Y-63016140D01*
X88720643Y-63072467D01*
X88698618Y-63162100D01*
X88666940Y-63233681D01*
X88613133Y-63308499D01*
X88544501Y-63370268D01*
X88457794Y-63421046D01*
X88427002Y-63434092D01*
X88329869Y-63458855D01*
X88225275Y-63466329D01*
X87741674Y-63466329D01*
X87699371Y-63465223D01*
X87599204Y-63452001D01*
X87507201Y-63421046D01*
X87425628Y-63373764D01*
X87351863Y-63308499D01*
X87306075Y-63247371D01*
X87265889Y-63162100D01*
X87250113Y-63104480D01*
X87240000Y-63016140D01*
X87240000Y-62436259D01*
X87597083Y-62436259D01*
X87597083Y-63013503D01*
X87597663Y-63029172D01*
X87634207Y-63111542D01*
X87646620Y-63121041D01*
X87741674Y-63144515D01*
X88225275Y-63144515D01*
X88238076Y-63144225D01*
X88331277Y-63111542D01*
X88341831Y-63100338D01*
X88367913Y-63013503D01*
X88367913Y-62436259D01*
X88367600Y-62424656D01*
X88332254Y-62339979D01*
X88317525Y-62328624D01*
X88222344Y-62306566D01*
X87741674Y-62306566D01*
X87728777Y-62306848D01*
X87634207Y-62338660D01*
X87623512Y-62349505D01*
X87597083Y-62436259D01*
X87240000Y-62436259D01*
X87240103Y-62427636D01*
X87251723Y-62339099D01*
X87255697Y-62323068D01*
X87287871Y-62237983D01*
X87297711Y-62219343D01*
X87351863Y-62142142D01*
X87372440Y-62119803D01*
X87446629Y-62061688D01*
X87483151Y-62041312D01*
X87575589Y-62005854D01*
X87643683Y-61991429D01*
X87741674Y-61984752D01*
X88225275Y-61984752D01*
X88288493Y-61988742D01*
G37*
G36*
X87240000Y-60527794D02*
G01*
X87240000Y-60849169D01*
X88225275Y-60849169D01*
X88321713Y-60874750D01*
X88331277Y-60882581D01*
X88367341Y-60965625D01*
X88367913Y-60981500D01*
X88367913Y-61399595D01*
X87240000Y-61399595D01*
X87240000Y-61720969D01*
X88548164Y-61720969D01*
X88617041Y-61708660D01*
X88673705Y-61673928D01*
X88711318Y-61622051D01*
X88724996Y-61558743D01*
X88724996Y-60978862D01*
X88713636Y-60886989D01*
X88698618Y-60835540D01*
X88659445Y-60751707D01*
X88615087Y-60689581D01*
X88724996Y-60689581D01*
X88724996Y-60254340D01*
X88714692Y-60164360D01*
X88713272Y-60158060D01*
X88684576Y-60073055D01*
X88677124Y-60057383D01*
X88627289Y-59978842D01*
X88613133Y-59961542D01*
X88541935Y-59896809D01*
X88518367Y-59881088D01*
X88429484Y-59838202D01*
X88389895Y-59825254D01*
X88291473Y-59807119D01*
X88225275Y-59804152D01*
X87240000Y-59804152D01*
X87240000Y-60125966D01*
X88225275Y-60125966D01*
X88321713Y-60150201D01*
X88331277Y-60157620D01*
X88367591Y-60242359D01*
X88367913Y-60254340D01*
X88367913Y-60543621D01*
X88267564Y-60529046D01*
X88225275Y-60527794D01*
X87240000Y-60527794D01*
G37*
D11*
%TO.C,G\u002A\u002A\u002A*%
G36*
X122217818Y-76168737D02*
G01*
X122204536Y-77634122D01*
X119060848Y-77647023D01*
X115917159Y-77659924D01*
X115917159Y-76181638D01*
X115917159Y-74703353D01*
X119074129Y-74703353D01*
X122231098Y-74703353D01*
X122217818Y-76168737D01*
G37*
G36*
X122229585Y-69693491D02*
G01*
X122229585Y-71146351D01*
X119098422Y-71146351D01*
X115967258Y-71146351D01*
X115967258Y-69693491D01*
X115967258Y-68240631D01*
X119098422Y-68240631D01*
X122229585Y-68240631D01*
X122229585Y-69693491D01*
G37*
G36*
X117370019Y-64445055D02*
G01*
X117370019Y-65921605D01*
X117031854Y-65953543D01*
X116966851Y-65958691D01*
X116760148Y-65969308D01*
X116492836Y-65977887D01*
X116192356Y-65983654D01*
X115886148Y-65985837D01*
X115851634Y-65985886D01*
X115346343Y-65996854D01*
X114904462Y-66030286D01*
X114492793Y-66091000D01*
X114078139Y-66183811D01*
X113627305Y-66313534D01*
X113417088Y-66384072D01*
X113012927Y-66541959D01*
X112598000Y-66728520D01*
X112199304Y-66930519D01*
X111843832Y-67134718D01*
X111558580Y-67327884D01*
X111551816Y-67333044D01*
X111336973Y-67512481D01*
X111080588Y-67749904D01*
X110802106Y-68025085D01*
X110520974Y-68317794D01*
X110256641Y-68607802D01*
X110028552Y-68874879D01*
X109856154Y-69098797D01*
X109593382Y-69508278D01*
X109269366Y-70138836D01*
X109009508Y-70806723D01*
X108827478Y-71480295D01*
X108818519Y-71524807D01*
X108753698Y-71979799D01*
X108719836Y-72500301D01*
X108716460Y-73059609D01*
X108743097Y-73631022D01*
X108799274Y-74187837D01*
X108884520Y-74703353D01*
X108894645Y-74751118D01*
X109044828Y-75277017D01*
X109266723Y-75830376D01*
X109548436Y-76387442D01*
X109878076Y-76924465D01*
X110243747Y-77417694D01*
X110347181Y-77541077D01*
X110929554Y-78144527D01*
X111573872Y-78671596D01*
X112273513Y-79118481D01*
X113021855Y-79481383D01*
X113812275Y-79756499D01*
X114638151Y-79940029D01*
X114658254Y-79943182D01*
X114892748Y-79970614D01*
X115187845Y-79993038D01*
X115507824Y-80008214D01*
X115816962Y-80013905D01*
X115856537Y-80013978D01*
X116163409Y-80017158D01*
X116471624Y-80024299D01*
X116747338Y-80034430D01*
X116956706Y-80046581D01*
X117370019Y-80078756D01*
X117370019Y-81549240D01*
X117370019Y-83019723D01*
X116901858Y-83019723D01*
X116842360Y-83019577D01*
X116290956Y-83006232D01*
X115702486Y-82972992D01*
X115099807Y-82922346D01*
X114505775Y-82856781D01*
X113943246Y-82778785D01*
X113435079Y-82690847D01*
X113004128Y-82595454D01*
X112303576Y-82383711D01*
X111451511Y-82035831D01*
X110630726Y-81601000D01*
X109849247Y-81085779D01*
X109115101Y-80496732D01*
X108436314Y-79840420D01*
X107820914Y-79123405D01*
X107276928Y-78352250D01*
X106812382Y-77533517D01*
X106666021Y-77221453D01*
X106489204Y-76799097D01*
X106316264Y-76342891D01*
X106160168Y-75887262D01*
X106033883Y-75466635D01*
X105866118Y-74852900D01*
X105718956Y-75163667D01*
X105372369Y-75792963D01*
X104943954Y-76377370D01*
X104448107Y-76889914D01*
X103888113Y-77327214D01*
X103267258Y-77685892D01*
X103037180Y-77796757D01*
X102692031Y-77952074D01*
X102393370Y-78066432D01*
X102116171Y-78146516D01*
X101835411Y-78199010D01*
X101526068Y-78230597D01*
X101163116Y-78247964D01*
X101022923Y-78251262D01*
X101014974Y-78251449D01*
X100388295Y-78235132D01*
X99821509Y-78162192D01*
X99292623Y-78027349D01*
X98779643Y-77825317D01*
X98260574Y-77550816D01*
X97817217Y-77265344D01*
X97373672Y-76914210D01*
X96983758Y-76521559D01*
X96634794Y-76072732D01*
X96314098Y-75553070D01*
X96008991Y-74947911D01*
X95803456Y-74502958D01*
X93961886Y-74502958D01*
X92120315Y-74502958D01*
X92120315Y-73025049D01*
X98586326Y-73025049D01*
X98589464Y-73130744D01*
X98659598Y-73579712D01*
X98814411Y-73998676D01*
X99044287Y-74376553D01*
X99339607Y-74702260D01*
X99690753Y-74964717D01*
X100088108Y-75152839D01*
X100522055Y-75255546D01*
X100682990Y-75270768D01*
X101022923Y-75275513D01*
X101355871Y-75247967D01*
X101651615Y-75191390D01*
X101879940Y-75109042D01*
X102122289Y-74966084D01*
X102484404Y-74665479D01*
X102781076Y-74302023D01*
X103003673Y-73889756D01*
X103143562Y-73442718D01*
X103192110Y-72974950D01*
X103181890Y-72750460D01*
X103091058Y-72283037D01*
X102910818Y-71851642D01*
X102646760Y-71465333D01*
X102304473Y-71133168D01*
X101889546Y-70864203D01*
X101885449Y-70862067D01*
X101769654Y-70804551D01*
X101667188Y-70765169D01*
X101555347Y-70740497D01*
X101411427Y-70727112D01*
X101212724Y-70721592D01*
X100936532Y-70720512D01*
X100849741Y-70720539D01*
X100599853Y-70722159D01*
X100419299Y-70729220D01*
X100284033Y-70745746D01*
X100170010Y-70775758D01*
X100053185Y-70823281D01*
X99909510Y-70892336D01*
X99788711Y-70956274D01*
X99401101Y-71231607D01*
X99074461Y-71577547D01*
X98820578Y-71979749D01*
X98651239Y-72423866D01*
X98621541Y-72572836D01*
X98595527Y-72800106D01*
X98586326Y-73025049D01*
X92120315Y-73025049D01*
X92120315Y-73000000D01*
X92120315Y-71497041D01*
X93967158Y-71497041D01*
X95814001Y-71497041D01*
X95901817Y-71259073D01*
X95979838Y-71072975D01*
X96113131Y-70799615D01*
X96275677Y-70496060D01*
X96451845Y-70190271D01*
X96626003Y-69910205D01*
X96782519Y-69683822D01*
X96909065Y-69526743D01*
X97250264Y-69176741D01*
X97657622Y-68836291D01*
X98108423Y-68521893D01*
X98579950Y-68250047D01*
X99049487Y-68037253D01*
X99236252Y-67967506D01*
X99505287Y-67879261D01*
X99759630Y-67816198D01*
X100022175Y-67775111D01*
X100315817Y-67752792D01*
X100663450Y-67746031D01*
X101087968Y-67751622D01*
X101409242Y-67759682D01*
X101665211Y-67769313D01*
X101862080Y-67782877D01*
X102020800Y-67803067D01*
X102162319Y-67832578D01*
X102307589Y-67874105D01*
X102477558Y-67930341D01*
X102801186Y-68047618D01*
X103149427Y-68198299D01*
X103474402Y-68372938D01*
X103818343Y-68592386D01*
X104232832Y-68901640D01*
X104771468Y-69408309D01*
X105239109Y-69985428D01*
X105634702Y-70631815D01*
X105878739Y-71094202D01*
X106019958Y-70581716D01*
X106032374Y-70536996D01*
X106358466Y-69544104D01*
X106763354Y-68609143D01*
X107243645Y-67735139D01*
X107795945Y-66925117D01*
X108416858Y-66182105D01*
X109102991Y-65509127D01*
X109850949Y-64909210D01*
X110657338Y-64385380D01*
X111518764Y-63940664D01*
X112431832Y-63578086D01*
X113393148Y-63300674D01*
X114399318Y-63111453D01*
X114479253Y-63101384D01*
X114725959Y-63077596D01*
X115039909Y-63054334D01*
X115398095Y-63033032D01*
X115777504Y-63015124D01*
X116155128Y-63002044D01*
X117370019Y-62968505D01*
X117370019Y-64445055D01*
G37*
%TD*%
M02*
