%TF.GenerationSoftware,KiCad,Pcbnew,8.0.7*%
%TF.CreationDate,2025-04-01T17:50:48+03:00*%
%TF.ProjectId,RibbonExtentionCard,52696262-6f6e-4457-9874-656e74696f6e,rev?*%
%TF.SameCoordinates,Original*%
%TF.FileFunction,Copper,L4,Bot*%
%TF.FilePolarity,Positive*%
%FSLAX46Y46*%
G04 Gerber Fmt 4.6, Leading zero omitted, Abs format (unit mm)*
G04 Created by KiCad (PCBNEW 8.0.7) date 2025-04-01 17:50:48*
%MOMM*%
%LPD*%
G01*
G04 APERTURE LIST*
%TA.AperFunction,ViaPad*%
%ADD10C,0.600000*%
%TD*%
%TA.AperFunction,Conductor*%
%ADD11C,0.158000*%
%TD*%
G04 APERTURE END LIST*
D10*
%TO.N,+3V3*%
X103550000Y-64900000D03*
X86300000Y-65600000D03*
X102150000Y-64900000D03*
X85550000Y-66300000D03*
X102150000Y-65600000D03*
X84950000Y-82500000D03*
X85650000Y-81800000D03*
X85650000Y-82500000D03*
X84850000Y-65600000D03*
X102850000Y-64900000D03*
X86350000Y-82500000D03*
X86300000Y-64900000D03*
X85550000Y-64900000D03*
X103550000Y-65600000D03*
X102150000Y-66300000D03*
X102850000Y-65600000D03*
X85550000Y-65600000D03*
X84850000Y-64900000D03*
X84950000Y-81800000D03*
X102850000Y-66300000D03*
X84850000Y-66300000D03*
X103550000Y-66300000D03*
%TO.N,GND*%
X94650000Y-81700000D03*
X91850000Y-74250000D03*
X83950000Y-72050000D03*
X105750000Y-81350000D03*
X91850000Y-72750000D03*
X105750000Y-74350000D03*
X91850000Y-77250000D03*
X89450000Y-75750000D03*
X105750000Y-64450000D03*
X99300000Y-68500000D03*
X83950000Y-65550000D03*
X91850000Y-71250000D03*
X99300000Y-81450000D03*
X99300000Y-67400000D03*
X83950000Y-68850000D03*
X99400000Y-59500000D03*
X89450000Y-72750000D03*
X98250000Y-84350000D03*
X83950000Y-80300000D03*
X83950000Y-70400000D03*
X91900000Y-63950000D03*
X89450000Y-77250000D03*
X89450000Y-78750000D03*
X83950000Y-77100000D03*
X105750000Y-61650000D03*
X99300000Y-72500000D03*
X83950000Y-75450000D03*
X83950000Y-73900000D03*
X94650000Y-72750000D03*
X105750000Y-77150000D03*
X95750000Y-60000000D03*
X91650000Y-67400000D03*
X83950000Y-64000000D03*
X99300000Y-78500000D03*
X99300000Y-86400000D03*
X90150000Y-61900000D03*
X105750000Y-80000000D03*
X83950000Y-67200000D03*
X105750000Y-78550000D03*
X89450000Y-80250000D03*
X105750000Y-65900000D03*
X86100000Y-63750000D03*
X85250000Y-63000000D03*
X105750000Y-70100000D03*
X91850000Y-78750000D03*
X89450000Y-81700000D03*
X94650000Y-77250000D03*
X94500000Y-84700000D03*
X89450000Y-74250000D03*
X105750000Y-63100000D03*
X99300000Y-80000000D03*
X99300000Y-75500000D03*
X93050000Y-60000000D03*
X99400000Y-60500000D03*
X94650000Y-75750000D03*
X91400000Y-83750000D03*
X99300000Y-71000000D03*
X94650000Y-69000000D03*
X94650000Y-78750000D03*
X83950000Y-78750000D03*
X99300000Y-85500000D03*
X89450000Y-71250000D03*
X105750000Y-67350000D03*
X105750000Y-71550000D03*
X91850000Y-75750000D03*
X105750000Y-84250000D03*
X83950000Y-81950000D03*
X94650000Y-71250000D03*
X92600000Y-84750000D03*
X94700000Y-63900000D03*
X96600000Y-62900000D03*
X105750000Y-68700000D03*
X91850000Y-81700000D03*
X94650000Y-67400000D03*
X105750000Y-75800000D03*
X105750000Y-72900000D03*
X94650000Y-80250000D03*
X91850000Y-80250000D03*
X99300000Y-74000000D03*
X94650000Y-74250000D03*
X99300000Y-77000000D03*
X105750000Y-82800000D03*
X86100000Y-63000000D03*
X90150000Y-60000000D03*
X89450000Y-69800000D03*
X85250000Y-63750000D03*
%TO.N,PCIe_PCH_CLKREQ#*%
X89510000Y-68249936D03*
X96920000Y-69180000D03*
%TO.N,PERST#*%
X97640000Y-70020000D03*
X90450000Y-69240000D03*
%TD*%
D11*
%TO.N,PCIe_PCH_CLKREQ#*%
X95989936Y-68249936D02*
X89510000Y-68249936D01*
X96920000Y-69180000D02*
X95989936Y-68249936D01*
%TO.N,PERST#*%
X90450000Y-69240000D02*
X91160000Y-69240000D01*
X91680000Y-69760000D02*
X96060000Y-69760000D01*
X91160000Y-69240000D02*
X91680000Y-69760000D01*
X96320000Y-70020000D02*
X97640000Y-70020000D01*
X96060000Y-69760000D02*
X96320000Y-70020000D01*
%TD*%
%TA.AperFunction,Conductor*%
%TO.N,GND*%
G36*
X107188577Y-58511923D02*
G01*
X107200000Y-58539500D01*
X107200000Y-87460500D01*
X107188577Y-87488077D01*
X107161000Y-87499500D01*
X83539500Y-87499500D01*
X83511923Y-87488077D01*
X83500500Y-87460500D01*
X83500500Y-64648998D01*
X84294500Y-64648998D01*
X84294500Y-82800999D01*
X84297029Y-82833144D01*
X84297030Y-82833149D01*
X84301876Y-82863745D01*
X84302647Y-82868285D01*
X84338591Y-82952382D01*
X84374554Y-83001880D01*
X84374567Y-83001896D01*
X84398793Y-83029624D01*
X84398794Y-83029625D01*
X84398797Y-83029628D01*
X84398801Y-83029630D01*
X84398802Y-83029631D01*
X84477300Y-83076533D01*
X84477304Y-83076534D01*
X84477307Y-83076536D01*
X84518676Y-83089977D01*
X84535491Y-83095441D01*
X84535492Y-83095441D01*
X84535498Y-83095443D01*
X84588942Y-83103907D01*
X84598999Y-83105500D01*
X84599000Y-83105500D01*
X86700999Y-83105500D01*
X86701000Y-83105500D01*
X86733144Y-83102970D01*
X86763737Y-83098125D01*
X86768287Y-83097352D01*
X86852383Y-83061408D01*
X86901883Y-83025444D01*
X86929628Y-83001203D01*
X86958797Y-82952383D01*
X86976533Y-82922699D01*
X86976533Y-82922696D01*
X86976536Y-82922693D01*
X86977035Y-82921156D01*
X97699614Y-82921156D01*
X97699614Y-83078844D01*
X97720123Y-83181948D01*
X97730378Y-83233503D01*
X97730380Y-83233507D01*
X97790722Y-83379185D01*
X97790723Y-83379187D01*
X97878324Y-83510292D01*
X97878327Y-83510295D01*
X97878328Y-83510297D01*
X97989830Y-83621799D01*
X98120942Y-83709405D01*
X98266619Y-83769746D01*
X98266623Y-83769748D01*
X98266624Y-83769748D01*
X98266626Y-83769749D01*
X98421283Y-83800513D01*
X98421287Y-83800513D01*
X98578967Y-83800513D01*
X98578971Y-83800513D01*
X98733628Y-83769749D01*
X98879312Y-83709405D01*
X99010424Y-83621799D01*
X99121926Y-83510297D01*
X99209532Y-83379185D01*
X99269876Y-83233501D01*
X99300640Y-83078844D01*
X99300640Y-82921156D01*
X99269876Y-82766499D01*
X99209532Y-82620815D01*
X99121926Y-82489703D01*
X99010424Y-82378201D01*
X99010422Y-82378200D01*
X99010419Y-82378197D01*
X98879314Y-82290596D01*
X98879312Y-82290595D01*
X98733634Y-82230253D01*
X98733630Y-82230251D01*
X98682075Y-82219996D01*
X98578971Y-82199487D01*
X98421283Y-82199487D01*
X98332907Y-82217066D01*
X98266623Y-82230251D01*
X98266619Y-82230253D01*
X98120941Y-82290595D01*
X98120939Y-82290596D01*
X97989834Y-82378197D01*
X97989828Y-82378202D01*
X97878329Y-82489701D01*
X97878324Y-82489707D01*
X97790723Y-82620812D01*
X97790722Y-82620814D01*
X97730380Y-82766492D01*
X97730378Y-82766496D01*
X97723515Y-82800999D01*
X97699614Y-82921156D01*
X86977035Y-82921156D01*
X86995443Y-82864502D01*
X87005500Y-82801000D01*
X87005500Y-82127421D01*
X86998044Y-82072567D01*
X86983936Y-82021632D01*
X86983933Y-82021624D01*
X86962109Y-81970760D01*
X86861058Y-81802342D01*
X86855500Y-81782277D01*
X86855500Y-69240000D01*
X90042483Y-69240000D01*
X90062427Y-69365930D01*
X90101593Y-69442795D01*
X90120312Y-69479532D01*
X90210468Y-69569688D01*
X90210472Y-69569690D01*
X90324069Y-69627572D01*
X90341287Y-69630298D01*
X90450000Y-69647517D01*
X90575930Y-69627572D01*
X90689532Y-69569688D01*
X90779688Y-69479532D01*
X90798407Y-69442795D01*
X90821104Y-69423409D01*
X90833156Y-69421500D01*
X91068666Y-69421500D01*
X91096243Y-69432923D01*
X91577189Y-69913869D01*
X91616266Y-69930054D01*
X91616267Y-69930055D01*
X91633690Y-69937271D01*
X91643897Y-69941500D01*
X91643898Y-69941500D01*
X91716102Y-69941500D01*
X95968666Y-69941500D01*
X95996243Y-69952923D01*
X96217189Y-70173869D01*
X96283898Y-70201501D01*
X96360639Y-70201501D01*
X96360647Y-70201500D01*
X97256844Y-70201500D01*
X97284421Y-70212923D01*
X97291593Y-70222795D01*
X97310308Y-70259527D01*
X97310314Y-70259535D01*
X97400466Y-70349686D01*
X97400468Y-70349688D01*
X97400472Y-70349690D01*
X97514069Y-70407572D01*
X97531287Y-70410298D01*
X97640000Y-70427517D01*
X97765930Y-70407572D01*
X97879532Y-70349688D01*
X97969688Y-70259532D01*
X98027572Y-70145930D01*
X98047517Y-70020000D01*
X98027572Y-69894070D01*
X98027572Y-69894069D01*
X97969690Y-69780472D01*
X97969688Y-69780468D01*
X97879532Y-69690312D01*
X97879529Y-69690310D01*
X97879527Y-69690309D01*
X97765930Y-69632427D01*
X97640000Y-69612483D01*
X97514069Y-69632427D01*
X97400472Y-69690309D01*
X97400466Y-69690313D01*
X97310314Y-69780464D01*
X97310308Y-69780472D01*
X97291593Y-69817205D01*
X97268896Y-69836591D01*
X97256844Y-69838500D01*
X96411334Y-69838500D01*
X96383757Y-69827077D01*
X96162812Y-69606132D01*
X96162811Y-69606131D01*
X96117869Y-69587516D01*
X96112983Y-69585492D01*
X96096103Y-69578500D01*
X91771334Y-69578500D01*
X91743757Y-69567077D01*
X91262812Y-69086132D01*
X91262811Y-69086131D01*
X91223734Y-69069945D01*
X91223733Y-69069944D01*
X91196104Y-69058500D01*
X91196103Y-69058500D01*
X90833156Y-69058500D01*
X90805579Y-69047077D01*
X90798407Y-69037205D01*
X90779691Y-69000472D01*
X90779685Y-69000464D01*
X90689533Y-68910313D01*
X90689532Y-68910312D01*
X90689529Y-68910310D01*
X90689527Y-68910309D01*
X90575930Y-68852427D01*
X90450000Y-68832483D01*
X90324069Y-68852427D01*
X90210472Y-68910309D01*
X90210466Y-68910313D01*
X90120313Y-69000466D01*
X90120309Y-69000472D01*
X90062427Y-69114069D01*
X90042483Y-69240000D01*
X86855500Y-69240000D01*
X86855500Y-68249936D01*
X89102483Y-68249936D01*
X89122427Y-68375866D01*
X89161593Y-68452731D01*
X89180312Y-68489468D01*
X89270468Y-68579624D01*
X89270472Y-68579626D01*
X89384069Y-68637508D01*
X89401287Y-68640234D01*
X89510000Y-68657453D01*
X89635930Y-68637508D01*
X89749532Y-68579624D01*
X89839688Y-68489468D01*
X89858407Y-68452731D01*
X89881104Y-68433345D01*
X89893156Y-68431436D01*
X95898602Y-68431436D01*
X95926179Y-68442859D01*
X96519055Y-69035734D01*
X96530478Y-69063311D01*
X96529998Y-69069412D01*
X96512483Y-69180000D01*
X96532427Y-69305930D01*
X96590309Y-69419527D01*
X96590312Y-69419532D01*
X96680468Y-69509688D01*
X96680472Y-69509690D01*
X96794069Y-69567572D01*
X96807430Y-69569688D01*
X96920000Y-69587517D01*
X97045930Y-69567572D01*
X97159532Y-69509688D01*
X97249688Y-69419532D01*
X97307572Y-69305930D01*
X97327517Y-69180000D01*
X97307572Y-69054070D01*
X97307572Y-69054069D01*
X97249690Y-68940472D01*
X97249688Y-68940468D01*
X97159532Y-68850312D01*
X97159529Y-68850310D01*
X97159527Y-68850309D01*
X97045930Y-68792427D01*
X96920000Y-68772483D01*
X96809412Y-68789998D01*
X96780387Y-68783030D01*
X96775734Y-68779055D01*
X96439538Y-68442859D01*
X96092747Y-68096067D01*
X96053670Y-68079881D01*
X96053669Y-68079880D01*
X96026040Y-68068436D01*
X96026039Y-68068436D01*
X89893156Y-68068436D01*
X89865579Y-68057013D01*
X89858407Y-68047141D01*
X89839691Y-68010408D01*
X89839685Y-68010400D01*
X89749533Y-67920249D01*
X89749532Y-67920248D01*
X89749529Y-67920246D01*
X89749527Y-67920245D01*
X89635930Y-67862363D01*
X89510000Y-67842419D01*
X89384069Y-67862363D01*
X89270472Y-67920245D01*
X89270466Y-67920249D01*
X89180313Y-68010402D01*
X89180309Y-68010408D01*
X89122427Y-68124005D01*
X89102483Y-68249936D01*
X86855500Y-68249936D01*
X86855500Y-66944500D01*
X86866923Y-66916923D01*
X86894500Y-66905500D01*
X103950999Y-66905500D01*
X103951000Y-66905500D01*
X103983144Y-66902970D01*
X104013737Y-66898125D01*
X104018287Y-66897352D01*
X104102383Y-66861408D01*
X104151883Y-66825444D01*
X104179628Y-66801203D01*
X104203082Y-66761948D01*
X104226533Y-66722699D01*
X104226533Y-66722696D01*
X104226536Y-66722693D01*
X104245443Y-66664502D01*
X104255500Y-66601000D01*
X104255500Y-64649000D01*
X104252970Y-64616856D01*
X104248125Y-64586263D01*
X104247352Y-64581713D01*
X104211408Y-64497617D01*
X104175444Y-64448117D01*
X104175432Y-64448103D01*
X104151206Y-64420375D01*
X104151204Y-64420374D01*
X104151203Y-64420372D01*
X104151199Y-64420369D01*
X104151197Y-64420368D01*
X104072699Y-64373466D01*
X104072693Y-64373464D01*
X104014508Y-64354558D01*
X104014502Y-64354557D01*
X103951001Y-64344500D01*
X103951000Y-64344500D01*
X84599000Y-64344500D01*
X84596814Y-64344671D01*
X84566855Y-64347029D01*
X84566850Y-64347030D01*
X84536254Y-64351876D01*
X84531714Y-64352647D01*
X84447617Y-64388591D01*
X84398119Y-64424554D01*
X84398103Y-64424567D01*
X84370375Y-64448793D01*
X84370368Y-64448802D01*
X84323466Y-64527300D01*
X84323464Y-64527306D01*
X84304558Y-64585491D01*
X84304557Y-64585497D01*
X84294500Y-64648998D01*
X83500500Y-64648998D01*
X83500500Y-62896535D01*
X97449627Y-62896535D01*
X97449627Y-63103465D01*
X97472605Y-63218984D01*
X97489996Y-63306418D01*
X97489997Y-63306420D01*
X97569186Y-63497598D01*
X97569187Y-63497600D01*
X97684146Y-63669650D01*
X97684149Y-63669653D01*
X97684150Y-63669655D01*
X97830472Y-63815977D01*
X98002529Y-63930941D01*
X98193707Y-64010130D01*
X98396662Y-64050500D01*
X98396667Y-64050500D01*
X98603587Y-64050500D01*
X98603592Y-64050500D01*
X98806547Y-64010130D01*
X98997725Y-63930941D01*
X99169782Y-63815977D01*
X99316104Y-63669655D01*
X99431068Y-63497598D01*
X99510257Y-63306420D01*
X99550627Y-63103465D01*
X99550627Y-62896535D01*
X99510257Y-62693580D01*
X99431068Y-62502402D01*
X99316104Y-62330345D01*
X99169782Y-62184023D01*
X99169780Y-62184022D01*
X99169777Y-62184019D01*
X98997727Y-62069060D01*
X98997725Y-62069059D01*
X98806547Y-61989870D01*
X98806545Y-61989869D01*
X98719111Y-61972478D01*
X98603592Y-61949500D01*
X98396662Y-61949500D01*
X98295533Y-61969615D01*
X98193708Y-61989869D01*
X98193706Y-61989870D01*
X98002528Y-62069059D01*
X98002526Y-62069060D01*
X97830476Y-62184019D01*
X97830470Y-62184024D01*
X97684151Y-62330343D01*
X97684146Y-62330349D01*
X97569187Y-62502399D01*
X97569186Y-62502401D01*
X97489997Y-62693579D01*
X97489996Y-62693581D01*
X97466860Y-62809895D01*
X97449627Y-62896535D01*
X83500500Y-62896535D01*
X83500500Y-58539500D01*
X83511923Y-58511923D01*
X83539500Y-58500500D01*
X107161000Y-58500500D01*
X107188577Y-58511923D01*
G37*
%TD.AperFunction*%
%TD*%
%TA.AperFunction,Conductor*%
%TO.N,+3V3*%
G36*
X104009191Y-64568907D02*
G01*
X104045155Y-64618407D01*
X104050000Y-64649000D01*
X104050000Y-66601000D01*
X104031093Y-66659191D01*
X103981593Y-66695155D01*
X103951000Y-66700000D01*
X84500000Y-66700000D01*
X84500000Y-64649000D01*
X84518907Y-64590809D01*
X84568407Y-64554845D01*
X84599000Y-64550000D01*
X103951000Y-64550000D01*
X104009191Y-64568907D01*
G37*
%TD.AperFunction*%
%TD*%
%TA.AperFunction,Conductor*%
%TO.N,+3V3*%
G36*
X86650000Y-81850000D02*
G01*
X86785892Y-82076486D01*
X86800000Y-82127421D01*
X86800000Y-82801000D01*
X86781093Y-82859191D01*
X86731593Y-82895155D01*
X86701000Y-82900000D01*
X84599000Y-82900000D01*
X84540809Y-82881093D01*
X84504845Y-82831593D01*
X84500000Y-82801000D01*
X84500000Y-66700000D01*
X86650000Y-66700000D01*
X86650000Y-81850000D01*
G37*
%TD.AperFunction*%
%TD*%
M02*
