M48
; DRILL file {KiCad 8.0.7} date 2025-04-01T17:50:51+0300
; FORMAT={-:-/ absolute / inch / decimal}
; #@! TF.CreationDate,2025-04-01T17:50:51+03:00
; #@! TF.GenerationSoftware,Kicad,Pcbnew,8.0.7
; #@! TF.FileFunction,Plated,1,4,PTH
FMAT,2
INCH
; #@! TA.AperFunction,Plated,PTH,ViaDrill
T1C0.0118
%
G90
G05
T1
X3.3051Y-2.5197
X3.3051Y-2.5807
X3.3051Y-2.6457
X3.3051Y-2.7106
X3.3051Y-2.7717
X3.3051Y-2.8366
X3.3051Y-2.9094
X3.3051Y-2.9705
X3.3051Y-3.0354
X3.3051Y-3.1004
X3.3051Y-3.1614
X3.3051Y-3.2264
X3.3406Y-2.5551
X3.3406Y-2.5827
X3.3406Y-2.6102
X3.3445Y-3.2205
X3.3445Y-3.248
X3.3563Y-2.4803
X3.3563Y-2.5098
X3.3681Y-2.5551
X3.3681Y-2.5827
X3.3681Y-2.6102
X3.372Y-3.2205
X3.372Y-3.248
X3.3898Y-2.4803
X3.3898Y-2.5098
X3.3976Y-2.5551
X3.3976Y-2.5827
X3.3996Y-3.248
X3.5217Y-2.748
X3.5217Y-2.8051
X3.5217Y-2.8642
X3.5217Y-2.9232
X3.5217Y-2.9823
X3.5217Y-3.0413
X3.5217Y-3.1004
X3.5217Y-3.1594
X3.5217Y-3.2165
X3.524Y-2.687
X3.5492Y-2.3622
X3.5492Y-2.437
X3.561Y-2.726
X3.5984Y-3.2972
X3.6083Y-2.6535
X3.6161Y-2.8051
X3.6161Y-2.8642
X3.6161Y-2.9232
X3.6161Y-2.9823
X3.6161Y-3.0413
X3.6161Y-3.1004
X3.6161Y-3.1594
X3.6161Y-3.2165
X3.6181Y-2.5177
X3.6457Y-3.3366
X3.6634Y-2.3622
X3.7205Y-3.3346
X3.7264Y-2.6535
X3.7264Y-2.7165
X3.7264Y-2.8051
X3.7264Y-2.8642
X3.7264Y-2.9232
X3.7264Y-2.9823
X3.7264Y-3.0413
X3.7264Y-3.1004
X3.7264Y-3.1594
X3.7264Y-3.2165
X3.7283Y-2.5157
X3.7697Y-2.3622
X3.8031Y-2.4764
X3.8157Y-2.7236
X3.8441Y-2.7567
X3.8681Y-3.3209
X3.9094Y-2.6535
X3.9094Y-2.6969
X3.9094Y-2.7953
X3.9094Y-2.8543
X3.9094Y-2.9134
X3.9094Y-2.9724
X3.9094Y-3.0315
X3.9094Y-3.0906
X3.9094Y-3.1496
X3.9094Y-3.2067
X3.9094Y-3.3661
X3.9094Y-3.4016
X3.9134Y-2.3425
X3.9134Y-2.3819
X4.0217Y-2.5551
X4.0217Y-2.5827
X4.0217Y-2.6102
X4.0492Y-2.5551
X4.0492Y-2.5827
X4.0492Y-2.6102
X4.0768Y-2.5551
X4.0768Y-2.5827
X4.0768Y-2.6102
X4.1634Y-2.4272
X4.1634Y-2.4843
X4.1634Y-2.5374
X4.1634Y-2.5945
X4.1634Y-2.6516
X4.1634Y-2.7047
X4.1634Y-2.7598
X4.1634Y-2.8169
X4.1634Y-2.8701
X4.1634Y-2.9272
X4.1634Y-2.9843
X4.1634Y-3.0374
X4.1634Y-3.0925
X4.1634Y-3.1496
X4.1634Y-3.2028
X4.1634Y-3.2598
X4.1634Y-3.3169
M30
