M48
; DRILL file {KiCad 8.0.7} date 2025-04-01T17:50:51+0300
; FORMAT={-:-/ absolute / inch / decimal}
; #@! TF.CreationDate,2025-04-01T17:50:51+03:00
; #@! TF.GenerationSoftware,Kicad,Pcbnew,8.0.7
; #@! TF.FileFunction,NonPlated,1,4,NPTH
FMAT,2
INCH
; #@! TA.AperFunction,NonPlated,NPTH,ComponentDrill
T1C0.0197
; #@! TA.AperFunction,NonPlated,NPTH,ComponentDrill
T2C0.0433
; #@! TA.AperFunction,NonPlated,NPTH,ComponentDrill
T3C0.0630
; #@! TA.AperFunction,NonPlated,NPTH,ComponentDrill
T4C0.1260
%
G90
G05
T1
X5.1378Y-2.4991
X5.1378Y-2.5295
X5.1378Y-2.5591
X5.1378Y-2.5886
X5.1378Y-2.6186
X5.1378Y-3.129
X5.1378Y-3.1594
X5.1378Y-3.189
X5.1378Y-3.2185
X5.1378Y-3.2485
X5.2559Y-2.4991
X5.2559Y-2.5295
X5.2559Y-2.5591
X5.2559Y-2.5891
X5.2559Y-2.6186
X5.2559Y-3.129
X5.2559Y-3.1594
X5.2559Y-3.189
X5.2559Y-3.219
X5.2559Y-3.2485
X5.6398Y-2.4991
X5.6398Y-2.5295
X5.6398Y-2.5591
X5.6398Y-2.5886
X5.6398Y-2.6186
X5.6398Y-3.129
X5.6398Y-3.1594
X5.6398Y-3.189
X5.6398Y-3.2185
X5.6398Y-3.2485
X5.7579Y-2.4991
X5.7579Y-2.5295
X5.7579Y-2.5591
X5.7579Y-2.5891
X5.7579Y-2.6186
X5.7579Y-3.129
X5.7579Y-3.1594
X5.7579Y-3.189
X5.7579Y-3.219
X5.7579Y-3.2485
X6.3386Y-2.4991
X6.3386Y-2.5295
X6.3386Y-2.5591
X6.3386Y-2.5886
X6.3386Y-2.6186
X6.3386Y-3.129
X6.3386Y-3.1594
X6.3386Y-3.189
X6.3386Y-3.2185
X6.3386Y-3.2485
X6.4567Y-2.4991
X6.4567Y-2.5295
X6.4567Y-2.5591
X6.4567Y-2.5891
X6.4567Y-2.6186
X6.4567Y-3.129
X6.4567Y-3.1594
X6.4567Y-3.189
X6.4567Y-3.219
X6.4567Y-3.2485
T2
X3.878Y-3.2677
T3
X3.878Y-2.4803
T4
X4.3346Y-2.4016
X4.3346Y-3.3465
X5.0394Y-2.874
X5.5118Y-2.874
X6.2205Y-2.874
X7.0079Y-2.874
X7.0866Y-2.4016
X7.0866Y-3.3465
M30
