%TF.GenerationSoftware,KiCad,Pcbnew,8.0.7*%
%TF.CreationDate,2025-04-01T17:50:48+03:00*%
%TF.ProjectId,RibbonExtentionCard,52696262-6f6e-4457-9874-656e74696f6e,rev?*%
%TF.SameCoordinates,Original*%
%TF.FileFunction,Legend,Top*%
%TF.FilePolarity,Positive*%
%FSLAX46Y46*%
G04 Gerber Fmt 4.6, Leading zero omitted, Abs format (unit mm)*
G04 Created by KiCad (PCBNEW 8.0.7) date 2025-04-01 17:50:48*
%MOMM*%
%LPD*%
G01*
G04 APERTURE LIST*
%ADD10C,0.300000*%
%ADD11C,0.100000*%
%ADD12C,0.500000*%
%ADD13C,0.150000*%
%ADD14C,0.000000*%
%ADD15C,0.120000*%
%ADD16C,0.254000*%
%ADD17C,0.200000*%
%ADD18C,0.059995*%
G04 APERTURE END LIST*
D10*
X120450996Y-81652857D02*
X119736710Y-82152857D01*
X120450996Y-82510000D02*
X118950996Y-82510000D01*
X118950996Y-82510000D02*
X118950996Y-81938571D01*
X118950996Y-81938571D02*
X119022425Y-81795714D01*
X119022425Y-81795714D02*
X119093853Y-81724285D01*
X119093853Y-81724285D02*
X119236710Y-81652857D01*
X119236710Y-81652857D02*
X119450996Y-81652857D01*
X119450996Y-81652857D02*
X119593853Y-81724285D01*
X119593853Y-81724285D02*
X119665282Y-81795714D01*
X119665282Y-81795714D02*
X119736710Y-81938571D01*
X119736710Y-81938571D02*
X119736710Y-82510000D01*
X120450996Y-81010000D02*
X119450996Y-81010000D01*
X118950996Y-81010000D02*
X119022425Y-81081428D01*
X119022425Y-81081428D02*
X119093853Y-81010000D01*
X119093853Y-81010000D02*
X119022425Y-80938571D01*
X119022425Y-80938571D02*
X118950996Y-81010000D01*
X118950996Y-81010000D02*
X119093853Y-81010000D01*
X120450996Y-80295714D02*
X118950996Y-80295714D01*
X119522425Y-80295714D02*
X119450996Y-80152857D01*
X119450996Y-80152857D02*
X119450996Y-79867142D01*
X119450996Y-79867142D02*
X119522425Y-79724285D01*
X119522425Y-79724285D02*
X119593853Y-79652857D01*
X119593853Y-79652857D02*
X119736710Y-79581428D01*
X119736710Y-79581428D02*
X120165282Y-79581428D01*
X120165282Y-79581428D02*
X120308139Y-79652857D01*
X120308139Y-79652857D02*
X120379568Y-79724285D01*
X120379568Y-79724285D02*
X120450996Y-79867142D01*
X120450996Y-79867142D02*
X120450996Y-80152857D01*
X120450996Y-80152857D02*
X120379568Y-80295714D01*
X120450996Y-78938571D02*
X118950996Y-78938571D01*
X119522425Y-78938571D02*
X119450996Y-78795714D01*
X119450996Y-78795714D02*
X119450996Y-78509999D01*
X119450996Y-78509999D02*
X119522425Y-78367142D01*
X119522425Y-78367142D02*
X119593853Y-78295714D01*
X119593853Y-78295714D02*
X119736710Y-78224285D01*
X119736710Y-78224285D02*
X120165282Y-78224285D01*
X120165282Y-78224285D02*
X120308139Y-78295714D01*
X120308139Y-78295714D02*
X120379568Y-78367142D01*
X120379568Y-78367142D02*
X120450996Y-78509999D01*
X120450996Y-78509999D02*
X120450996Y-78795714D01*
X120450996Y-78795714D02*
X120379568Y-78938571D01*
X120450996Y-77367142D02*
X120379568Y-77509999D01*
X120379568Y-77509999D02*
X120308139Y-77581428D01*
X120308139Y-77581428D02*
X120165282Y-77652856D01*
X120165282Y-77652856D02*
X119736710Y-77652856D01*
X119736710Y-77652856D02*
X119593853Y-77581428D01*
X119593853Y-77581428D02*
X119522425Y-77509999D01*
X119522425Y-77509999D02*
X119450996Y-77367142D01*
X119450996Y-77367142D02*
X119450996Y-77152856D01*
X119450996Y-77152856D02*
X119522425Y-77009999D01*
X119522425Y-77009999D02*
X119593853Y-76938571D01*
X119593853Y-76938571D02*
X119736710Y-76867142D01*
X119736710Y-76867142D02*
X120165282Y-76867142D01*
X120165282Y-76867142D02*
X120308139Y-76938571D01*
X120308139Y-76938571D02*
X120379568Y-77009999D01*
X120379568Y-77009999D02*
X120450996Y-77152856D01*
X120450996Y-77152856D02*
X120450996Y-77367142D01*
X119450996Y-76224285D02*
X120450996Y-76224285D01*
X119593853Y-76224285D02*
X119522425Y-76152856D01*
X119522425Y-76152856D02*
X119450996Y-76009999D01*
X119450996Y-76009999D02*
X119450996Y-75795713D01*
X119450996Y-75795713D02*
X119522425Y-75652856D01*
X119522425Y-75652856D02*
X119665282Y-75581428D01*
X119665282Y-75581428D02*
X120450996Y-75581428D01*
X120450996Y-74009999D02*
X119736710Y-74509999D01*
X120450996Y-74867142D02*
X118950996Y-74867142D01*
X118950996Y-74867142D02*
X118950996Y-74295713D01*
X118950996Y-74295713D02*
X119022425Y-74152856D01*
X119022425Y-74152856D02*
X119093853Y-74081427D01*
X119093853Y-74081427D02*
X119236710Y-74009999D01*
X119236710Y-74009999D02*
X119450996Y-74009999D01*
X119450996Y-74009999D02*
X119593853Y-74081427D01*
X119593853Y-74081427D02*
X119665282Y-74152856D01*
X119665282Y-74152856D02*
X119736710Y-74295713D01*
X119736710Y-74295713D02*
X119736710Y-74867142D01*
X120450996Y-73367142D02*
X119450996Y-73367142D01*
X118950996Y-73367142D02*
X119022425Y-73438570D01*
X119022425Y-73438570D02*
X119093853Y-73367142D01*
X119093853Y-73367142D02*
X119022425Y-73295713D01*
X119022425Y-73295713D02*
X118950996Y-73367142D01*
X118950996Y-73367142D02*
X119093853Y-73367142D01*
X120379568Y-72724284D02*
X120450996Y-72581427D01*
X120450996Y-72581427D02*
X120450996Y-72295713D01*
X120450996Y-72295713D02*
X120379568Y-72152856D01*
X120379568Y-72152856D02*
X120236710Y-72081427D01*
X120236710Y-72081427D02*
X120165282Y-72081427D01*
X120165282Y-72081427D02*
X120022425Y-72152856D01*
X120022425Y-72152856D02*
X119950996Y-72295713D01*
X119950996Y-72295713D02*
X119950996Y-72509999D01*
X119950996Y-72509999D02*
X119879568Y-72652856D01*
X119879568Y-72652856D02*
X119736710Y-72724284D01*
X119736710Y-72724284D02*
X119665282Y-72724284D01*
X119665282Y-72724284D02*
X119522425Y-72652856D01*
X119522425Y-72652856D02*
X119450996Y-72509999D01*
X119450996Y-72509999D02*
X119450996Y-72295713D01*
X119450996Y-72295713D02*
X119522425Y-72152856D01*
X120379568Y-70867141D02*
X120450996Y-71009998D01*
X120450996Y-71009998D02*
X120450996Y-71295713D01*
X120450996Y-71295713D02*
X120379568Y-71438570D01*
X120379568Y-71438570D02*
X120236710Y-71509998D01*
X120236710Y-71509998D02*
X119665282Y-71509998D01*
X119665282Y-71509998D02*
X119522425Y-71438570D01*
X119522425Y-71438570D02*
X119450996Y-71295713D01*
X119450996Y-71295713D02*
X119450996Y-71009998D01*
X119450996Y-71009998D02*
X119522425Y-70867141D01*
X119522425Y-70867141D02*
X119665282Y-70795713D01*
X119665282Y-70795713D02*
X119808139Y-70795713D01*
X119808139Y-70795713D02*
X119950996Y-71509998D01*
X120450996Y-70152856D02*
X119450996Y-70152856D01*
X119736710Y-70152856D02*
X119593853Y-70081427D01*
X119593853Y-70081427D02*
X119522425Y-70009999D01*
X119522425Y-70009999D02*
X119450996Y-69867141D01*
X119450996Y-69867141D02*
X119450996Y-69724284D01*
X119665282Y-68081428D02*
X119665282Y-67581428D01*
X120450996Y-67367142D02*
X120450996Y-68081428D01*
X120450996Y-68081428D02*
X118950996Y-68081428D01*
X118950996Y-68081428D02*
X118950996Y-67367142D01*
X120450996Y-66867142D02*
X119450996Y-66081428D01*
X119450996Y-66867142D02*
X120450996Y-66081428D01*
X119450996Y-65724284D02*
X119450996Y-65152856D01*
X118950996Y-65509999D02*
X120236710Y-65509999D01*
X120236710Y-65509999D02*
X120379568Y-65438570D01*
X120379568Y-65438570D02*
X120450996Y-65295713D01*
X120450996Y-65295713D02*
X120450996Y-65152856D01*
X120308139Y-64652856D02*
X120379568Y-64581427D01*
X120379568Y-64581427D02*
X120450996Y-64652856D01*
X120450996Y-64652856D02*
X120379568Y-64724284D01*
X120379568Y-64724284D02*
X120308139Y-64652856D01*
X120308139Y-64652856D02*
X120450996Y-64652856D01*
X122865912Y-81474285D02*
X121365912Y-81474285D01*
X121365912Y-81474285D02*
X121365912Y-80902856D01*
X121365912Y-80902856D02*
X121437341Y-80759999D01*
X121437341Y-80759999D02*
X121508769Y-80688570D01*
X121508769Y-80688570D02*
X121651626Y-80617142D01*
X121651626Y-80617142D02*
X121865912Y-80617142D01*
X121865912Y-80617142D02*
X122008769Y-80688570D01*
X122008769Y-80688570D02*
X122080198Y-80759999D01*
X122080198Y-80759999D02*
X122151626Y-80902856D01*
X122151626Y-80902856D02*
X122151626Y-81474285D01*
X122865912Y-79974285D02*
X121865912Y-79974285D01*
X122151626Y-79974285D02*
X122008769Y-79902856D01*
X122008769Y-79902856D02*
X121937341Y-79831428D01*
X121937341Y-79831428D02*
X121865912Y-79688570D01*
X121865912Y-79688570D02*
X121865912Y-79545713D01*
X122865912Y-78831428D02*
X122794484Y-78974285D01*
X122794484Y-78974285D02*
X122723055Y-79045714D01*
X122723055Y-79045714D02*
X122580198Y-79117142D01*
X122580198Y-79117142D02*
X122151626Y-79117142D01*
X122151626Y-79117142D02*
X122008769Y-79045714D01*
X122008769Y-79045714D02*
X121937341Y-78974285D01*
X121937341Y-78974285D02*
X121865912Y-78831428D01*
X121865912Y-78831428D02*
X121865912Y-78617142D01*
X121865912Y-78617142D02*
X121937341Y-78474285D01*
X121937341Y-78474285D02*
X122008769Y-78402857D01*
X122008769Y-78402857D02*
X122151626Y-78331428D01*
X122151626Y-78331428D02*
X122580198Y-78331428D01*
X122580198Y-78331428D02*
X122723055Y-78402857D01*
X122723055Y-78402857D02*
X122794484Y-78474285D01*
X122794484Y-78474285D02*
X122865912Y-78617142D01*
X122865912Y-78617142D02*
X122865912Y-78831428D01*
X121865912Y-77902856D02*
X121865912Y-77331428D01*
X121365912Y-77688571D02*
X122651626Y-77688571D01*
X122651626Y-77688571D02*
X122794484Y-77617142D01*
X122794484Y-77617142D02*
X122865912Y-77474285D01*
X122865912Y-77474285D02*
X122865912Y-77331428D01*
X122865912Y-76617142D02*
X122794484Y-76759999D01*
X122794484Y-76759999D02*
X122723055Y-76831428D01*
X122723055Y-76831428D02*
X122580198Y-76902856D01*
X122580198Y-76902856D02*
X122151626Y-76902856D01*
X122151626Y-76902856D02*
X122008769Y-76831428D01*
X122008769Y-76831428D02*
X121937341Y-76759999D01*
X121937341Y-76759999D02*
X121865912Y-76617142D01*
X121865912Y-76617142D02*
X121865912Y-76402856D01*
X121865912Y-76402856D02*
X121937341Y-76259999D01*
X121937341Y-76259999D02*
X122008769Y-76188571D01*
X122008769Y-76188571D02*
X122151626Y-76117142D01*
X122151626Y-76117142D02*
X122580198Y-76117142D01*
X122580198Y-76117142D02*
X122723055Y-76188571D01*
X122723055Y-76188571D02*
X122794484Y-76259999D01*
X122794484Y-76259999D02*
X122865912Y-76402856D01*
X122865912Y-76402856D02*
X122865912Y-76617142D01*
X121865912Y-75688570D02*
X121865912Y-75117142D01*
X121365912Y-75474285D02*
X122651626Y-75474285D01*
X122651626Y-75474285D02*
X122794484Y-75402856D01*
X122794484Y-75402856D02*
X122865912Y-75259999D01*
X122865912Y-75259999D02*
X122865912Y-75117142D01*
X121865912Y-74759999D02*
X122865912Y-74402856D01*
X121865912Y-74045713D02*
X122865912Y-74402856D01*
X122865912Y-74402856D02*
X123223055Y-74545713D01*
X123223055Y-74545713D02*
X123294484Y-74617142D01*
X123294484Y-74617142D02*
X123365912Y-74759999D01*
X121865912Y-73474285D02*
X123365912Y-73474285D01*
X121937341Y-73474285D02*
X121865912Y-73331428D01*
X121865912Y-73331428D02*
X121865912Y-73045713D01*
X121865912Y-73045713D02*
X121937341Y-72902856D01*
X121937341Y-72902856D02*
X122008769Y-72831428D01*
X122008769Y-72831428D02*
X122151626Y-72759999D01*
X122151626Y-72759999D02*
X122580198Y-72759999D01*
X122580198Y-72759999D02*
X122723055Y-72831428D01*
X122723055Y-72831428D02*
X122794484Y-72902856D01*
X122794484Y-72902856D02*
X122865912Y-73045713D01*
X122865912Y-73045713D02*
X122865912Y-73331428D01*
X122865912Y-73331428D02*
X122794484Y-73474285D01*
X122794484Y-71545713D02*
X122865912Y-71688570D01*
X122865912Y-71688570D02*
X122865912Y-71974285D01*
X122865912Y-71974285D02*
X122794484Y-72117142D01*
X122794484Y-72117142D02*
X122651626Y-72188570D01*
X122651626Y-72188570D02*
X122080198Y-72188570D01*
X122080198Y-72188570D02*
X121937341Y-72117142D01*
X121937341Y-72117142D02*
X121865912Y-71974285D01*
X121865912Y-71974285D02*
X121865912Y-71688570D01*
X121865912Y-71688570D02*
X121937341Y-71545713D01*
X121937341Y-71545713D02*
X122080198Y-71474285D01*
X122080198Y-71474285D02*
X122223055Y-71474285D01*
X122223055Y-71474285D02*
X122365912Y-72188570D01*
X121865912Y-69831428D02*
X122865912Y-69474285D01*
X122865912Y-69474285D02*
X121865912Y-69117142D01*
X121365912Y-68259999D02*
X121365912Y-68117142D01*
X121365912Y-68117142D02*
X121437341Y-67974285D01*
X121437341Y-67974285D02*
X121508769Y-67902857D01*
X121508769Y-67902857D02*
X121651626Y-67831428D01*
X121651626Y-67831428D02*
X121937341Y-67759999D01*
X121937341Y-67759999D02*
X122294484Y-67759999D01*
X122294484Y-67759999D02*
X122580198Y-67831428D01*
X122580198Y-67831428D02*
X122723055Y-67902857D01*
X122723055Y-67902857D02*
X122794484Y-67974285D01*
X122794484Y-67974285D02*
X122865912Y-68117142D01*
X122865912Y-68117142D02*
X122865912Y-68259999D01*
X122865912Y-68259999D02*
X122794484Y-68402857D01*
X122794484Y-68402857D02*
X122723055Y-68474285D01*
X122723055Y-68474285D02*
X122580198Y-68545714D01*
X122580198Y-68545714D02*
X122294484Y-68617142D01*
X122294484Y-68617142D02*
X121937341Y-68617142D01*
X121937341Y-68617142D02*
X121651626Y-68545714D01*
X121651626Y-68545714D02*
X121508769Y-68474285D01*
X121508769Y-68474285D02*
X121437341Y-68402857D01*
X121437341Y-68402857D02*
X121365912Y-68259999D01*
X122723055Y-67117143D02*
X122794484Y-67045714D01*
X122794484Y-67045714D02*
X122865912Y-67117143D01*
X122865912Y-67117143D02*
X122794484Y-67188571D01*
X122794484Y-67188571D02*
X122723055Y-67117143D01*
X122723055Y-67117143D02*
X122865912Y-67117143D01*
X122008769Y-66188571D02*
X121937341Y-66331428D01*
X121937341Y-66331428D02*
X121865912Y-66402857D01*
X121865912Y-66402857D02*
X121723055Y-66474285D01*
X121723055Y-66474285D02*
X121651626Y-66474285D01*
X121651626Y-66474285D02*
X121508769Y-66402857D01*
X121508769Y-66402857D02*
X121437341Y-66331428D01*
X121437341Y-66331428D02*
X121365912Y-66188571D01*
X121365912Y-66188571D02*
X121365912Y-65902857D01*
X121365912Y-65902857D02*
X121437341Y-65760000D01*
X121437341Y-65760000D02*
X121508769Y-65688571D01*
X121508769Y-65688571D02*
X121651626Y-65617142D01*
X121651626Y-65617142D02*
X121723055Y-65617142D01*
X121723055Y-65617142D02*
X121865912Y-65688571D01*
X121865912Y-65688571D02*
X121937341Y-65760000D01*
X121937341Y-65760000D02*
X122008769Y-65902857D01*
X122008769Y-65902857D02*
X122008769Y-66188571D01*
X122008769Y-66188571D02*
X122080198Y-66331428D01*
X122080198Y-66331428D02*
X122151626Y-66402857D01*
X122151626Y-66402857D02*
X122294484Y-66474285D01*
X122294484Y-66474285D02*
X122580198Y-66474285D01*
X122580198Y-66474285D02*
X122723055Y-66402857D01*
X122723055Y-66402857D02*
X122794484Y-66331428D01*
X122794484Y-66331428D02*
X122865912Y-66188571D01*
X122865912Y-66188571D02*
X122865912Y-65902857D01*
X122865912Y-65902857D02*
X122794484Y-65760000D01*
X122794484Y-65760000D02*
X122723055Y-65688571D01*
X122723055Y-65688571D02*
X122580198Y-65617142D01*
X122580198Y-65617142D02*
X122294484Y-65617142D01*
X122294484Y-65617142D02*
X122151626Y-65688571D01*
X122151626Y-65688571D02*
X122080198Y-65760000D01*
X122080198Y-65760000D02*
X122008769Y-65902857D01*
X125209400Y-85295713D02*
X125280828Y-85081428D01*
X125280828Y-85081428D02*
X125280828Y-84724285D01*
X125280828Y-84724285D02*
X125209400Y-84581428D01*
X125209400Y-84581428D02*
X125137971Y-84509999D01*
X125137971Y-84509999D02*
X124995114Y-84438570D01*
X124995114Y-84438570D02*
X124852257Y-84438570D01*
X124852257Y-84438570D02*
X124709400Y-84509999D01*
X124709400Y-84509999D02*
X124637971Y-84581428D01*
X124637971Y-84581428D02*
X124566542Y-84724285D01*
X124566542Y-84724285D02*
X124495114Y-85009999D01*
X124495114Y-85009999D02*
X124423685Y-85152856D01*
X124423685Y-85152856D02*
X124352257Y-85224285D01*
X124352257Y-85224285D02*
X124209400Y-85295713D01*
X124209400Y-85295713D02*
X124066542Y-85295713D01*
X124066542Y-85295713D02*
X123923685Y-85224285D01*
X123923685Y-85224285D02*
X123852257Y-85152856D01*
X123852257Y-85152856D02*
X123780828Y-85009999D01*
X123780828Y-85009999D02*
X123780828Y-84652856D01*
X123780828Y-84652856D02*
X123852257Y-84438570D01*
X124280828Y-83795714D02*
X125780828Y-83795714D01*
X124352257Y-83795714D02*
X124280828Y-83652857D01*
X124280828Y-83652857D02*
X124280828Y-83367142D01*
X124280828Y-83367142D02*
X124352257Y-83224285D01*
X124352257Y-83224285D02*
X124423685Y-83152857D01*
X124423685Y-83152857D02*
X124566542Y-83081428D01*
X124566542Y-83081428D02*
X124995114Y-83081428D01*
X124995114Y-83081428D02*
X125137971Y-83152857D01*
X125137971Y-83152857D02*
X125209400Y-83224285D01*
X125209400Y-83224285D02*
X125280828Y-83367142D01*
X125280828Y-83367142D02*
X125280828Y-83652857D01*
X125280828Y-83652857D02*
X125209400Y-83795714D01*
X125280828Y-82224285D02*
X125209400Y-82367142D01*
X125209400Y-82367142D02*
X125137971Y-82438571D01*
X125137971Y-82438571D02*
X124995114Y-82509999D01*
X124995114Y-82509999D02*
X124566542Y-82509999D01*
X124566542Y-82509999D02*
X124423685Y-82438571D01*
X124423685Y-82438571D02*
X124352257Y-82367142D01*
X124352257Y-82367142D02*
X124280828Y-82224285D01*
X124280828Y-82224285D02*
X124280828Y-82009999D01*
X124280828Y-82009999D02*
X124352257Y-81867142D01*
X124352257Y-81867142D02*
X124423685Y-81795714D01*
X124423685Y-81795714D02*
X124566542Y-81724285D01*
X124566542Y-81724285D02*
X124995114Y-81724285D01*
X124995114Y-81724285D02*
X125137971Y-81795714D01*
X125137971Y-81795714D02*
X125209400Y-81867142D01*
X125209400Y-81867142D02*
X125280828Y-82009999D01*
X125280828Y-82009999D02*
X125280828Y-82224285D01*
X124280828Y-81081428D02*
X125280828Y-81081428D01*
X124423685Y-81081428D02*
X124352257Y-81009999D01*
X124352257Y-81009999D02*
X124280828Y-80867142D01*
X124280828Y-80867142D02*
X124280828Y-80652856D01*
X124280828Y-80652856D02*
X124352257Y-80509999D01*
X124352257Y-80509999D02*
X124495114Y-80438571D01*
X124495114Y-80438571D02*
X125280828Y-80438571D01*
X125209400Y-79795713D02*
X125280828Y-79652856D01*
X125280828Y-79652856D02*
X125280828Y-79367142D01*
X125280828Y-79367142D02*
X125209400Y-79224285D01*
X125209400Y-79224285D02*
X125066542Y-79152856D01*
X125066542Y-79152856D02*
X124995114Y-79152856D01*
X124995114Y-79152856D02*
X124852257Y-79224285D01*
X124852257Y-79224285D02*
X124780828Y-79367142D01*
X124780828Y-79367142D02*
X124780828Y-79581428D01*
X124780828Y-79581428D02*
X124709400Y-79724285D01*
X124709400Y-79724285D02*
X124566542Y-79795713D01*
X124566542Y-79795713D02*
X124495114Y-79795713D01*
X124495114Y-79795713D02*
X124352257Y-79724285D01*
X124352257Y-79724285D02*
X124280828Y-79581428D01*
X124280828Y-79581428D02*
X124280828Y-79367142D01*
X124280828Y-79367142D02*
X124352257Y-79224285D01*
X125280828Y-78295713D02*
X125209400Y-78438570D01*
X125209400Y-78438570D02*
X125137971Y-78509999D01*
X125137971Y-78509999D02*
X124995114Y-78581427D01*
X124995114Y-78581427D02*
X124566542Y-78581427D01*
X124566542Y-78581427D02*
X124423685Y-78509999D01*
X124423685Y-78509999D02*
X124352257Y-78438570D01*
X124352257Y-78438570D02*
X124280828Y-78295713D01*
X124280828Y-78295713D02*
X124280828Y-78081427D01*
X124280828Y-78081427D02*
X124352257Y-77938570D01*
X124352257Y-77938570D02*
X124423685Y-77867142D01*
X124423685Y-77867142D02*
X124566542Y-77795713D01*
X124566542Y-77795713D02*
X124995114Y-77795713D01*
X124995114Y-77795713D02*
X125137971Y-77867142D01*
X125137971Y-77867142D02*
X125209400Y-77938570D01*
X125209400Y-77938570D02*
X125280828Y-78081427D01*
X125280828Y-78081427D02*
X125280828Y-78295713D01*
X125280828Y-77152856D02*
X124280828Y-77152856D01*
X124566542Y-77152856D02*
X124423685Y-77081427D01*
X124423685Y-77081427D02*
X124352257Y-77009999D01*
X124352257Y-77009999D02*
X124280828Y-76867141D01*
X124280828Y-76867141D02*
X124280828Y-76724284D01*
X125209400Y-75652856D02*
X125280828Y-75795713D01*
X125280828Y-75795713D02*
X125280828Y-76081428D01*
X125280828Y-76081428D02*
X125209400Y-76224285D01*
X125209400Y-76224285D02*
X125066542Y-76295713D01*
X125066542Y-76295713D02*
X124495114Y-76295713D01*
X124495114Y-76295713D02*
X124352257Y-76224285D01*
X124352257Y-76224285D02*
X124280828Y-76081428D01*
X124280828Y-76081428D02*
X124280828Y-75795713D01*
X124280828Y-75795713D02*
X124352257Y-75652856D01*
X124352257Y-75652856D02*
X124495114Y-75581428D01*
X124495114Y-75581428D02*
X124637971Y-75581428D01*
X124637971Y-75581428D02*
X124780828Y-76295713D01*
X125280828Y-74295714D02*
X123780828Y-74295714D01*
X125209400Y-74295714D02*
X125280828Y-74438571D01*
X125280828Y-74438571D02*
X125280828Y-74724285D01*
X125280828Y-74724285D02*
X125209400Y-74867142D01*
X125209400Y-74867142D02*
X125137971Y-74938571D01*
X125137971Y-74938571D02*
X124995114Y-75009999D01*
X124995114Y-75009999D02*
X124566542Y-75009999D01*
X124566542Y-75009999D02*
X124423685Y-74938571D01*
X124423685Y-74938571D02*
X124352257Y-74867142D01*
X124352257Y-74867142D02*
X124280828Y-74724285D01*
X124280828Y-74724285D02*
X124280828Y-74438571D01*
X124280828Y-74438571D02*
X124352257Y-74295714D01*
X125280828Y-72438571D02*
X123780828Y-72438571D01*
X124352257Y-72438571D02*
X124280828Y-72295714D01*
X124280828Y-72295714D02*
X124280828Y-72009999D01*
X124280828Y-72009999D02*
X124352257Y-71867142D01*
X124352257Y-71867142D02*
X124423685Y-71795714D01*
X124423685Y-71795714D02*
X124566542Y-71724285D01*
X124566542Y-71724285D02*
X124995114Y-71724285D01*
X124995114Y-71724285D02*
X125137971Y-71795714D01*
X125137971Y-71795714D02*
X125209400Y-71867142D01*
X125209400Y-71867142D02*
X125280828Y-72009999D01*
X125280828Y-72009999D02*
X125280828Y-72295714D01*
X125280828Y-72295714D02*
X125209400Y-72438571D01*
X124280828Y-71224285D02*
X125280828Y-70867142D01*
X124280828Y-70509999D02*
X125280828Y-70867142D01*
X125280828Y-70867142D02*
X125637971Y-71009999D01*
X125637971Y-71009999D02*
X125709400Y-71081428D01*
X125709400Y-71081428D02*
X125780828Y-71224285D01*
X125280828Y-68795714D02*
X123780828Y-68795714D01*
X123780828Y-68795714D02*
X123780828Y-68224285D01*
X123780828Y-68224285D02*
X123852257Y-68081428D01*
X123852257Y-68081428D02*
X123923685Y-68009999D01*
X123923685Y-68009999D02*
X124066542Y-67938571D01*
X124066542Y-67938571D02*
X124280828Y-67938571D01*
X124280828Y-67938571D02*
X124423685Y-68009999D01*
X124423685Y-68009999D02*
X124495114Y-68081428D01*
X124495114Y-68081428D02*
X124566542Y-68224285D01*
X124566542Y-68224285D02*
X124566542Y-68795714D01*
X125137971Y-66438571D02*
X125209400Y-66509999D01*
X125209400Y-66509999D02*
X125280828Y-66724285D01*
X125280828Y-66724285D02*
X125280828Y-66867142D01*
X125280828Y-66867142D02*
X125209400Y-67081428D01*
X125209400Y-67081428D02*
X125066542Y-67224285D01*
X125066542Y-67224285D02*
X124923685Y-67295714D01*
X124923685Y-67295714D02*
X124637971Y-67367142D01*
X124637971Y-67367142D02*
X124423685Y-67367142D01*
X124423685Y-67367142D02*
X124137971Y-67295714D01*
X124137971Y-67295714D02*
X123995114Y-67224285D01*
X123995114Y-67224285D02*
X123852257Y-67081428D01*
X123852257Y-67081428D02*
X123780828Y-66867142D01*
X123780828Y-66867142D02*
X123780828Y-66724285D01*
X123780828Y-66724285D02*
X123852257Y-66509999D01*
X123852257Y-66509999D02*
X123923685Y-66438571D01*
X124495114Y-65295714D02*
X124566542Y-65081428D01*
X124566542Y-65081428D02*
X124637971Y-65009999D01*
X124637971Y-65009999D02*
X124780828Y-64938571D01*
X124780828Y-64938571D02*
X124995114Y-64938571D01*
X124995114Y-64938571D02*
X125137971Y-65009999D01*
X125137971Y-65009999D02*
X125209400Y-65081428D01*
X125209400Y-65081428D02*
X125280828Y-65224285D01*
X125280828Y-65224285D02*
X125280828Y-65795714D01*
X125280828Y-65795714D02*
X123780828Y-65795714D01*
X123780828Y-65795714D02*
X123780828Y-65295714D01*
X123780828Y-65295714D02*
X123852257Y-65152857D01*
X123852257Y-65152857D02*
X123923685Y-65081428D01*
X123923685Y-65081428D02*
X124066542Y-65009999D01*
X124066542Y-65009999D02*
X124209400Y-65009999D01*
X124209400Y-65009999D02*
X124352257Y-65081428D01*
X124352257Y-65081428D02*
X124423685Y-65152857D01*
X124423685Y-65152857D02*
X124495114Y-65295714D01*
X124495114Y-65295714D02*
X124495114Y-65795714D01*
X123780828Y-64438571D02*
X125280828Y-64081428D01*
X125280828Y-64081428D02*
X124209400Y-63795714D01*
X124209400Y-63795714D02*
X125280828Y-63509999D01*
X125280828Y-63509999D02*
X123780828Y-63152857D01*
X125280828Y-61938571D02*
X124495114Y-61938571D01*
X124495114Y-61938571D02*
X124352257Y-62009999D01*
X124352257Y-62009999D02*
X124280828Y-62152856D01*
X124280828Y-62152856D02*
X124280828Y-62438571D01*
X124280828Y-62438571D02*
X124352257Y-62581428D01*
X125209400Y-61938571D02*
X125280828Y-62081428D01*
X125280828Y-62081428D02*
X125280828Y-62438571D01*
X125280828Y-62438571D02*
X125209400Y-62581428D01*
X125209400Y-62581428D02*
X125066542Y-62652856D01*
X125066542Y-62652856D02*
X124923685Y-62652856D01*
X124923685Y-62652856D02*
X124780828Y-62581428D01*
X124780828Y-62581428D02*
X124709400Y-62438571D01*
X124709400Y-62438571D02*
X124709400Y-62081428D01*
X124709400Y-62081428D02*
X124637971Y-61938571D01*
X124280828Y-61367142D02*
X125280828Y-61009999D01*
X124280828Y-60652856D02*
X125280828Y-61009999D01*
X125280828Y-61009999D02*
X125637971Y-61152856D01*
X125637971Y-61152856D02*
X125709400Y-61224285D01*
X125709400Y-61224285D02*
X125780828Y-61367142D01*
D11*
X97000000Y-73000000D02*
X178000000Y-73000000D01*
D12*
X140000000Y-59000000D02*
X140000000Y-87000000D01*
X110000000Y-59000000D02*
X178000000Y-59000000D01*
X178000000Y-59000000D02*
X178000000Y-87000000D01*
X110000000Y-87000000D02*
X178000000Y-87000000D01*
X128000000Y-59000000D02*
X128000000Y-87000000D01*
X158000000Y-59000000D02*
X158000000Y-87000000D01*
D13*
G36*
X134968803Y-62335834D02*
G01*
X135055603Y-62414724D01*
X135114594Y-62559345D01*
X135146393Y-62717381D01*
X135159651Y-62822121D01*
X135244647Y-63588555D01*
X135266263Y-63736749D01*
X135293007Y-63822295D01*
X135409511Y-63899965D01*
X135697473Y-66630844D01*
X135636153Y-66777710D01*
X135550378Y-66919356D01*
X135455264Y-67039013D01*
X135341427Y-67154673D01*
X135305464Y-67186985D01*
X135103883Y-64435589D01*
X135182365Y-64435589D01*
X135279818Y-64528646D01*
X135369944Y-64419469D01*
X135273956Y-64326413D01*
X135182365Y-64435589D01*
X135103883Y-64435589D01*
X135096636Y-64336671D01*
X135088576Y-64206978D01*
X135088576Y-64159351D01*
X135088576Y-64110258D01*
X135088576Y-64054570D01*
X135038498Y-63911628D01*
X134930307Y-63839881D01*
X134879748Y-63819364D01*
X134737263Y-63748474D01*
X134618928Y-63655331D01*
X134524743Y-63539933D01*
X134454708Y-63402282D01*
X134408824Y-63242377D01*
X134387089Y-63060218D01*
X134385157Y-62981123D01*
X134385701Y-62972330D01*
X134525840Y-62972330D01*
X134535752Y-63119967D01*
X134570012Y-63271636D01*
X134628745Y-63410282D01*
X134651137Y-63449337D01*
X134742127Y-63566144D01*
X134871957Y-63644683D01*
X134942763Y-63654501D01*
X135068071Y-63574072D01*
X135088576Y-63448604D01*
X135084180Y-63322575D01*
X135018234Y-62768632D01*
X134988236Y-62618097D01*
X134911754Y-62487633D01*
X134826259Y-62457222D01*
X134684236Y-62515898D01*
X134613035Y-62607431D01*
X134553429Y-62751567D01*
X134527969Y-62907007D01*
X134525840Y-62972330D01*
X134385701Y-62972330D01*
X134394952Y-62822660D01*
X134428812Y-62666440D01*
X134486858Y-62531115D01*
X134508988Y-62494591D01*
X134611238Y-62378946D01*
X134743171Y-62313896D01*
X134823328Y-62304815D01*
X134968803Y-62335834D01*
G37*
G36*
X135024829Y-64817341D02*
G01*
X134010000Y-65500976D01*
X134010000Y-65045952D01*
X134991123Y-64445847D01*
X135024829Y-64817341D01*
G37*
G36*
X137052288Y-63345472D02*
G01*
X137178318Y-63431751D01*
X137264047Y-63560345D01*
X137292512Y-63704193D01*
X137292623Y-63714584D01*
X137265524Y-63870930D01*
X137193070Y-64004109D01*
X137099916Y-64105861D01*
X136974966Y-64198211D01*
X136827107Y-64260290D01*
X136668339Y-64280983D01*
X136518312Y-64254788D01*
X136382658Y-64194929D01*
X136349602Y-64176203D01*
X136307836Y-64151290D01*
X136170568Y-64096963D01*
X136150300Y-64095603D01*
X136010341Y-64147986D01*
X135914361Y-64217236D01*
X135839623Y-64272923D01*
X135572177Y-64452442D01*
X135543600Y-64114654D01*
X135693810Y-64015736D01*
X135751695Y-64021598D01*
X135890112Y-63965543D01*
X135963359Y-63910223D01*
X136354731Y-63910223D01*
X136427660Y-64037889D01*
X136449986Y-64054570D01*
X136590312Y-64114076D01*
X136660279Y-64120516D01*
X136807235Y-64100442D01*
X136942099Y-64040219D01*
X137000265Y-63998883D01*
X137103949Y-63887265D01*
X137151347Y-63746993D01*
X137151939Y-63728506D01*
X137111548Y-63585349D01*
X137080132Y-63545324D01*
X136950491Y-63472767D01*
X136907941Y-63469120D01*
X136761055Y-63505103D01*
X136632266Y-63581176D01*
X136611186Y-63596615D01*
X136524724Y-63666957D01*
X136414660Y-63772853D01*
X136354731Y-63910223D01*
X135963359Y-63910223D01*
X136013468Y-63872378D01*
X136025003Y-63862595D01*
X136385505Y-63559979D01*
X136508614Y-63465190D01*
X136642268Y-63385369D01*
X136783652Y-63331917D01*
X136901346Y-63316713D01*
X137052288Y-63345472D01*
G37*
G36*
X165468803Y-62085834D02*
G01*
X165555603Y-62164724D01*
X165614594Y-62309345D01*
X165646393Y-62467381D01*
X165659651Y-62572121D01*
X165744647Y-63338555D01*
X165766263Y-63486749D01*
X165793007Y-63572295D01*
X165909511Y-63649965D01*
X166197473Y-66380844D01*
X166136153Y-66527710D01*
X166050378Y-66669356D01*
X165955264Y-66789013D01*
X165841427Y-66904673D01*
X165805464Y-66936985D01*
X165603883Y-64185589D01*
X165682365Y-64185589D01*
X165779818Y-64278646D01*
X165869944Y-64169469D01*
X165773956Y-64076413D01*
X165682365Y-64185589D01*
X165603883Y-64185589D01*
X165596636Y-64086671D01*
X165588576Y-63956978D01*
X165588576Y-63909351D01*
X165588576Y-63860258D01*
X165588576Y-63804570D01*
X165538498Y-63661628D01*
X165430307Y-63589881D01*
X165379748Y-63569364D01*
X165237263Y-63498474D01*
X165118928Y-63405331D01*
X165024743Y-63289933D01*
X164954708Y-63152282D01*
X164908824Y-62992377D01*
X164887089Y-62810218D01*
X164885157Y-62731123D01*
X164885701Y-62722330D01*
X165025840Y-62722330D01*
X165035752Y-62869967D01*
X165070012Y-63021636D01*
X165128745Y-63160282D01*
X165151137Y-63199337D01*
X165242127Y-63316144D01*
X165371957Y-63394683D01*
X165442763Y-63404501D01*
X165568071Y-63324072D01*
X165588576Y-63198604D01*
X165584180Y-63072575D01*
X165518234Y-62518632D01*
X165488236Y-62368097D01*
X165411754Y-62237633D01*
X165326259Y-62207222D01*
X165184236Y-62265898D01*
X165113035Y-62357431D01*
X165053429Y-62501567D01*
X165027969Y-62657007D01*
X165025840Y-62722330D01*
X164885701Y-62722330D01*
X164894952Y-62572660D01*
X164928812Y-62416440D01*
X164986858Y-62281115D01*
X165008988Y-62244591D01*
X165111238Y-62128946D01*
X165243171Y-62063896D01*
X165323328Y-62054815D01*
X165468803Y-62085834D01*
G37*
G36*
X165524829Y-64567341D02*
G01*
X164510000Y-65250976D01*
X164510000Y-64795952D01*
X165491123Y-64195847D01*
X165524829Y-64567341D01*
G37*
G36*
X167552288Y-63095472D02*
G01*
X167678318Y-63181751D01*
X167764047Y-63310345D01*
X167792512Y-63454193D01*
X167792623Y-63464584D01*
X167765524Y-63620930D01*
X167693070Y-63754109D01*
X167599916Y-63855861D01*
X167474966Y-63948211D01*
X167327107Y-64010290D01*
X167168339Y-64030983D01*
X167018312Y-64004788D01*
X166882658Y-63944929D01*
X166849602Y-63926203D01*
X166807836Y-63901290D01*
X166670568Y-63846963D01*
X166650300Y-63845603D01*
X166510341Y-63897986D01*
X166414361Y-63967236D01*
X166339623Y-64022923D01*
X166072177Y-64202442D01*
X166043600Y-63864654D01*
X166193810Y-63765736D01*
X166251695Y-63771598D01*
X166390112Y-63715543D01*
X166463359Y-63660223D01*
X166854731Y-63660223D01*
X166927660Y-63787889D01*
X166949986Y-63804570D01*
X167090312Y-63864076D01*
X167160279Y-63870516D01*
X167307235Y-63850442D01*
X167442099Y-63790219D01*
X167500265Y-63748883D01*
X167603949Y-63637265D01*
X167651347Y-63496993D01*
X167651939Y-63478506D01*
X167611548Y-63335349D01*
X167580132Y-63295324D01*
X167450491Y-63222767D01*
X167407941Y-63219120D01*
X167261055Y-63255103D01*
X167132266Y-63331176D01*
X167111186Y-63346615D01*
X167024724Y-63416957D01*
X166914660Y-63522853D01*
X166854731Y-63660223D01*
X166463359Y-63660223D01*
X166513468Y-63622378D01*
X166525003Y-63612595D01*
X166885505Y-63309979D01*
X167008614Y-63215190D01*
X167142268Y-63135369D01*
X167283652Y-63081917D01*
X167401346Y-63066713D01*
X167552288Y-63095472D01*
G37*
X182454819Y-72547618D02*
X181454819Y-72547618D01*
X181454819Y-72547618D02*
X182454819Y-71976190D01*
X182454819Y-71976190D02*
X181454819Y-71976190D01*
X181502438Y-70976190D02*
X181454819Y-71071428D01*
X181454819Y-71071428D02*
X181454819Y-71214285D01*
X181454819Y-71214285D02*
X181502438Y-71357142D01*
X181502438Y-71357142D02*
X181597676Y-71452380D01*
X181597676Y-71452380D02*
X181692914Y-71499999D01*
X181692914Y-71499999D02*
X181883390Y-71547618D01*
X181883390Y-71547618D02*
X182026247Y-71547618D01*
X182026247Y-71547618D02*
X182216723Y-71499999D01*
X182216723Y-71499999D02*
X182311961Y-71452380D01*
X182311961Y-71452380D02*
X182407200Y-71357142D01*
X182407200Y-71357142D02*
X182454819Y-71214285D01*
X182454819Y-71214285D02*
X182454819Y-71119047D01*
X182454819Y-71119047D02*
X182407200Y-70976190D01*
X182407200Y-70976190D02*
X182359580Y-70928571D01*
X182359580Y-70928571D02*
X182026247Y-70928571D01*
X182026247Y-70928571D02*
X182026247Y-71119047D01*
X181931009Y-70166666D02*
X181931009Y-70499999D01*
X182454819Y-70499999D02*
X181454819Y-70499999D01*
X181454819Y-70499999D02*
X181454819Y-70023809D01*
X181931009Y-69309523D02*
X181931009Y-69642856D01*
X182454819Y-69642856D02*
X181454819Y-69642856D01*
X181454819Y-69642856D02*
X181454819Y-69166666D01*
X181550057Y-68833332D02*
X181502438Y-68785713D01*
X181502438Y-68785713D02*
X181454819Y-68690475D01*
X181454819Y-68690475D02*
X181454819Y-68452380D01*
X181454819Y-68452380D02*
X181502438Y-68357142D01*
X181502438Y-68357142D02*
X181550057Y-68309523D01*
X181550057Y-68309523D02*
X181645295Y-68261904D01*
X181645295Y-68261904D02*
X181740533Y-68261904D01*
X181740533Y-68261904D02*
X181883390Y-68309523D01*
X181883390Y-68309523D02*
X182454819Y-68880951D01*
X182454819Y-68880951D02*
X182454819Y-68261904D01*
X181550057Y-67880951D02*
X181502438Y-67833332D01*
X181502438Y-67833332D02*
X181454819Y-67738094D01*
X181454819Y-67738094D02*
X181454819Y-67499999D01*
X181454819Y-67499999D02*
X181502438Y-67404761D01*
X181502438Y-67404761D02*
X181550057Y-67357142D01*
X181550057Y-67357142D02*
X181645295Y-67309523D01*
X181645295Y-67309523D02*
X181740533Y-67309523D01*
X181740533Y-67309523D02*
X181883390Y-67357142D01*
X181883390Y-67357142D02*
X182454819Y-67928570D01*
X182454819Y-67928570D02*
X182454819Y-67309523D01*
X181883390Y-66738094D02*
X181835771Y-66833332D01*
X181835771Y-66833332D02*
X181788152Y-66880951D01*
X181788152Y-66880951D02*
X181692914Y-66928570D01*
X181692914Y-66928570D02*
X181645295Y-66928570D01*
X181645295Y-66928570D02*
X181550057Y-66880951D01*
X181550057Y-66880951D02*
X181502438Y-66833332D01*
X181502438Y-66833332D02*
X181454819Y-66738094D01*
X181454819Y-66738094D02*
X181454819Y-66547618D01*
X181454819Y-66547618D02*
X181502438Y-66452380D01*
X181502438Y-66452380D02*
X181550057Y-66404761D01*
X181550057Y-66404761D02*
X181645295Y-66357142D01*
X181645295Y-66357142D02*
X181692914Y-66357142D01*
X181692914Y-66357142D02*
X181788152Y-66404761D01*
X181788152Y-66404761D02*
X181835771Y-66452380D01*
X181835771Y-66452380D02*
X181883390Y-66547618D01*
X181883390Y-66547618D02*
X181883390Y-66738094D01*
X181883390Y-66738094D02*
X181931009Y-66833332D01*
X181931009Y-66833332D02*
X181978628Y-66880951D01*
X181978628Y-66880951D02*
X182073866Y-66928570D01*
X182073866Y-66928570D02*
X182264342Y-66928570D01*
X182264342Y-66928570D02*
X182359580Y-66880951D01*
X182359580Y-66880951D02*
X182407200Y-66833332D01*
X182407200Y-66833332D02*
X182454819Y-66738094D01*
X182454819Y-66738094D02*
X182454819Y-66547618D01*
X182454819Y-66547618D02*
X182407200Y-66452380D01*
X182407200Y-66452380D02*
X182359580Y-66404761D01*
X182359580Y-66404761D02*
X182264342Y-66357142D01*
X182264342Y-66357142D02*
X182073866Y-66357142D01*
X182073866Y-66357142D02*
X181978628Y-66404761D01*
X181978628Y-66404761D02*
X181931009Y-66452380D01*
X181931009Y-66452380D02*
X181883390Y-66547618D01*
X181454819Y-65738094D02*
X181454819Y-65642856D01*
X181454819Y-65642856D02*
X181502438Y-65547618D01*
X181502438Y-65547618D02*
X181550057Y-65499999D01*
X181550057Y-65499999D02*
X181645295Y-65452380D01*
X181645295Y-65452380D02*
X181835771Y-65404761D01*
X181835771Y-65404761D02*
X182073866Y-65404761D01*
X182073866Y-65404761D02*
X182264342Y-65452380D01*
X182264342Y-65452380D02*
X182359580Y-65499999D01*
X182359580Y-65499999D02*
X182407200Y-65547618D01*
X182407200Y-65547618D02*
X182454819Y-65642856D01*
X182454819Y-65642856D02*
X182454819Y-65738094D01*
X182454819Y-65738094D02*
X182407200Y-65833332D01*
X182407200Y-65833332D02*
X182359580Y-65880951D01*
X182359580Y-65880951D02*
X182264342Y-65928570D01*
X182264342Y-65928570D02*
X182073866Y-65976189D01*
X182073866Y-65976189D02*
X181835771Y-65976189D01*
X181835771Y-65976189D02*
X181645295Y-65928570D01*
X181645295Y-65928570D02*
X181550057Y-65880951D01*
X181550057Y-65880951D02*
X181502438Y-65833332D01*
X181502438Y-65833332D02*
X181454819Y-65738094D01*
X159454819Y-69547618D02*
X158454819Y-69547618D01*
X158454819Y-69547618D02*
X159454819Y-68976190D01*
X159454819Y-68976190D02*
X158454819Y-68976190D01*
X158502438Y-67976190D02*
X158454819Y-68071428D01*
X158454819Y-68071428D02*
X158454819Y-68214285D01*
X158454819Y-68214285D02*
X158502438Y-68357142D01*
X158502438Y-68357142D02*
X158597676Y-68452380D01*
X158597676Y-68452380D02*
X158692914Y-68499999D01*
X158692914Y-68499999D02*
X158883390Y-68547618D01*
X158883390Y-68547618D02*
X159026247Y-68547618D01*
X159026247Y-68547618D02*
X159216723Y-68499999D01*
X159216723Y-68499999D02*
X159311961Y-68452380D01*
X159311961Y-68452380D02*
X159407200Y-68357142D01*
X159407200Y-68357142D02*
X159454819Y-68214285D01*
X159454819Y-68214285D02*
X159454819Y-68119047D01*
X159454819Y-68119047D02*
X159407200Y-67976190D01*
X159407200Y-67976190D02*
X159359580Y-67928571D01*
X159359580Y-67928571D02*
X159026247Y-67928571D01*
X159026247Y-67928571D02*
X159026247Y-68119047D01*
X158931009Y-67166666D02*
X158931009Y-67499999D01*
X159454819Y-67499999D02*
X158454819Y-67499999D01*
X158454819Y-67499999D02*
X158454819Y-67023809D01*
X158931009Y-66309523D02*
X158931009Y-66642856D01*
X159454819Y-66642856D02*
X158454819Y-66642856D01*
X158454819Y-66642856D02*
X158454819Y-66166666D01*
X158550057Y-65833332D02*
X158502438Y-65785713D01*
X158502438Y-65785713D02*
X158454819Y-65690475D01*
X158454819Y-65690475D02*
X158454819Y-65452380D01*
X158454819Y-65452380D02*
X158502438Y-65357142D01*
X158502438Y-65357142D02*
X158550057Y-65309523D01*
X158550057Y-65309523D02*
X158645295Y-65261904D01*
X158645295Y-65261904D02*
X158740533Y-65261904D01*
X158740533Y-65261904D02*
X158883390Y-65309523D01*
X158883390Y-65309523D02*
X159454819Y-65880951D01*
X159454819Y-65880951D02*
X159454819Y-65261904D01*
X158550057Y-64880951D02*
X158502438Y-64833332D01*
X158502438Y-64833332D02*
X158454819Y-64738094D01*
X158454819Y-64738094D02*
X158454819Y-64499999D01*
X158454819Y-64499999D02*
X158502438Y-64404761D01*
X158502438Y-64404761D02*
X158550057Y-64357142D01*
X158550057Y-64357142D02*
X158645295Y-64309523D01*
X158645295Y-64309523D02*
X158740533Y-64309523D01*
X158740533Y-64309523D02*
X158883390Y-64357142D01*
X158883390Y-64357142D02*
X159454819Y-64928570D01*
X159454819Y-64928570D02*
X159454819Y-64309523D01*
X158454819Y-63452380D02*
X158454819Y-63642856D01*
X158454819Y-63642856D02*
X158502438Y-63738094D01*
X158502438Y-63738094D02*
X158550057Y-63785713D01*
X158550057Y-63785713D02*
X158692914Y-63880951D01*
X158692914Y-63880951D02*
X158883390Y-63928570D01*
X158883390Y-63928570D02*
X159264342Y-63928570D01*
X159264342Y-63928570D02*
X159359580Y-63880951D01*
X159359580Y-63880951D02*
X159407200Y-63833332D01*
X159407200Y-63833332D02*
X159454819Y-63738094D01*
X159454819Y-63738094D02*
X159454819Y-63547618D01*
X159454819Y-63547618D02*
X159407200Y-63452380D01*
X159407200Y-63452380D02*
X159359580Y-63404761D01*
X159359580Y-63404761D02*
X159264342Y-63357142D01*
X159264342Y-63357142D02*
X159026247Y-63357142D01*
X159026247Y-63357142D02*
X158931009Y-63404761D01*
X158931009Y-63404761D02*
X158883390Y-63452380D01*
X158883390Y-63452380D02*
X158835771Y-63547618D01*
X158835771Y-63547618D02*
X158835771Y-63738094D01*
X158835771Y-63738094D02*
X158883390Y-63833332D01*
X158883390Y-63833332D02*
X158931009Y-63880951D01*
X158931009Y-63880951D02*
X159026247Y-63928570D01*
X158454819Y-62738094D02*
X158454819Y-62642856D01*
X158454819Y-62642856D02*
X158502438Y-62547618D01*
X158502438Y-62547618D02*
X158550057Y-62499999D01*
X158550057Y-62499999D02*
X158645295Y-62452380D01*
X158645295Y-62452380D02*
X158835771Y-62404761D01*
X158835771Y-62404761D02*
X159073866Y-62404761D01*
X159073866Y-62404761D02*
X159264342Y-62452380D01*
X159264342Y-62452380D02*
X159359580Y-62499999D01*
X159359580Y-62499999D02*
X159407200Y-62547618D01*
X159407200Y-62547618D02*
X159454819Y-62642856D01*
X159454819Y-62642856D02*
X159454819Y-62738094D01*
X159454819Y-62738094D02*
X159407200Y-62833332D01*
X159407200Y-62833332D02*
X159359580Y-62880951D01*
X159359580Y-62880951D02*
X159264342Y-62928570D01*
X159264342Y-62928570D02*
X159073866Y-62976189D01*
X159073866Y-62976189D02*
X158835771Y-62976189D01*
X158835771Y-62976189D02*
X158645295Y-62928570D01*
X158645295Y-62928570D02*
X158550057Y-62880951D01*
X158550057Y-62880951D02*
X158502438Y-62833332D01*
X158502438Y-62833332D02*
X158454819Y-62738094D01*
G36*
X147718803Y-78085834D02*
G01*
X147805603Y-78164724D01*
X147864594Y-78309345D01*
X147896393Y-78467381D01*
X147909651Y-78572121D01*
X147994647Y-79338555D01*
X148016263Y-79486749D01*
X148043007Y-79572295D01*
X148159511Y-79649965D01*
X148447473Y-82380844D01*
X148386153Y-82527710D01*
X148300378Y-82669356D01*
X148205264Y-82789013D01*
X148091427Y-82904673D01*
X148055464Y-82936985D01*
X147853883Y-80185589D01*
X147932365Y-80185589D01*
X148029818Y-80278646D01*
X148119944Y-80169469D01*
X148023956Y-80076413D01*
X147932365Y-80185589D01*
X147853883Y-80185589D01*
X147846636Y-80086671D01*
X147838576Y-79956978D01*
X147838576Y-79909351D01*
X147838576Y-79860258D01*
X147838576Y-79804570D01*
X147788498Y-79661628D01*
X147680307Y-79589881D01*
X147629748Y-79569364D01*
X147487263Y-79498474D01*
X147368928Y-79405331D01*
X147274743Y-79289933D01*
X147204708Y-79152282D01*
X147158824Y-78992377D01*
X147137089Y-78810218D01*
X147135157Y-78731123D01*
X147135701Y-78722330D01*
X147275840Y-78722330D01*
X147285752Y-78869967D01*
X147320012Y-79021636D01*
X147378745Y-79160282D01*
X147401137Y-79199337D01*
X147492127Y-79316144D01*
X147621957Y-79394683D01*
X147692763Y-79404501D01*
X147818071Y-79324072D01*
X147838576Y-79198604D01*
X147834180Y-79072575D01*
X147768234Y-78518632D01*
X147738236Y-78368097D01*
X147661754Y-78237633D01*
X147576259Y-78207222D01*
X147434236Y-78265898D01*
X147363035Y-78357431D01*
X147303429Y-78501567D01*
X147277969Y-78657007D01*
X147275840Y-78722330D01*
X147135701Y-78722330D01*
X147144952Y-78572660D01*
X147178812Y-78416440D01*
X147236858Y-78281115D01*
X147258988Y-78244591D01*
X147361238Y-78128946D01*
X147493171Y-78063896D01*
X147573328Y-78054815D01*
X147718803Y-78085834D01*
G37*
G36*
X147774829Y-80567341D02*
G01*
X146760000Y-81250976D01*
X146760000Y-80795952D01*
X147741123Y-80195847D01*
X147774829Y-80567341D01*
G37*
G36*
X149802288Y-79095472D02*
G01*
X149928318Y-79181751D01*
X150014047Y-79310345D01*
X150042512Y-79454193D01*
X150042623Y-79464584D01*
X150015524Y-79620930D01*
X149943070Y-79754109D01*
X149849916Y-79855861D01*
X149724966Y-79948211D01*
X149577107Y-80010290D01*
X149418339Y-80030983D01*
X149268312Y-80004788D01*
X149132658Y-79944929D01*
X149099602Y-79926203D01*
X149057836Y-79901290D01*
X148920568Y-79846963D01*
X148900300Y-79845603D01*
X148760341Y-79897986D01*
X148664361Y-79967236D01*
X148589623Y-80022923D01*
X148322177Y-80202442D01*
X148293600Y-79864654D01*
X148443810Y-79765736D01*
X148501695Y-79771598D01*
X148640112Y-79715543D01*
X148713359Y-79660223D01*
X149104731Y-79660223D01*
X149177660Y-79787889D01*
X149199986Y-79804570D01*
X149340312Y-79864076D01*
X149410279Y-79870516D01*
X149557235Y-79850442D01*
X149692099Y-79790219D01*
X149750265Y-79748883D01*
X149853949Y-79637265D01*
X149901347Y-79496993D01*
X149901939Y-79478506D01*
X149861548Y-79335349D01*
X149830132Y-79295324D01*
X149700491Y-79222767D01*
X149657941Y-79219120D01*
X149511055Y-79255103D01*
X149382266Y-79331176D01*
X149361186Y-79346615D01*
X149274724Y-79416957D01*
X149164660Y-79522853D01*
X149104731Y-79660223D01*
X148713359Y-79660223D01*
X148763468Y-79622378D01*
X148775003Y-79612595D01*
X149135505Y-79309979D01*
X149258614Y-79215190D01*
X149392268Y-79135369D01*
X149533652Y-79081917D01*
X149651346Y-79066713D01*
X149802288Y-79095472D01*
G37*
G36*
X165468803Y-78085834D02*
G01*
X165555603Y-78164724D01*
X165614594Y-78309345D01*
X165646393Y-78467381D01*
X165659651Y-78572121D01*
X165744647Y-79338555D01*
X165766263Y-79486749D01*
X165793007Y-79572295D01*
X165909511Y-79649965D01*
X166197473Y-82380844D01*
X166136153Y-82527710D01*
X166050378Y-82669356D01*
X165955264Y-82789013D01*
X165841427Y-82904673D01*
X165805464Y-82936985D01*
X165603883Y-80185589D01*
X165682365Y-80185589D01*
X165779818Y-80278646D01*
X165869944Y-80169469D01*
X165773956Y-80076413D01*
X165682365Y-80185589D01*
X165603883Y-80185589D01*
X165596636Y-80086671D01*
X165588576Y-79956978D01*
X165588576Y-79909351D01*
X165588576Y-79860258D01*
X165588576Y-79804570D01*
X165538498Y-79661628D01*
X165430307Y-79589881D01*
X165379748Y-79569364D01*
X165237263Y-79498474D01*
X165118928Y-79405331D01*
X165024743Y-79289933D01*
X164954708Y-79152282D01*
X164908824Y-78992377D01*
X164887089Y-78810218D01*
X164885157Y-78731123D01*
X164885701Y-78722330D01*
X165025840Y-78722330D01*
X165035752Y-78869967D01*
X165070012Y-79021636D01*
X165128745Y-79160282D01*
X165151137Y-79199337D01*
X165242127Y-79316144D01*
X165371957Y-79394683D01*
X165442763Y-79404501D01*
X165568071Y-79324072D01*
X165588576Y-79198604D01*
X165584180Y-79072575D01*
X165518234Y-78518632D01*
X165488236Y-78368097D01*
X165411754Y-78237633D01*
X165326259Y-78207222D01*
X165184236Y-78265898D01*
X165113035Y-78357431D01*
X165053429Y-78501567D01*
X165027969Y-78657007D01*
X165025840Y-78722330D01*
X164885701Y-78722330D01*
X164894952Y-78572660D01*
X164928812Y-78416440D01*
X164986858Y-78281115D01*
X165008988Y-78244591D01*
X165111238Y-78128946D01*
X165243171Y-78063896D01*
X165323328Y-78054815D01*
X165468803Y-78085834D01*
G37*
G36*
X165524829Y-80567341D02*
G01*
X164510000Y-81250976D01*
X164510000Y-80795952D01*
X165491123Y-80195847D01*
X165524829Y-80567341D01*
G37*
G36*
X167552288Y-79095472D02*
G01*
X167678318Y-79181751D01*
X167764047Y-79310345D01*
X167792512Y-79454193D01*
X167792623Y-79464584D01*
X167765524Y-79620930D01*
X167693070Y-79754109D01*
X167599916Y-79855861D01*
X167474966Y-79948211D01*
X167327107Y-80010290D01*
X167168339Y-80030983D01*
X167018312Y-80004788D01*
X166882658Y-79944929D01*
X166849602Y-79926203D01*
X166807836Y-79901290D01*
X166670568Y-79846963D01*
X166650300Y-79845603D01*
X166510341Y-79897986D01*
X166414361Y-79967236D01*
X166339623Y-80022923D01*
X166072177Y-80202442D01*
X166043600Y-79864654D01*
X166193810Y-79765736D01*
X166251695Y-79771598D01*
X166390112Y-79715543D01*
X166463359Y-79660223D01*
X166854731Y-79660223D01*
X166927660Y-79787889D01*
X166949986Y-79804570D01*
X167090312Y-79864076D01*
X167160279Y-79870516D01*
X167307235Y-79850442D01*
X167442099Y-79790219D01*
X167500265Y-79748883D01*
X167603949Y-79637265D01*
X167651347Y-79496993D01*
X167651939Y-79478506D01*
X167611548Y-79335349D01*
X167580132Y-79295324D01*
X167450491Y-79222767D01*
X167407941Y-79219120D01*
X167261055Y-79255103D01*
X167132266Y-79331176D01*
X167111186Y-79346615D01*
X167024724Y-79416957D01*
X166914660Y-79522853D01*
X166854731Y-79660223D01*
X166463359Y-79660223D01*
X166513468Y-79622378D01*
X166525003Y-79612595D01*
X166885505Y-79309979D01*
X167008614Y-79215190D01*
X167142268Y-79135369D01*
X167283652Y-79081917D01*
X167401346Y-79066713D01*
X167552288Y-79095472D01*
G37*
X129454819Y-69547618D02*
X128454819Y-69547618D01*
X128454819Y-69547618D02*
X129454819Y-68976190D01*
X129454819Y-68976190D02*
X128454819Y-68976190D01*
X128502438Y-67976190D02*
X128454819Y-68071428D01*
X128454819Y-68071428D02*
X128454819Y-68214285D01*
X128454819Y-68214285D02*
X128502438Y-68357142D01*
X128502438Y-68357142D02*
X128597676Y-68452380D01*
X128597676Y-68452380D02*
X128692914Y-68499999D01*
X128692914Y-68499999D02*
X128883390Y-68547618D01*
X128883390Y-68547618D02*
X129026247Y-68547618D01*
X129026247Y-68547618D02*
X129216723Y-68499999D01*
X129216723Y-68499999D02*
X129311961Y-68452380D01*
X129311961Y-68452380D02*
X129407200Y-68357142D01*
X129407200Y-68357142D02*
X129454819Y-68214285D01*
X129454819Y-68214285D02*
X129454819Y-68119047D01*
X129454819Y-68119047D02*
X129407200Y-67976190D01*
X129407200Y-67976190D02*
X129359580Y-67928571D01*
X129359580Y-67928571D02*
X129026247Y-67928571D01*
X129026247Y-67928571D02*
X129026247Y-68119047D01*
X128931009Y-67166666D02*
X128931009Y-67499999D01*
X129454819Y-67499999D02*
X128454819Y-67499999D01*
X128454819Y-67499999D02*
X128454819Y-67023809D01*
X128931009Y-66309523D02*
X128931009Y-66642856D01*
X129454819Y-66642856D02*
X128454819Y-66642856D01*
X128454819Y-66642856D02*
X128454819Y-66166666D01*
X128550057Y-65833332D02*
X128502438Y-65785713D01*
X128502438Y-65785713D02*
X128454819Y-65690475D01*
X128454819Y-65690475D02*
X128454819Y-65452380D01*
X128454819Y-65452380D02*
X128502438Y-65357142D01*
X128502438Y-65357142D02*
X128550057Y-65309523D01*
X128550057Y-65309523D02*
X128645295Y-65261904D01*
X128645295Y-65261904D02*
X128740533Y-65261904D01*
X128740533Y-65261904D02*
X128883390Y-65309523D01*
X128883390Y-65309523D02*
X129454819Y-65880951D01*
X129454819Y-65880951D02*
X129454819Y-65261904D01*
X128550057Y-64880951D02*
X128502438Y-64833332D01*
X128502438Y-64833332D02*
X128454819Y-64738094D01*
X128454819Y-64738094D02*
X128454819Y-64499999D01*
X128454819Y-64499999D02*
X128502438Y-64404761D01*
X128502438Y-64404761D02*
X128550057Y-64357142D01*
X128550057Y-64357142D02*
X128645295Y-64309523D01*
X128645295Y-64309523D02*
X128740533Y-64309523D01*
X128740533Y-64309523D02*
X128883390Y-64357142D01*
X128883390Y-64357142D02*
X129454819Y-64928570D01*
X129454819Y-64928570D02*
X129454819Y-64309523D01*
X128454819Y-63976189D02*
X128454819Y-63357142D01*
X128454819Y-63357142D02*
X128835771Y-63690475D01*
X128835771Y-63690475D02*
X128835771Y-63547618D01*
X128835771Y-63547618D02*
X128883390Y-63452380D01*
X128883390Y-63452380D02*
X128931009Y-63404761D01*
X128931009Y-63404761D02*
X129026247Y-63357142D01*
X129026247Y-63357142D02*
X129264342Y-63357142D01*
X129264342Y-63357142D02*
X129359580Y-63404761D01*
X129359580Y-63404761D02*
X129407200Y-63452380D01*
X129407200Y-63452380D02*
X129454819Y-63547618D01*
X129454819Y-63547618D02*
X129454819Y-63833332D01*
X129454819Y-63833332D02*
X129407200Y-63928570D01*
X129407200Y-63928570D02*
X129359580Y-63976189D01*
X128454819Y-62738094D02*
X128454819Y-62642856D01*
X128454819Y-62642856D02*
X128502438Y-62547618D01*
X128502438Y-62547618D02*
X128550057Y-62499999D01*
X128550057Y-62499999D02*
X128645295Y-62452380D01*
X128645295Y-62452380D02*
X128835771Y-62404761D01*
X128835771Y-62404761D02*
X129073866Y-62404761D01*
X129073866Y-62404761D02*
X129264342Y-62452380D01*
X129264342Y-62452380D02*
X129359580Y-62499999D01*
X129359580Y-62499999D02*
X129407200Y-62547618D01*
X129407200Y-62547618D02*
X129454819Y-62642856D01*
X129454819Y-62642856D02*
X129454819Y-62738094D01*
X129454819Y-62738094D02*
X129407200Y-62833332D01*
X129407200Y-62833332D02*
X129359580Y-62880951D01*
X129359580Y-62880951D02*
X129264342Y-62928570D01*
X129264342Y-62928570D02*
X129073866Y-62976189D01*
X129073866Y-62976189D02*
X128835771Y-62976189D01*
X128835771Y-62976189D02*
X128645295Y-62928570D01*
X128645295Y-62928570D02*
X128550057Y-62880951D01*
X128550057Y-62880951D02*
X128502438Y-62833332D01*
X128502438Y-62833332D02*
X128454819Y-62738094D01*
G36*
X147718803Y-62085834D02*
G01*
X147805603Y-62164724D01*
X147864594Y-62309345D01*
X147896393Y-62467381D01*
X147909651Y-62572121D01*
X147994647Y-63338555D01*
X148016263Y-63486749D01*
X148043007Y-63572295D01*
X148159511Y-63649965D01*
X148447473Y-66380844D01*
X148386153Y-66527710D01*
X148300378Y-66669356D01*
X148205264Y-66789013D01*
X148091427Y-66904673D01*
X148055464Y-66936985D01*
X147853883Y-64185589D01*
X147932365Y-64185589D01*
X148029818Y-64278646D01*
X148119944Y-64169469D01*
X148023956Y-64076413D01*
X147932365Y-64185589D01*
X147853883Y-64185589D01*
X147846636Y-64086671D01*
X147838576Y-63956978D01*
X147838576Y-63909351D01*
X147838576Y-63860258D01*
X147838576Y-63804570D01*
X147788498Y-63661628D01*
X147680307Y-63589881D01*
X147629748Y-63569364D01*
X147487263Y-63498474D01*
X147368928Y-63405331D01*
X147274743Y-63289933D01*
X147204708Y-63152282D01*
X147158824Y-62992377D01*
X147137089Y-62810218D01*
X147135157Y-62731123D01*
X147135701Y-62722330D01*
X147275840Y-62722330D01*
X147285752Y-62869967D01*
X147320012Y-63021636D01*
X147378745Y-63160282D01*
X147401137Y-63199337D01*
X147492127Y-63316144D01*
X147621957Y-63394683D01*
X147692763Y-63404501D01*
X147818071Y-63324072D01*
X147838576Y-63198604D01*
X147834180Y-63072575D01*
X147768234Y-62518632D01*
X147738236Y-62368097D01*
X147661754Y-62237633D01*
X147576259Y-62207222D01*
X147434236Y-62265898D01*
X147363035Y-62357431D01*
X147303429Y-62501567D01*
X147277969Y-62657007D01*
X147275840Y-62722330D01*
X147135701Y-62722330D01*
X147144952Y-62572660D01*
X147178812Y-62416440D01*
X147236858Y-62281115D01*
X147258988Y-62244591D01*
X147361238Y-62128946D01*
X147493171Y-62063896D01*
X147573328Y-62054815D01*
X147718803Y-62085834D01*
G37*
G36*
X147774829Y-64567341D02*
G01*
X146760000Y-65250976D01*
X146760000Y-64795952D01*
X147741123Y-64195847D01*
X147774829Y-64567341D01*
G37*
G36*
X149802288Y-63095472D02*
G01*
X149928318Y-63181751D01*
X150014047Y-63310345D01*
X150042512Y-63454193D01*
X150042623Y-63464584D01*
X150015524Y-63620930D01*
X149943070Y-63754109D01*
X149849916Y-63855861D01*
X149724966Y-63948211D01*
X149577107Y-64010290D01*
X149418339Y-64030983D01*
X149268312Y-64004788D01*
X149132658Y-63944929D01*
X149099602Y-63926203D01*
X149057836Y-63901290D01*
X148920568Y-63846963D01*
X148900300Y-63845603D01*
X148760341Y-63897986D01*
X148664361Y-63967236D01*
X148589623Y-64022923D01*
X148322177Y-64202442D01*
X148293600Y-63864654D01*
X148443810Y-63765736D01*
X148501695Y-63771598D01*
X148640112Y-63715543D01*
X148713359Y-63660223D01*
X149104731Y-63660223D01*
X149177660Y-63787889D01*
X149199986Y-63804570D01*
X149340312Y-63864076D01*
X149410279Y-63870516D01*
X149557235Y-63850442D01*
X149692099Y-63790219D01*
X149750265Y-63748883D01*
X149853949Y-63637265D01*
X149901347Y-63496993D01*
X149901939Y-63478506D01*
X149861548Y-63335349D01*
X149830132Y-63295324D01*
X149700491Y-63222767D01*
X149657941Y-63219120D01*
X149511055Y-63255103D01*
X149382266Y-63331176D01*
X149361186Y-63346615D01*
X149274724Y-63416957D01*
X149164660Y-63522853D01*
X149104731Y-63660223D01*
X148713359Y-63660223D01*
X148763468Y-63622378D01*
X148775003Y-63612595D01*
X149135505Y-63309979D01*
X149258614Y-63215190D01*
X149392268Y-63135369D01*
X149533652Y-63081917D01*
X149651346Y-63066713D01*
X149802288Y-63095472D01*
G37*
X141454819Y-69547618D02*
X140454819Y-69547618D01*
X140454819Y-69547618D02*
X141454819Y-68976190D01*
X141454819Y-68976190D02*
X140454819Y-68976190D01*
X140502438Y-67976190D02*
X140454819Y-68071428D01*
X140454819Y-68071428D02*
X140454819Y-68214285D01*
X140454819Y-68214285D02*
X140502438Y-68357142D01*
X140502438Y-68357142D02*
X140597676Y-68452380D01*
X140597676Y-68452380D02*
X140692914Y-68499999D01*
X140692914Y-68499999D02*
X140883390Y-68547618D01*
X140883390Y-68547618D02*
X141026247Y-68547618D01*
X141026247Y-68547618D02*
X141216723Y-68499999D01*
X141216723Y-68499999D02*
X141311961Y-68452380D01*
X141311961Y-68452380D02*
X141407200Y-68357142D01*
X141407200Y-68357142D02*
X141454819Y-68214285D01*
X141454819Y-68214285D02*
X141454819Y-68119047D01*
X141454819Y-68119047D02*
X141407200Y-67976190D01*
X141407200Y-67976190D02*
X141359580Y-67928571D01*
X141359580Y-67928571D02*
X141026247Y-67928571D01*
X141026247Y-67928571D02*
X141026247Y-68119047D01*
X140931009Y-67166666D02*
X140931009Y-67499999D01*
X141454819Y-67499999D02*
X140454819Y-67499999D01*
X140454819Y-67499999D02*
X140454819Y-67023809D01*
X140931009Y-66309523D02*
X140931009Y-66642856D01*
X141454819Y-66642856D02*
X140454819Y-66642856D01*
X140454819Y-66642856D02*
X140454819Y-66166666D01*
X140550057Y-65833332D02*
X140502438Y-65785713D01*
X140502438Y-65785713D02*
X140454819Y-65690475D01*
X140454819Y-65690475D02*
X140454819Y-65452380D01*
X140454819Y-65452380D02*
X140502438Y-65357142D01*
X140502438Y-65357142D02*
X140550057Y-65309523D01*
X140550057Y-65309523D02*
X140645295Y-65261904D01*
X140645295Y-65261904D02*
X140740533Y-65261904D01*
X140740533Y-65261904D02*
X140883390Y-65309523D01*
X140883390Y-65309523D02*
X141454819Y-65880951D01*
X141454819Y-65880951D02*
X141454819Y-65261904D01*
X140550057Y-64880951D02*
X140502438Y-64833332D01*
X140502438Y-64833332D02*
X140454819Y-64738094D01*
X140454819Y-64738094D02*
X140454819Y-64499999D01*
X140454819Y-64499999D02*
X140502438Y-64404761D01*
X140502438Y-64404761D02*
X140550057Y-64357142D01*
X140550057Y-64357142D02*
X140645295Y-64309523D01*
X140645295Y-64309523D02*
X140740533Y-64309523D01*
X140740533Y-64309523D02*
X140883390Y-64357142D01*
X140883390Y-64357142D02*
X141454819Y-64928570D01*
X141454819Y-64928570D02*
X141454819Y-64309523D01*
X140788152Y-63452380D02*
X141454819Y-63452380D01*
X140407200Y-63690475D02*
X141121485Y-63928570D01*
X141121485Y-63928570D02*
X141121485Y-63309523D01*
X140550057Y-62976189D02*
X140502438Y-62928570D01*
X140502438Y-62928570D02*
X140454819Y-62833332D01*
X140454819Y-62833332D02*
X140454819Y-62595237D01*
X140454819Y-62595237D02*
X140502438Y-62499999D01*
X140502438Y-62499999D02*
X140550057Y-62452380D01*
X140550057Y-62452380D02*
X140645295Y-62404761D01*
X140645295Y-62404761D02*
X140740533Y-62404761D01*
X140740533Y-62404761D02*
X140883390Y-62452380D01*
X140883390Y-62452380D02*
X141454819Y-63023808D01*
X141454819Y-63023808D02*
X141454819Y-62404761D01*
G36*
X134968803Y-78335834D02*
G01*
X135055603Y-78414724D01*
X135114594Y-78559345D01*
X135146393Y-78717381D01*
X135159651Y-78822121D01*
X135244647Y-79588555D01*
X135266263Y-79736749D01*
X135293007Y-79822295D01*
X135409511Y-79899965D01*
X135697473Y-82630844D01*
X135636153Y-82777710D01*
X135550378Y-82919356D01*
X135455264Y-83039013D01*
X135341427Y-83154673D01*
X135305464Y-83186985D01*
X135103883Y-80435589D01*
X135182365Y-80435589D01*
X135279818Y-80528646D01*
X135369944Y-80419469D01*
X135273956Y-80326413D01*
X135182365Y-80435589D01*
X135103883Y-80435589D01*
X135096636Y-80336671D01*
X135088576Y-80206978D01*
X135088576Y-80159351D01*
X135088576Y-80110258D01*
X135088576Y-80054570D01*
X135038498Y-79911628D01*
X134930307Y-79839881D01*
X134879748Y-79819364D01*
X134737263Y-79748474D01*
X134618928Y-79655331D01*
X134524743Y-79539933D01*
X134454708Y-79402282D01*
X134408824Y-79242377D01*
X134387089Y-79060218D01*
X134385157Y-78981123D01*
X134385701Y-78972330D01*
X134525840Y-78972330D01*
X134535752Y-79119967D01*
X134570012Y-79271636D01*
X134628745Y-79410282D01*
X134651137Y-79449337D01*
X134742127Y-79566144D01*
X134871957Y-79644683D01*
X134942763Y-79654501D01*
X135068071Y-79574072D01*
X135088576Y-79448604D01*
X135084180Y-79322575D01*
X135018234Y-78768632D01*
X134988236Y-78618097D01*
X134911754Y-78487633D01*
X134826259Y-78457222D01*
X134684236Y-78515898D01*
X134613035Y-78607431D01*
X134553429Y-78751567D01*
X134527969Y-78907007D01*
X134525840Y-78972330D01*
X134385701Y-78972330D01*
X134394952Y-78822660D01*
X134428812Y-78666440D01*
X134486858Y-78531115D01*
X134508988Y-78494591D01*
X134611238Y-78378946D01*
X134743171Y-78313896D01*
X134823328Y-78304815D01*
X134968803Y-78335834D01*
G37*
G36*
X135024829Y-80817341D02*
G01*
X134010000Y-81500976D01*
X134010000Y-81045952D01*
X134991123Y-80445847D01*
X135024829Y-80817341D01*
G37*
G36*
X137052288Y-79345472D02*
G01*
X137178318Y-79431751D01*
X137264047Y-79560345D01*
X137292512Y-79704193D01*
X137292623Y-79714584D01*
X137265524Y-79870930D01*
X137193070Y-80004109D01*
X137099916Y-80105861D01*
X136974966Y-80198211D01*
X136827107Y-80260290D01*
X136668339Y-80280983D01*
X136518312Y-80254788D01*
X136382658Y-80194929D01*
X136349602Y-80176203D01*
X136307836Y-80151290D01*
X136170568Y-80096963D01*
X136150300Y-80095603D01*
X136010341Y-80147986D01*
X135914361Y-80217236D01*
X135839623Y-80272923D01*
X135572177Y-80452442D01*
X135543600Y-80114654D01*
X135693810Y-80015736D01*
X135751695Y-80021598D01*
X135890112Y-79965543D01*
X135963359Y-79910223D01*
X136354731Y-79910223D01*
X136427660Y-80037889D01*
X136449986Y-80054570D01*
X136590312Y-80114076D01*
X136660279Y-80120516D01*
X136807235Y-80100442D01*
X136942099Y-80040219D01*
X137000265Y-79998883D01*
X137103949Y-79887265D01*
X137151347Y-79746993D01*
X137151939Y-79728506D01*
X137111548Y-79585349D01*
X137080132Y-79545324D01*
X136950491Y-79472767D01*
X136907941Y-79469120D01*
X136761055Y-79505103D01*
X136632266Y-79581176D01*
X136611186Y-79596615D01*
X136524724Y-79666957D01*
X136414660Y-79772853D01*
X136354731Y-79910223D01*
X135963359Y-79910223D01*
X136013468Y-79872378D01*
X136025003Y-79862595D01*
X136385505Y-79559979D01*
X136508614Y-79465190D01*
X136642268Y-79385369D01*
X136783652Y-79331917D01*
X136901346Y-79316713D01*
X137052288Y-79345472D01*
G37*
X104033333Y-62109580D02*
X103985714Y-62157200D01*
X103985714Y-62157200D02*
X103842857Y-62204819D01*
X103842857Y-62204819D02*
X103747619Y-62204819D01*
X103747619Y-62204819D02*
X103604762Y-62157200D01*
X103604762Y-62157200D02*
X103509524Y-62061961D01*
X103509524Y-62061961D02*
X103461905Y-61966723D01*
X103461905Y-61966723D02*
X103414286Y-61776247D01*
X103414286Y-61776247D02*
X103414286Y-61633390D01*
X103414286Y-61633390D02*
X103461905Y-61442914D01*
X103461905Y-61442914D02*
X103509524Y-61347676D01*
X103509524Y-61347676D02*
X103604762Y-61252438D01*
X103604762Y-61252438D02*
X103747619Y-61204819D01*
X103747619Y-61204819D02*
X103842857Y-61204819D01*
X103842857Y-61204819D02*
X103985714Y-61252438D01*
X103985714Y-61252438D02*
X104033333Y-61300057D01*
X104366667Y-61204819D02*
X104985714Y-61204819D01*
X104985714Y-61204819D02*
X104652381Y-61585771D01*
X104652381Y-61585771D02*
X104795238Y-61585771D01*
X104795238Y-61585771D02*
X104890476Y-61633390D01*
X104890476Y-61633390D02*
X104938095Y-61681009D01*
X104938095Y-61681009D02*
X104985714Y-61776247D01*
X104985714Y-61776247D02*
X104985714Y-62014342D01*
X104985714Y-62014342D02*
X104938095Y-62109580D01*
X104938095Y-62109580D02*
X104890476Y-62157200D01*
X104890476Y-62157200D02*
X104795238Y-62204819D01*
X104795238Y-62204819D02*
X104509524Y-62204819D01*
X104509524Y-62204819D02*
X104414286Y-62157200D01*
X104414286Y-62157200D02*
X104366667Y-62109580D01*
X95411905Y-84754819D02*
X95411905Y-83754819D01*
X95411905Y-83754819D02*
X95650000Y-83754819D01*
X95650000Y-83754819D02*
X95792857Y-83802438D01*
X95792857Y-83802438D02*
X95888095Y-83897676D01*
X95888095Y-83897676D02*
X95935714Y-83992914D01*
X95935714Y-83992914D02*
X95983333Y-84183390D01*
X95983333Y-84183390D02*
X95983333Y-84326247D01*
X95983333Y-84326247D02*
X95935714Y-84516723D01*
X95935714Y-84516723D02*
X95888095Y-84611961D01*
X95888095Y-84611961D02*
X95792857Y-84707200D01*
X95792857Y-84707200D02*
X95650000Y-84754819D01*
X95650000Y-84754819D02*
X95411905Y-84754819D01*
X96364286Y-83850057D02*
X96411905Y-83802438D01*
X96411905Y-83802438D02*
X96507143Y-83754819D01*
X96507143Y-83754819D02*
X96745238Y-83754819D01*
X96745238Y-83754819D02*
X96840476Y-83802438D01*
X96840476Y-83802438D02*
X96888095Y-83850057D01*
X96888095Y-83850057D02*
X96935714Y-83945295D01*
X96935714Y-83945295D02*
X96935714Y-84040533D01*
X96935714Y-84040533D02*
X96888095Y-84183390D01*
X96888095Y-84183390D02*
X96316667Y-84754819D01*
X96316667Y-84754819D02*
X96935714Y-84754819D01*
X90623333Y-62504819D02*
X90290000Y-62028628D01*
X90051905Y-62504819D02*
X90051905Y-61504819D01*
X90051905Y-61504819D02*
X90432857Y-61504819D01*
X90432857Y-61504819D02*
X90528095Y-61552438D01*
X90528095Y-61552438D02*
X90575714Y-61600057D01*
X90575714Y-61600057D02*
X90623333Y-61695295D01*
X90623333Y-61695295D02*
X90623333Y-61838152D01*
X90623333Y-61838152D02*
X90575714Y-61933390D01*
X90575714Y-61933390D02*
X90528095Y-61981009D01*
X90528095Y-61981009D02*
X90432857Y-62028628D01*
X90432857Y-62028628D02*
X90051905Y-62028628D01*
X91004286Y-61600057D02*
X91051905Y-61552438D01*
X91051905Y-61552438D02*
X91147143Y-61504819D01*
X91147143Y-61504819D02*
X91385238Y-61504819D01*
X91385238Y-61504819D02*
X91480476Y-61552438D01*
X91480476Y-61552438D02*
X91528095Y-61600057D01*
X91528095Y-61600057D02*
X91575714Y-61695295D01*
X91575714Y-61695295D02*
X91575714Y-61790533D01*
X91575714Y-61790533D02*
X91528095Y-61933390D01*
X91528095Y-61933390D02*
X90956667Y-62504819D01*
X90956667Y-62504819D02*
X91575714Y-62504819D01*
X95783333Y-60409580D02*
X95735714Y-60457200D01*
X95735714Y-60457200D02*
X95592857Y-60504819D01*
X95592857Y-60504819D02*
X95497619Y-60504819D01*
X95497619Y-60504819D02*
X95354762Y-60457200D01*
X95354762Y-60457200D02*
X95259524Y-60361961D01*
X95259524Y-60361961D02*
X95211905Y-60266723D01*
X95211905Y-60266723D02*
X95164286Y-60076247D01*
X95164286Y-60076247D02*
X95164286Y-59933390D01*
X95164286Y-59933390D02*
X95211905Y-59742914D01*
X95211905Y-59742914D02*
X95259524Y-59647676D01*
X95259524Y-59647676D02*
X95354762Y-59552438D01*
X95354762Y-59552438D02*
X95497619Y-59504819D01*
X95497619Y-59504819D02*
X95592857Y-59504819D01*
X95592857Y-59504819D02*
X95735714Y-59552438D01*
X95735714Y-59552438D02*
X95783333Y-59600057D01*
X96735714Y-60504819D02*
X96164286Y-60504819D01*
X96450000Y-60504819D02*
X96450000Y-59504819D01*
X96450000Y-59504819D02*
X96354762Y-59647676D01*
X96354762Y-59647676D02*
X96259524Y-59742914D01*
X96259524Y-59742914D02*
X96164286Y-59790533D01*
X104295833Y-84679580D02*
X104248214Y-84727200D01*
X104248214Y-84727200D02*
X104105357Y-84774819D01*
X104105357Y-84774819D02*
X104010119Y-84774819D01*
X104010119Y-84774819D02*
X103867262Y-84727200D01*
X103867262Y-84727200D02*
X103772024Y-84631961D01*
X103772024Y-84631961D02*
X103724405Y-84536723D01*
X103724405Y-84536723D02*
X103676786Y-84346247D01*
X103676786Y-84346247D02*
X103676786Y-84203390D01*
X103676786Y-84203390D02*
X103724405Y-84012914D01*
X103724405Y-84012914D02*
X103772024Y-83917676D01*
X103772024Y-83917676D02*
X103867262Y-83822438D01*
X103867262Y-83822438D02*
X104010119Y-83774819D01*
X104010119Y-83774819D02*
X104105357Y-83774819D01*
X104105357Y-83774819D02*
X104248214Y-83822438D01*
X104248214Y-83822438D02*
X104295833Y-83870057D01*
X105200595Y-83774819D02*
X104724405Y-83774819D01*
X104724405Y-83774819D02*
X104676786Y-84251009D01*
X104676786Y-84251009D02*
X104724405Y-84203390D01*
X104724405Y-84203390D02*
X104819643Y-84155771D01*
X104819643Y-84155771D02*
X105057738Y-84155771D01*
X105057738Y-84155771D02*
X105152976Y-84203390D01*
X105152976Y-84203390D02*
X105200595Y-84251009D01*
X105200595Y-84251009D02*
X105248214Y-84346247D01*
X105248214Y-84346247D02*
X105248214Y-84584342D01*
X105248214Y-84584342D02*
X105200595Y-84679580D01*
X105200595Y-84679580D02*
X105152976Y-84727200D01*
X105152976Y-84727200D02*
X105057738Y-84774819D01*
X105057738Y-84774819D02*
X104819643Y-84774819D01*
X104819643Y-84774819D02*
X104724405Y-84727200D01*
X104724405Y-84727200D02*
X104676786Y-84679580D01*
X100033333Y-84659580D02*
X99985714Y-84707200D01*
X99985714Y-84707200D02*
X99842857Y-84754819D01*
X99842857Y-84754819D02*
X99747619Y-84754819D01*
X99747619Y-84754819D02*
X99604762Y-84707200D01*
X99604762Y-84707200D02*
X99509524Y-84611961D01*
X99509524Y-84611961D02*
X99461905Y-84516723D01*
X99461905Y-84516723D02*
X99414286Y-84326247D01*
X99414286Y-84326247D02*
X99414286Y-84183390D01*
X99414286Y-84183390D02*
X99461905Y-83992914D01*
X99461905Y-83992914D02*
X99509524Y-83897676D01*
X99509524Y-83897676D02*
X99604762Y-83802438D01*
X99604762Y-83802438D02*
X99747619Y-83754819D01*
X99747619Y-83754819D02*
X99842857Y-83754819D01*
X99842857Y-83754819D02*
X99985714Y-83802438D01*
X99985714Y-83802438D02*
X100033333Y-83850057D01*
X100890476Y-83754819D02*
X100700000Y-83754819D01*
X100700000Y-83754819D02*
X100604762Y-83802438D01*
X100604762Y-83802438D02*
X100557143Y-83850057D01*
X100557143Y-83850057D02*
X100461905Y-83992914D01*
X100461905Y-83992914D02*
X100414286Y-84183390D01*
X100414286Y-84183390D02*
X100414286Y-84564342D01*
X100414286Y-84564342D02*
X100461905Y-84659580D01*
X100461905Y-84659580D02*
X100509524Y-84707200D01*
X100509524Y-84707200D02*
X100604762Y-84754819D01*
X100604762Y-84754819D02*
X100795238Y-84754819D01*
X100795238Y-84754819D02*
X100890476Y-84707200D01*
X100890476Y-84707200D02*
X100938095Y-84659580D01*
X100938095Y-84659580D02*
X100985714Y-84564342D01*
X100985714Y-84564342D02*
X100985714Y-84326247D01*
X100985714Y-84326247D02*
X100938095Y-84231009D01*
X100938095Y-84231009D02*
X100890476Y-84183390D01*
X100890476Y-84183390D02*
X100795238Y-84135771D01*
X100795238Y-84135771D02*
X100604762Y-84135771D01*
X100604762Y-84135771D02*
X100509524Y-84183390D01*
X100509524Y-84183390D02*
X100461905Y-84231009D01*
X100461905Y-84231009D02*
X100414286Y-84326247D01*
X90283333Y-84804819D02*
X89950000Y-84328628D01*
X89711905Y-84804819D02*
X89711905Y-83804819D01*
X89711905Y-83804819D02*
X90092857Y-83804819D01*
X90092857Y-83804819D02*
X90188095Y-83852438D01*
X90188095Y-83852438D02*
X90235714Y-83900057D01*
X90235714Y-83900057D02*
X90283333Y-83995295D01*
X90283333Y-83995295D02*
X90283333Y-84138152D01*
X90283333Y-84138152D02*
X90235714Y-84233390D01*
X90235714Y-84233390D02*
X90188095Y-84281009D01*
X90188095Y-84281009D02*
X90092857Y-84328628D01*
X90092857Y-84328628D02*
X89711905Y-84328628D01*
X90616667Y-83804819D02*
X91235714Y-83804819D01*
X91235714Y-83804819D02*
X90902381Y-84185771D01*
X90902381Y-84185771D02*
X91045238Y-84185771D01*
X91045238Y-84185771D02*
X91140476Y-84233390D01*
X91140476Y-84233390D02*
X91188095Y-84281009D01*
X91188095Y-84281009D02*
X91235714Y-84376247D01*
X91235714Y-84376247D02*
X91235714Y-84614342D01*
X91235714Y-84614342D02*
X91188095Y-84709580D01*
X91188095Y-84709580D02*
X91140476Y-84757200D01*
X91140476Y-84757200D02*
X91045238Y-84804819D01*
X91045238Y-84804819D02*
X90759524Y-84804819D01*
X90759524Y-84804819D02*
X90664286Y-84757200D01*
X90664286Y-84757200D02*
X90616667Y-84709580D01*
X85216300Y-73761904D02*
X86025823Y-73761904D01*
X86025823Y-73761904D02*
X86121061Y-73714285D01*
X86121061Y-73714285D02*
X86168681Y-73666666D01*
X86168681Y-73666666D02*
X86216300Y-73571428D01*
X86216300Y-73571428D02*
X86216300Y-73380952D01*
X86216300Y-73380952D02*
X86168681Y-73285714D01*
X86168681Y-73285714D02*
X86121061Y-73238095D01*
X86121061Y-73238095D02*
X86025823Y-73190476D01*
X86025823Y-73190476D02*
X85216300Y-73190476D01*
X86216300Y-72190476D02*
X86216300Y-72761904D01*
X86216300Y-72476190D02*
X85216300Y-72476190D01*
X85216300Y-72476190D02*
X85359157Y-72571428D01*
X85359157Y-72571428D02*
X85454395Y-72666666D01*
X85454395Y-72666666D02*
X85502014Y-72761904D01*
X97359580Y-74214285D02*
X97407200Y-74261904D01*
X97407200Y-74261904D02*
X97454819Y-74404761D01*
X97454819Y-74404761D02*
X97454819Y-74499999D01*
X97454819Y-74499999D02*
X97407200Y-74642856D01*
X97407200Y-74642856D02*
X97311961Y-74738094D01*
X97311961Y-74738094D02*
X97216723Y-74785713D01*
X97216723Y-74785713D02*
X97026247Y-74833332D01*
X97026247Y-74833332D02*
X96883390Y-74833332D01*
X96883390Y-74833332D02*
X96692914Y-74785713D01*
X96692914Y-74785713D02*
X96597676Y-74738094D01*
X96597676Y-74738094D02*
X96502438Y-74642856D01*
X96502438Y-74642856D02*
X96454819Y-74499999D01*
X96454819Y-74499999D02*
X96454819Y-74404761D01*
X96454819Y-74404761D02*
X96502438Y-74261904D01*
X96502438Y-74261904D02*
X96550057Y-74214285D01*
X96454819Y-73595237D02*
X96454819Y-73404761D01*
X96454819Y-73404761D02*
X96502438Y-73309523D01*
X96502438Y-73309523D02*
X96597676Y-73214285D01*
X96597676Y-73214285D02*
X96788152Y-73166666D01*
X96788152Y-73166666D02*
X97121485Y-73166666D01*
X97121485Y-73166666D02*
X97311961Y-73214285D01*
X97311961Y-73214285D02*
X97407200Y-73309523D01*
X97407200Y-73309523D02*
X97454819Y-73404761D01*
X97454819Y-73404761D02*
X97454819Y-73595237D01*
X97454819Y-73595237D02*
X97407200Y-73690475D01*
X97407200Y-73690475D02*
X97311961Y-73785713D01*
X97311961Y-73785713D02*
X97121485Y-73833332D01*
X97121485Y-73833332D02*
X96788152Y-73833332D01*
X96788152Y-73833332D02*
X96597676Y-73785713D01*
X96597676Y-73785713D02*
X96502438Y-73690475D01*
X96502438Y-73690475D02*
X96454819Y-73595237D01*
X97454819Y-72738094D02*
X96454819Y-72738094D01*
X96454819Y-72738094D02*
X97454819Y-72166666D01*
X97454819Y-72166666D02*
X96454819Y-72166666D01*
X97454819Y-71166666D02*
X97454819Y-71738094D01*
X97454819Y-71452380D02*
X96454819Y-71452380D01*
X96454819Y-71452380D02*
X96597676Y-71547618D01*
X96597676Y-71547618D02*
X96692914Y-71642856D01*
X96692914Y-71642856D02*
X96740533Y-71738094D01*
D14*
%TO.C,G\u002A\u002A\u002A*%
G36*
X113322617Y-67589661D02*
G01*
X113326919Y-67610408D01*
X113328064Y-67653685D01*
X113325884Y-67722267D01*
X113320210Y-67818929D01*
X113310873Y-67946444D01*
X113297705Y-68107588D01*
X113280536Y-68305136D01*
X113276049Y-68355514D01*
X113277854Y-68398025D01*
X113300730Y-68421085D01*
X113335800Y-68433468D01*
X113400851Y-68452151D01*
X113400851Y-68701787D01*
X113400851Y-68951423D01*
X113355816Y-68937464D01*
X113292128Y-68918147D01*
X113253258Y-68912934D01*
X113232029Y-68927954D01*
X113221267Y-68969335D01*
X113213798Y-69043205D01*
X113212282Y-69060069D01*
X113192295Y-69287424D01*
X113190686Y-69307605D01*
X113175820Y-69494066D01*
X113162440Y-69688524D01*
X113151739Y-69879327D01*
X113143303Y-70075005D01*
X113136715Y-70284086D01*
X113131560Y-70515098D01*
X113127423Y-70776573D01*
X113126969Y-70810869D01*
X113123904Y-71131217D01*
X113123646Y-71425507D01*
X113126479Y-71702903D01*
X113132687Y-71972572D01*
X113142551Y-72243679D01*
X113156357Y-72525388D01*
X113174387Y-72826865D01*
X113196925Y-73157276D01*
X113201452Y-73220119D01*
X113214265Y-73393902D01*
X113226319Y-73550183D01*
X113238328Y-73696810D01*
X113251011Y-73841632D01*
X113265085Y-73992497D01*
X113281265Y-74157255D01*
X113300270Y-74343754D01*
X113322815Y-74559843D01*
X113330336Y-74631230D01*
X113358900Y-74883778D01*
X113394468Y-75168475D01*
X113435970Y-75478260D01*
X113482338Y-75806072D01*
X113532505Y-76144850D01*
X113585402Y-76487533D01*
X113639961Y-76827061D01*
X113695113Y-77156372D01*
X113749790Y-77468406D01*
X113802925Y-77756103D01*
X113803750Y-77760433D01*
X113823523Y-77870072D01*
X113838987Y-77967470D01*
X113849121Y-78045167D01*
X113852903Y-78095706D01*
X113851621Y-78110099D01*
X113848062Y-78130117D01*
X113854801Y-78127057D01*
X113865221Y-78137192D01*
X113878993Y-78176610D01*
X113893744Y-78234975D01*
X113907097Y-78301950D01*
X113916679Y-78367198D01*
X113920027Y-78410964D01*
X113917702Y-78439629D01*
X113901583Y-78450428D01*
X113861037Y-78447485D01*
X113836194Y-78443485D01*
X113754214Y-78427729D01*
X113702742Y-78408620D01*
X113687744Y-78393356D01*
X113672553Y-78377896D01*
X113671064Y-78373740D01*
X113654426Y-78327298D01*
X113643046Y-78270497D01*
X113599771Y-78027071D01*
X113570985Y-77860455D01*
X113561066Y-77803043D01*
X113550969Y-77742572D01*
X113534444Y-77643602D01*
X113560977Y-77643602D01*
X113570985Y-77653610D01*
X113580993Y-77643602D01*
X113661056Y-77643602D01*
X113671064Y-77653610D01*
X113681072Y-77643602D01*
X113671064Y-77633594D01*
X113661056Y-77643602D01*
X113580993Y-77643602D01*
X113570985Y-77633594D01*
X113560977Y-77643602D01*
X113534444Y-77643602D01*
X113527356Y-77601154D01*
X113499063Y-77424148D01*
X113486982Y-77343768D01*
X113685348Y-77343768D01*
X113687744Y-77346701D01*
X113699643Y-77343954D01*
X113701088Y-77333357D01*
X113693764Y-77316882D01*
X113687744Y-77320014D01*
X113685348Y-77343768D01*
X113486982Y-77343768D01*
X113476611Y-77274767D01*
X113460421Y-77155754D01*
X113450918Y-77069852D01*
X113448525Y-77019802D01*
X113449103Y-77013105D01*
X113452284Y-76973917D01*
X113446541Y-76965214D01*
X113443513Y-76969081D01*
X113434396Y-76961524D01*
X113427539Y-76936818D01*
X113422091Y-76917188D01*
X113410859Y-76859322D01*
X113406947Y-76839168D01*
X113389311Y-76730560D01*
X113385344Y-76703263D01*
X113425143Y-76703263D01*
X113427539Y-76706197D01*
X113439438Y-76703449D01*
X113440883Y-76692853D01*
X113433559Y-76676378D01*
X113427539Y-76679509D01*
X113425143Y-76703263D01*
X113385344Y-76703263D01*
X113370828Y-76603365D01*
X113369534Y-76594460D01*
X113359891Y-76522719D01*
X113400851Y-76522719D01*
X113410859Y-76532727D01*
X113420867Y-76522719D01*
X113410859Y-76512711D01*
X113407523Y-76516047D01*
X113400851Y-76522719D01*
X113359891Y-76522719D01*
X113357201Y-76502703D01*
X113540962Y-76502703D01*
X113550969Y-76512711D01*
X113560977Y-76502703D01*
X113550969Y-76492695D01*
X113540962Y-76502703D01*
X113357201Y-76502703D01*
X113347962Y-76433964D01*
X113324945Y-76252167D01*
X113300831Y-76052165D01*
X113275968Y-75837054D01*
X113250706Y-75609929D01*
X113247397Y-75579073D01*
X113243459Y-75542349D01*
X113405128Y-75542349D01*
X113407523Y-75545283D01*
X113419422Y-75542535D01*
X113420867Y-75531939D01*
X113413544Y-75515464D01*
X113407523Y-75518595D01*
X113405128Y-75542349D01*
X113243459Y-75542349D01*
X113234830Y-75461884D01*
X113360820Y-75461884D01*
X113370828Y-75471892D01*
X113380835Y-75461884D01*
X113370828Y-75451876D01*
X113360820Y-75461884D01*
X113234830Y-75461884D01*
X113225393Y-75373887D01*
X113213833Y-75262128D01*
X113245002Y-75262128D01*
X113247397Y-75265062D01*
X113259296Y-75262315D01*
X113260741Y-75251718D01*
X113253417Y-75235243D01*
X113247397Y-75238374D01*
X113245002Y-75262128D01*
X113213833Y-75262128D01*
X113209651Y-75221695D01*
X113360820Y-75221695D01*
X113370828Y-75231702D01*
X113380835Y-75221695D01*
X113370828Y-75211687D01*
X113360820Y-75221695D01*
X113209651Y-75221695D01*
X113200376Y-75132023D01*
X113187350Y-75001287D01*
X113176006Y-74887433D01*
X113152629Y-74643212D01*
X113135861Y-74459995D01*
X113130595Y-74402456D01*
X113110253Y-74168261D01*
X113095144Y-73982904D01*
X113123775Y-73982904D01*
X113126973Y-73994478D01*
X113135861Y-74002060D01*
X113139066Y-73982385D01*
X113135386Y-73956425D01*
X113128553Y-73956115D01*
X113123775Y-73982904D01*
X113095144Y-73982904D01*
X113091950Y-73943723D01*
X113087271Y-73881454D01*
X113076036Y-73731937D01*
X113071030Y-73660465D01*
X113068866Y-73620836D01*
X113184954Y-73620836D01*
X113187350Y-73623770D01*
X113199249Y-73621022D01*
X113200694Y-73610426D01*
X113193370Y-73593951D01*
X113187350Y-73597082D01*
X113184954Y-73620836D01*
X113068866Y-73620836D01*
X113033221Y-72968180D01*
X113012802Y-72256316D01*
X113009657Y-71535411D01*
X113023667Y-70816000D01*
X113054713Y-70108618D01*
X113055452Y-70098062D01*
X113084875Y-70098062D01*
X113087271Y-70100996D01*
X113099170Y-70098248D01*
X113100615Y-70087652D01*
X113093291Y-70071177D01*
X113087271Y-70074308D01*
X113084875Y-70098062D01*
X113055452Y-70098062D01*
X113102678Y-69423803D01*
X113120873Y-69218714D01*
X113133184Y-69092319D01*
X113141697Y-68999692D01*
X113144500Y-68934614D01*
X113140324Y-68896714D01*
X113180678Y-68896714D01*
X113190686Y-68906722D01*
X113200694Y-68896714D01*
X113190686Y-68886706D01*
X113180678Y-68896714D01*
X113140324Y-68896714D01*
X113139679Y-68890865D01*
X113125322Y-68862226D01*
X113099516Y-68842477D01*
X113060349Y-68825400D01*
X113005907Y-68804774D01*
X112991849Y-68799207D01*
X112833044Y-68735340D01*
X112106151Y-69008998D01*
X111379259Y-69282656D01*
X111379259Y-69039491D01*
X111379259Y-68796326D01*
X111824610Y-68647978D01*
X111951213Y-68605504D01*
X112065069Y-68566734D01*
X112160686Y-68533582D01*
X112232576Y-68507965D01*
X112275246Y-68491801D01*
X112284552Y-68487426D01*
X112270480Y-68478345D01*
X112223151Y-68459364D01*
X112147600Y-68432251D01*
X112048864Y-68398772D01*
X111931980Y-68360695D01*
X111844205Y-68332922D01*
X111389267Y-68190620D01*
X111383667Y-67950626D01*
X111378066Y-67710632D01*
X111753958Y-67849825D01*
X111882736Y-67897590D01*
X112038082Y-67955337D01*
X112209080Y-68019000D01*
X112384812Y-68084511D01*
X112554362Y-68147806D01*
X112640252Y-68179912D01*
X112775982Y-68230386D01*
X112900277Y-68276054D01*
X113007963Y-68315059D01*
X113093864Y-68345545D01*
X113152807Y-68365654D01*
X113179615Y-68373530D01*
X113179849Y-68373556D01*
X113193570Y-68366268D01*
X113205270Y-68337975D01*
X113216173Y-68283309D01*
X113227509Y-68196903D01*
X113234142Y-68136115D01*
X113254177Y-67952007D01*
X113271801Y-67806647D01*
X113287207Y-67698837D01*
X113300591Y-67627381D01*
X113312145Y-67591080D01*
X113322063Y-67588736D01*
X113322617Y-67589661D01*
G37*
G36*
X112860426Y-69497187D02*
G01*
X112860426Y-69727368D01*
X112790371Y-69727368D01*
X112738756Y-69730143D01*
X112723922Y-69742959D01*
X112742753Y-69772551D01*
X112760433Y-69792120D01*
X112831248Y-69895815D01*
X112876965Y-70024542D01*
X112894211Y-70157707D01*
X112893919Y-70238438D01*
X112888608Y-70311523D01*
X112880217Y-70357865D01*
X112840513Y-70437251D01*
X112775683Y-70517433D01*
X112697914Y-70584703D01*
X112655668Y-70610409D01*
X112581578Y-70637939D01*
X112490820Y-70650282D01*
X112436689Y-70651626D01*
X112362957Y-70644851D01*
X112305482Y-70639570D01*
X112195648Y-70601986D01*
X112105574Y-70536746D01*
X112033649Y-70441723D01*
X111978262Y-70314792D01*
X111937800Y-70153825D01*
X111910735Y-69957550D01*
X111900603Y-69860622D01*
X111891521Y-69796607D01*
X111881551Y-69758496D01*
X111868757Y-69739283D01*
X111851201Y-69731959D01*
X111848241Y-69731482D01*
X111790261Y-69742002D01*
X111737410Y-69786077D01*
X111695826Y-69857242D01*
X111678962Y-69909736D01*
X111663062Y-70051013D01*
X111677333Y-70206930D01*
X111717373Y-70357171D01*
X111739534Y-70423753D01*
X111754812Y-70477036D01*
X111759559Y-70502285D01*
X111747849Y-70515463D01*
X111709331Y-70523607D01*
X111638925Y-70527450D01*
X111581683Y-70527999D01*
X111403808Y-70527999D01*
X111376522Y-70392892D01*
X111365975Y-70319584D01*
X111357327Y-70219299D01*
X111351455Y-70105080D01*
X111349237Y-69989968D01*
X111349236Y-69987573D01*
X111353266Y-69824943D01*
X111363190Y-69727368D01*
X112167525Y-69727368D01*
X112182170Y-69864422D01*
X112202897Y-69990609D01*
X112234214Y-70086812D01*
X112274675Y-70149231D01*
X112296974Y-70166104D01*
X112362957Y-70184712D01*
X112440199Y-70184397D01*
X112502587Y-70166407D01*
X112547914Y-70120978D01*
X112573337Y-70049983D01*
X112577870Y-69963137D01*
X112560527Y-69870155D01*
X112538388Y-69813751D01*
X112496571Y-69727368D01*
X112332048Y-69727368D01*
X112167525Y-69727368D01*
X111363190Y-69727368D01*
X111366534Y-69694486D01*
X111390806Y-69589045D01*
X111427846Y-69501464D01*
X111479420Y-69424588D01*
X111491815Y-69409657D01*
X111527090Y-69371193D01*
X111563239Y-69340307D01*
X111604952Y-69316175D01*
X111656920Y-69297973D01*
X111723834Y-69284876D01*
X111810387Y-69276060D01*
X111921268Y-69270701D01*
X112061170Y-69267973D01*
X112234782Y-69267053D01*
X112303550Y-69267006D01*
X112860426Y-69267006D01*
X112860426Y-69497187D01*
G37*
G36*
X111648806Y-76783561D02*
G01*
X111731124Y-76802250D01*
X111809845Y-76830713D01*
X111874841Y-76870592D01*
X111943030Y-76932511D01*
X111950136Y-76939769D01*
X112005533Y-77002222D01*
X112047895Y-77065504D01*
X112079268Y-77136612D01*
X112101693Y-77222542D01*
X112117213Y-77330292D01*
X112127872Y-77466858D01*
X112132772Y-77565258D01*
X112146075Y-77873783D01*
X112503250Y-77873783D01*
X112860426Y-77873783D01*
X112860431Y-78068937D01*
X112860436Y-78264090D01*
X111889666Y-78258711D01*
X111531436Y-78256726D01*
X110918897Y-78253331D01*
X110919049Y-77858396D01*
X110920694Y-77650209D01*
X110921266Y-77631615D01*
X111259165Y-77631615D01*
X111259165Y-77873783D01*
X111531436Y-77873783D01*
X111803707Y-77873783D01*
X111796138Y-77628590D01*
X111788954Y-77490170D01*
X111777174Y-77389701D01*
X111760905Y-77328059D01*
X111759052Y-77324097D01*
X111722623Y-77273709D01*
X111670447Y-77225145D01*
X111659480Y-77217246D01*
X111574140Y-77181344D01*
X111483909Y-77180101D01*
X111398123Y-77210761D01*
X111326123Y-77270567D01*
X111289851Y-77326374D01*
X111274892Y-77371781D01*
X111265243Y-77439038D01*
X111260250Y-77534656D01*
X111259165Y-77631615D01*
X110921266Y-77631615D01*
X110926001Y-77477548D01*
X110935792Y-77336006D01*
X110950888Y-77221177D01*
X110972111Y-77128656D01*
X111000283Y-77054037D01*
X111036225Y-76992914D01*
X111080758Y-76940882D01*
X111092202Y-76929832D01*
X111207074Y-76848648D01*
X111343446Y-76796147D01*
X111493347Y-76773920D01*
X111648806Y-76783561D01*
G37*
G36*
X112442491Y-73303800D02*
G01*
X112560335Y-73344463D01*
X112658288Y-73415894D01*
X112741117Y-73521275D01*
X112794291Y-73620434D01*
X112850418Y-73740528D01*
X112856581Y-74295966D01*
X112862745Y-74851403D01*
X112258182Y-74851403D01*
X111879118Y-74851403D01*
X111469330Y-74851403D01*
X110895492Y-74851403D01*
X110903448Y-74315981D01*
X110905223Y-74213886D01*
X111259165Y-74213886D01*
X111259165Y-74351009D01*
X111469330Y-74351009D01*
X111679496Y-74351009D01*
X112016222Y-74351009D01*
X112258182Y-74351009D01*
X112500142Y-74351009D01*
X112500142Y-74158581D01*
X112498612Y-74061365D01*
X112492801Y-73992834D01*
X112480880Y-73941717D01*
X112461019Y-73896743D01*
X112456221Y-73888006D01*
X112399039Y-73822224D01*
X112323237Y-73783502D01*
X112239177Y-73772675D01*
X112157221Y-73790579D01*
X112087730Y-73838048D01*
X112071721Y-73857015D01*
X112052312Y-73888984D01*
X112039173Y-73928782D01*
X112030717Y-73985374D01*
X112025356Y-74067723D01*
X112022997Y-74132232D01*
X112016222Y-74351009D01*
X111679496Y-74351009D01*
X111679465Y-74215903D01*
X111670680Y-74098156D01*
X111644977Y-74011831D01*
X111644437Y-74010741D01*
X111590330Y-73942795D01*
X111516439Y-73905201D01*
X111432486Y-73901253D01*
X111374854Y-73919353D01*
X111321951Y-73954286D01*
X111287009Y-74004325D01*
X111267153Y-74076788D01*
X111259509Y-74178997D01*
X111259165Y-74213886D01*
X110905223Y-74213886D01*
X110906511Y-74139822D01*
X110910438Y-73998391D01*
X110916033Y-73886382D01*
X110924106Y-73798494D01*
X110935462Y-73729420D01*
X110950910Y-73673858D01*
X110971257Y-73626503D01*
X110997309Y-73582051D01*
X111020240Y-73548603D01*
X111097493Y-73472322D01*
X111195792Y-73422920D01*
X111306910Y-73399971D01*
X111422618Y-73403047D01*
X111534689Y-73431722D01*
X111634897Y-73485570D01*
X111715013Y-73564163D01*
X111729535Y-73585382D01*
X111758345Y-73626773D01*
X111778905Y-73648687D01*
X111781410Y-73649686D01*
X111793870Y-73632976D01*
X111810949Y-73590146D01*
X111817242Y-73570392D01*
X111858776Y-73484665D01*
X111924913Y-73404609D01*
X112003989Y-73342134D01*
X112069803Y-73312515D01*
X112130987Y-73301382D01*
X112214064Y-73293548D01*
X112299984Y-73290725D01*
X112442491Y-73303800D01*
G37*
G36*
X111234145Y-70638892D02*
G01*
X111339929Y-70666154D01*
X111476289Y-70701172D01*
X111635002Y-70741842D01*
X111807846Y-70786058D01*
X111986599Y-70831717D01*
X112163037Y-70876714D01*
X112214917Y-70889929D01*
X112860426Y-71054311D01*
X112860369Y-71326576D01*
X112860312Y-71598842D01*
X112284916Y-71746749D01*
X112139022Y-71784578D01*
X112005672Y-71819781D01*
X111889815Y-71851001D01*
X111796398Y-71876882D01*
X111730369Y-71896069D01*
X111696677Y-71907205D01*
X111693582Y-71908801D01*
X111707522Y-71917412D01*
X111755231Y-71933978D01*
X111831581Y-71956997D01*
X111931445Y-71984965D01*
X112049694Y-72016377D01*
X112133929Y-72037916D01*
X112272061Y-72072762D01*
X112405201Y-72106424D01*
X112525751Y-72136975D01*
X112626109Y-72162488D01*
X112698679Y-72181035D01*
X112720315Y-72186614D01*
X112850418Y-72220343D01*
X112855971Y-72492712D01*
X112861525Y-72765082D01*
X112705853Y-72806604D01*
X112652667Y-72820533D01*
X112565719Y-72842992D01*
X112450057Y-72872689D01*
X112310729Y-72908335D01*
X112152783Y-72948637D01*
X111981264Y-72992307D01*
X111801221Y-73038053D01*
X111724531Y-73057510D01*
X110898881Y-73266895D01*
X110898881Y-73008322D01*
X110899604Y-72911850D01*
X110901582Y-72831730D01*
X110904527Y-72775416D01*
X110908153Y-72750363D01*
X110908840Y-72749748D01*
X110931914Y-72745834D01*
X110988080Y-72734873D01*
X111071709Y-72718041D01*
X111177173Y-72696512D01*
X111298843Y-72671461D01*
X111431090Y-72644062D01*
X111568285Y-72615490D01*
X111704802Y-72586920D01*
X111835009Y-72559527D01*
X111953280Y-72534484D01*
X112053985Y-72512966D01*
X112131496Y-72496149D01*
X112180185Y-72485206D01*
X112194699Y-72481406D01*
X112177603Y-72475257D01*
X112126315Y-72460747D01*
X112045507Y-72439101D01*
X111939854Y-72411547D01*
X111814030Y-72379313D01*
X111672707Y-72343624D01*
X111614857Y-72329149D01*
X111464591Y-72291595D01*
X111324214Y-72256418D01*
X111199188Y-72224994D01*
X111094974Y-72198699D01*
X111017033Y-72178909D01*
X110970826Y-72166999D01*
X110963932Y-72165159D01*
X110898881Y-72147394D01*
X110898881Y-71900134D01*
X110898881Y-71652874D01*
X111003964Y-71628575D01*
X111077955Y-71611318D01*
X111182420Y-71586754D01*
X111308902Y-71556887D01*
X111448942Y-71523724D01*
X111594081Y-71489270D01*
X111735862Y-71455532D01*
X111865826Y-71424514D01*
X111975515Y-71398223D01*
X111985643Y-71395786D01*
X112071422Y-71374629D01*
X112139981Y-71356734D01*
X112183767Y-71344141D01*
X112195808Y-71339062D01*
X112175229Y-71333432D01*
X112122367Y-71321017D01*
X112044091Y-71303374D01*
X111947270Y-71282064D01*
X111889661Y-71269574D01*
X111752059Y-71239768D01*
X111594095Y-71205358D01*
X111434485Y-71170428D01*
X111291944Y-71139068D01*
X111280848Y-71136617D01*
X111172497Y-71113169D01*
X111075944Y-71093203D01*
X110998845Y-71078230D01*
X110948854Y-71069761D01*
X110935576Y-71068424D01*
X110920502Y-71065403D01*
X110910215Y-71052107D01*
X110903815Y-71022189D01*
X110900398Y-70969300D01*
X110899062Y-70887093D01*
X110898881Y-70810330D01*
X110898881Y-70552235D01*
X111234145Y-70638892D01*
G37*
G36*
X111410942Y-75054670D02*
G01*
X111525154Y-75167867D01*
X111452750Y-75256226D01*
X111359201Y-75396533D01*
X111299840Y-75543477D01*
X111273886Y-75692115D01*
X111280561Y-75837508D01*
X111319087Y-75974712D01*
X111388683Y-76098788D01*
X111488571Y-76204792D01*
X111615156Y-76286410D01*
X111683043Y-76316490D01*
X111743969Y-76333397D01*
X111814640Y-76340470D01*
X111889661Y-76341291D01*
X112048299Y-76324654D01*
X112182575Y-76276639D01*
X112294532Y-76195956D01*
X112386211Y-76081315D01*
X112430364Y-75999889D01*
X112461321Y-75925733D01*
X112477851Y-75857426D01*
X112483724Y-75776192D01*
X112483917Y-75733188D01*
X112473341Y-75591693D01*
X112440412Y-75471381D01*
X112379957Y-75357277D01*
X112329942Y-75287656D01*
X112241393Y-75173476D01*
X112352450Y-75067483D01*
X112407354Y-75016940D01*
X112451741Y-74979494D01*
X112477401Y-74961994D01*
X112479490Y-74961490D01*
X112504722Y-74977335D01*
X112544194Y-75019382D01*
X112591736Y-75079395D01*
X112641174Y-75149141D01*
X112686337Y-75220386D01*
X112719556Y-75281742D01*
X112783807Y-75460552D01*
X112814953Y-75655035D01*
X112812069Y-75857051D01*
X112796871Y-75962074D01*
X112752464Y-76108921D01*
X112678898Y-76255027D01*
X112584339Y-76385178D01*
X112550236Y-76421715D01*
X112407797Y-76537350D01*
X112247559Y-76620968D01*
X112075387Y-76672396D01*
X111897145Y-76691462D01*
X111718698Y-76677993D01*
X111545910Y-76631815D01*
X111384645Y-76552757D01*
X111261146Y-76459698D01*
X111133444Y-76318463D01*
X111037798Y-76158365D01*
X110974432Y-75984818D01*
X110943572Y-75803236D01*
X110945441Y-75619033D01*
X110980265Y-75437621D01*
X111048269Y-75264416D01*
X111149677Y-75104830D01*
X111202319Y-75043130D01*
X111296729Y-74941474D01*
X111410942Y-75054670D01*
G37*
D15*
%TO.C,C3*%
X104201248Y-59265000D02*
X104723752Y-59265000D01*
X104201248Y-60735000D02*
X104723752Y-60735000D01*
%TO.C,D2*%
X93500000Y-86960000D02*
X96185000Y-86960000D01*
X96185000Y-85040000D02*
X93500000Y-85040000D01*
X96185000Y-86960000D02*
X96185000Y-85040000D01*
%TO.C,R2*%
X89865000Y-64322936D02*
X89865000Y-64777064D01*
X91335000Y-64322936D02*
X91335000Y-64777064D01*
%TO.C,C1*%
X100148752Y-59090000D02*
X98726248Y-59090000D01*
X100148752Y-60910000D02*
X98726248Y-60910000D01*
D14*
%TO.C,G\u002A\u002A\u002A*%
G36*
X116822600Y-71896526D02*
G01*
X116830568Y-71926656D01*
X116808055Y-71971815D01*
X116784588Y-71972636D01*
X116733457Y-71934097D01*
X116726955Y-71887700D01*
X116769262Y-71865350D01*
X116822600Y-71896526D01*
G37*
G36*
X116822600Y-74568172D02*
G01*
X116830568Y-74598303D01*
X116808055Y-74643461D01*
X116784588Y-74644282D01*
X116733457Y-74605743D01*
X116726955Y-74559347D01*
X116769262Y-74536997D01*
X116822600Y-74568172D01*
G37*
G36*
X116822600Y-76233111D02*
G01*
X116830568Y-76263242D01*
X116808055Y-76308400D01*
X116784588Y-76309221D01*
X116733457Y-76270682D01*
X116726955Y-76224286D01*
X116769262Y-76201936D01*
X116822600Y-76233111D01*
G37*
G36*
X116822600Y-77627013D02*
G01*
X116830568Y-77657144D01*
X116808055Y-77702302D01*
X116784588Y-77703124D01*
X116733457Y-77664584D01*
X116726955Y-77618188D01*
X116769262Y-77595838D01*
X116822600Y-77627013D01*
G37*
G36*
X116017458Y-72388064D02*
G01*
X116017458Y-72794619D01*
X115881940Y-72794619D01*
X115746421Y-72794619D01*
X115746421Y-72388064D01*
X115746421Y-71981509D01*
X115881940Y-71981509D01*
X116017458Y-71981509D01*
X116017458Y-72388064D01*
G37*
G36*
X116365933Y-82338979D02*
G01*
X116365933Y-82706814D01*
X116172336Y-82706814D01*
X115978738Y-82706814D01*
X115978738Y-82338979D01*
X115978738Y-81971143D01*
X116172336Y-81971143D01*
X116365933Y-81971143D01*
X116365933Y-82338979D01*
G37*
G36*
X117140324Y-82341100D02*
G01*
X117140324Y-82711057D01*
X116956406Y-82699256D01*
X116772488Y-82687454D01*
X116761355Y-82329299D01*
X116750223Y-81971143D01*
X116945273Y-81971143D01*
X117140324Y-81971143D01*
X117140324Y-82341100D01*
G37*
G36*
X117036522Y-71915563D02*
G01*
X117082256Y-71921408D01*
X117234458Y-71947738D01*
X117323868Y-71974095D01*
X117364913Y-72006291D01*
X117372641Y-72038345D01*
X117356737Y-72063390D01*
X117299100Y-72066888D01*
X117184845Y-72049145D01*
X117152895Y-72042876D01*
X117017994Y-72007088D01*
X116934360Y-71968645D01*
X116906539Y-71935365D01*
X116939078Y-71915065D01*
X117036522Y-71915563D01*
G37*
G36*
X117036522Y-74587210D02*
G01*
X117082256Y-74593054D01*
X117234458Y-74619384D01*
X117323868Y-74645742D01*
X117364913Y-74677937D01*
X117372641Y-74709991D01*
X117356737Y-74735036D01*
X117299100Y-74738534D01*
X117184845Y-74720792D01*
X117152895Y-74714522D01*
X117017994Y-74678734D01*
X116934360Y-74640291D01*
X116906539Y-74607011D01*
X116939078Y-74586711D01*
X117036522Y-74587210D01*
G37*
G36*
X117036522Y-76252149D02*
G01*
X117082256Y-76257993D01*
X117234458Y-76284323D01*
X117323868Y-76310681D01*
X117364913Y-76342876D01*
X117372641Y-76374930D01*
X117356737Y-76399975D01*
X117299100Y-76403473D01*
X117184845Y-76385731D01*
X117152895Y-76379461D01*
X117017994Y-76343673D01*
X116934360Y-76305230D01*
X116906539Y-76271950D01*
X116939078Y-76251650D01*
X117036522Y-76252149D01*
G37*
G36*
X117036522Y-77646051D02*
G01*
X117082256Y-77651895D01*
X117234458Y-77678226D01*
X117323868Y-77704583D01*
X117364913Y-77736779D01*
X117372641Y-77768833D01*
X117356737Y-77793878D01*
X117299100Y-77797376D01*
X117184845Y-77779633D01*
X117152895Y-77773364D01*
X117017994Y-77737576D01*
X116934360Y-77699133D01*
X116906539Y-77665853D01*
X116939078Y-77645553D01*
X117036522Y-77646051D01*
G37*
G36*
X117183310Y-68949583D02*
G01*
X117288082Y-68980866D01*
X117355257Y-69020655D01*
X117364883Y-69034911D01*
X117360554Y-69065400D01*
X117309401Y-69072975D01*
X117203342Y-69060950D01*
X117024165Y-69034081D01*
X117024165Y-69155839D01*
X117009227Y-69241458D01*
X116975253Y-69262123D01*
X116938507Y-69221806D01*
X116915709Y-69129345D01*
X116926398Y-69013269D01*
X116989563Y-68950489D01*
X117108757Y-68938619D01*
X117183310Y-68949583D01*
G37*
G36*
X116822218Y-69276354D02*
G01*
X116940614Y-69295043D01*
X117117675Y-69331525D01*
X117285522Y-69368993D01*
X117353528Y-69403952D01*
X117372641Y-69440571D01*
X117359553Y-69463889D01*
X117311383Y-69470080D01*
X117214774Y-69458660D01*
X117056366Y-69429143D01*
X117056075Y-69429085D01*
X116908892Y-69394695D01*
X116793972Y-69358499D01*
X116730264Y-69326802D01*
X116723733Y-69318474D01*
X116723305Y-69288926D01*
X116752958Y-69274600D01*
X116822218Y-69276354D01*
G37*
G36*
X115793313Y-69803536D02*
G01*
X115804501Y-70142332D01*
X116201376Y-70153367D01*
X116598251Y-70164401D01*
X116598251Y-70303538D01*
X116598251Y-70442676D01*
X116182016Y-70423343D01*
X116003856Y-70412746D01*
X115849690Y-70399312D01*
X115739013Y-70384985D01*
X115696590Y-70374957D01*
X115610002Y-70305090D01*
X115552029Y-70176966D01*
X115520900Y-69984965D01*
X115514104Y-69795779D01*
X115514104Y-69464741D01*
X115648115Y-69464741D01*
X115782126Y-69464741D01*
X115793313Y-69803536D01*
G37*
G36*
X117359795Y-63996639D02*
G01*
X117371545Y-64062085D01*
X117349947Y-64125767D01*
X117332376Y-64141763D01*
X117274738Y-64148196D01*
X117167849Y-64139540D01*
X117035957Y-64120081D01*
X116903307Y-64094108D01*
X116794149Y-64065907D01*
X116732728Y-64039767D01*
X116728152Y-64034921D01*
X116719266Y-63991686D01*
X116766843Y-63974740D01*
X116877239Y-63983332D01*
X116992737Y-64003635D01*
X117139278Y-64027462D01*
X117221785Y-64027554D01*
X117248824Y-64008905D01*
X117294389Y-63970209D01*
X117317788Y-63966570D01*
X117359795Y-63996639D01*
G37*
G36*
X117359795Y-66358529D02*
G01*
X117371545Y-66423975D01*
X117349947Y-66487657D01*
X117332376Y-66503653D01*
X117274738Y-66510087D01*
X117167849Y-66501430D01*
X117035957Y-66481971D01*
X116903307Y-66455998D01*
X116794149Y-66427798D01*
X116732728Y-66401657D01*
X116728152Y-66396811D01*
X116719266Y-66353576D01*
X116766843Y-66336630D01*
X116877239Y-66345222D01*
X116992737Y-66365525D01*
X117139278Y-66389352D01*
X117221785Y-66389444D01*
X117248824Y-66370796D01*
X117294389Y-66332099D01*
X117317788Y-66328460D01*
X117359795Y-66358529D01*
G37*
G36*
X115436665Y-72388064D02*
G01*
X115436665Y-72910777D01*
X116017458Y-72910777D01*
X116598251Y-72910777D01*
X116598251Y-73046296D01*
X116598251Y-73181814D01*
X115943186Y-73181814D01*
X115722098Y-73180473D01*
X115525412Y-73176762D01*
X115367348Y-73171146D01*
X115262129Y-73164093D01*
X115226875Y-73158312D01*
X115203789Y-73139774D01*
X115187212Y-73097344D01*
X115176127Y-73020079D01*
X115169515Y-72897038D01*
X115166358Y-72717278D01*
X115165629Y-72500080D01*
X115165629Y-71865350D01*
X115301147Y-71865350D01*
X115436665Y-71865350D01*
X115436665Y-72388064D01*
G37*
G36*
X116992802Y-64192096D02*
G01*
X117018109Y-64263492D01*
X117024165Y-64335953D01*
X117033970Y-64429853D01*
X117076012Y-64475250D01*
X117130644Y-64492145D01*
X117263424Y-64523929D01*
X117336785Y-64549658D01*
X117367499Y-64577114D01*
X117372641Y-64604426D01*
X117342284Y-64640286D01*
X117285522Y-64636853D01*
X117122239Y-64596503D01*
X117019521Y-64557396D01*
X116961330Y-64509436D01*
X116931627Y-64442529D01*
X116924382Y-64409552D01*
X116913703Y-64301566D01*
X116921587Y-64219645D01*
X116922838Y-64216084D01*
X116957493Y-64172090D01*
X116992802Y-64192096D01*
G37*
G36*
X116992802Y-67638132D02*
G01*
X117018109Y-67709529D01*
X117024165Y-67781989D01*
X117033970Y-67875889D01*
X117076012Y-67921287D01*
X117130644Y-67938181D01*
X117263424Y-67969965D01*
X117336785Y-67995694D01*
X117367499Y-68023151D01*
X117372641Y-68050463D01*
X117342284Y-68086323D01*
X117285522Y-68082890D01*
X117122239Y-68042540D01*
X117019521Y-68003432D01*
X116961330Y-67955473D01*
X116931627Y-67888566D01*
X116924382Y-67855589D01*
X116913703Y-67747603D01*
X116921587Y-67665682D01*
X116922838Y-67662121D01*
X116957493Y-67618127D01*
X116992802Y-67638132D01*
G37*
G36*
X116992802Y-77821364D02*
G01*
X117018109Y-77892761D01*
X117024165Y-77965221D01*
X117033970Y-78059121D01*
X117076012Y-78104519D01*
X117130644Y-78121413D01*
X117263424Y-78153197D01*
X117336785Y-78178926D01*
X117367499Y-78206383D01*
X117372641Y-78233695D01*
X117342284Y-78269555D01*
X117285522Y-78266121D01*
X117122239Y-78225772D01*
X117019521Y-78186664D01*
X116961330Y-78138704D01*
X116931627Y-78071797D01*
X116924382Y-78038821D01*
X116913703Y-77930834D01*
X116921587Y-77848913D01*
X116922838Y-77845353D01*
X116957493Y-77801358D01*
X116992802Y-77821364D01*
G37*
G36*
X116598251Y-75020991D02*
G01*
X116598251Y-75156509D01*
X116238159Y-75156509D01*
X116040406Y-75161840D01*
X115902586Y-75177196D01*
X115833046Y-75201624D01*
X115831604Y-75202972D01*
X115806307Y-75267506D01*
X115790014Y-75391194D01*
X115785141Y-75532088D01*
X115785141Y-75814741D01*
X116191696Y-75814741D01*
X116598251Y-75814741D01*
X116598251Y-75951352D01*
X116598251Y-76087963D01*
X116065857Y-76077190D01*
X115533464Y-76066418D01*
X115521392Y-75659863D01*
X115522437Y-75395388D01*
X115548946Y-75197359D01*
X115609192Y-75056714D01*
X115711451Y-74964391D01*
X115863996Y-74911329D01*
X116075102Y-74888466D01*
X116228492Y-74885472D01*
X116598251Y-74885472D01*
X116598251Y-75020991D01*
G37*
G36*
X116598251Y-67857881D02*
G01*
X116598251Y-67993399D01*
X116191696Y-67993399D01*
X115785141Y-67993399D01*
X115785141Y-68148277D01*
X115785141Y-68303155D01*
X116191696Y-68303155D01*
X116598251Y-68303155D01*
X116598251Y-68437319D01*
X116598251Y-68571483D01*
X116201376Y-68582517D01*
X115804501Y-68593552D01*
X115792797Y-68796829D01*
X115781094Y-69000107D01*
X116189672Y-69000107D01*
X116598251Y-69000107D01*
X116598251Y-69136718D01*
X116598251Y-69273328D01*
X116065857Y-69262556D01*
X115533464Y-69251783D01*
X115525157Y-68598880D01*
X115516850Y-67945977D01*
X115628657Y-67834170D01*
X115680416Y-67785388D01*
X115730385Y-67753366D01*
X115795613Y-67734577D01*
X115893153Y-67725498D01*
X116040053Y-67722600D01*
X116169357Y-67722363D01*
X116598251Y-67722363D01*
X116598251Y-67857881D01*
G37*
G36*
X117012885Y-69498256D02*
G01*
X117024165Y-69558930D01*
X117030135Y-69615017D01*
X117059547Y-69651820D01*
X117129659Y-69680364D01*
X117257727Y-69711676D01*
X117266162Y-69713556D01*
X117344990Y-69750174D01*
X117372641Y-69797204D01*
X117345911Y-69840713D01*
X117304882Y-69838784D01*
X117161672Y-69802273D01*
X117077272Y-69789465D01*
X117036579Y-69800963D01*
X117024489Y-69837370D01*
X117024165Y-69849983D01*
X117005653Y-69906009D01*
X116966086Y-69904657D01*
X116917115Y-69851855D01*
X116908007Y-69809074D01*
X116882654Y-69748608D01*
X116849927Y-69735777D01*
X116798594Y-69704784D01*
X116791848Y-69677698D01*
X116822842Y-69626365D01*
X116849927Y-69619619D01*
X116897227Y-69587339D01*
X116908007Y-69542180D01*
X116932217Y-69479114D01*
X116966086Y-69464741D01*
X117012885Y-69498256D01*
G37*
G36*
X117012885Y-70814719D02*
G01*
X117024165Y-70875394D01*
X117030135Y-70931481D01*
X117059547Y-70968283D01*
X117129659Y-70996827D01*
X117257727Y-71028139D01*
X117266162Y-71030020D01*
X117344990Y-71066638D01*
X117372641Y-71113667D01*
X117345911Y-71157176D01*
X117304882Y-71155248D01*
X117161672Y-71118736D01*
X117077272Y-71105928D01*
X117036579Y-71117426D01*
X117024489Y-71153833D01*
X117024165Y-71166446D01*
X117005653Y-71222472D01*
X116966086Y-71221121D01*
X116917115Y-71168318D01*
X116908007Y-71125537D01*
X116882654Y-71065071D01*
X116849927Y-71052241D01*
X116798594Y-71021247D01*
X116791848Y-70994161D01*
X116822842Y-70942828D01*
X116849927Y-70936082D01*
X116897227Y-70903802D01*
X116908007Y-70858643D01*
X116932217Y-70795577D01*
X116966086Y-70781204D01*
X117012885Y-70814719D01*
G37*
G36*
X117163488Y-64700807D02*
G01*
X117276192Y-64749512D01*
X117304882Y-64771377D01*
X117349486Y-64845867D01*
X117372023Y-64953834D01*
X117371860Y-65066865D01*
X117348361Y-65156550D01*
X117314270Y-65191704D01*
X117221695Y-65201730D01*
X117214901Y-65202466D01*
X117096894Y-65180730D01*
X116994552Y-65135972D01*
X116947197Y-65090315D01*
X116913146Y-64974986D01*
X116914211Y-64871823D01*
X117028889Y-64871823D01*
X117030783Y-64980141D01*
X117066587Y-65053850D01*
X117150004Y-65082328D01*
X117221695Y-65083034D01*
X117250981Y-65048205D01*
X117256482Y-64961003D01*
X117246967Y-64866896D01*
X117206926Y-64822717D01*
X117156632Y-64808339D01*
X117068809Y-64812423D01*
X117028889Y-64871823D01*
X116914211Y-64871823D01*
X116914452Y-64848534D01*
X116949442Y-64747154D01*
X116963900Y-64729318D01*
X117049017Y-64692796D01*
X117163488Y-64700807D01*
G37*
G36*
X117163488Y-70276417D02*
G01*
X117276192Y-70325122D01*
X117304882Y-70346986D01*
X117349486Y-70421476D01*
X117372023Y-70529443D01*
X117371860Y-70642475D01*
X117348361Y-70732159D01*
X117314270Y-70767314D01*
X117221695Y-70777340D01*
X117214901Y-70778076D01*
X117096894Y-70756340D01*
X116994552Y-70711582D01*
X116947197Y-70665925D01*
X116913146Y-70550596D01*
X116914211Y-70447433D01*
X117028889Y-70447433D01*
X117030783Y-70555751D01*
X117066587Y-70629460D01*
X117150004Y-70657938D01*
X117221695Y-70658644D01*
X117250981Y-70623815D01*
X117256482Y-70536613D01*
X117246967Y-70442506D01*
X117206926Y-70398327D01*
X117156632Y-70383949D01*
X117068809Y-70388032D01*
X117028889Y-70447433D01*
X116914211Y-70447433D01*
X116914452Y-70424144D01*
X116949442Y-70322763D01*
X116963900Y-70304927D01*
X117049017Y-70268406D01*
X117163488Y-70276417D01*
G37*
G36*
X117198198Y-71313723D02*
G01*
X117308572Y-71351292D01*
X117362954Y-71401659D01*
X117364903Y-71408494D01*
X117361611Y-71446754D01*
X117318542Y-71454253D01*
X117231727Y-71438219D01*
X117113049Y-71419093D01*
X117050208Y-71436716D01*
X117026533Y-71500637D01*
X117024165Y-71557142D01*
X117039131Y-71644003D01*
X117099015Y-71685638D01*
X117130644Y-71693974D01*
X117263518Y-71725752D01*
X117336931Y-71751315D01*
X117367610Y-71778291D01*
X117372641Y-71804309D01*
X117356522Y-71831057D01*
X117297902Y-71835047D01*
X117181379Y-71817073D01*
X117169363Y-71814762D01*
X117049786Y-71785148D01*
X116963288Y-71751931D01*
X116937639Y-71733214D01*
X116910155Y-71638054D01*
X116916742Y-71513953D01*
X116953416Y-71399415D01*
X116975766Y-71364721D01*
X117031391Y-71312321D01*
X117098944Y-71298652D01*
X117198198Y-71313723D01*
G37*
G36*
X117198198Y-75650308D02*
G01*
X117308572Y-75687877D01*
X117362954Y-75738244D01*
X117364903Y-75745079D01*
X117361611Y-75783339D01*
X117318542Y-75790838D01*
X117231727Y-75774804D01*
X117113049Y-75755679D01*
X117050208Y-75773301D01*
X117026533Y-75837223D01*
X117024165Y-75893727D01*
X117039131Y-75980589D01*
X117099015Y-76022223D01*
X117130644Y-76030559D01*
X117263518Y-76062337D01*
X117336931Y-76087900D01*
X117367610Y-76114877D01*
X117372641Y-76140895D01*
X117356522Y-76167642D01*
X117297902Y-76171633D01*
X117181379Y-76153658D01*
X117169363Y-76151347D01*
X117049786Y-76121734D01*
X116963288Y-76088516D01*
X116937639Y-76069800D01*
X116910155Y-75974639D01*
X116916742Y-75850538D01*
X116953416Y-75736001D01*
X116975766Y-75701306D01*
X117031391Y-75648906D01*
X117098944Y-75635238D01*
X117198198Y-75650308D01*
G37*
G36*
X117198198Y-77044211D02*
G01*
X117308572Y-77081780D01*
X117362954Y-77132146D01*
X117364903Y-77138981D01*
X117361611Y-77177242D01*
X117318542Y-77184741D01*
X117231727Y-77168707D01*
X117113049Y-77149581D01*
X117050208Y-77167204D01*
X117026533Y-77231125D01*
X117024165Y-77287630D01*
X117039131Y-77374491D01*
X117099015Y-77416126D01*
X117130644Y-77424462D01*
X117263518Y-77456240D01*
X117336931Y-77481803D01*
X117367610Y-77508779D01*
X117372641Y-77534797D01*
X117356522Y-77561544D01*
X117297902Y-77565535D01*
X117181379Y-77547561D01*
X117169363Y-77545250D01*
X117049786Y-77515636D01*
X116963288Y-77482419D01*
X116937639Y-77463702D01*
X116910155Y-77368542D01*
X116916742Y-77244441D01*
X116953416Y-77129903D01*
X116975766Y-77095209D01*
X117031391Y-77042809D01*
X117098944Y-77029140D01*
X117198198Y-77044211D01*
G37*
G36*
X117000157Y-72428197D02*
G01*
X117026574Y-72516823D01*
X117029262Y-72552622D01*
X117034359Y-72697820D01*
X117058302Y-72562302D01*
X117089684Y-72462765D01*
X117146850Y-72419330D01*
X117171495Y-72414131D01*
X117277033Y-72423459D01*
X117342074Y-72491044D01*
X117370569Y-72622235D01*
X117372641Y-72686428D01*
X117365982Y-72807657D01*
X117344560Y-72860380D01*
X117324241Y-72862595D01*
X117291569Y-72817492D01*
X117268125Y-72723770D01*
X117263936Y-72685131D01*
X117246077Y-72573777D01*
X117219199Y-72528280D01*
X117191687Y-72551919D01*
X117171927Y-72647975D01*
X117171817Y-72649104D01*
X117141379Y-72751696D01*
X117085971Y-72794192D01*
X117020373Y-72782952D01*
X116959363Y-72724340D01*
X116917721Y-72624716D01*
X116908007Y-72535542D01*
X116923903Y-72435166D01*
X116960277Y-72400181D01*
X117000157Y-72428197D01*
G37*
G36*
X116598251Y-77808796D02*
G01*
X116598251Y-77944314D01*
X116238159Y-77944314D01*
X116040406Y-77949645D01*
X115902586Y-77965001D01*
X115833046Y-77989429D01*
X115831604Y-77990777D01*
X115806307Y-78055310D01*
X115790014Y-78178999D01*
X115785141Y-78319893D01*
X115785141Y-78602546D01*
X116191696Y-78602546D01*
X116598251Y-78602546D01*
X116598251Y-78738064D01*
X116598251Y-78873582D01*
X116117423Y-78873582D01*
X115927527Y-78871760D01*
X115762500Y-78866793D01*
X115639657Y-78859432D01*
X115576308Y-78850427D01*
X115575350Y-78850080D01*
X115547119Y-78826394D01*
X115528858Y-78772297D01*
X115518629Y-78674251D01*
X115514494Y-78518716D01*
X115514104Y-78422242D01*
X115522213Y-78162511D01*
X115552581Y-77969583D01*
X115614272Y-77833957D01*
X115716351Y-77746129D01*
X115867882Y-77696597D01*
X116077927Y-77675858D01*
X116228492Y-77673277D01*
X116598251Y-77673277D01*
X116598251Y-77808796D01*
G37*
G36*
X116887182Y-63320348D02*
G01*
X117019103Y-63348392D01*
X117153521Y-63386051D01*
X117266025Y-63426301D01*
X117332206Y-63462117D01*
X117338295Y-63468968D01*
X117365759Y-63552556D01*
X117373417Y-63664118D01*
X117362995Y-63774471D01*
X117336219Y-63854434D01*
X117314270Y-63875241D01*
X117200758Y-63888717D01*
X117079333Y-63860326D01*
X116981548Y-63800855D01*
X116944976Y-63749009D01*
X116911842Y-63623186D01*
X116918393Y-63536078D01*
X116963408Y-63501994D01*
X116966086Y-63501936D01*
X117012316Y-63536365D01*
X117024165Y-63613952D01*
X117051089Y-63716117D01*
X117134144Y-63766353D01*
X117201570Y-63772972D01*
X117243688Y-63737666D01*
X117256482Y-63640199D01*
X117252857Y-63565285D01*
X117229874Y-63521128D01*
X117169368Y-63493328D01*
X117053177Y-63467483D01*
X117033845Y-63463675D01*
X116904675Y-63437260D01*
X116803494Y-63414712D01*
X116762808Y-63404066D01*
X116717051Y-63365285D01*
X116732286Y-63322872D01*
X116782168Y-63308943D01*
X116887182Y-63320348D01*
G37*
G36*
X116887182Y-73929495D02*
G01*
X117019103Y-73957539D01*
X117153521Y-73995197D01*
X117266025Y-74035447D01*
X117332206Y-74071263D01*
X117338295Y-74078114D01*
X117365759Y-74161702D01*
X117373417Y-74273264D01*
X117362995Y-74383618D01*
X117336219Y-74463581D01*
X117314270Y-74484387D01*
X117200758Y-74497863D01*
X117079333Y-74469473D01*
X116981548Y-74410001D01*
X116944976Y-74358156D01*
X116911842Y-74232332D01*
X116918393Y-74145225D01*
X116963408Y-74111140D01*
X116966086Y-74111082D01*
X117012316Y-74145511D01*
X117024165Y-74223098D01*
X117051089Y-74325263D01*
X117134144Y-74375499D01*
X117201570Y-74382119D01*
X117243688Y-74346813D01*
X117256482Y-74249346D01*
X117252857Y-74174431D01*
X117229874Y-74130275D01*
X117169368Y-74102474D01*
X117053177Y-74076629D01*
X117033845Y-74072821D01*
X116904675Y-74046406D01*
X116803494Y-74023858D01*
X116762808Y-74013212D01*
X116717051Y-73974431D01*
X116732286Y-73932018D01*
X116782168Y-73918089D01*
X116887182Y-73929495D01*
G37*
G36*
X117156607Y-67136731D02*
G01*
X117171299Y-67149314D01*
X117206881Y-67218622D01*
X117218557Y-67311077D01*
X117207459Y-67397217D01*
X117174722Y-67447578D01*
X117159683Y-67451326D01*
X117117821Y-67423616D01*
X117102007Y-67333647D01*
X117101604Y-67308064D01*
X117094980Y-67217283D01*
X117073362Y-67196571D01*
X117059858Y-67206548D01*
X117033361Y-67272802D01*
X117030818Y-67359490D01*
X117056797Y-67444313D01*
X117124150Y-67479100D01*
X117150004Y-67482938D01*
X117227244Y-67481410D01*
X117254274Y-67438300D01*
X117256482Y-67395819D01*
X117276235Y-67316043D01*
X117314562Y-67296448D01*
X117355370Y-67328469D01*
X117373651Y-67404452D01*
X117369434Y-67494279D01*
X117342748Y-67567833D01*
X117314270Y-67592314D01*
X117214901Y-67603076D01*
X117096894Y-67581340D01*
X116994552Y-67536582D01*
X116947197Y-67490925D01*
X116912314Y-67365728D01*
X116915725Y-67223169D01*
X116931509Y-67164097D01*
X116985536Y-67115502D01*
X117072384Y-67105652D01*
X117156607Y-67136731D01*
G37*
G36*
X117156607Y-68414475D02*
G01*
X117171299Y-68427058D01*
X117206881Y-68496366D01*
X117218557Y-68588821D01*
X117207459Y-68674961D01*
X117174722Y-68725322D01*
X117159683Y-68729070D01*
X117117821Y-68701360D01*
X117102007Y-68611391D01*
X117101604Y-68585808D01*
X117094980Y-68495027D01*
X117073362Y-68474315D01*
X117059858Y-68484292D01*
X117033361Y-68550545D01*
X117030818Y-68637234D01*
X117056797Y-68722056D01*
X117124150Y-68756844D01*
X117150004Y-68760681D01*
X117227244Y-68759154D01*
X117254274Y-68716044D01*
X117256482Y-68673563D01*
X117276235Y-68593786D01*
X117314562Y-68574192D01*
X117355370Y-68606213D01*
X117373651Y-68682196D01*
X117369434Y-68772023D01*
X117342748Y-68845577D01*
X117314270Y-68870058D01*
X117214901Y-68880819D01*
X117096894Y-68859084D01*
X116994552Y-68814326D01*
X116947197Y-68768669D01*
X116912314Y-68643471D01*
X116915725Y-68500913D01*
X116931509Y-68441840D01*
X116985536Y-68393246D01*
X117072384Y-68383396D01*
X117156607Y-68414475D01*
G37*
G36*
X117156607Y-73448011D02*
G01*
X117171299Y-73460594D01*
X117206881Y-73529902D01*
X117218557Y-73622357D01*
X117207459Y-73708497D01*
X117174722Y-73758859D01*
X117159683Y-73762607D01*
X117117821Y-73734897D01*
X117102007Y-73644927D01*
X117101604Y-73619344D01*
X117094980Y-73528563D01*
X117073362Y-73507851D01*
X117059858Y-73517829D01*
X117033361Y-73584082D01*
X117030818Y-73670771D01*
X117056797Y-73755593D01*
X117124150Y-73790380D01*
X117150004Y-73794218D01*
X117227244Y-73792691D01*
X117254274Y-73749581D01*
X117256482Y-73707099D01*
X117276235Y-73627323D01*
X117314562Y-73607729D01*
X117355370Y-73639749D01*
X117373651Y-73715732D01*
X117369434Y-73805560D01*
X117342748Y-73879113D01*
X117314270Y-73903595D01*
X117214901Y-73914356D01*
X117096894Y-73892621D01*
X116994552Y-73847863D01*
X116947197Y-73802205D01*
X116912314Y-73677008D01*
X116915725Y-73534450D01*
X116931509Y-73475377D01*
X116985536Y-73426782D01*
X117072384Y-73416932D01*
X117156607Y-73448011D01*
G37*
G36*
X116978326Y-65221675D02*
G01*
X117014509Y-65239146D01*
X117083223Y-65290374D01*
X117171274Y-65374104D01*
X117260597Y-65470538D01*
X117333124Y-65559875D01*
X117370788Y-65622317D01*
X117372641Y-65631621D01*
X117338829Y-65658071D01*
X117256656Y-65670153D01*
X117248887Y-65670229D01*
X117125133Y-65670229D01*
X117248887Y-65797910D01*
X117322994Y-65880822D01*
X117367193Y-65942730D01*
X117372641Y-65957777D01*
X117338171Y-65971169D01*
X117249612Y-65971104D01*
X117171588Y-65963291D01*
X117029764Y-65941408D01*
X116949256Y-65918654D01*
X116914138Y-65888616D01*
X116908007Y-65857146D01*
X116941282Y-65832828D01*
X117024165Y-65833366D01*
X117109296Y-65839232D01*
X117133166Y-65817920D01*
X117095847Y-65762047D01*
X117025542Y-65690907D01*
X116948585Y-65600657D01*
X116940915Y-65544629D01*
X117002119Y-65523751D01*
X117096359Y-65532285D01*
X117237123Y-65556173D01*
X117062925Y-65403429D01*
X116969543Y-65311630D01*
X116922623Y-65244996D01*
X116924705Y-65212140D01*
X116978326Y-65221675D01*
G37*
G36*
X117137841Y-66580643D02*
G01*
X117243932Y-66608657D01*
X117319378Y-66642754D01*
X117324241Y-66646422D01*
X117357781Y-66714375D01*
X117371139Y-66823774D01*
X117364701Y-66941405D01*
X117338849Y-67034055D01*
X117319469Y-67060058D01*
X117238348Y-67088339D01*
X117159320Y-67053733D01*
X117096619Y-66969832D01*
X117064479Y-66850232D01*
X117062885Y-66815000D01*
X117082642Y-66735243D01*
X117120964Y-66715655D01*
X117163920Y-66745042D01*
X117178938Y-66838831D01*
X117179043Y-66851174D01*
X117189353Y-66940738D01*
X117214704Y-66985518D01*
X117220100Y-66986692D01*
X117244671Y-66952256D01*
X117250548Y-66863398D01*
X117249140Y-66841494D01*
X117233216Y-66743773D01*
X117195072Y-66698937D01*
X117130644Y-66684044D01*
X117060303Y-66682923D01*
X117030558Y-66715661D01*
X117024182Y-66803141D01*
X117024165Y-66813109D01*
X117009983Y-66910492D01*
X116977318Y-66940117D01*
X116940992Y-66904136D01*
X116915827Y-66804700D01*
X116915045Y-66797263D01*
X116923450Y-66664666D01*
X116981839Y-66590940D01*
X117092026Y-66574318D01*
X117137841Y-66580643D01*
G37*
G36*
X117137841Y-72891923D02*
G01*
X117243932Y-72919938D01*
X117319378Y-72954034D01*
X117324241Y-72957703D01*
X117357781Y-73025656D01*
X117371139Y-73135055D01*
X117364701Y-73252686D01*
X117338849Y-73345336D01*
X117319469Y-73371339D01*
X117238348Y-73399620D01*
X117159320Y-73365013D01*
X117096619Y-73281113D01*
X117064479Y-73161512D01*
X117062885Y-73126280D01*
X117082642Y-73046524D01*
X117120964Y-73026936D01*
X117163920Y-73056323D01*
X117178938Y-73150112D01*
X117179043Y-73162454D01*
X117189353Y-73252019D01*
X117214704Y-73296799D01*
X117220100Y-73297972D01*
X117244671Y-73263537D01*
X117250548Y-73174679D01*
X117249140Y-73152774D01*
X117233216Y-73055054D01*
X117195072Y-73010217D01*
X117130644Y-72995324D01*
X117060303Y-72994203D01*
X117030558Y-73026941D01*
X117024182Y-73114421D01*
X117024165Y-73124389D01*
X117009983Y-73221773D01*
X116977318Y-73251398D01*
X116940992Y-73215416D01*
X116915827Y-73115981D01*
X116915045Y-73108544D01*
X116923450Y-72975947D01*
X116981839Y-72902220D01*
X117092026Y-72885598D01*
X117137841Y-72891923D01*
G37*
G36*
X117217112Y-75090675D02*
G01*
X117259884Y-75099140D01*
X117390358Y-75133149D01*
X117489825Y-75171551D01*
X117532010Y-75201170D01*
X117558402Y-75275835D01*
X117566400Y-75367871D01*
X117557323Y-75449890D01*
X117532489Y-75494502D01*
X117517839Y-75495550D01*
X117480181Y-75449590D01*
X117457658Y-75361520D01*
X117443605Y-75290083D01*
X117405859Y-75248240D01*
X117323670Y-75220245D01*
X117251264Y-75204899D01*
X117119989Y-75186720D01*
X117048654Y-75203612D01*
X117024302Y-75264511D01*
X117030783Y-75356971D01*
X117066587Y-75430680D01*
X117150004Y-75459157D01*
X117227244Y-75457630D01*
X117254274Y-75414520D01*
X117256482Y-75372038D01*
X117276819Y-75291440D01*
X117316899Y-75272668D01*
X117356722Y-75292198D01*
X117368207Y-75361889D01*
X117365298Y-75417866D01*
X117354155Y-75507691D01*
X117325359Y-75549222D01*
X117256101Y-75560139D01*
X117182840Y-75559287D01*
X117035079Y-75534442D01*
X116946615Y-75462964D01*
X116909997Y-75337481D01*
X116908007Y-75287393D01*
X116921854Y-75166939D01*
X116970691Y-75097905D01*
X117065462Y-75074436D01*
X117217112Y-75090675D01*
G37*
G36*
X117217112Y-76484578D02*
G01*
X117259884Y-76493042D01*
X117390358Y-76527052D01*
X117489825Y-76565453D01*
X117532010Y-76595072D01*
X117558402Y-76669737D01*
X117566400Y-76761774D01*
X117557323Y-76843793D01*
X117532489Y-76888404D01*
X117517839Y-76889452D01*
X117480181Y-76843492D01*
X117457658Y-76755422D01*
X117443605Y-76683986D01*
X117405859Y-76642142D01*
X117323670Y-76614147D01*
X117251264Y-76598801D01*
X117119989Y-76580622D01*
X117048654Y-76597514D01*
X117024302Y-76658414D01*
X117030783Y-76750873D01*
X117066587Y-76824582D01*
X117150004Y-76853060D01*
X117227244Y-76851532D01*
X117254274Y-76808422D01*
X117256482Y-76765941D01*
X117276819Y-76685342D01*
X117316899Y-76666570D01*
X117356722Y-76686101D01*
X117368207Y-76755791D01*
X117365298Y-76811768D01*
X117354155Y-76901593D01*
X117325359Y-76943124D01*
X117256101Y-76954041D01*
X117182840Y-76953190D01*
X117035079Y-76928345D01*
X116946615Y-76856867D01*
X116909997Y-76731384D01*
X116908007Y-76681295D01*
X116921854Y-76560842D01*
X116970691Y-76491808D01*
X117065462Y-76468338D01*
X117217112Y-76484578D01*
G37*
G36*
X117160541Y-78326536D02*
G01*
X117167452Y-78328388D01*
X117271607Y-78368461D01*
X117339781Y-78416885D01*
X117349300Y-78431895D01*
X117370715Y-78532617D01*
X117372522Y-78648992D01*
X117357030Y-78752424D01*
X117326548Y-78814316D01*
X117317990Y-78819545D01*
X117245164Y-78825339D01*
X117130307Y-78812596D01*
X116997010Y-78786716D01*
X116868861Y-78753104D01*
X116769451Y-78717163D01*
X116722369Y-78684295D01*
X116721872Y-78683014D01*
X116724793Y-78656415D01*
X116763677Y-78646059D01*
X116849161Y-78652470D01*
X116991881Y-78676173D01*
X117130644Y-78703155D01*
X117213833Y-78715188D01*
X117248775Y-78692698D01*
X117256394Y-78616540D01*
X117256482Y-78588026D01*
X117249412Y-78496358D01*
X117231954Y-78448924D01*
X117227443Y-78447139D01*
X117170347Y-78437583D01*
X117111284Y-78423263D01*
X117051238Y-78416636D01*
X117027662Y-78454077D01*
X117024165Y-78523817D01*
X117011470Y-78613462D01*
X116975766Y-78631826D01*
X116930920Y-78581732D01*
X116916747Y-78492239D01*
X116935497Y-78395978D01*
X116956835Y-78356972D01*
X117000072Y-78313908D01*
X117058633Y-78305031D01*
X117160541Y-78326536D01*
G37*
G36*
X115945806Y-73453275D02*
G01*
X116121368Y-73455586D01*
X116244968Y-73461340D01*
X116329342Y-73472090D01*
X116387228Y-73489394D01*
X116431363Y-73514806D01*
X116470253Y-73546237D01*
X116519872Y-73593157D01*
X116552260Y-73643048D01*
X116571886Y-73713625D01*
X116583217Y-73822604D01*
X116590724Y-73987700D01*
X116592179Y-74029601D01*
X116597476Y-74206764D01*
X116596370Y-74324834D01*
X116585124Y-74402110D01*
X116560001Y-74456893D01*
X116517264Y-74507483D01*
X116488679Y-74536367D01*
X116427079Y-74593413D01*
X116368330Y-74628034D01*
X116291157Y-74645808D01*
X116174281Y-74652314D01*
X116043238Y-74653155D01*
X115882225Y-74651797D01*
X115778374Y-74643968D01*
X115711411Y-74624038D01*
X115661062Y-74586375D01*
X115614345Y-74534026D01*
X115561251Y-74461426D01*
X115530917Y-74385198D01*
X115517236Y-74280586D01*
X115514104Y-74127471D01*
X115514104Y-73840046D01*
X115649622Y-73840046D01*
X115785141Y-73840046D01*
X115785141Y-74111082D01*
X115785141Y-74382119D01*
X116057743Y-74382119D01*
X116330346Y-74382119D01*
X116319100Y-74062683D01*
X116307854Y-73743247D01*
X115678662Y-73732608D01*
X115049470Y-73721969D01*
X115049470Y-73587410D01*
X115049470Y-73452850D01*
X115705543Y-73452850D01*
X115945806Y-73453275D01*
G37*
G36*
X116215268Y-76319995D02*
G01*
X116318843Y-76329549D01*
X116388801Y-76352535D01*
X116447043Y-76394734D01*
X116485070Y-76431275D01*
X116539408Y-76489977D01*
X116572662Y-76546626D01*
X116589804Y-76621644D01*
X116595804Y-76735453D01*
X116595796Y-76886229D01*
X116590886Y-77051437D01*
X116579930Y-77195109D01*
X116564969Y-77293513D01*
X116559074Y-77313094D01*
X116485122Y-77407092D01*
X116366080Y-77476087D01*
X116233696Y-77504696D01*
X116174372Y-77499487D01*
X116070734Y-77453913D01*
X115974074Y-77377916D01*
X115925434Y-77314332D01*
X115895222Y-77236245D01*
X115877731Y-77121823D01*
X115868313Y-76973369D01*
X115854380Y-76666570D01*
X115992302Y-76666570D01*
X116130224Y-76666570D01*
X116141600Y-76947286D01*
X116149480Y-77093015D01*
X116162326Y-77178558D01*
X116186021Y-77221165D01*
X116226450Y-77238085D01*
X116241645Y-77240579D01*
X116283830Y-77243489D01*
X116309310Y-77227919D01*
X116321487Y-77179404D01*
X116323766Y-77083479D01*
X116319550Y-76925679D01*
X116319084Y-76911463D01*
X116307854Y-76569771D01*
X116081950Y-76558062D01*
X115931732Y-76556049D01*
X115834418Y-76577379D01*
X115778668Y-76635040D01*
X115753139Y-76742022D01*
X115746491Y-76911315D01*
X115746421Y-76942348D01*
X115746421Y-77247363D01*
X115630263Y-77247363D01*
X115514104Y-77247363D01*
X115514104Y-76895909D01*
X115515490Y-76727566D01*
X115522896Y-76616661D01*
X115541191Y-76543199D01*
X115575246Y-76487186D01*
X115627284Y-76431275D01*
X115688937Y-76374923D01*
X115749293Y-76341218D01*
X115830252Y-76324379D01*
X115953716Y-76318627D01*
X116056177Y-76318094D01*
X116215268Y-76319995D01*
G37*
G36*
X116079846Y-70632073D02*
G01*
X116243746Y-70640706D01*
X116350319Y-70654096D01*
X116419667Y-70678024D01*
X116471895Y-70718276D01*
X116504805Y-70754324D01*
X116548934Y-70812782D01*
X116576542Y-70876318D01*
X116591423Y-70964312D01*
X116597370Y-71096145D01*
X116598251Y-71231616D01*
X116597048Y-71404365D01*
X116590431Y-71518908D01*
X116573882Y-71594471D01*
X116542885Y-71650283D01*
X116492924Y-71705569D01*
X116485070Y-71713451D01*
X116353957Y-71804579D01*
X116211895Y-71821477D01*
X116055741Y-71768326D01*
X115950691Y-71670981D01*
X115887334Y-71510943D01*
X115866745Y-71291449D01*
X115869484Y-71207119D01*
X115878844Y-71085386D01*
X115896187Y-71021995D01*
X115932999Y-70997926D01*
X115998098Y-70994161D01*
X116114257Y-70994161D01*
X116133616Y-71265198D01*
X116146219Y-71408326D01*
X116162836Y-71491498D01*
X116190020Y-71532154D01*
X116234324Y-71547736D01*
X116240095Y-71548608D01*
X116282146Y-71550821D01*
X116307887Y-71533052D01*
X116321313Y-71480646D01*
X116326423Y-71378948D01*
X116327214Y-71229172D01*
X116327214Y-70897363D01*
X116060320Y-70897363D01*
X115918337Y-70899852D01*
X115827301Y-70916707D01*
X115775891Y-70962008D01*
X115752783Y-71049836D01*
X115746656Y-71194271D01*
X115746421Y-71287725D01*
X115746421Y-71555594D01*
X115630263Y-71555594D01*
X115514104Y-71555594D01*
X115514104Y-71204140D01*
X115515418Y-71036099D01*
X115522710Y-70925381D01*
X115541006Y-70851877D01*
X115575332Y-70795479D01*
X115630715Y-70736076D01*
X115631218Y-70735572D01*
X115691258Y-70679019D01*
X115746189Y-70645240D01*
X115816861Y-70629424D01*
X115924125Y-70626761D01*
X116079846Y-70632073D01*
G37*
G36*
X116569211Y-79152072D02*
G01*
X116733769Y-79163979D01*
X116745263Y-79382670D01*
X116755379Y-79509281D01*
X116776315Y-79581895D01*
X116819405Y-79623952D01*
X116874627Y-79650184D01*
X117016552Y-79747856D01*
X117119572Y-79895356D01*
X117178437Y-80072767D01*
X117187897Y-80260173D01*
X117142701Y-80437657D01*
X117101615Y-80511210D01*
X117018677Y-80612678D01*
X116931002Y-80692285D01*
X116914892Y-80703047D01*
X116820282Y-80760453D01*
X117030469Y-80856679D01*
X117300091Y-81015484D01*
X117505409Y-81216752D01*
X117648261Y-81463079D01*
X117730485Y-81757058D01*
X117744596Y-81864665D01*
X117770530Y-82126021D01*
X117590945Y-82126021D01*
X117411360Y-82126021D01*
X117411360Y-81985315D01*
X117377270Y-81731466D01*
X117281026Y-81509435D01*
X117131667Y-81328671D01*
X116938233Y-81198623D01*
X116709763Y-81128742D01*
X116582954Y-81119314D01*
X116517096Y-81123028D01*
X116396348Y-81129837D01*
X116252868Y-81169305D01*
X116120110Y-81249566D01*
X116035041Y-81319666D01*
X115871793Y-81511549D01*
X115774135Y-81737707D01*
X115747272Y-81942104D01*
X115746421Y-82126021D01*
X115572183Y-82126021D01*
X115397946Y-82126021D01*
X115397754Y-81922744D01*
X115434588Y-81643214D01*
X115539710Y-81381805D01*
X115704246Y-81150102D01*
X115919321Y-80959691D01*
X116176060Y-80822156D01*
X116264252Y-80791602D01*
X116302565Y-80772052D01*
X116288596Y-80741752D01*
X116215350Y-80686680D01*
X116210107Y-80683094D01*
X116056317Y-80537213D01*
X115967251Y-80363121D01*
X115951450Y-80242068D01*
X116296197Y-80242068D01*
X116361551Y-80355029D01*
X116390515Y-80380833D01*
X116517096Y-80450181D01*
X116639043Y-80446493D01*
X116735131Y-80398550D01*
X116809450Y-80309105D01*
X116836008Y-80189208D01*
X116814133Y-80068930D01*
X116744513Y-79979284D01*
X116607068Y-79924152D01*
X116469603Y-79942931D01*
X116378109Y-80003197D01*
X116301518Y-80118746D01*
X116296197Y-80242068D01*
X115951450Y-80242068D01*
X115942661Y-80174738D01*
X115982297Y-79985986D01*
X116085909Y-79810784D01*
X116228087Y-79680081D01*
X116329061Y-79604830D01*
X116381619Y-79543164D01*
X116401552Y-79465373D01*
X116404653Y-79347896D01*
X116404653Y-79140166D01*
X116569211Y-79152072D01*
G37*
D15*
%TO.C,C5*%
X104201248Y-85265000D02*
X104723752Y-85265000D01*
X104201248Y-86735000D02*
X104723752Y-86735000D01*
%TO.C,C6*%
X100148752Y-85090000D02*
X98726248Y-85090000D01*
X100148752Y-86910000D02*
X98726248Y-86910000D01*
%TO.C,R3*%
X90727064Y-85265000D02*
X90272936Y-85265000D01*
X90727064Y-86735000D02*
X90272936Y-86735000D01*
D16*
%TO.C,U1*%
X82800000Y-60200000D02*
X83949987Y-60200000D01*
X82800000Y-85800000D02*
X82800000Y-60200000D01*
X83949987Y-60200000D02*
X83949987Y-60500000D01*
X83949987Y-60500000D02*
X83949987Y-85500000D01*
X83949987Y-60500000D02*
X84218847Y-60500000D01*
X83949987Y-85500000D02*
X84218847Y-85500000D01*
X83949987Y-85800000D02*
X82800000Y-85800000D01*
X83949987Y-85800000D02*
X83949987Y-85500000D01*
D17*
X87999949Y-83200076D02*
G75*
G02*
X87799949Y-83200076I-100000J0D01*
G01*
X87799949Y-83200076D02*
G75*
G02*
X87999949Y-83200076I100000J0D01*
G01*
D18*
X88554991Y-85799873D02*
G75*
G02*
X88494997Y-85799873I-29997J0D01*
G01*
X88494997Y-85799873D02*
G75*
G02*
X88554991Y-85799873I29997J0D01*
G01*
D16*
%TO.C,CON1*%
X93444044Y-67868809D02*
X93444044Y-66131090D01*
X95349047Y-83921996D02*
X100683058Y-83921996D01*
X98135560Y-62077953D02*
X95606198Y-62077953D01*
X100683058Y-62077953D02*
X98864542Y-62077953D01*
X100683058Y-63618821D02*
X100683058Y-62077953D01*
X100683058Y-67618821D02*
X100683058Y-65881102D01*
X100683058Y-83921996D02*
X100683058Y-82381153D01*
D18*
X92905030Y-83924994D02*
G75*
G02*
X92845034Y-83924994I-29998J0D01*
G01*
X92845034Y-83924994D02*
G75*
G02*
X92905030Y-83924994I29998J0D01*
G01*
%TD*%
M02*
