%TF.GenerationSoftware,KiCad,Pcbnew,8.0.7*%
%TF.CreationDate,2025-04-01T17:50:48+03:00*%
%TF.ProjectId,RibbonExtentionCard,52696262-6f6e-4457-9874-656e74696f6e,rev?*%
%TF.SameCoordinates,Original*%
%TF.FileFunction,Soldermask,Bot*%
%TF.FilePolarity,Negative*%
%FSLAX46Y46*%
G04 Gerber Fmt 4.6, Leading zero omitted, Abs format (unit mm)*
G04 Created by KiCad (PCBNEW 8.0.7) date 2025-04-01 17:50:48*
%MOMM*%
%LPD*%
G01*
G04 APERTURE LIST*
%ADD10C,3.200000*%
%ADD11C,0.500000*%
%ADD12C,1.100025*%
%ADD13C,1.600000*%
G04 APERTURE END LIST*
D10*
%TO.C,H8*%
X178000000Y-73000000D03*
%TD*%
%TO.C,H2*%
X110100000Y-61000000D03*
%TD*%
D11*
%TO.C,mouse-bite-3mm-slot*%
X130500000Y-82512000D03*
X133500000Y-82512000D03*
X133500000Y-81762000D03*
X130500000Y-81750000D03*
X130500000Y-81000000D03*
X133500000Y-81000000D03*
X130500000Y-80250000D03*
X133500000Y-80250000D03*
X130500000Y-79476000D03*
X133500000Y-79476000D03*
%TD*%
D10*
%TO.C,H1*%
X110100000Y-85000000D03*
%TD*%
D11*
%TO.C,mouse-bite-3mm-slot*%
X143250000Y-66512000D03*
X146250000Y-66512000D03*
X146250000Y-65762000D03*
X143250000Y-65750000D03*
X143250000Y-65000000D03*
X146250000Y-65000000D03*
X143250000Y-64250000D03*
X146250000Y-64250000D03*
X143250000Y-63476000D03*
X146250000Y-63476000D03*
%TD*%
D10*
%TO.C,H3*%
X128000000Y-73000000D03*
%TD*%
D11*
%TO.C,mouse-bite-3mm-slot*%
X143250000Y-82512000D03*
X146250000Y-82512000D03*
X146250000Y-81762000D03*
X143250000Y-81750000D03*
X143250000Y-81000000D03*
X146250000Y-81000000D03*
X143250000Y-80250000D03*
X146250000Y-80250000D03*
X143250000Y-79476000D03*
X146250000Y-79476000D03*
%TD*%
D10*
%TO.C,H6*%
X158000000Y-73000000D03*
%TD*%
%TO.C,H7*%
X180000000Y-61000000D03*
%TD*%
%TO.C,H4*%
X140000000Y-73000000D03*
%TD*%
%TO.C,H5*%
X180000000Y-85000000D03*
%TD*%
D11*
%TO.C,mouse-bite-3mm-slot*%
X161000000Y-66512000D03*
X164000000Y-66512000D03*
X164000000Y-65762000D03*
X161000000Y-65750000D03*
X161000000Y-65000000D03*
X164000000Y-65000000D03*
X161000000Y-64250000D03*
X164000000Y-64250000D03*
X161000000Y-63476000D03*
X164000000Y-63476000D03*
%TD*%
%TO.C,mouse-bite-3mm-slot*%
X161000000Y-82512000D03*
X164000000Y-82512000D03*
X164000000Y-81762000D03*
X161000000Y-81750000D03*
X161000000Y-81000000D03*
X164000000Y-81000000D03*
X161000000Y-80250000D03*
X164000000Y-80250000D03*
X161000000Y-79476000D03*
X164000000Y-79476000D03*
%TD*%
D12*
%TO.C,CON1*%
X98500127Y-83000000D03*
D13*
X98500127Y-63000000D03*
%TD*%
D11*
%TO.C,mouse-bite-3mm-slot*%
X130500000Y-66512000D03*
X133500000Y-66512000D03*
X133500000Y-65762000D03*
X130500000Y-65750000D03*
X130500000Y-65000000D03*
X133500000Y-65000000D03*
X130500000Y-64250000D03*
X133500000Y-64250000D03*
X130500000Y-63476000D03*
X133500000Y-63476000D03*
%TD*%
M02*
